%
T1C.01181F095S3
X012638Y00937
X014449Y009016
X014606Y005906
X01689Y005787
X016969Y007362
X017756Y004606
X017756Y005787
X017913Y009016
X020276Y007362
X021614Y007795
X022402Y008583
X023543Y004606
X025157Y007441
X02563Y007913
X026693Y009409
X027283Y006339
X027283Y007205
X027402Y009409
X027425Y004685
X027441Y008465
X028071Y007756
X028425Y00815
X028976Y004449
X029055Y00815
X027047Y010787
X026142Y009882
X024764Y011732
X024449Y009882
X022756Y009882
X021772Y010866
X019724Y010197
X019134Y011614
X01815Y011378
X016457Y011732
X015669Y010945
X015669Y010354
X009685Y013071
X009685Y012571
X011063Y013386
X01248Y012165
X013937Y012165
X015512Y013346
X016693Y013346
X016929Y014409
X018386Y013346
X020236Y013189
X020669Y011969
X021732Y012953
X021969Y014055
X023701Y013425
X024567Y013937
X026378Y012362
X027126Y013504
X026929Y016437
X025669Y014803
X023268Y014724
X022008Y014528
X021654Y015472
X020079Y01689
X018622Y015433
X018386Y014488
X01752Y015512
X016693Y01689
X015197Y015709
X006201Y015866
X005433Y014882
X005787Y018543
X011496Y019134
X012913Y018031
X013031Y019134
X013898Y018268
X015079Y018701
X015079Y017008
X015846Y019291
X015866Y018504
X01622Y017598
X016614Y018898
X017992Y019055
X018622Y01752
X020433Y019331
X021181Y018031
X021181Y017205
X023307Y019331
X025433Y019331
X026181Y019331
X027402Y019331
X028543Y019331
X028976Y020354
X028543Y021457
X027362Y021457
X026181Y021457
X025Y021457
X023819Y021457
X022638Y021457
X021457Y021457
X020276Y021457
X019094Y021457
X017913Y021457
X017638Y019449
X015118Y020039
X014803Y019488
X014331Y021535
X011181Y021811
X01063Y020551
X009488Y020669
X007795Y021614
X007795Y020512
X005748Y019724
X007795Y022992
X008858Y022087
X009528Y023661
X009764Y022638
X01126Y023189
X011299Y022283
X012165Y022283
X01252Y022559
X012992Y022323
X014449Y02374
X017913Y023819
X018504Y022638
X019094Y023819
X019685Y022638
X020276Y023819
X020866Y022638
X021457Y023819
X022047Y022638
X022638Y023819
X023228Y022638
X023819Y023819
X024409Y022638
X025Y023819
X025591Y022638
X026181Y023819
X026772Y022638
X027362Y023819
X027953Y022638
X028543Y023819
X029134Y022638
X029134Y025
X028543Y026181
X028268Y026772
X027953Y025
X027874Y026181
X027362Y026181
X026772Y025
X026181Y026181
X026102Y026929
X025591Y025
X025Y026181
X024409Y025
X023819Y026181
X023228Y025
X022638Y026181
X022047Y025
X021457Y026181
X020866Y025
X020276Y026181
X019685Y025
X019094Y026181
X018504Y025
X017913Y026181
X015591Y026496
X014331Y026496
X01252Y025512
X011732Y026299
X011339Y025039
X004803Y025945
X006024Y02811
X006417Y028858
X009291Y028665
X013622Y028701
X01374Y027224
X015157Y028701
X017953Y027953
X017953Y029134
X019094Y029134
X019291Y028228
X020276Y028543
X021457Y028543
X022638Y028543
X023622Y027835
X023819Y029134
X024409Y028307
X025Y029134
X026102Y028307
X026102Y02752
X026181Y029134
X027874Y027776
X027953Y029134
X028268Y027441
X029134Y029134
X029134Y027362
T2C.03543F197S55
X008858Y013984
X017205Y010591
X017913Y010787
X02311Y013898
X027717Y013071
X027717Y014488
X024724Y01563
X024724Y016496
X022992Y017205
X020551Y015906
X008858Y014984
X008858Y015984
X004803Y02689
X027165Y02874
T3C.03937F197S55
X009836Y011071
X009836Y012071
X010236Y014071
X010636Y012071
X010636Y011071
M30
