*
*
G04 PADS 9.5 Build Number: 522968 generated Gerber (RS-274-X) file*
G04 PC Version=2.1*
*
%IN "BORNE"*%
*
%MOIN*%
*
%FSLAX35Y35*%
*
*
*
*
G04 PC Standard Apertures*
*
*
G04 Thermal Relief Aperture macro.*
%AMTER*
1,1,$1,0,0*
1,0,$1-$2,0,0*
21,0,$3,$4,0,0,45*
21,0,$3,$4,0,0,135*
%
*
*
G04 Annular Aperture macro.*
%AMANN*
1,1,$1,0,0*
1,0,$2,0,0*
%
*
*
G04 Odd Aperture macro.*
%AMODD*
1,1,$1,0,0*
1,0,$1-0.005,0,0*
%
*
*
G04 PC Custom Aperture Macros*
*
*
*
*
*
*
G04 PC Aperture Table*
*
%ADD018R,0.01969X0.01969*%
%ADD065C,0.01181*%
%ADD092R,0.04331X0.0748*%
%ADD097C,0.00394*%
%ADD217C,0.001*%
%ADD238R,0.0315X0.01575*%
%ADD247R,0.03543X0.01969*%
%ADD271R,0.09055X0.05118*%
%ADD272R,0.0315X0.01181*%
%ADD289C,0.00039*%
%ADD328R,0.03346X0.03543*%
%ADD329R,0.03543X0.03346*%
%ADD330R,0.02047X0.02047*%
%ADD333R,0.04921X0.03543*%
%ADD335R,0.05118X0.01378*%
%ADD336R,0.0748X0.05118*%
%ADD337R,0.06299X0.08661*%
%ADD338R,0.06693X0.03937*%
%ADD342R,0.02362X0.01102*%
%ADD343R,0.08465X0.02165*%
%ADD344R,0.05512X0.01102*%
%ADD345R,0.01102X0.05512*%
%ADD346R,0.02283X0.01181*%
%ADD350R,0.03543X0.01102*%
%ADD352R,0.03098X0.01102*%
%ADD353R,0.01102X0.03098*%
%ADD355R,0.03543X0.04921*%
%ADD386R,0.04921X0.02953*%
%ADD387R,0.02953X0.04921*%
%ADD400R,0.0374X0.03346*%
%ADD401R,0.01969X0.03543*%
%ADD402O,0.01378X0.03839*%
%ADD403C,0.03071*%
%ADD405R,0.0185X0.0185*%
%ADD412R,0.03937X0.11417*%
%ADD419R,0.01575X0.0315*%
*
*
*
*
G04 PC Circuitry*
G04 Layer Name BORNE - circuitry*
%LPD*%
*
*
G04 PC Custom Flashes*
G04 Layer Name BORNE - flashes*
%LPD*%
*
*
G04 PC Circuitry*
G04 Layer Name BORNE - circuitry*
%LPD*%
*
G54D18*
G01X3678413Y158504D03*
Y164409D03*
X3671327D03*
Y158504D03*
G54D65*
X3767126Y75394D02*
X3960039D01*
Y39961*
X3767126*
Y75394*
Y63583D02*
X3960039D01*
X3767126Y51772D02*
X3960039D01*
G54D92*
X3596819Y94921D03*
X3591819Y71299D03*
X3586819Y94921D03*
X3581819Y71299D03*
X3576819Y94921D03*
X3571819Y71299D03*
G54D97*
X3771063Y60162D02*
X3772495Y54995D01*
X3773926Y60162D02*
X3772495Y54995D01*
X3777684Y58440D02*
Y54995D01*
Y57702D02*
X3777326Y58194D01*
X3776969Y58440*
X3776432*
X3776074Y58194*
X3775716Y57702*
X3775537Y56964*
Y56471*
X3775716Y55733*
X3776074Y55241*
X3776432Y54995*
X3776969*
X3777326Y55241*
X3777684Y55733*
X3779295Y60162D02*
Y54995D01*
X3780906Y60162D02*
X3781084Y59916D01*
X3781263Y60162*
X3781084Y60408*
X3780906Y60162*
X3781084Y58440D02*
Y54995D01*
X3785021Y60162D02*
Y54995D01*
Y57702D02*
X3784664Y58194D01*
X3784306Y58440*
X3783769*
X3783411Y58194*
X3783053Y57702*
X3782874Y56964*
Y56471*
X3783053Y55733*
X3783411Y55241*
X3783769Y54995*
X3784306*
X3784664Y55241*
X3785021Y55733*
X3788780Y58440D02*
Y54995D01*
Y57702D02*
X3788422Y58194D01*
X3788064Y58440*
X3787527*
X3787169Y58194*
X3786811Y57702*
X3786632Y56964*
Y56471*
X3786811Y55733*
X3787169Y55241*
X3787527Y54995*
X3788064*
X3788422Y55241*
X3788780Y55733*
X3790927Y60162D02*
Y55979D01*
X3791106Y55241*
X3791464Y54995*
X3791822*
X3790390Y58440D02*
X3791643D01*
X3793432Y60162D02*
X3793611Y59916D01*
X3793790Y60162*
X3793611Y60408*
X3793432Y60162*
X3793611Y58440D02*
Y54995D01*
X3796296Y58440D02*
X3795938Y58194D01*
X3795580Y57702*
X3795401Y56964*
Y56471*
X3795580Y55733*
X3795938Y55241*
X3796296Y54995*
X3796832*
X3796832D02*
X3797190Y55241D01*
X3797548Y55733*
X3797727Y56471*
Y56964*
X3797548Y57702*
X3797190Y58194*
X3796832Y58440*
X3796832D02*
X3796296D01*
X3799338D02*
Y54995D01*
Y57456D02*
X3799875Y58194D01*
X3800233Y58440*
X3800770*
X3801127Y58194*
X3801306Y57456*
Y54995*
X3807212Y58440D02*
X3807033Y58194D01*
X3807212Y57948*
X3807391Y58194*
X3807212Y58440*
Y55487D02*
X3807033Y55241D01*
X3807212Y54995*
X3807391Y55241*
X3807212Y55487*
X3771063Y71973D02*
Y66806D01*
Y71973D02*
X3772316D01*
X3772853Y71727*
X3773210Y71235*
X3773389Y70743*
X3773568Y70005*
Y68775*
X3773389Y68036*
X3773210Y67544*
X3772853Y67052*
X3772316Y66806*
X3771063*
X3775179Y68775D02*
X3777326D01*
Y69267*
X3777147Y69759*
X3776969Y70005*
X3776611Y70251*
X3776074*
X3775716Y70005*
X3775358Y69513*
X3775179Y68775*
Y68282*
X3775358Y67544*
X3775716Y67052*
X3776074Y66806*
X3776611*
X3776969Y67052*
X3777326Y67544*
X3775537Y70743D02*
X3776969Y71481D01*
X3780727Y69513D02*
X3780548Y70005D01*
X3780011Y70251*
X3779474*
X3778937Y70005*
X3778758Y69513*
X3778937Y69021*
X3779295Y68775*
X3780190Y68529*
X3780548Y68282*
X3780727Y67790*
Y67544*
X3780548Y67052*
X3780011Y66806*
X3779474*
X3778937Y67052*
X3778758Y67544*
X3782337Y71973D02*
X3782516Y71727D01*
X3782695Y71973*
X3782516Y72219*
X3782337Y71973*
X3782516Y70251D02*
Y66806D01*
X3786453Y70251D02*
Y66314D01*
X3786274Y65576*
X3786095Y65330*
X3785737Y65084*
X3785200*
X3784843Y65330*
X3786453Y69513D02*
X3786095Y70005D01*
X3785737Y70251*
X3785200*
X3784843Y70005*
X3784485Y69513*
X3784306Y68775*
Y68282*
X3784485Y67544*
X3784843Y67052*
X3785200Y66806*
X3785737*
X3786095Y67052*
X3786453Y67544*
X3788064Y70251D02*
Y66806D01*
Y69267D02*
X3788601Y70005D01*
X3788958Y70251*
X3789495*
X3789853Y70005*
X3790032Y69267*
Y66806*
X3793790Y70251D02*
Y66806D01*
Y69513D02*
X3793432Y70005D01*
X3793074Y70251*
X3792538*
X3792180Y70005*
X3791822Y69513*
X3791643Y68775*
Y68282*
X3791822Y67544*
X3792180Y67052*
X3792538Y66806*
X3793074*
X3793432Y67052*
X3793790Y67544*
X3795938Y71973D02*
Y67790D01*
X3796117Y67052*
X3796475Y66806*
X3796832*
X3795401Y70251D02*
X3796654D01*
X3798443Y71973D02*
X3798622Y71727D01*
X3798801Y71973*
X3798622Y72219*
X3798443Y71973*
X3798622Y70251D02*
Y66806D01*
X3801306Y70251D02*
X3800948Y70005D01*
X3800591Y69513*
X3800412Y68775*
Y68282*
X3800591Y67544*
X3800948Y67052*
X3801306Y66806*
X3801843*
X3802201Y67052*
X3802559Y67544*
X3802738Y68282*
Y68775*
X3802559Y69513*
X3802201Y70005*
X3801843Y70251*
X3801306*
X3804349D02*
Y66806D01*
Y69267D02*
X3804885Y70005D01*
X3805243Y70251*
X3805780*
X3806138Y70005*
X3806317Y69267*
Y66806*
X3812223Y70251D02*
X3812044Y70005D01*
X3812223Y69759*
X3812402Y70005*
X3812223Y70251*
Y67298D02*
X3812044Y67052D01*
X3812223Y66806*
X3812402Y67052*
X3812223Y67298*
X3822244Y60162D02*
Y54995D01*
Y60162D02*
X3823855D01*
X3824392Y59916*
X3824571Y59670*
X3824749Y59178*
Y58686*
X3824571Y58194*
X3824392Y57948*
X3823855Y57702*
X3822244D02*
X3823855D01*
X3824392Y57456*
X3824571Y57210*
X3824749Y56718*
Y55979*
X3824571Y55487*
X3824392Y55241*
X3823855Y54995*
X3822244*
X3826539Y55487D02*
X3826360Y55241D01*
X3826539Y54995*
X3826718Y55241*
X3826539Y55487*
X3835129Y58932D02*
X3834950Y59424D01*
X3834592Y59916*
X3834234Y60162*
X3833518*
X3833160Y59916*
X3832802Y59424*
X3832623Y58932*
X3832445Y58194*
Y56964*
X3832623Y56225*
X3832802Y55733*
X3833160Y55241*
X3833518Y54995*
X3834234*
X3834592Y55241*
X3834950Y55733*
X3835129Y56225*
X3836739Y60162D02*
Y54995D01*
Y57456D02*
X3837276Y58194D01*
X3837634Y58440*
X3838171*
X3838529Y58194*
X3838708Y57456*
Y54995*
X3840319Y60162D02*
X3840497Y59916D01*
X3840676Y60162*
X3840497Y60408*
X3840319Y60162*
X3840497Y58440D02*
Y54995D01*
X3842287Y58440D02*
Y54995D01*
Y56964D02*
X3842466Y57702D01*
X3842824Y58194*
X3843182Y58440*
X3843719*
X3846224D02*
X3845866Y58194D01*
X3845508Y57702*
X3845329Y56964*
Y56471*
X3845508Y55733*
X3845866Y55241*
X3846224Y54995*
X3846761*
X3847119Y55241*
X3847477Y55733*
X3847656Y56471*
Y56964*
X3847477Y57702*
X3847119Y58194*
X3846761Y58440*
X3846224*
X3849266D02*
Y54995D01*
Y57456D02*
X3849803Y58194D01*
X3850161Y58440*
X3850698*
X3851056Y58194*
X3851235Y57456*
Y54995*
X3862151Y60162D02*
X3861614Y59916D01*
X3861256Y59178*
X3861077Y57948*
Y57210*
X3861256Y55979*
X3861614Y55241*
X3862151Y54995*
X3862509*
X3863046Y55241*
X3863404Y55979*
X3863583Y57210*
Y57948*
X3863404Y59178*
X3863046Y59916*
X3862509Y60162*
X3862151*
X3865551D02*
X3867520D01*
X3866446Y58194*
X3866983*
X3867341Y57948*
X3867520Y57702*
X3867699Y56964*
Y56471*
X3867520Y55733*
X3867162Y55241*
X3866625Y54995*
X3866088*
X3865551Y55241*
X3865372Y55487*
X3865193Y55979*
X3872530Y61147D02*
X3869309Y53273D01*
X3875215Y60162D02*
X3874678Y59916D01*
X3874320Y59178*
X3874141Y57948*
Y57210*
X3874320Y55979*
X3874678Y55241*
X3875215Y54995*
X3875573*
X3876110Y55241*
X3876467Y55979*
X3876646Y57210*
Y57948*
X3876467Y59178*
X3876110Y59916*
X3875573Y60162*
X3875215*
X3878615D02*
X3880583D01*
X3879510Y58194*
X3880047*
X3880404Y57948*
X3880583Y57702*
X3880762Y56964*
Y56471*
X3880583Y55733*
X3880225Y55241*
X3879689Y54995*
X3879152*
X3878615Y55241*
X3878436Y55487*
X3878257Y55979*
X3885594Y61147D02*
X3882373Y53273D01*
X3887384Y58932D02*
Y59178D01*
X3887563Y59670*
X3887742Y59916*
X3888099Y60162*
X3888099D02*
X3888815D01*
X3889173Y59916*
X3889352Y59670*
X3889531Y59178*
Y58686*
X3889352Y58194*
X3888994Y57456*
X3887205Y54995*
X3889710*
X3892394Y60162D02*
X3891858Y59916D01*
X3891500Y59178*
X3891321Y57948*
Y57210*
X3891500Y55979*
X3891858Y55241*
X3892394Y54995*
X3892752*
X3893289Y55241*
X3893647Y55979*
X3893826Y57210*
Y57948*
X3893647Y59178*
X3893289Y59916*
X3892752Y60162*
X3892394*
X3895437Y59178D02*
X3895795Y59424D01*
X3896331Y60162*
Y54995*
X3900089Y59424D02*
X3899911Y59916D01*
X3899374Y60162*
X3899016*
X3898479Y59916*
X3898121Y59178*
X3897942Y57948*
Y56718*
X3898121Y55733*
X3898479Y55241*
X3899016Y54995*
X3899195*
X3899732Y55241*
X3900089Y55733*
X3900268Y56471*
Y56718*
X3900089Y57456*
X3899732Y57948*
X3899195Y58194*
X3899016*
X3898479Y57948*
X3898121Y57456*
X3897942Y56718*
X3824928Y70743D02*
X3824749Y71235D01*
X3824392Y71727*
X3824034Y71973*
X3823318*
X3822960Y71727*
X3822602Y71235*
X3822423Y70743*
X3822244Y70005*
Y68775*
X3822423Y68036*
X3822602Y67544*
X3822960Y67052*
X3823318Y66806*
X3824034*
X3824392Y67052*
X3824749Y67544*
X3824928Y68036*
X3826539Y70251D02*
Y67790D01*
X3826718Y67052*
X3827076Y66806*
X3827613*
X3827971Y67052*
X3828508Y67790*
Y70251D02*
Y66806D01*
X3830118Y71973D02*
Y66806D01*
Y69513D02*
X3830476Y70005D01*
X3830834Y70251*
X3831371*
X3831729Y70005*
X3832087Y69513*
X3832266Y68775*
Y68282*
X3832087Y67544*
X3831729Y67052*
X3831371Y66806*
X3830834*
X3830476Y67052*
X3830118Y67544*
X3833876Y68775D02*
X3836024D01*
Y69267*
X3835845Y69759*
X3835666Y70005*
X3835308Y70251*
X3834771*
X3834413Y70005*
X3834055Y69513*
X3833876Y68775*
Y68282*
X3834055Y67544*
X3834413Y67052*
X3834771Y66806*
X3835308*
X3835666Y67052*
X3836024Y67544*
X3841750Y71973D02*
X3843182Y66806D01*
X3844613Y71973D02*
X3843182Y66806D01*
X3847298Y71973D02*
X3846761Y71727D01*
X3846403Y70989*
X3846224Y69759*
Y69021*
X3846403Y67790*
X3846761Y67052*
X3847298Y66806*
X3847656*
X3848193Y67052*
X3848550Y67790*
X3848729Y69021*
Y69759*
X3848550Y70989*
X3848193Y71727*
X3847656Y71973*
X3847298*
X3852130D02*
X3850340Y68529D01*
X3853024*
X3852130Y71973D02*
Y66806D01*
X3771142Y48351D02*
Y43184D01*
Y48351D02*
X3772752D01*
X3773289Y48105*
X3773468Y47859*
X3773647Y47367*
Y46629*
X3773468Y46137*
X3773289Y45891*
X3772752Y45645*
X3771142*
X3776689Y48351D02*
X3775258Y43184D01*
X3776689Y48351D02*
X3778121Y43184D01*
X3775795Y44906D02*
X3777584D01*
X3782237Y47613D02*
X3781879Y48105D01*
X3781342Y48351*
X3780626*
X3780089Y48105*
X3779732Y47613*
Y47121*
X3779911Y46629*
X3780089Y46383*
X3780447Y46137*
X3781521Y45645*
X3781879Y45399*
X3782058Y45153*
X3782237Y44660*
Y43922*
X3781879Y43430*
X3781342Y43184*
X3780626*
X3780089Y43430*
X3779732Y43922*
X3785100Y48351D02*
Y43184D01*
X3783848Y48351D02*
X3786353D01*
X3787963D02*
Y43184D01*
Y48351D02*
X3790290D01*
X3787963Y45891D02*
X3789395D01*
X3787963Y43184D02*
X3790290D01*
X3796016Y48351D02*
Y43184D01*
Y48351D02*
X3797448Y43184D01*
X3798880Y48351D02*
X3797448Y43184D01*
X3798880Y48351D02*
Y43184D01*
X3801922Y48351D02*
X3800490Y43184D01*
X3801922Y48351D02*
X3803354Y43184D01*
X3801027Y44906D02*
X3802817D01*
X3807470Y47613D02*
X3807112Y48105D01*
X3806575Y48351*
X3805859*
X3805322Y48105*
X3804964Y47613*
Y47121*
X3805143Y46629*
X3805322Y46383*
X3805680Y46137*
X3806754Y45645*
X3807112Y45399*
X3807291Y45153*
X3807470Y44660*
Y43922*
X3807112Y43430*
X3806575Y43184*
X3805859*
X3805322Y43430*
X3804964Y43922*
X3809080Y48351D02*
Y43184D01*
X3810870Y46629D02*
X3809080Y44168D01*
X3809796Y45153D02*
X3811049Y43184D01*
X3818028Y48351D02*
Y43184D01*
X3816775Y48351D02*
X3819281D01*
X3821965D02*
X3821607Y48105D01*
X3821249Y47613*
X3821070Y47121*
X3820891Y46383*
Y45153*
X3821070Y44414*
X3821249Y43922*
X3821607Y43430*
X3821965Y43184*
X3822681*
X3823039Y43430*
X3823397Y43922*
X3823576Y44414*
X3823754Y45153*
Y46383*
X3823576Y47121*
X3823397Y47613*
X3823039Y48105*
X3822681Y48351*
X3821965*
X3825365D02*
Y43184D01*
Y48351D02*
X3826976D01*
X3827513Y48105*
X3827691Y47859*
X3827870Y47367*
Y46629*
X3827691Y46137*
X3827513Y45891*
X3826976Y45645*
X3825365*
X3457547Y308701D02*
G75*
G03X3461484I1969J-0D01*
G01X3613059*
G03X3616996Y304764I3937J-0*
G01X3648492*
G03X3652429Y308701I0J3937*
G01X3713453*
Y52795*
X3652429*
G03X3648492Y56732I-3937J0*
G01X3616996*
G03X3613059Y52795I0J-3937*
G01X3461484*
Y100039*
G03X3457547I-1968J0*
G01Y308701*
X3500854Y301220D02*
G03X3492980I-3937J0D01*
G01X3500854D02*
Y289409D01*
X3492980D02*
G03X3500854I3937J0D01*
G01X3492980D02*
Y301220D01*
X3465028Y263425D02*
X3492980D01*
Y270512*
X3500854D02*
G03X3492980I-3937J-0D01*
G01X3500854D02*
Y263425D01*
X3514634*
Y255551D02*
G03Y263425I-0J3937D01*
G01Y255551D02*
X3465028D01*
Y263425D02*
G03Y255551I-0J-3937D01*
G01X3710500Y105945D02*
G03X3710500I-6890J0D01*
G01X3478217Y66575D02*
G03X3478217I-6890J0D01*
G01X3554004Y297480D02*
X3585500D01*
Y290591D02*
G03Y297480I0J3444D01*
G01Y290591D02*
X3554004D01*
Y297480D02*
G03Y290591I576J-3445D01*
G54D217*
G54D238*
G01X3611878Y195709D03*
Y202008D03*
X3661484Y195709D03*
Y202008D03*
X3640224Y195709D03*
Y202008D03*
X3633138Y195709D03*
Y202008D03*
G54D247*
X3684122Y185669D03*
Y178189D03*
X3693177Y181929D03*
G54D271*
X3475264Y282323D03*
G54D272*
X3564929Y231142D03*
Y233504D03*
Y235866D03*
Y238228D03*
Y240591D03*
X3554890D03*
Y238228D03*
Y235866D03*
Y233504D03*
Y231142D03*
G54D289*
X3557961Y231358D02*
X3561279D01*
X3561858Y231937*
Y240374*
X3557961*
Y231358*
Y240374*
X3557980Y231358D02*
Y240374D01*
X3558000Y231358D02*
Y240374D01*
X3558020Y231358D02*
Y240374D01*
X3558039Y231358D02*
Y240374D01*
X3558059Y231358D02*
Y240374D01*
X3558079Y231358D02*
Y240374D01*
X3558098Y231358D02*
Y240374D01*
X3558118Y231358D02*
Y240374D01*
X3558138Y231358D02*
Y240374D01*
X3558157Y231358D02*
Y240374D01*
X3558177Y231358D02*
Y240374D01*
X3558197Y231358D02*
Y240374D01*
X3558217Y231358D02*
Y240374D01*
X3558236Y231358D02*
Y240374D01*
X3558256Y231358D02*
Y240374D01*
X3558276Y231358D02*
Y240374D01*
X3558295Y231358D02*
Y240374D01*
X3558315Y231358D02*
Y240374D01*
X3558335Y231358D02*
Y240374D01*
X3558354Y231358D02*
Y240374D01*
X3558374Y231358D02*
Y240374D01*
X3558394Y231358D02*
Y240374D01*
X3558413Y231358D02*
Y240374D01*
X3558433Y231358D02*
Y240374D01*
X3558453Y231358D02*
Y240374D01*
X3558472Y231358D02*
Y240374D01*
X3558492Y231358D02*
Y240374D01*
X3558512Y231358D02*
Y240374D01*
X3558531Y231358D02*
Y240374D01*
X3558551Y231358D02*
Y240374D01*
X3558571Y231358D02*
Y240374D01*
X3558591Y231358D02*
Y240374D01*
X3558610Y231358D02*
Y240374D01*
X3558630Y231358D02*
Y240374D01*
X3558650Y231358D02*
Y240374D01*
X3558669Y231358D02*
Y240374D01*
X3558689Y231358D02*
Y240374D01*
X3558709Y231358D02*
Y240374D01*
X3558728Y231358D02*
Y240374D01*
X3558748Y231358D02*
Y240374D01*
X3558768Y231358D02*
Y240374D01*
X3558787Y231358D02*
Y240374D01*
X3558807Y231358D02*
Y240374D01*
X3558827Y231358D02*
Y240374D01*
X3558846Y231358D02*
Y240374D01*
X3558866Y231358D02*
Y240374D01*
X3558886Y231358D02*
Y240374D01*
X3558906Y231358D02*
Y240374D01*
X3558925Y231358D02*
Y240374D01*
X3558945Y231358D02*
Y240374D01*
X3558965Y231358D02*
Y240374D01*
X3558984Y231358D02*
Y240374D01*
X3559004Y231358D02*
Y240374D01*
X3559024Y231358D02*
Y240374D01*
X3559043Y231358D02*
Y240374D01*
X3559063Y231358D02*
Y240374D01*
X3559083Y231358D02*
Y240374D01*
X3559102Y231358D02*
Y240374D01*
X3559122Y231358D02*
Y240374D01*
X3559142Y231358D02*
Y240374D01*
X3559161Y231358D02*
Y240374D01*
X3559181Y231358D02*
Y240374D01*
X3559201Y231358D02*
Y240374D01*
X3559220Y231358D02*
Y240374D01*
X3559240Y231358D02*
Y240374D01*
X3559260Y231358D02*
Y240374D01*
X3559280Y231358D02*
Y240374D01*
X3559299Y231358D02*
Y240374D01*
X3559319Y231358D02*
Y240374D01*
X3559339Y231358D02*
Y240374D01*
X3559358Y231358D02*
Y240374D01*
X3559378Y231358D02*
Y240374D01*
X3559398Y231358D02*
Y240374D01*
X3559417Y231358D02*
Y240374D01*
X3559437Y231358D02*
Y240374D01*
X3559457Y231358D02*
Y240374D01*
X3559476Y231358D02*
Y240374D01*
X3559496Y231358D02*
Y240374D01*
X3559516Y231358D02*
Y240374D01*
X3559535Y231358D02*
Y240374D01*
X3559555Y231358D02*
Y240374D01*
X3559575Y231358D02*
Y240374D01*
X3559594Y231358D02*
Y240374D01*
X3559614Y231358D02*
Y240374D01*
X3559634Y231358D02*
Y240374D01*
X3559654Y231358D02*
Y240374D01*
X3559673Y231358D02*
Y240374D01*
X3559693Y231358D02*
Y240374D01*
X3559713Y231358D02*
Y240374D01*
X3559732Y231358D02*
Y240374D01*
X3559752Y231358D02*
Y240374D01*
X3559772Y231358D02*
Y240374D01*
X3559791Y231358D02*
Y240374D01*
X3559811Y231358D02*
Y240374D01*
X3559831Y231358D02*
Y240374D01*
X3559850Y231358D02*
Y240374D01*
X3559870Y231358D02*
Y240374D01*
X3559890Y231358D02*
Y240374D01*
X3559909Y231358D02*
Y240374D01*
X3559929Y231358D02*
Y240374D01*
X3559949Y231358D02*
Y240374D01*
X3559969Y231358D02*
Y240374D01*
X3559988Y231358D02*
Y240374D01*
X3560008Y231358D02*
Y240374D01*
X3560028Y231358D02*
Y240374D01*
X3560047Y231358D02*
Y240374D01*
X3560067Y231358D02*
Y240374D01*
X3560087Y231358D02*
Y240374D01*
X3560106Y231358D02*
Y240374D01*
X3560126Y231358D02*
Y240374D01*
X3560146Y231358D02*
Y240374D01*
X3560165Y231358D02*
Y240374D01*
X3560185Y231358D02*
Y240374D01*
X3560205Y231358D02*
Y240374D01*
X3560224Y231358D02*
Y240374D01*
X3560244Y231358D02*
Y240374D01*
X3560264Y231358D02*
Y240374D01*
X3560283Y231358D02*
Y240374D01*
X3560303Y231358D02*
Y240374D01*
X3560323Y231358D02*
Y240374D01*
X3560343Y231358D02*
Y240374D01*
X3560362Y231358D02*
Y240374D01*
X3560382Y231358D02*
Y240374D01*
X3560402Y231358D02*
Y240374D01*
X3560421Y231358D02*
Y240374D01*
X3560441Y231358D02*
Y240374D01*
X3560461Y231358D02*
Y240374D01*
X3560480Y231358D02*
Y240374D01*
X3560500Y231358D02*
Y240374D01*
X3560520Y231358D02*
Y240374D01*
X3560539Y231358D02*
Y240374D01*
X3560559Y231358D02*
Y240374D01*
X3560579Y231358D02*
Y240374D01*
X3560598Y231358D02*
Y240374D01*
X3560618Y231358D02*
Y240374D01*
X3560638Y231358D02*
Y240374D01*
X3560657Y231358D02*
Y240374D01*
X3560677Y231358D02*
Y240374D01*
X3560697Y231358D02*
Y240374D01*
X3560717Y231358D02*
Y240374D01*
X3560736Y231358D02*
Y240374D01*
X3560756Y231358D02*
Y240374D01*
X3560776Y231358D02*
Y240374D01*
X3560795Y231358D02*
Y240374D01*
X3560815Y231358D02*
Y240374D01*
X3560835Y231358D02*
Y240374D01*
X3560854Y231358D02*
Y240374D01*
X3560874Y231358D02*
Y240374D01*
X3560894Y231358D02*
Y240374D01*
X3560913Y231358D02*
Y240374D01*
X3560933Y231358D02*
Y240374D01*
X3560953Y231358D02*
Y240374D01*
X3560972Y231358D02*
Y240374D01*
X3560992Y231358D02*
Y240374D01*
X3561012Y231358D02*
Y240374D01*
X3561031Y231358D02*
Y240374D01*
X3561051Y231358D02*
Y240374D01*
X3561071Y231358D02*
Y240374D01*
X3561091Y231358D02*
Y240374D01*
X3561110Y231358D02*
Y240374D01*
X3561130Y231358D02*
Y240374D01*
X3561150Y231358D02*
Y240374D01*
X3561169Y231358D02*
Y240374D01*
X3561189Y231358D02*
Y240374D01*
X3561209Y231358D02*
Y240374D01*
X3561228Y231358D02*
Y240374D01*
X3561248Y231358D02*
Y240374D01*
X3561268Y231358D02*
Y240374D01*
X3561287Y231366D02*
Y240374D01*
X3561307Y231386D02*
Y240374D01*
X3561327Y231406D02*
Y240374D01*
X3561346Y231425D02*
Y240374D01*
X3561366Y231445D02*
Y240374D01*
X3561386Y231465D02*
Y240374D01*
X3561406Y231485D02*
Y240374D01*
X3561425Y231504D02*
Y240374D01*
X3561445Y231524D02*
Y240374D01*
X3561465Y231544D02*
Y240374D01*
X3561484Y231563D02*
Y240374D01*
X3561504Y231583D02*
Y240374D01*
X3561524Y231603D02*
Y240374D01*
X3561543Y231622D02*
Y240374D01*
X3561563Y231642D02*
Y240374D01*
X3561583Y231662D02*
Y240374D01*
X3561602Y231681D02*
Y240374D01*
X3561622Y231701D02*
Y240374D01*
X3561642Y231721D02*
Y240374D01*
X3561661Y231740D02*
Y240374D01*
X3561681Y231760D02*
Y240374D01*
X3561701Y231780D02*
Y240374D01*
X3561720Y231799D02*
Y240374D01*
X3561740Y231819D02*
Y240374D01*
X3561760Y231839D02*
Y240374D01*
X3561780Y231859D02*
Y240374D01*
X3561799Y231878D02*
Y240374D01*
X3561819Y231898D02*
Y240374D01*
X3561839Y231918D02*
Y240374D01*
G54D328*
X3606760Y134291D03*
X3613059D03*
X3467783Y294528D03*
X3474083D03*
X3676445Y127992D03*
X3670146D03*
X3518571Y232717D03*
X3524870D03*
X3486287Y198858D03*
X3479988D03*
X3485894Y162244D03*
X3479594D03*
X3671720Y181929D03*
X3678020D03*
X3683531Y166181D03*
X3689831D03*
X3683925Y172087D03*
X3690224D03*
X3685106Y146890D03*
X3678807D03*
X3671720Y176024D03*
X3678020D03*
X3640224Y206732D03*
X3646524D03*
X3604398Y207913D03*
X3598098D03*
X3661484Y206732D03*
X3667783D03*
X3633138D03*
X3626839D03*
X3611878D03*
X3618177D03*
X3572508Y103583D03*
X3566209D03*
X3684713Y81535D03*
X3691012D03*
X3555185Y107126D03*
X3548886D03*
X3556366Y247677D03*
X3562665D03*
G54D329*
X3580382Y176024D03*
Y182323D03*
X3666209Y162638D03*
Y156339D03*
X3518177Y226417D03*
Y220118D03*
X3644555Y174843D03*
Y168543D03*
X3638256Y174843D03*
Y168543D03*
X3662665Y140197D03*
Y133898D03*
X3674476Y81535D03*
Y87835D03*
G54D330*
X3689831Y296299D03*
Y292756D03*
X3682547Y292559D03*
X3686091D03*
Y296496D03*
X3682547D03*
X3607350Y115394D03*
X3610894D03*
X3590815Y103583D03*
X3594358D03*
X3628217Y142559D03*
X3631760D03*
X3637075Y149449D03*
Y145906D03*
G54D333*
X3604398Y196299D03*
Y202205D03*
G54D335*
X3697469Y71299D03*
Y73858D03*
Y76417D03*
Y78976D03*
Y81535D03*
G54D336*
X3698886Y86112D03*
Y66722D03*
G54D337*
X3707941Y87844D03*
Y64990D03*
G54D338*
Y79715D03*
Y73120D03*
G54D342*
X3485894Y189606D03*
Y187638D03*
Y185669D03*
Y183701D03*
Y181732D03*
Y179764D03*
Y177795D03*
Y175827D03*
Y173858D03*
Y171890D03*
G54D343*
X3546425Y129193D03*
Y124193D03*
Y119193D03*
Y114193D03*
X3564732D03*
Y119193D03*
Y124193D03*
Y129193D03*
G54D344*
X3612665Y147087D03*
Y149055D03*
Y151024D03*
Y152992D03*
Y154961D03*
Y156929D03*
Y158898D03*
Y160866D03*
Y162835D03*
Y164803D03*
Y166772D03*
Y168740D03*
X3579594D03*
Y166772D03*
Y164803D03*
Y162835D03*
Y160866D03*
Y158898D03*
Y156929D03*
Y154961D03*
Y152992D03*
Y151024D03*
Y149055D03*
Y147087D03*
G54D345*
X3606957Y174449D03*
X3604988D03*
X3603020D03*
X3601051D03*
X3599083D03*
X3597114D03*
X3595146D03*
X3593177D03*
X3591209D03*
X3589240D03*
X3587272D03*
X3585303D03*
Y141378D03*
X3587272D03*
X3589240D03*
X3591209D03*
X3593177D03*
X3595146D03*
X3597114D03*
X3599083D03*
X3601051D03*
X3603020D03*
X3604988D03*
X3606957D03*
G54D346*
X3678413Y161457D03*
G54D350*
X3475461Y192717D03*
Y168780D03*
G54D352*
X3511780Y230354D03*
Y232323D03*
Y234291D03*
Y236260D03*
Y238228D03*
X3501740D03*
Y236260D03*
Y234291D03*
Y232323D03*
Y230354D03*
G54D353*
X3508728Y239311D03*
X3506760D03*
X3504791D03*
Y229272D03*
X3506760D03*
X3508728D03*
G54D355*
X3691209Y70906D03*
X3685303D03*
X3532154Y224843D03*
X3526248D03*
G54D386*
X3643768Y161752D03*
Y154862D03*
X3702429Y166673D03*
Y173563D03*
Y155256D03*
Y162146D03*
Y144232D03*
Y151122D03*
X3699673Y177697D03*
Y184587D03*
X3532744Y129075D03*
Y122185D03*
X3556366Y252894D03*
Y259783D03*
G54D387*
X3573000Y194528D03*
X3579890D03*
X3561976Y187441D03*
X3568866D03*
X3678315Y169724D03*
X3671425D03*
Y153189D03*
X3678315D03*
X3682449D03*
X3689339D03*
X3486583Y210669D03*
X3479693D03*
X3578512Y103583D03*
X3585402D03*
X3614535Y120906D03*
X3607646D03*
X3681661Y103189D03*
X3688551D03*
X3503118Y223268D03*
X3496228D03*
X3666701Y146496D03*
X3673591D03*
X3660205Y185472D03*
X3653315D03*
X3660598Y178386D03*
X3653709D03*
X3689339Y159882D03*
X3682449D03*
X3660598Y171693D03*
X3653709D03*
X3660992Y162244D03*
X3654102D03*
G54D400*
X3625067Y147087D03*
X3632547D03*
Y152992D03*
X3625067D03*
G54D401*
X3688453Y96693D03*
X3680972D03*
X3684713Y87638D03*
G54D402*
X3479201Y288465D03*
X3475264D03*
X3471327D03*
Y276181D03*
X3475264D03*
X3479201D03*
G54D403*
X3678138Y133701D03*
X3668453D03*
Y140394D03*
X3678138D03*
G54D405*
X3641051Y185472D03*
X3644122D03*
G54D412*
X3696917Y283898D03*
X3689831D03*
X3682744D03*
X3654398D03*
X3647311D03*
X3640224D03*
X3633138D03*
X3626051D03*
X3618965D03*
X3611878D03*
X3604791D03*
X3597705D03*
Y216969D03*
X3604791D03*
X3611878D03*
X3618965D03*
X3626051D03*
X3633138D03*
X3640224D03*
X3647311D03*
X3654398D03*
X3661484D03*
X3668571D03*
X3689831D03*
X3696917D03*
G54D419*
X3661091Y152402D03*
X3654791D03*
G74*
X0Y0D02*
M02*
