*
*
G04 PADS 9.5 Build Number: 522968 generated Gerber (RS-274-X) file*
G04 PC Version=2.1*
*
%IN "BORNE"*%
*
%MOIN*%
*
%FSLAX35Y35*%
*
*
*
*
G04 PC Standard Apertures*
*
*
G04 Thermal Relief Aperture macro.*
%AMTER*
1,1,$1,0,0*
1,0,$1-$2,0,0*
21,0,$3,$4,0,0,45*
21,0,$3,$4,0,0,135*
%
*
*
G04 Annular Aperture macro.*
%AMANN*
1,1,$1,0,0*
1,0,$2,0,0*
%
*
*
G04 Odd Aperture macro.*
%AMODD*
1,1,$1,0,0*
1,0,$1-0.005,0,0*
%
*
*
G04 PC Custom Aperture Macros*
*
*
*
*
*
*
G04 PC Aperture Table*
*
%ADD065C,0.01181*%
%ADD093C,0.11811*%
%ADD097C,0.00394*%
%ADD188C,0.0374*%
%ADD217C,0.001*%
%ADD289C,0.00039*%
%ADD292R,0.04331X0.04528*%
%ADD293R,0.04528X0.04331*%
%ADD294R,0.04528X0.02953*%
%ADD295R,0.03031X0.03031*%
%ADD298R,0.05906X0.04528*%
%ADD300R,0.06024X0.02362*%
%ADD301R,0.08858X0.06398*%
%ADD302R,0.08071X0.09941*%
%ADD303R,0.08071X0.05217*%
%ADD307R,0.09449X0.0315*%
%ADD308R,0.06496X0.01772*%
%ADD309R,0.01772X0.06496*%
%ADD310C,0.07283*%
%ADD312R,0.02953X0.02953*%
%ADD313R,0.02953X0.02165*%
%ADD315R,0.05315X0.08465*%
%ADD319R,0.03346X0.01772*%
%ADD320R,0.04528X0.01772*%
%ADD321C,0.06496*%
%ADD323R,0.06496X0.06496*%
%ADD324R,0.03602X0.01598*%
%ADD325R,0.01598X0.03602*%
%ADD327R,0.04528X0.05906*%
%ADD383R,0.05906X0.03937*%
%ADD384R,0.03937X0.05906*%
%ADD395R,0.04724X0.04331*%
%ADD396R,0.02953X0.04528*%
%ADD397O,0.02362X0.04823*%
%ADD398R,0.02835X0.02835*%
%ADD414R,0.04921X0.12402*%
%ADD415R,0.04134X0.02165*%
%ADD416R,0.02559X0.04134*%
%ADD417R,0.04134X0.02559*%
%ADD418R,0.06496X0.08465*%
*
*
*
*
G04 PC Circuitry*
G04 Layer Name BORNE - circuitry*
%LPD*%
*
*
G04 PC Custom Flashes*
G04 Layer Name BORNE - flashes*
%LPD*%
*
*
G04 PC Circuitry*
G04 Layer Name BORNE - circuitry*
%LPD*%
*
G54D65*
G01X3767126Y75394D02*
X3960039D01*
Y39961*
X3767126*
Y75394*
Y63583D02*
X3960039D01*
X3767126Y51772D02*
X3960039D01*
G54D93*
X3474476Y240984D03*
X3668571Y65000D03*
G54D97*
X3773568Y47613D02*
X3773210Y48105D01*
X3772674Y48351*
X3771958*
X3771421Y48105*
X3771063Y47613*
Y47121*
X3771242Y46629*
X3771421Y46383*
X3771779Y46137*
X3772853Y45645*
X3773210Y45399*
X3773389Y45153*
X3773568Y44660*
Y43922*
X3773210Y43430*
X3772674Y43184*
X3771958*
X3771421Y43430*
X3771063Y43922*
X3776074Y46629D02*
X3775716Y46383D01*
X3775358Y45891*
X3775179Y45153*
Y44660*
X3775358Y43922*
X3775716Y43430*
X3776074Y43184*
X3776611*
X3776969Y43430*
X3777326Y43922*
X3777505Y44660*
Y45153*
X3777326Y45891*
X3776969Y46383*
X3776611Y46629*
X3776074*
X3779116Y48351D02*
Y43184D01*
X3782874Y48351D02*
Y43184D01*
Y45891D02*
X3782516Y46383D01*
X3782158Y46629*
X3781621*
X3781263Y46383*
X3780906Y45891*
X3780727Y45153*
Y44660*
X3780906Y43922*
X3781263Y43430*
X3781621Y43184*
X3782158*
X3782516Y43430*
X3782874Y43922*
X3784485Y45153D02*
X3786632D01*
Y45645*
X3786453Y46137*
X3786274Y46383*
X3785916Y46629*
X3785379*
X3785021Y46383*
X3784664Y45891*
X3784485Y45153*
Y44660*
X3784664Y43922*
X3785021Y43430*
X3785379Y43184*
X3785916*
X3786274Y43430*
X3786632Y43922*
X3788243Y46629D02*
Y43184D01*
Y45153D02*
X3788422Y45891D01*
X3788780Y46383*
X3789137Y46629*
X3789674*
X3795401Y48351D02*
Y43184D01*
Y48351D02*
X3796832Y43184D01*
X3798264Y48351D02*
X3796832Y43184D01*
X3798264Y48351D02*
Y43184D01*
X3802022Y46629D02*
Y43184D01*
Y45891D02*
X3801664Y46383D01*
X3801306Y46629*
X3800770*
X3800412Y46383*
X3800054Y45891*
X3799875Y45153*
Y44660*
X3800054Y43922*
X3800412Y43430*
X3800770Y43184*
X3801306*
X3801664Y43430*
X3802022Y43922*
X3805601Y45891D02*
X3805422Y46383D01*
X3804885Y46629*
X3804349*
X3803812Y46383*
X3803633Y45891*
X3803812Y45399*
X3804170Y45153*
X3805064Y44906*
X3805422Y44660*
X3805601Y44168*
Y43922*
X3805422Y43430*
X3804885Y43184*
X3804349*
X3803812Y43430*
X3803633Y43922*
X3807212Y48351D02*
Y43184D01*
X3809001Y46629D02*
X3807212Y44168D01*
X3807928Y45153D02*
X3809180Y43184D01*
X3816160Y48351D02*
Y43184D01*
X3814907Y48351D02*
X3817412D01*
X3819918Y46629D02*
X3819560Y46383D01*
X3819202Y45891*
X3819023Y45153*
Y44660*
X3819202Y43922*
X3819560Y43430*
X3819918Y43184*
X3820455*
X3820812Y43430*
X3821170Y43922*
X3821349Y44660*
Y45153*
X3821170Y45891*
X3820812Y46383*
X3820455Y46629*
X3819918*
X3822960D02*
Y41462D01*
Y45891D02*
X3823318Y46383D01*
X3823676Y46629*
X3824213*
X3824571Y46383*
X3824928Y45891*
X3825107Y45153*
Y44660*
X3824928Y43922*
X3824571Y43430*
X3824213Y43184*
X3823676*
X3823318Y43430*
X3822960Y43922*
X3771063Y60162D02*
X3772495Y54995D01*
X3773926Y60162D02*
X3772495Y54995D01*
X3777684Y58440D02*
Y54995D01*
Y57702D02*
X3777326Y58194D01*
X3776969Y58440*
X3776432*
X3776074Y58194*
X3775716Y57702*
X3775537Y56964*
Y56471*
X3775716Y55733*
X3776074Y55241*
X3776432Y54995*
X3776969*
X3777326Y55241*
X3777684Y55733*
X3779295Y60162D02*
Y54995D01*
X3780906Y60162D02*
X3781084Y59916D01*
X3781263Y60162*
X3781084Y60408*
X3780906Y60162*
X3781084Y58440D02*
Y54995D01*
X3785021Y60162D02*
Y54995D01*
Y57702D02*
X3784664Y58194D01*
X3784306Y58440*
X3783769*
X3783411Y58194*
X3783053Y57702*
X3782874Y56964*
Y56471*
X3783053Y55733*
X3783411Y55241*
X3783769Y54995*
X3784306*
X3784664Y55241*
X3785021Y55733*
X3788780Y58440D02*
Y54995D01*
Y57702D02*
X3788422Y58194D01*
X3788064Y58440*
X3787527*
X3787169Y58194*
X3786811Y57702*
X3786632Y56964*
Y56471*
X3786811Y55733*
X3787169Y55241*
X3787527Y54995*
X3788064*
X3788422Y55241*
X3788780Y55733*
X3790927Y60162D02*
Y55979D01*
X3791106Y55241*
X3791464Y54995*
X3791822*
X3790390Y58440D02*
X3791643D01*
X3793432Y60162D02*
X3793611Y59916D01*
X3793790Y60162*
X3793611Y60408*
X3793432Y60162*
X3793611Y58440D02*
Y54995D01*
X3796296Y58440D02*
X3795938Y58194D01*
X3795580Y57702*
X3795401Y56964*
Y56471*
X3795580Y55733*
X3795938Y55241*
X3796296Y54995*
X3796832*
X3796832D02*
X3797190Y55241D01*
X3797548Y55733*
X3797727Y56471*
Y56964*
X3797548Y57702*
X3797190Y58194*
X3796832Y58440*
X3796832D02*
X3796296D01*
X3799338D02*
Y54995D01*
Y57456D02*
X3799875Y58194D01*
X3800233Y58440*
X3800770*
X3801127Y58194*
X3801306Y57456*
Y54995*
X3807212Y58440D02*
X3807033Y58194D01*
X3807212Y57948*
X3807391Y58194*
X3807212Y58440*
Y55487D02*
X3807033Y55241D01*
X3807212Y54995*
X3807391Y55241*
X3807212Y55487*
X3771063Y71973D02*
Y66806D01*
Y71973D02*
X3772316D01*
X3772853Y71727*
X3773210Y71235*
X3773389Y70743*
X3773568Y70005*
Y68775*
X3773389Y68036*
X3773210Y67544*
X3772853Y67052*
X3772316Y66806*
X3771063*
X3775179Y68775D02*
X3777326D01*
Y69267*
X3777147Y69759*
X3776969Y70005*
X3776611Y70251*
X3776074*
X3775716Y70005*
X3775358Y69513*
X3775179Y68775*
Y68282*
X3775358Y67544*
X3775716Y67052*
X3776074Y66806*
X3776611*
X3776969Y67052*
X3777326Y67544*
X3775537Y70743D02*
X3776969Y71481D01*
X3780727Y69513D02*
X3780548Y70005D01*
X3780011Y70251*
X3779474*
X3778937Y70005*
X3778758Y69513*
X3778937Y69021*
X3779295Y68775*
X3780190Y68529*
X3780548Y68282*
X3780727Y67790*
Y67544*
X3780548Y67052*
X3780011Y66806*
X3779474*
X3778937Y67052*
X3778758Y67544*
X3782337Y71973D02*
X3782516Y71727D01*
X3782695Y71973*
X3782516Y72219*
X3782337Y71973*
X3782516Y70251D02*
Y66806D01*
X3786453Y70251D02*
Y66314D01*
X3786274Y65576*
X3786095Y65330*
X3785737Y65084*
X3785200*
X3784843Y65330*
X3786453Y69513D02*
X3786095Y70005D01*
X3785737Y70251*
X3785200*
X3784843Y70005*
X3784485Y69513*
X3784306Y68775*
Y68282*
X3784485Y67544*
X3784843Y67052*
X3785200Y66806*
X3785737*
X3786095Y67052*
X3786453Y67544*
X3788064Y70251D02*
Y66806D01*
Y69267D02*
X3788601Y70005D01*
X3788958Y70251*
X3789495*
X3789853Y70005*
X3790032Y69267*
Y66806*
X3793790Y70251D02*
Y66806D01*
Y69513D02*
X3793432Y70005D01*
X3793074Y70251*
X3792538*
X3792180Y70005*
X3791822Y69513*
X3791643Y68775*
Y68282*
X3791822Y67544*
X3792180Y67052*
X3792538Y66806*
X3793074*
X3793432Y67052*
X3793790Y67544*
X3795938Y71973D02*
Y67790D01*
X3796117Y67052*
X3796475Y66806*
X3796832*
X3795401Y70251D02*
X3796654D01*
X3798443Y71973D02*
X3798622Y71727D01*
X3798801Y71973*
X3798622Y72219*
X3798443Y71973*
X3798622Y70251D02*
Y66806D01*
X3801306Y70251D02*
X3800948Y70005D01*
X3800591Y69513*
X3800412Y68775*
Y68282*
X3800591Y67544*
X3800948Y67052*
X3801306Y66806*
X3801843*
X3802201Y67052*
X3802559Y67544*
X3802738Y68282*
Y68775*
X3802559Y69513*
X3802201Y70005*
X3801843Y70251*
X3801306*
X3804349D02*
Y66806D01*
Y69267D02*
X3804885Y70005D01*
X3805243Y70251*
X3805780*
X3806138Y70005*
X3806317Y69267*
Y66806*
X3812223Y70251D02*
X3812044Y70005D01*
X3812223Y69759*
X3812402Y70005*
X3812223Y70251*
Y67298D02*
X3812044Y67052D01*
X3812223Y66806*
X3812402Y67052*
X3812223Y67298*
X3822244Y60162D02*
Y54995D01*
Y60162D02*
X3823855D01*
X3824392Y59916*
X3824571Y59670*
X3824749Y59178*
Y58686*
X3824571Y58194*
X3824392Y57948*
X3823855Y57702*
X3822244D02*
X3823855D01*
X3824392Y57456*
X3824571Y57210*
X3824749Y56718*
Y55979*
X3824571Y55487*
X3824392Y55241*
X3823855Y54995*
X3822244*
X3826539Y55487D02*
X3826360Y55241D01*
X3826539Y54995*
X3826718Y55241*
X3826539Y55487*
X3835129Y58932D02*
X3834950Y59424D01*
X3834592Y59916*
X3834234Y60162*
X3833518*
X3833160Y59916*
X3832802Y59424*
X3832623Y58932*
X3832445Y58194*
Y56964*
X3832623Y56225*
X3832802Y55733*
X3833160Y55241*
X3833518Y54995*
X3834234*
X3834592Y55241*
X3834950Y55733*
X3835129Y56225*
X3836739Y60162D02*
Y54995D01*
Y57456D02*
X3837276Y58194D01*
X3837634Y58440*
X3838171*
X3838529Y58194*
X3838708Y57456*
Y54995*
X3840319Y60162D02*
X3840497Y59916D01*
X3840676Y60162*
X3840497Y60408*
X3840319Y60162*
X3840497Y58440D02*
Y54995D01*
X3842287Y58440D02*
Y54995D01*
Y56964D02*
X3842466Y57702D01*
X3842824Y58194*
X3843182Y58440*
X3843719*
X3846224D02*
X3845866Y58194D01*
X3845508Y57702*
X3845329Y56964*
Y56471*
X3845508Y55733*
X3845866Y55241*
X3846224Y54995*
X3846761*
X3847119Y55241*
X3847477Y55733*
X3847656Y56471*
Y56964*
X3847477Y57702*
X3847119Y58194*
X3846761Y58440*
X3846224*
X3849266D02*
Y54995D01*
Y57456D02*
X3849803Y58194D01*
X3850161Y58440*
X3850698*
X3851056Y58194*
X3851235Y57456*
Y54995*
X3862151Y60162D02*
X3861614Y59916D01*
X3861256Y59178*
X3861077Y57948*
Y57210*
X3861256Y55979*
X3861614Y55241*
X3862151Y54995*
X3862509*
X3863046Y55241*
X3863404Y55979*
X3863583Y57210*
Y57948*
X3863404Y59178*
X3863046Y59916*
X3862509Y60162*
X3862151*
X3865551D02*
X3867520D01*
X3866446Y58194*
X3866983*
X3867341Y57948*
X3867520Y57702*
X3867699Y56964*
Y56471*
X3867520Y55733*
X3867162Y55241*
X3866625Y54995*
X3866088*
X3865551Y55241*
X3865372Y55487*
X3865193Y55979*
X3872530Y61147D02*
X3869309Y53273D01*
X3875215Y60162D02*
X3874678Y59916D01*
X3874320Y59178*
X3874141Y57948*
Y57210*
X3874320Y55979*
X3874678Y55241*
X3875215Y54995*
X3875573*
X3876110Y55241*
X3876467Y55979*
X3876646Y57210*
Y57948*
X3876467Y59178*
X3876110Y59916*
X3875573Y60162*
X3875215*
X3878615D02*
X3880583D01*
X3879510Y58194*
X3880047*
X3880404Y57948*
X3880583Y57702*
X3880762Y56964*
Y56471*
X3880583Y55733*
X3880225Y55241*
X3879689Y54995*
X3879152*
X3878615Y55241*
X3878436Y55487*
X3878257Y55979*
X3885594Y61147D02*
X3882373Y53273D01*
X3887384Y58932D02*
Y59178D01*
X3887563Y59670*
X3887742Y59916*
X3888099Y60162*
X3888099D02*
X3888815D01*
X3889173Y59916*
X3889352Y59670*
X3889531Y59178*
Y58686*
X3889352Y58194*
X3888994Y57456*
X3887205Y54995*
X3889710*
X3892394Y60162D02*
X3891858Y59916D01*
X3891500Y59178*
X3891321Y57948*
Y57210*
X3891500Y55979*
X3891858Y55241*
X3892394Y54995*
X3892752*
X3893289Y55241*
X3893647Y55979*
X3893826Y57210*
Y57948*
X3893647Y59178*
X3893289Y59916*
X3892752Y60162*
X3892394*
X3895437Y59178D02*
X3895795Y59424D01*
X3896331Y60162*
Y54995*
X3900089Y59424D02*
X3899911Y59916D01*
X3899374Y60162*
X3899016*
X3898479Y59916*
X3898121Y59178*
X3897942Y57948*
Y56718*
X3898121Y55733*
X3898479Y55241*
X3899016Y54995*
X3899195*
X3899732Y55241*
X3900089Y55733*
X3900268Y56471*
Y56718*
X3900089Y57456*
X3899732Y57948*
X3899195Y58194*
X3899016*
X3898479Y57948*
X3898121Y57456*
X3897942Y56718*
X3824928Y70743D02*
X3824749Y71235D01*
X3824392Y71727*
X3824034Y71973*
X3823318*
X3822960Y71727*
X3822602Y71235*
X3822423Y70743*
X3822244Y70005*
Y68775*
X3822423Y68036*
X3822602Y67544*
X3822960Y67052*
X3823318Y66806*
X3824034*
X3824392Y67052*
X3824749Y67544*
X3824928Y68036*
X3826539Y70251D02*
Y67790D01*
X3826718Y67052*
X3827076Y66806*
X3827613*
X3827971Y67052*
X3828508Y67790*
Y70251D02*
Y66806D01*
X3830118Y71973D02*
Y66806D01*
Y69513D02*
X3830476Y70005D01*
X3830834Y70251*
X3831371*
X3831729Y70005*
X3832087Y69513*
X3832266Y68775*
Y68282*
X3832087Y67544*
X3831729Y67052*
X3831371Y66806*
X3830834*
X3830476Y67052*
X3830118Y67544*
X3833876Y68775D02*
X3836024D01*
Y69267*
X3835845Y69759*
X3835666Y70005*
X3835308Y70251*
X3834771*
X3834413Y70005*
X3834055Y69513*
X3833876Y68775*
Y68282*
X3834055Y67544*
X3834413Y67052*
X3834771Y66806*
X3835308*
X3835666Y67052*
X3836024Y67544*
X3841750Y71973D02*
X3843182Y66806D01*
X3844613Y71973D02*
X3843182Y66806D01*
X3847298Y71973D02*
X3846761Y71727D01*
X3846403Y70989*
X3846224Y69759*
Y69021*
X3846403Y67790*
X3846761Y67052*
X3847298Y66806*
X3847656*
X3848193Y67052*
X3848550Y67790*
X3848729Y69021*
Y69759*
X3848550Y70989*
X3848193Y71727*
X3847656Y71973*
X3847298*
X3852130D02*
X3850340Y68529D01*
X3853024*
X3852130Y71973D02*
Y66806D01*
X3457547Y308701D02*
G75*
G03X3461484I1969J-0D01*
G01X3613059*
G03X3616996Y304764I3937J-0*
G01X3648492*
G03X3652429Y308701I0J3937*
G01X3713453*
Y52795*
X3652429*
G03X3648492Y56732I-3937J0*
G01X3616996*
G03X3613059Y52795I0J-3937*
G01X3461484*
Y100039*
G03X3457547I-1968J0*
G01Y308701*
X3500854Y301220D02*
G03X3492980I-3937J0D01*
G01X3500854D02*
Y289409D01*
X3492980D02*
G03X3500854I3937J0D01*
G01X3492980D02*
Y301220D01*
X3465028Y263425D02*
X3492980D01*
Y270512*
X3500854D02*
G03X3492980I-3937J-0D01*
G01X3500854D02*
Y263425D01*
X3514634*
Y255551D02*
G03Y263425I-0J3937D01*
G01Y255551D02*
X3465028D01*
Y263425D02*
G03Y255551I-0J-3937D01*
G01X3710500Y105945D02*
G03X3710500I-6890J0D01*
G01X3478217Y66575D02*
G03X3478217I-6890J0D01*
G01X3554004Y297480D02*
X3585500D01*
Y290591D02*
G03Y297480I0J3444D01*
G01Y290591D02*
X3554004D01*
Y297480D02*
G03Y290591I576J-3445D01*
G54D188*
G01X3678138Y133701D03*
X3668453D03*
Y140394D03*
X3678138D03*
X3518039Y149134D03*
X3523039D03*
X3518039Y144134D03*
X3523039D03*
X3518039Y139134D03*
X3523039D03*
X3518039Y129134D03*
X3523039D03*
G54D217*
G54D289*
X3557272Y230571D02*
X3561279D01*
X3562547Y231839*
Y241161*
X3557272*
Y230571*
Y241161*
X3557291Y230571D02*
Y241161D01*
X3557311Y230571D02*
Y241161D01*
X3557331Y230571D02*
Y241161D01*
X3557350Y230571D02*
Y241161D01*
X3557370Y230571D02*
Y241161D01*
X3557390Y230571D02*
Y241161D01*
X3557409Y230571D02*
Y241161D01*
X3557429Y230571D02*
Y241161D01*
X3557449Y230571D02*
Y241161D01*
X3557469Y230571D02*
Y241161D01*
X3557488Y230571D02*
Y241161D01*
X3557508Y230571D02*
Y241161D01*
X3557528Y230571D02*
Y241161D01*
X3557547Y230571D02*
Y241161D01*
X3557567Y230571D02*
Y241161D01*
X3557587Y230571D02*
Y241161D01*
X3557606Y230571D02*
Y241161D01*
X3557626Y230571D02*
Y241161D01*
X3557646Y230571D02*
Y241161D01*
X3557665Y230571D02*
Y241161D01*
X3557685Y230571D02*
Y241161D01*
X3557705Y230571D02*
Y241161D01*
X3557724Y230571D02*
Y241161D01*
X3557744Y230571D02*
Y241161D01*
X3557764Y230571D02*
Y241161D01*
X3557783Y230571D02*
Y241161D01*
X3557803Y230571D02*
Y241161D01*
X3557823Y230571D02*
Y241161D01*
X3557843Y230571D02*
Y241161D01*
X3557862Y230571D02*
Y241161D01*
X3557882Y230571D02*
Y241161D01*
X3557902Y230571D02*
Y241161D01*
X3557921Y230571D02*
Y241161D01*
X3557941Y230571D02*
Y241161D01*
X3557961Y230571D02*
Y241161D01*
X3557980Y230571D02*
Y241161D01*
X3558000Y230571D02*
Y241161D01*
X3558020Y230571D02*
Y241161D01*
X3558039Y230571D02*
Y241161D01*
X3558059Y230571D02*
Y241161D01*
X3558079Y230571D02*
Y241161D01*
X3558098Y230571D02*
Y241161D01*
X3558118Y230571D02*
Y241161D01*
X3558138Y230571D02*
Y241161D01*
X3558157Y230571D02*
Y241161D01*
X3558177Y230571D02*
Y241161D01*
X3558197Y230571D02*
Y241161D01*
X3558217Y230571D02*
Y241161D01*
X3558236Y230571D02*
Y241161D01*
X3558256Y230571D02*
Y241161D01*
X3558276Y230571D02*
Y241161D01*
X3558295Y230571D02*
Y241161D01*
X3558315Y230571D02*
Y241161D01*
X3558335Y230571D02*
Y241161D01*
X3558354Y230571D02*
Y241161D01*
X3558374Y230571D02*
Y241161D01*
X3558394Y230571D02*
Y241161D01*
X3558413Y230571D02*
Y241161D01*
X3558433Y230571D02*
Y241161D01*
X3558453Y230571D02*
Y241161D01*
X3558472Y230571D02*
Y241161D01*
X3558492Y230571D02*
Y241161D01*
X3558512Y230571D02*
Y241161D01*
X3558531Y230571D02*
Y241161D01*
X3558551Y230571D02*
Y241161D01*
X3558571Y230571D02*
Y241161D01*
X3558591Y230571D02*
Y241161D01*
X3558610Y230571D02*
Y241161D01*
X3558630Y230571D02*
Y241161D01*
X3558650Y230571D02*
Y241161D01*
X3558669Y230571D02*
Y241161D01*
X3558689Y230571D02*
Y241161D01*
X3558709Y230571D02*
Y241161D01*
X3558728Y230571D02*
Y241161D01*
X3558748Y230571D02*
Y241161D01*
X3558768Y230571D02*
Y241161D01*
X3558787Y230571D02*
Y241161D01*
X3558807Y230571D02*
Y241161D01*
X3558827Y230571D02*
Y241161D01*
X3558846Y230571D02*
Y241161D01*
X3558866Y230571D02*
Y241161D01*
X3558886Y230571D02*
Y241161D01*
X3558906Y230571D02*
Y241161D01*
X3558925Y230571D02*
Y241161D01*
X3558945Y230571D02*
Y241161D01*
X3558965Y230571D02*
Y241161D01*
X3558984Y230571D02*
Y241161D01*
X3559004Y230571D02*
Y241161D01*
X3559024Y230571D02*
Y241161D01*
X3559043Y230571D02*
Y241161D01*
X3559063Y230571D02*
Y241161D01*
X3559083Y230571D02*
Y241161D01*
X3559102Y230571D02*
Y241161D01*
X3559122Y230571D02*
Y241161D01*
X3559142Y230571D02*
Y241161D01*
X3559161Y230571D02*
Y241161D01*
X3559181Y230571D02*
Y241161D01*
X3559201Y230571D02*
Y241161D01*
X3559220Y230571D02*
Y241161D01*
X3559240Y230571D02*
Y241161D01*
X3559260Y230571D02*
Y241161D01*
X3559280Y230571D02*
Y241161D01*
X3559299Y230571D02*
Y241161D01*
X3559319Y230571D02*
Y241161D01*
X3559339Y230571D02*
Y241161D01*
X3559358Y230571D02*
Y241161D01*
X3559378Y230571D02*
Y241161D01*
X3559398Y230571D02*
Y241161D01*
X3559417Y230571D02*
Y241161D01*
X3559437Y230571D02*
Y241161D01*
X3559457Y230571D02*
Y241161D01*
X3559476Y230571D02*
Y241161D01*
X3559496Y230571D02*
Y241161D01*
X3559516Y230571D02*
Y241161D01*
X3559535Y230571D02*
Y241161D01*
X3559555Y230571D02*
Y241161D01*
X3559575Y230571D02*
Y241161D01*
X3559594Y230571D02*
Y241161D01*
X3559614Y230571D02*
Y241161D01*
X3559634Y230571D02*
Y241161D01*
X3559654Y230571D02*
Y241161D01*
X3559673Y230571D02*
Y241161D01*
X3559693Y230571D02*
Y241161D01*
X3559713Y230571D02*
Y241161D01*
X3559732Y230571D02*
Y241161D01*
X3559752Y230571D02*
Y241161D01*
X3559772Y230571D02*
Y241161D01*
X3559791Y230571D02*
Y241161D01*
X3559811Y230571D02*
Y241161D01*
X3559831Y230571D02*
Y241161D01*
X3559850Y230571D02*
Y241161D01*
X3559870Y230571D02*
Y241161D01*
X3559890Y230571D02*
Y241161D01*
X3559909Y230571D02*
Y241161D01*
X3559929Y230571D02*
Y241161D01*
X3559949Y230571D02*
Y241161D01*
X3559969Y230571D02*
Y241161D01*
X3559988Y230571D02*
Y241161D01*
X3560008Y230571D02*
Y241161D01*
X3560028Y230571D02*
Y241161D01*
X3560047Y230571D02*
Y241161D01*
X3560067Y230571D02*
Y241161D01*
X3560087Y230571D02*
Y241161D01*
X3560106Y230571D02*
Y241161D01*
X3560126Y230571D02*
Y241161D01*
X3560146Y230571D02*
Y241161D01*
X3560165Y230571D02*
Y241161D01*
X3560185Y230571D02*
Y241161D01*
X3560205Y230571D02*
Y241161D01*
X3560224Y230571D02*
Y241161D01*
X3560244Y230571D02*
Y241161D01*
X3560264Y230571D02*
Y241161D01*
X3560283Y230571D02*
Y241161D01*
X3560303Y230571D02*
Y241161D01*
X3560323Y230571D02*
Y241161D01*
X3560343Y230571D02*
Y241161D01*
X3560362Y230571D02*
Y241161D01*
X3560382Y230571D02*
Y241161D01*
X3560402Y230571D02*
Y241161D01*
X3560421Y230571D02*
Y241161D01*
X3560441Y230571D02*
Y241161D01*
X3560461Y230571D02*
Y241161D01*
X3560480Y230571D02*
Y241161D01*
X3560500Y230571D02*
Y241161D01*
X3560520Y230571D02*
Y241161D01*
X3560539Y230571D02*
Y241161D01*
X3560559Y230571D02*
Y241161D01*
X3560579Y230571D02*
Y241161D01*
X3560598Y230571D02*
Y241161D01*
X3560618Y230571D02*
Y241161D01*
X3560638Y230571D02*
Y241161D01*
X3560657Y230571D02*
Y241161D01*
X3560677Y230571D02*
Y241161D01*
X3560697Y230571D02*
Y241161D01*
X3560717Y230571D02*
Y241161D01*
X3560736Y230571D02*
Y241161D01*
X3560756Y230571D02*
Y241161D01*
X3560776Y230571D02*
Y241161D01*
X3560795Y230571D02*
Y241161D01*
X3560815Y230571D02*
Y241161D01*
X3560835Y230571D02*
Y241161D01*
X3560854Y230571D02*
Y241161D01*
X3560874Y230571D02*
Y241161D01*
X3560894Y230571D02*
Y241161D01*
X3560913Y230571D02*
Y241161D01*
X3560933Y230571D02*
Y241161D01*
X3560953Y230571D02*
Y241161D01*
X3560972Y230571D02*
Y241161D01*
X3560992Y230571D02*
Y241161D01*
X3561012Y230571D02*
Y241161D01*
X3561031Y230571D02*
Y241161D01*
X3561051Y230571D02*
Y241161D01*
X3561071Y230571D02*
Y241161D01*
X3561091Y230571D02*
Y241161D01*
X3561110Y230571D02*
Y241161D01*
X3561130Y230571D02*
Y241161D01*
X3561150Y230571D02*
Y241161D01*
X3561169Y230571D02*
Y241161D01*
X3561189Y230571D02*
Y241161D01*
X3561209Y230571D02*
Y241161D01*
X3561228Y230571D02*
Y241161D01*
X3561248Y230571D02*
Y241161D01*
X3561268Y230571D02*
Y241161D01*
X3561287Y230579D02*
Y241161D01*
X3561307Y230599D02*
Y241161D01*
X3561327Y230618D02*
Y241161D01*
X3561346Y230638D02*
Y241161D01*
X3561366Y230658D02*
Y241161D01*
X3561386Y230677D02*
Y241161D01*
X3561406Y230697D02*
Y241161D01*
X3561425Y230717D02*
Y241161D01*
X3561445Y230736D02*
Y241161D01*
X3561465Y230756D02*
Y241161D01*
X3561484Y230776D02*
Y241161D01*
X3561504Y230796D02*
Y241161D01*
X3561524Y230815D02*
Y241161D01*
X3561543Y230835D02*
Y241161D01*
X3561563Y230855D02*
Y241161D01*
X3561583Y230874D02*
Y241161D01*
X3561602Y230894D02*
Y241161D01*
X3561622Y230914D02*
Y241161D01*
X3561642Y230933D02*
Y241161D01*
X3561661Y230953D02*
Y241161D01*
X3561681Y230973D02*
Y241161D01*
X3561701Y230992D02*
Y241161D01*
X3561720Y231012D02*
Y241161D01*
X3561740Y231032D02*
Y241161D01*
X3561760Y231051D02*
Y241161D01*
X3561780Y231071D02*
Y241161D01*
X3561799Y231091D02*
Y241161D01*
X3561819Y231111D02*
Y241161D01*
X3561839Y231130D02*
Y241161D01*
X3561858Y231150D02*
Y241161D01*
X3561878Y231170D02*
Y241161D01*
X3561898Y231189D02*
Y241161D01*
X3561917Y231209D02*
Y241161D01*
X3561937Y231229D02*
Y241161D01*
X3561957Y231248D02*
Y241161D01*
X3561976Y231268D02*
Y241161D01*
X3561996Y231288D02*
Y241161D01*
X3562016Y231307D02*
Y241161D01*
X3562035Y231327D02*
Y241161D01*
X3562055Y231347D02*
Y241161D01*
X3562075Y231366D02*
Y241161D01*
X3562094Y231386D02*
Y241161D01*
X3562114Y231406D02*
Y241161D01*
X3562134Y231425D02*
Y241161D01*
X3562154Y231445D02*
Y241161D01*
X3562173Y231465D02*
Y241161D01*
X3562193Y231485D02*
Y241161D01*
X3562213Y231504D02*
Y241161D01*
X3562232Y231524D02*
Y241161D01*
X3562252Y231544D02*
Y241161D01*
X3562272Y231563D02*
Y241161D01*
X3562291Y231583D02*
Y241161D01*
X3562311Y231603D02*
Y241161D01*
X3562331Y231622D02*
Y241161D01*
X3562350Y231642D02*
Y241161D01*
X3562370Y231662D02*
Y241161D01*
X3562390Y231681D02*
Y241161D01*
X3562409Y231701D02*
Y241161D01*
X3562429Y231721D02*
Y241161D01*
X3562449Y231740D02*
Y241161D01*
X3562469Y231760D02*
Y241161D01*
X3562488Y231780D02*
Y241161D01*
X3562508Y231799D02*
Y241161D01*
X3562528Y231819D02*
Y241161D01*
X3480756Y278602D02*
Y284480D01*
X3479193Y286043*
X3469772*
Y278602*
X3480756*
X3469772D02*
Y286043D01*
X3469791Y278602D02*
Y286043D01*
X3469811Y278602D02*
Y286043D01*
X3469831Y278602D02*
Y286043D01*
X3469850Y278602D02*
Y286043D01*
X3469870Y278602D02*
Y286043D01*
X3469890Y278602D02*
Y286043D01*
X3469909Y278602D02*
Y286043D01*
X3469929Y278602D02*
Y286043D01*
X3469949Y278602D02*
Y286043D01*
X3469969Y278602D02*
Y286043D01*
X3469988Y278602D02*
Y286043D01*
X3470008Y278602D02*
Y286043D01*
X3470028Y278602D02*
Y286043D01*
X3470047Y278602D02*
Y286043D01*
X3470067Y278602D02*
Y286043D01*
X3470087Y278602D02*
Y286043D01*
X3470106Y278602D02*
Y286043D01*
X3470126Y278602D02*
Y286043D01*
X3470146Y278602D02*
Y286043D01*
X3470165Y278602D02*
Y286043D01*
X3470185Y278602D02*
Y286043D01*
X3470205Y278602D02*
Y286043D01*
X3470224Y278602D02*
Y286043D01*
X3470244Y278602D02*
Y286043D01*
X3470264Y278602D02*
Y286043D01*
X3470283Y278602D02*
Y286043D01*
X3470303Y278602D02*
Y286043D01*
X3470323Y278602D02*
Y286043D01*
X3470343Y278602D02*
Y286043D01*
X3470362Y278602D02*
Y286043D01*
X3470382Y278602D02*
Y286043D01*
X3470402Y278602D02*
Y286043D01*
X3470421Y278602D02*
Y286043D01*
X3470441Y278602D02*
Y286043D01*
X3470461Y278602D02*
Y286043D01*
X3470480Y278602D02*
Y286043D01*
X3470500Y278602D02*
Y286043D01*
X3470520Y278602D02*
Y286043D01*
X3470539Y278602D02*
Y286043D01*
X3470559Y278602D02*
Y286043D01*
X3470579Y278602D02*
Y286043D01*
X3470598Y278602D02*
Y286043D01*
X3470618Y278602D02*
Y286043D01*
X3470638Y278602D02*
Y286043D01*
X3470657Y278602D02*
Y286043D01*
X3470677Y278602D02*
Y286043D01*
X3470697Y278602D02*
Y286043D01*
X3470717Y278602D02*
Y286043D01*
X3470736Y278602D02*
Y286043D01*
X3470756Y278602D02*
Y286043D01*
X3470776Y278602D02*
Y286043D01*
X3470795Y278602D02*
Y286043D01*
X3470815Y278602D02*
Y286043D01*
X3470835Y278602D02*
Y286043D01*
X3470854Y278602D02*
Y286043D01*
X3470874Y278602D02*
Y286043D01*
X3470894Y278602D02*
Y286043D01*
X3470913Y278602D02*
Y286043D01*
X3470933Y278602D02*
Y286043D01*
X3470953Y278602D02*
Y286043D01*
X3470972Y278602D02*
Y286043D01*
X3470992Y278602D02*
Y286043D01*
X3471012Y278602D02*
Y286043D01*
X3471031Y278602D02*
Y286043D01*
X3471051Y278602D02*
Y286043D01*
X3471071Y278602D02*
Y286043D01*
X3471091Y278602D02*
Y286043D01*
X3471110Y278602D02*
Y286043D01*
X3471130Y278602D02*
Y286043D01*
X3471150Y278602D02*
Y286043D01*
X3471169Y278602D02*
Y286043D01*
X3471189Y278602D02*
Y286043D01*
X3471209Y278602D02*
Y286043D01*
X3471228Y278602D02*
Y286043D01*
X3471248Y278602D02*
Y286043D01*
X3471268Y278602D02*
Y286043D01*
X3471287Y278602D02*
Y286043D01*
X3471307Y278602D02*
Y286043D01*
X3471327Y278602D02*
Y286043D01*
X3471346Y278602D02*
Y286043D01*
X3471366Y278602D02*
Y286043D01*
X3471386Y278602D02*
Y286043D01*
X3471406Y278602D02*
Y286043D01*
X3471425Y278602D02*
Y286043D01*
X3471445Y278602D02*
Y286043D01*
X3471465Y278602D02*
Y286043D01*
X3471484Y278602D02*
Y286043D01*
X3471504Y278602D02*
Y286043D01*
X3471524Y278602D02*
Y286043D01*
X3471543Y278602D02*
Y286043D01*
X3471563Y278602D02*
Y286043D01*
X3471583Y278602D02*
Y286043D01*
X3471602Y278602D02*
Y286043D01*
X3471622Y278602D02*
Y286043D01*
X3471642Y278602D02*
Y286043D01*
X3471661Y278602D02*
Y286043D01*
X3471681Y278602D02*
Y286043D01*
X3471701Y278602D02*
Y286043D01*
X3471720Y278602D02*
Y286043D01*
X3471740Y278602D02*
Y286043D01*
X3471760Y278602D02*
Y286043D01*
X3471780Y278602D02*
Y286043D01*
X3471799Y278602D02*
Y286043D01*
X3471819Y278602D02*
Y286043D01*
X3471839Y278602D02*
Y286043D01*
X3471858Y278602D02*
Y286043D01*
X3471878Y278602D02*
Y286043D01*
X3471898Y278602D02*
Y286043D01*
X3471917Y278602D02*
Y286043D01*
X3471937Y278602D02*
Y286043D01*
X3471957Y278602D02*
Y286043D01*
X3471976Y278602D02*
Y286043D01*
X3471996Y278602D02*
Y286043D01*
X3472016Y278602D02*
Y286043D01*
X3472035Y278602D02*
Y286043D01*
X3472055Y278602D02*
Y286043D01*
X3472075Y278602D02*
Y286043D01*
X3472094Y278602D02*
Y286043D01*
X3472114Y278602D02*
Y286043D01*
X3472134Y278602D02*
Y286043D01*
X3472154Y278602D02*
Y286043D01*
X3472173Y278602D02*
Y286043D01*
X3472193Y278602D02*
Y286043D01*
X3472213Y278602D02*
Y286043D01*
X3472232Y278602D02*
Y286043D01*
X3472252Y278602D02*
Y286043D01*
X3472272Y278602D02*
Y286043D01*
X3472291Y278602D02*
Y286043D01*
X3472311Y278602D02*
Y286043D01*
X3472331Y278602D02*
Y286043D01*
X3472350Y278602D02*
Y286043D01*
X3472370Y278602D02*
Y286043D01*
X3472390Y278602D02*
Y286043D01*
X3472409Y278602D02*
Y286043D01*
X3472429Y278602D02*
Y286043D01*
X3472449Y278602D02*
Y286043D01*
X3472469Y278602D02*
Y286043D01*
X3472488Y278602D02*
Y286043D01*
X3472508Y278602D02*
Y286043D01*
X3472528Y278602D02*
Y286043D01*
X3472547Y278602D02*
Y286043D01*
X3472567Y278602D02*
Y286043D01*
X3472587Y278602D02*
Y286043D01*
X3472606Y278602D02*
Y286043D01*
X3472626Y278602D02*
Y286043D01*
X3472646Y278602D02*
Y286043D01*
X3472665Y278602D02*
Y286043D01*
X3472685Y278602D02*
Y286043D01*
X3472705Y278602D02*
Y286043D01*
X3472724Y278602D02*
Y286043D01*
X3472744Y278602D02*
Y286043D01*
X3472764Y278602D02*
Y286043D01*
X3472783Y278602D02*
Y286043D01*
X3472803Y278602D02*
Y286043D01*
X3472823Y278602D02*
Y286043D01*
X3472843Y278602D02*
Y286043D01*
X3472862Y278602D02*
Y286043D01*
X3472882Y278602D02*
Y286043D01*
X3472902Y278602D02*
Y286043D01*
X3472921Y278602D02*
Y286043D01*
X3472941Y278602D02*
Y286043D01*
X3472961Y278602D02*
Y286043D01*
X3472980Y278602D02*
Y286043D01*
X3473000Y278602D02*
Y286043D01*
X3473020Y278602D02*
Y286043D01*
X3473039Y278602D02*
Y286043D01*
X3473059Y278602D02*
Y286043D01*
X3473079Y278602D02*
Y286043D01*
X3473098Y278602D02*
Y286043D01*
X3473118Y278602D02*
Y286043D01*
X3473138Y278602D02*
Y286043D01*
X3473157Y278602D02*
Y286043D01*
X3473177Y278602D02*
Y286043D01*
X3473197Y278602D02*
Y286043D01*
X3473217Y278602D02*
Y286043D01*
X3473236Y278602D02*
Y286043D01*
X3473256Y278602D02*
Y286043D01*
X3473276Y278602D02*
Y286043D01*
X3473295Y278602D02*
Y286043D01*
X3473315Y278602D02*
Y286043D01*
X3473335Y278602D02*
Y286043D01*
X3473354Y278602D02*
Y286043D01*
X3473374Y278602D02*
Y286043D01*
X3473394Y278602D02*
Y286043D01*
X3473413Y278602D02*
Y286043D01*
X3473433Y278602D02*
Y286043D01*
X3473453Y278602D02*
Y286043D01*
X3473472Y278602D02*
Y286043D01*
X3473492Y278602D02*
Y286043D01*
X3473512Y278602D02*
Y286043D01*
X3473531Y278602D02*
Y286043D01*
X3473551Y278602D02*
Y286043D01*
X3473571Y278602D02*
Y286043D01*
X3473591Y278602D02*
Y286043D01*
X3473610Y278602D02*
Y286043D01*
X3473630Y278602D02*
Y286043D01*
X3473650Y278602D02*
Y286043D01*
X3473669Y278602D02*
Y286043D01*
X3473689Y278602D02*
Y286043D01*
X3473709Y278602D02*
Y286043D01*
X3473728Y278602D02*
Y286043D01*
X3473748Y278602D02*
Y286043D01*
X3473768Y278602D02*
Y286043D01*
X3473787Y278602D02*
Y286043D01*
X3473807Y278602D02*
Y286043D01*
X3473827Y278602D02*
Y286043D01*
X3473846Y278602D02*
Y286043D01*
X3473866Y278602D02*
Y286043D01*
X3473886Y278602D02*
Y286043D01*
X3473906Y278602D02*
Y286043D01*
X3473925Y278602D02*
Y286043D01*
X3473945Y278602D02*
Y286043D01*
X3473965Y278602D02*
Y286043D01*
X3473984Y278602D02*
Y286043D01*
X3474004Y278602D02*
Y286043D01*
X3474024Y278602D02*
Y286043D01*
X3474043Y278602D02*
Y286043D01*
X3474063Y278602D02*
Y286043D01*
X3474083Y278602D02*
Y286043D01*
X3474102Y278602D02*
Y286043D01*
X3474122Y278602D02*
Y286043D01*
X3474142Y278602D02*
Y286043D01*
X3474161Y278602D02*
Y286043D01*
X3474181Y278602D02*
Y286043D01*
X3474201Y278602D02*
Y286043D01*
X3474220Y278602D02*
Y286043D01*
X3474240Y278602D02*
Y286043D01*
X3474260Y278602D02*
Y286043D01*
X3474280Y278602D02*
Y286043D01*
X3474299Y278602D02*
Y286043D01*
X3474319Y278602D02*
Y286043D01*
X3474339Y278602D02*
Y286043D01*
X3474358Y278602D02*
Y286043D01*
X3474378Y278602D02*
Y286043D01*
X3474398Y278602D02*
Y286043D01*
X3474417Y278602D02*
Y286043D01*
X3474437Y278602D02*
Y286043D01*
X3474457Y278602D02*
Y286043D01*
X3474476Y278602D02*
Y286043D01*
X3474496Y278602D02*
Y286043D01*
X3474516Y278602D02*
Y286043D01*
X3474535Y278602D02*
Y286043D01*
X3474555Y278602D02*
Y286043D01*
X3474575Y278602D02*
Y286043D01*
X3474594Y278602D02*
Y286043D01*
X3474614Y278602D02*
Y286043D01*
X3474634Y278602D02*
Y286043D01*
X3474654Y278602D02*
Y286043D01*
X3474673Y278602D02*
Y286043D01*
X3474693Y278602D02*
Y286043D01*
X3474713Y278602D02*
Y286043D01*
X3474732Y278602D02*
Y286043D01*
X3474752Y278602D02*
Y286043D01*
X3474772Y278602D02*
Y286043D01*
X3474791Y278602D02*
Y286043D01*
X3474811Y278602D02*
Y286043D01*
X3474831Y278602D02*
Y286043D01*
X3474850Y278602D02*
Y286043D01*
X3474870Y278602D02*
Y286043D01*
X3474890Y278602D02*
Y286043D01*
X3474909Y278602D02*
Y286043D01*
X3474929Y278602D02*
Y286043D01*
X3474949Y278602D02*
Y286043D01*
X3474969Y278602D02*
Y286043D01*
X3474988Y278602D02*
Y286043D01*
X3475008Y278602D02*
Y286043D01*
X3475028Y278602D02*
Y286043D01*
X3475047Y278602D02*
Y286043D01*
X3475067Y278602D02*
Y286043D01*
X3475087Y278602D02*
Y286043D01*
X3475106Y278602D02*
Y286043D01*
X3475126Y278602D02*
Y286043D01*
X3475146Y278602D02*
Y286043D01*
X3475165Y278602D02*
Y286043D01*
X3475185Y278602D02*
Y286043D01*
X3475205Y278602D02*
Y286043D01*
X3475224Y278602D02*
Y286043D01*
X3475244Y278602D02*
Y286043D01*
X3475264Y278602D02*
Y286043D01*
X3475283Y278602D02*
Y286043D01*
X3475303Y278602D02*
Y286043D01*
X3475323Y278602D02*
Y286043D01*
X3475343Y278602D02*
Y286043D01*
X3475362Y278602D02*
Y286043D01*
X3475382Y278602D02*
Y286043D01*
X3475402Y278602D02*
Y286043D01*
X3475421Y278602D02*
Y286043D01*
X3475441Y278602D02*
Y286043D01*
X3475461Y278602D02*
Y286043D01*
X3475480Y278602D02*
Y286043D01*
X3475500Y278602D02*
Y286043D01*
X3475520Y278602D02*
Y286043D01*
X3475539Y278602D02*
Y286043D01*
X3475559Y278602D02*
Y286043D01*
X3475579Y278602D02*
Y286043D01*
X3475598Y278602D02*
Y286043D01*
X3475618Y278602D02*
Y286043D01*
X3475638Y278602D02*
Y286043D01*
X3475657Y278602D02*
Y286043D01*
X3475677Y278602D02*
Y286043D01*
X3475697Y278602D02*
Y286043D01*
X3475717Y278602D02*
Y286043D01*
X3475736Y278602D02*
Y286043D01*
X3475756Y278602D02*
Y286043D01*
X3475776Y278602D02*
Y286043D01*
X3475795Y278602D02*
Y286043D01*
X3475815Y278602D02*
Y286043D01*
X3475835Y278602D02*
Y286043D01*
X3475854Y278602D02*
Y286043D01*
X3475874Y278602D02*
Y286043D01*
X3475894Y278602D02*
Y286043D01*
X3475913Y278602D02*
Y286043D01*
X3475933Y278602D02*
Y286043D01*
X3475953Y278602D02*
Y286043D01*
X3475972Y278602D02*
Y286043D01*
X3475992Y278602D02*
Y286043D01*
X3476012Y278602D02*
Y286043D01*
X3476031Y278602D02*
Y286043D01*
X3476051Y278602D02*
Y286043D01*
X3476071Y278602D02*
Y286043D01*
X3476091Y278602D02*
Y286043D01*
X3476110Y278602D02*
Y286043D01*
X3476130Y278602D02*
Y286043D01*
X3476150Y278602D02*
Y286043D01*
X3476169Y278602D02*
Y286043D01*
X3476189Y278602D02*
Y286043D01*
X3476209Y278602D02*
Y286043D01*
X3476228Y278602D02*
Y286043D01*
X3476248Y278602D02*
Y286043D01*
X3476268Y278602D02*
Y286043D01*
X3476287Y278602D02*
Y286043D01*
X3476307Y278602D02*
Y286043D01*
X3476327Y278602D02*
Y286043D01*
X3476346Y278602D02*
Y286043D01*
X3476366Y278602D02*
Y286043D01*
X3476386Y278602D02*
Y286043D01*
X3476406Y278602D02*
Y286043D01*
X3476425Y278602D02*
Y286043D01*
X3476445Y278602D02*
Y286043D01*
X3476465Y278602D02*
Y286043D01*
X3476484Y278602D02*
Y286043D01*
X3476504Y278602D02*
Y286043D01*
X3476524Y278602D02*
Y286043D01*
X3476543Y278602D02*
Y286043D01*
X3476563Y278602D02*
Y286043D01*
X3476583Y278602D02*
Y286043D01*
X3476602Y278602D02*
Y286043D01*
X3476622Y278602D02*
Y286043D01*
X3476642Y278602D02*
Y286043D01*
X3476661Y278602D02*
Y286043D01*
X3476681Y278602D02*
Y286043D01*
X3476701Y278602D02*
Y286043D01*
X3476720Y278602D02*
Y286043D01*
X3476740Y278602D02*
Y286043D01*
X3476760Y278602D02*
Y286043D01*
X3476780Y278602D02*
Y286043D01*
X3476799Y278602D02*
Y286043D01*
X3476819Y278602D02*
Y286043D01*
X3476839Y278602D02*
Y286043D01*
X3476858Y278602D02*
Y286043D01*
X3476878Y278602D02*
Y286043D01*
X3476898Y278602D02*
Y286043D01*
X3476917Y278602D02*
Y286043D01*
X3476937Y278602D02*
Y286043D01*
X3476957Y278602D02*
Y286043D01*
X3476976Y278602D02*
Y286043D01*
X3476996Y278602D02*
Y286043D01*
X3477016Y278602D02*
Y286043D01*
X3477035Y278602D02*
Y286043D01*
X3477055Y278602D02*
Y286043D01*
X3477075Y278602D02*
Y286043D01*
X3477094Y278602D02*
Y286043D01*
X3477114Y278602D02*
Y286043D01*
X3477134Y278602D02*
Y286043D01*
X3477154Y278602D02*
Y286043D01*
X3477173Y278602D02*
Y286043D01*
X3477193Y278602D02*
Y286043D01*
X3477213Y278602D02*
Y286043D01*
X3477232Y278602D02*
Y286043D01*
X3477252Y278602D02*
Y286043D01*
X3477272Y278602D02*
Y286043D01*
X3477291Y278602D02*
Y286043D01*
X3477311Y278602D02*
Y286043D01*
X3477331Y278602D02*
Y286043D01*
X3477350Y278602D02*
Y286043D01*
X3477370Y278602D02*
Y286043D01*
X3477390Y278602D02*
Y286043D01*
X3477409Y278602D02*
Y286043D01*
X3477429Y278602D02*
Y286043D01*
X3477449Y278602D02*
Y286043D01*
X3477469Y278602D02*
Y286043D01*
X3477488Y278602D02*
Y286043D01*
X3477508Y278602D02*
Y286043D01*
X3477528Y278602D02*
Y286043D01*
X3477547Y278602D02*
Y286043D01*
X3477567Y278602D02*
Y286043D01*
X3477587Y278602D02*
Y286043D01*
X3477606Y278602D02*
Y286043D01*
X3477626Y278602D02*
Y286043D01*
X3477646Y278602D02*
Y286043D01*
X3477665Y278602D02*
Y286043D01*
X3477685Y278602D02*
Y286043D01*
X3477705Y278602D02*
Y286043D01*
X3477724Y278602D02*
Y286043D01*
X3477744Y278602D02*
Y286043D01*
X3477764Y278602D02*
Y286043D01*
X3477783Y278602D02*
Y286043D01*
X3477803Y278602D02*
Y286043D01*
X3477823Y278602D02*
Y286043D01*
X3477843Y278602D02*
Y286043D01*
X3477862Y278602D02*
Y286043D01*
X3477882Y278602D02*
Y286043D01*
X3477902Y278602D02*
Y286043D01*
X3477921Y278602D02*
Y286043D01*
X3477941Y278602D02*
Y286043D01*
X3477961Y278602D02*
Y286043D01*
X3477980Y278602D02*
Y286043D01*
X3478000Y278602D02*
Y286043D01*
X3478020Y278602D02*
Y286043D01*
X3478039Y278602D02*
Y286043D01*
X3478059Y278602D02*
Y286043D01*
X3478079Y278602D02*
Y286043D01*
X3478098Y278602D02*
Y286043D01*
X3478118Y278602D02*
Y286043D01*
X3478138Y278602D02*
Y286043D01*
X3478157Y278602D02*
Y286043D01*
X3478177Y278602D02*
Y286043D01*
X3478197Y278602D02*
Y286043D01*
X3478217Y278602D02*
Y286043D01*
X3478236Y278602D02*
Y286043D01*
X3478256Y278602D02*
Y286043D01*
X3478276Y278602D02*
Y286043D01*
X3478295Y278602D02*
Y286043D01*
X3478315Y278602D02*
Y286043D01*
X3478335Y278602D02*
Y286043D01*
X3478354Y278602D02*
Y286043D01*
X3478374Y278602D02*
Y286043D01*
X3478394Y278602D02*
Y286043D01*
X3478413Y278602D02*
Y286043D01*
X3478433Y278602D02*
Y286043D01*
X3478453Y278602D02*
Y286043D01*
X3478472Y278602D02*
Y286043D01*
X3478492Y278602D02*
Y286043D01*
X3478512Y278602D02*
Y286043D01*
X3478531Y278602D02*
Y286043D01*
X3478551Y278602D02*
Y286043D01*
X3478571Y278602D02*
Y286043D01*
X3478591Y278602D02*
Y286043D01*
X3478610Y278602D02*
Y286043D01*
X3478630Y278602D02*
Y286043D01*
X3478650Y278602D02*
Y286043D01*
X3478669Y278602D02*
Y286043D01*
X3478689Y278602D02*
Y286043D01*
X3478709Y278602D02*
Y286043D01*
X3478728Y278602D02*
Y286043D01*
X3478748Y278602D02*
Y286043D01*
X3478768Y278602D02*
Y286043D01*
X3478787Y278602D02*
Y286043D01*
X3478807Y278602D02*
Y286043D01*
X3478827Y278602D02*
Y286043D01*
X3478846Y278602D02*
Y286043D01*
X3478866Y278602D02*
Y286043D01*
X3478886Y278602D02*
Y286043D01*
X3478906Y278602D02*
Y286043D01*
X3478925Y278602D02*
Y286043D01*
X3478945Y278602D02*
Y286043D01*
X3478965Y278602D02*
Y286043D01*
X3478984Y278602D02*
Y286043D01*
X3479004Y278602D02*
Y286043D01*
X3479024Y278602D02*
Y286043D01*
X3479043Y278602D02*
Y286043D01*
X3479063Y278602D02*
Y286043D01*
X3479083Y278602D02*
Y286043D01*
X3479102Y278602D02*
Y286043D01*
X3479122Y278602D02*
Y286043D01*
X3479142Y278602D02*
Y286043D01*
X3479161Y278602D02*
Y286043D01*
X3479181Y278602D02*
Y286043D01*
X3479201Y278602D02*
Y286035D01*
X3479220Y278602D02*
Y286015D01*
X3479240Y278602D02*
Y285996D01*
X3479260Y278602D02*
Y285976D01*
X3479280Y278602D02*
Y285956D01*
X3479299Y278602D02*
Y285937D01*
X3479319Y278602D02*
Y285917D01*
X3479339Y278602D02*
Y285897D01*
X3479358Y278602D02*
Y285878D01*
X3479378Y278602D02*
Y285858D01*
X3479398Y278602D02*
Y285838D01*
X3479417Y278602D02*
Y285819D01*
X3479437Y278602D02*
Y285799D01*
X3479457Y278602D02*
Y285779D01*
X3479476Y278602D02*
Y285760D01*
X3479496Y278602D02*
Y285740D01*
X3479516Y278602D02*
Y285720D01*
X3479535Y278602D02*
Y285701D01*
X3479555Y278602D02*
Y285681D01*
X3479575Y278602D02*
Y285661D01*
X3479594Y278602D02*
Y285641D01*
X3479614Y278602D02*
Y285622D01*
X3479634Y278602D02*
Y285602D01*
X3479654Y278602D02*
Y285582D01*
X3479673Y278602D02*
Y285563D01*
X3479693Y278602D02*
Y285543D01*
X3479713Y278602D02*
Y285523D01*
X3479732Y278602D02*
Y285504D01*
X3479752Y278602D02*
Y285484D01*
X3479772Y278602D02*
Y285464D01*
X3479791Y278602D02*
Y285445D01*
X3479811Y278602D02*
Y285425D01*
X3479831Y278602D02*
Y285405D01*
X3479850Y278602D02*
Y285386D01*
X3479870Y278602D02*
Y285366D01*
X3479890Y278602D02*
Y285346D01*
X3479909Y278602D02*
Y285326D01*
X3479929Y278602D02*
Y285307D01*
X3479949Y278602D02*
Y285287D01*
X3479969Y278602D02*
Y285267D01*
X3479988Y278602D02*
Y285248D01*
X3480008Y278602D02*
Y285228D01*
X3480028Y278602D02*
Y285208D01*
X3480047Y278602D02*
Y285189D01*
X3480067Y278602D02*
Y285169D01*
X3480087Y278602D02*
Y285149D01*
X3480106Y278602D02*
Y285130D01*
X3480126Y278602D02*
Y285110D01*
X3480146Y278602D02*
Y285090D01*
X3480165Y278602D02*
Y285071D01*
X3480185Y278602D02*
Y285051D01*
X3480205Y278602D02*
Y285031D01*
X3480224Y278602D02*
Y285012D01*
X3480244Y278602D02*
Y284992D01*
X3480264Y278602D02*
Y284972D01*
X3480283Y278602D02*
Y284952D01*
X3480303Y278602D02*
Y284933D01*
X3480323Y278602D02*
Y284913D01*
X3480343Y278602D02*
Y284893D01*
X3480362Y278602D02*
Y284874D01*
X3480382Y278602D02*
Y284854D01*
X3480402Y278602D02*
Y284834D01*
X3480421Y278602D02*
Y284815D01*
X3480441Y278602D02*
Y284795D01*
X3480461Y278602D02*
Y284775D01*
X3480480Y278602D02*
Y284756D01*
X3480500Y278602D02*
Y284736D01*
X3480520Y278602D02*
Y284716D01*
X3480539Y278602D02*
Y284697D01*
X3480559Y278602D02*
Y284677D01*
X3480579Y278602D02*
Y284657D01*
X3480598Y278602D02*
Y284638D01*
X3480618Y278602D02*
Y284618D01*
X3480638Y278602D02*
Y284598D01*
X3480657Y278602D02*
Y284578D01*
X3480677Y278602D02*
Y284559D01*
X3480697Y278602D02*
Y284539D01*
X3480717Y278602D02*
Y284519D01*
X3480736Y278602D02*
Y284500D01*
G54D292*
X3606760Y134291D03*
X3613059D03*
X3467783Y294528D03*
X3474083D03*
X3676445Y127992D03*
X3670146D03*
X3518571Y232717D03*
X3524870D03*
X3486287Y198858D03*
X3479988D03*
X3485894Y162244D03*
X3479594D03*
X3671720Y181929D03*
X3678020D03*
X3683531Y166181D03*
X3689831D03*
X3683925Y172087D03*
X3690224D03*
X3685106Y146890D03*
X3678807D03*
X3671720Y176024D03*
X3678020D03*
X3640224Y206732D03*
X3646524D03*
X3604398Y207913D03*
X3598098D03*
X3661484Y206732D03*
X3667783D03*
X3633138D03*
X3626839D03*
X3611878D03*
X3618177D03*
X3572508Y103583D03*
X3566209D03*
X3684713Y81535D03*
X3691012D03*
X3555185Y107126D03*
X3548886D03*
X3556366Y247677D03*
X3562665D03*
G54D293*
X3580382Y176024D03*
Y182323D03*
X3666209Y162638D03*
Y156339D03*
X3518177Y226417D03*
Y220118D03*
X3644555Y174843D03*
Y168543D03*
X3638256Y174843D03*
Y168543D03*
X3662665Y140197D03*
Y133898D03*
X3674476Y81535D03*
Y87835D03*
G54D294*
X3684122Y185669D03*
Y178189D03*
X3693177Y181929D03*
G54D295*
X3689831Y296299D03*
Y292756D03*
X3682547Y292559D03*
X3686091D03*
Y296496D03*
X3682547D03*
X3607350Y115394D03*
X3610894D03*
X3590815Y103583D03*
X3594358D03*
X3628217Y142559D03*
X3631760D03*
X3637075Y149449D03*
Y145906D03*
G54D298*
X3604398Y196299D03*
Y202205D03*
G54D300*
X3697469Y71299D03*
Y73858D03*
Y76417D03*
Y78976D03*
Y81535D03*
G54D301*
X3698886Y86112D03*
Y66722D03*
G54D302*
X3707941Y87844D03*
Y64990D03*
G54D303*
Y79715D03*
Y73120D03*
G54D307*
X3546425Y129193D03*
Y124193D03*
Y119193D03*
Y114193D03*
X3564732D03*
Y119193D03*
Y124193D03*
Y129193D03*
G54D308*
X3612665Y147087D03*
Y149055D03*
Y151024D03*
Y152992D03*
Y154961D03*
Y156929D03*
Y158898D03*
Y160866D03*
Y162835D03*
Y164803D03*
Y166772D03*
Y168740D03*
X3579594D03*
Y166772D03*
Y164803D03*
Y162835D03*
Y160866D03*
Y158898D03*
Y156929D03*
Y154961D03*
Y152992D03*
Y151024D03*
Y149055D03*
Y147087D03*
G54D309*
X3606957Y174449D03*
X3604988D03*
X3603020D03*
X3601051D03*
X3599083D03*
X3597114D03*
X3595146D03*
X3593177D03*
X3591209D03*
X3589240D03*
X3587272D03*
X3585303D03*
Y141378D03*
X3587272D03*
X3589240D03*
X3591209D03*
X3593177D03*
X3595146D03*
X3597114D03*
X3599083D03*
X3601051D03*
X3603020D03*
X3604988D03*
X3606957D03*
G54D310*
X3612665Y174449D03*
X3579594Y141378D03*
G54D312*
X3678413Y158504D03*
Y164409D03*
X3671327D03*
Y158504D03*
G54D313*
X3678413Y161457D03*
G54D315*
X3596819Y94921D03*
X3591819Y71299D03*
X3586819Y94921D03*
X3581819Y71299D03*
X3576819Y94921D03*
X3571819Y71299D03*
G54D319*
X3485894Y189606D03*
Y187638D03*
Y185669D03*
Y183701D03*
Y181732D03*
Y179764D03*
Y177795D03*
Y175827D03*
Y173858D03*
Y171890D03*
G54D320*
X3475461Y192717D03*
Y168780D03*
G54D321*
X3466209Y282323D03*
X3506760Y153268D03*
Y173268D03*
X3649280Y152402D03*
X3695343Y158307D03*
X3648098Y185472D03*
X3665421Y169724D03*
Y178386D03*
X3695343Y144134D03*
X3623689Y172480D03*
X3689831Y300827D03*
X3590224Y119331D03*
X3597311Y121299D03*
G54D323*
X3506760Y163268D03*
G54D324*
X3511780Y230354D03*
Y232323D03*
Y234291D03*
Y236260D03*
Y238228D03*
X3501740D03*
Y236260D03*
Y234291D03*
Y232323D03*
Y230354D03*
G54D325*
X3508728Y239311D03*
X3506760D03*
X3504791D03*
Y229272D03*
X3506760D03*
X3508728D03*
G54D327*
X3691209Y70906D03*
X3685303D03*
X3532154Y224843D03*
X3526248D03*
G54D383*
X3643768Y161752D03*
Y154862D03*
X3702429Y166673D03*
Y173563D03*
Y155256D03*
Y162146D03*
Y144232D03*
Y151122D03*
X3699673Y177697D03*
Y184587D03*
X3532744Y129075D03*
Y122185D03*
X3556366Y252894D03*
Y259783D03*
G54D384*
X3573000Y194528D03*
X3579890D03*
X3561976Y187441D03*
X3568866D03*
X3678315Y169724D03*
X3671425D03*
Y153189D03*
X3678315D03*
X3682449D03*
X3689339D03*
X3486583Y210669D03*
X3479693D03*
X3578512Y103583D03*
X3585402D03*
X3614535Y120906D03*
X3607646D03*
X3681661Y103189D03*
X3688551D03*
X3503118Y223268D03*
X3496228D03*
X3666701Y146496D03*
X3673591D03*
X3660205Y185472D03*
X3653315D03*
X3660598Y178386D03*
X3653709D03*
X3689339Y159882D03*
X3682449D03*
X3660598Y171693D03*
X3653709D03*
X3660992Y162244D03*
X3654102D03*
G54D395*
X3625067Y147087D03*
X3632547D03*
Y152992D03*
X3625067D03*
G54D396*
X3688453Y96693D03*
X3680972D03*
X3684713Y87638D03*
G54D397*
X3479201Y288465D03*
X3475264D03*
X3471327D03*
Y276181D03*
X3475264D03*
X3479201D03*
G54D398*
X3641051Y185472D03*
X3644122D03*
G54D414*
X3696917Y283898D03*
X3689831D03*
X3682744D03*
X3668571D03*
X3661484D03*
X3654398D03*
X3647311D03*
X3640224D03*
X3633138D03*
X3626051D03*
X3618965D03*
X3611878D03*
X3604791D03*
X3597705D03*
Y216969D03*
X3604791D03*
X3611878D03*
X3618965D03*
X3626051D03*
X3633138D03*
X3640224D03*
X3647311D03*
X3654398D03*
X3661484D03*
X3668571D03*
X3675657D03*
X3682744D03*
X3689831D03*
X3696917D03*
G54D415*
X3564929Y231142D03*
Y233504D03*
Y235866D03*
Y238228D03*
Y240591D03*
X3554890D03*
Y238228D03*
Y235866D03*
Y233504D03*
Y231142D03*
G54D416*
X3661091Y152402D03*
X3654791D03*
G54D417*
X3611878Y195709D03*
Y202008D03*
X3661484Y195709D03*
Y202008D03*
X3640224Y195709D03*
Y202008D03*
X3633138Y195709D03*
Y202008D03*
G54D418*
X3578020Y302402D03*
X3569752D03*
X3578020Y285669D03*
X3561484D03*
X3569752D03*
X3561484Y302402D03*
G74*
X0Y0D02*
M02*
