*
*
G04 PADS 9.5 Build Number: 522968 generated Gerber (RS-274-X) file*
G04 PC Version=2.1*
*
%IN "BORNE"*%
*
%MOIN*%
*
%FSLAX35Y35*%
*
*
*
*
G04 PC Standard Apertures*
*
*
G04 Thermal Relief Aperture macro.*
%AMTER*
1,1,$1,0,0*
1,0,$1-$2,0,0*
21,0,$3,$4,0,0,45*
21,0,$3,$4,0,0,135*
%
*
*
G04 Annular Aperture macro.*
%AMANN*
1,1,$1,0,0*
1,0,$2,0,0*
%
*
*
G04 Odd Aperture macro.*
%AMODD*
1,1,$1,0,0*
1,0,$1-0.005,0,0*
%
*
*
G04 PC Custom Aperture Macros*
*
*
*
*
*
*
G04 PC Aperture Table*
*
%ADD065C,0.01181*%
%ADD097C,0.00394*%
%ADD217C,0.001*%
%ADD310C,0.07283*%
%ADD357R,0.07283X0.07283*%
*
*
*
*
G04 PC Circuitry*
G04 Layer Name BORNE - circuitry*
%LPD*%
*
*
G04 PC Custom Flashes*
G04 Layer Name BORNE - flashes*
%LPD*%
*
*
G04 PC Circuitry*
G04 Layer Name BORNE - circuitry*
%LPD*%
*
G54D65*
G01X3767126Y75394D02*
X3960039D01*
Y39961*
X3767126*
Y75394*
Y63583D02*
X3960039D01*
X3767126Y51772D02*
X3960039D01*
G54D97*
X3773568Y47613D02*
X3773210Y48105D01*
X3772674Y48351*
X3771958*
X3771421Y48105*
X3771063Y47613*
Y47121*
X3771242Y46629*
X3771421Y46383*
X3771779Y46137*
X3772853Y45645*
X3773210Y45399*
X3773389Y45153*
X3773568Y44660*
Y43922*
X3773210Y43430*
X3772674Y43184*
X3771958*
X3771421Y43430*
X3771063Y43922*
X3776253Y48351D02*
X3775895Y48105D01*
X3775537Y47613*
X3775358Y47121*
X3775179Y46383*
Y45153*
X3775358Y44414*
X3775537Y43922*
X3775895Y43430*
X3776253Y43184*
X3776969*
X3777326Y43430*
X3777684Y43922*
X3777863Y44414*
X3778042Y45153*
Y46383*
X3777863Y47121*
X3777684Y47613*
X3777326Y48105*
X3776969Y48351*
X3776253*
X3779653D02*
Y43184D01*
X3781800*
X3783411Y48351D02*
Y43184D01*
Y48351D02*
X3784664D01*
X3785200Y48105*
X3785558Y47613*
X3785737Y47121*
X3785916Y46383*
Y45153*
X3785737Y44414*
X3785558Y43922*
X3785200Y43430*
X3784664Y43184*
X3783411*
X3787527Y48351D02*
Y43184D01*
Y48351D02*
X3789853D01*
X3787527Y45891D02*
X3788958D01*
X3787527Y43184D02*
X3789853D01*
X3791464Y48351D02*
Y43184D01*
Y48351D02*
X3793074D01*
X3793611Y48105*
X3793790Y47859*
X3793969Y47367*
Y46875*
X3793790Y46383*
X3793611Y46137*
X3793074Y45891*
X3791464*
X3792717D02*
X3793969Y43184D01*
X3799696Y48351D02*
Y43184D01*
Y48351D02*
X3801127Y43184D01*
X3802559Y48351D02*
X3801127Y43184D01*
X3802559Y48351D02*
Y43184D01*
X3805601Y48351D02*
X3804170Y43184D01*
X3805601Y48351D02*
X3807033Y43184D01*
X3804707Y44906D02*
X3806496D01*
X3811149Y47613D02*
X3810791Y48105D01*
X3810254Y48351*
X3809538*
X3809001Y48105*
X3808644Y47613*
Y47121*
X3808822Y46629*
X3809001Y46383*
X3809359Y46137*
X3810433Y45645*
X3810791Y45399*
X3810970Y45153*
X3811149Y44660*
Y43922*
X3810791Y43430*
X3810254Y43184*
X3809538*
X3809001Y43430*
X3808644Y43922*
X3812759Y48351D02*
Y43184D01*
X3815265Y48351D02*
X3812759Y44906D01*
X3813654Y46137D02*
X3815265Y43184D01*
X3820991Y48351D02*
Y43184D01*
Y48351D02*
X3822602D01*
X3823139Y48105*
X3823318Y47859*
X3823497Y47367*
Y46875*
X3823318Y46383*
X3823139Y46137*
X3822602Y45891*
X3820991D02*
X3822602D01*
X3823139Y45645*
X3823318Y45399*
X3823497Y44906*
Y44168*
X3823318Y43676*
X3823139Y43430*
X3822602Y43184*
X3820991*
X3826181Y48351D02*
X3825823Y48105D01*
X3825465Y47613*
X3825286Y47121*
X3825107Y46383*
Y45153*
X3825286Y44414*
X3825465Y43922*
X3825823Y43430*
X3826181Y43184*
X3826897*
X3827255Y43430*
X3827613Y43922*
X3827792Y44414*
X3827971Y45153*
Y46383*
X3827792Y47121*
X3827613Y47613*
X3827255Y48105*
X3826897Y48351*
X3826181*
X3830834D02*
Y43184D01*
X3829581Y48351D02*
X3832087D01*
X3834950D02*
Y43184D01*
X3833697Y48351D02*
X3836203D01*
X3838887D02*
X3838529Y48105D01*
X3838171Y47613*
X3837992Y47121*
X3837813Y46383*
Y45153*
X3837992Y44414*
X3838171Y43922*
X3838529Y43430*
X3838887Y43184*
X3839603*
X3839961Y43430*
X3840319Y43922*
X3840497Y44414*
X3840676Y45153*
Y46383*
X3840497Y47121*
X3840319Y47613*
X3839961Y48105*
X3839603Y48351*
X3838887*
X3842287D02*
Y43184D01*
Y48351D02*
X3843719Y43184D01*
X3845150Y48351D02*
X3843719Y43184D01*
X3845150Y48351D02*
Y43184D01*
X3771063Y60162D02*
X3772495Y54995D01*
X3773926Y60162D02*
X3772495Y54995D01*
X3777684Y58440D02*
Y54995D01*
Y57702D02*
X3777326Y58194D01*
X3776969Y58440*
X3776432*
X3776074Y58194*
X3775716Y57702*
X3775537Y56964*
Y56471*
X3775716Y55733*
X3776074Y55241*
X3776432Y54995*
X3776969*
X3777326Y55241*
X3777684Y55733*
X3779295Y60162D02*
Y54995D01*
X3780906Y60162D02*
X3781084Y59916D01*
X3781263Y60162*
X3781084Y60408*
X3780906Y60162*
X3781084Y58440D02*
Y54995D01*
X3785021Y60162D02*
Y54995D01*
Y57702D02*
X3784664Y58194D01*
X3784306Y58440*
X3783769*
X3783411Y58194*
X3783053Y57702*
X3782874Y56964*
Y56471*
X3783053Y55733*
X3783411Y55241*
X3783769Y54995*
X3784306*
X3784664Y55241*
X3785021Y55733*
X3788780Y58440D02*
Y54995D01*
Y57702D02*
X3788422Y58194D01*
X3788064Y58440*
X3787527*
X3787169Y58194*
X3786811Y57702*
X3786632Y56964*
Y56471*
X3786811Y55733*
X3787169Y55241*
X3787527Y54995*
X3788064*
X3788422Y55241*
X3788780Y55733*
X3790927Y60162D02*
Y55979D01*
X3791106Y55241*
X3791464Y54995*
X3791822*
X3790390Y58440D02*
X3791643D01*
X3793432Y60162D02*
X3793611Y59916D01*
X3793790Y60162*
X3793611Y60408*
X3793432Y60162*
X3793611Y58440D02*
Y54995D01*
X3796296Y58440D02*
X3795938Y58194D01*
X3795580Y57702*
X3795401Y56964*
Y56471*
X3795580Y55733*
X3795938Y55241*
X3796296Y54995*
X3796832*
X3796832D02*
X3797190Y55241D01*
X3797548Y55733*
X3797727Y56471*
Y56964*
X3797548Y57702*
X3797190Y58194*
X3796832Y58440*
X3796832D02*
X3796296D01*
X3799338D02*
Y54995D01*
Y57456D02*
X3799875Y58194D01*
X3800233Y58440*
X3800770*
X3801127Y58194*
X3801306Y57456*
Y54995*
X3807212Y58440D02*
X3807033Y58194D01*
X3807212Y57948*
X3807391Y58194*
X3807212Y58440*
Y55487D02*
X3807033Y55241D01*
X3807212Y54995*
X3807391Y55241*
X3807212Y55487*
X3771063Y71973D02*
Y66806D01*
Y71973D02*
X3772316D01*
X3772853Y71727*
X3773210Y71235*
X3773389Y70743*
X3773568Y70005*
Y68775*
X3773389Y68036*
X3773210Y67544*
X3772853Y67052*
X3772316Y66806*
X3771063*
X3775179Y68775D02*
X3777326D01*
Y69267*
X3777147Y69759*
X3776969Y70005*
X3776611Y70251*
X3776074*
X3775716Y70005*
X3775358Y69513*
X3775179Y68775*
Y68282*
X3775358Y67544*
X3775716Y67052*
X3776074Y66806*
X3776611*
X3776969Y67052*
X3777326Y67544*
X3775537Y70743D02*
X3776969Y71481D01*
X3780727Y69513D02*
X3780548Y70005D01*
X3780011Y70251*
X3779474*
X3778937Y70005*
X3778758Y69513*
X3778937Y69021*
X3779295Y68775*
X3780190Y68529*
X3780548Y68282*
X3780727Y67790*
Y67544*
X3780548Y67052*
X3780011Y66806*
X3779474*
X3778937Y67052*
X3778758Y67544*
X3782337Y71973D02*
X3782516Y71727D01*
X3782695Y71973*
X3782516Y72219*
X3782337Y71973*
X3782516Y70251D02*
Y66806D01*
X3786453Y70251D02*
Y66314D01*
X3786274Y65576*
X3786095Y65330*
X3785737Y65084*
X3785200*
X3784843Y65330*
X3786453Y69513D02*
X3786095Y70005D01*
X3785737Y70251*
X3785200*
X3784843Y70005*
X3784485Y69513*
X3784306Y68775*
Y68282*
X3784485Y67544*
X3784843Y67052*
X3785200Y66806*
X3785737*
X3786095Y67052*
X3786453Y67544*
X3788064Y70251D02*
Y66806D01*
Y69267D02*
X3788601Y70005D01*
X3788958Y70251*
X3789495*
X3789853Y70005*
X3790032Y69267*
Y66806*
X3793790Y70251D02*
Y66806D01*
Y69513D02*
X3793432Y70005D01*
X3793074Y70251*
X3792538*
X3792180Y70005*
X3791822Y69513*
X3791643Y68775*
Y68282*
X3791822Y67544*
X3792180Y67052*
X3792538Y66806*
X3793074*
X3793432Y67052*
X3793790Y67544*
X3795938Y71973D02*
Y67790D01*
X3796117Y67052*
X3796475Y66806*
X3796832*
X3795401Y70251D02*
X3796654D01*
X3798443Y71973D02*
X3798622Y71727D01*
X3798801Y71973*
X3798622Y72219*
X3798443Y71973*
X3798622Y70251D02*
Y66806D01*
X3801306Y70251D02*
X3800948Y70005D01*
X3800591Y69513*
X3800412Y68775*
Y68282*
X3800591Y67544*
X3800948Y67052*
X3801306Y66806*
X3801843*
X3802201Y67052*
X3802559Y67544*
X3802738Y68282*
Y68775*
X3802559Y69513*
X3802201Y70005*
X3801843Y70251*
X3801306*
X3804349D02*
Y66806D01*
Y69267D02*
X3804885Y70005D01*
X3805243Y70251*
X3805780*
X3806138Y70005*
X3806317Y69267*
Y66806*
X3812223Y70251D02*
X3812044Y70005D01*
X3812223Y69759*
X3812402Y70005*
X3812223Y70251*
Y67298D02*
X3812044Y67052D01*
X3812223Y66806*
X3812402Y67052*
X3812223Y67298*
X3822244Y60162D02*
Y54995D01*
Y60162D02*
X3823855D01*
X3824392Y59916*
X3824571Y59670*
X3824749Y59178*
Y58686*
X3824571Y58194*
X3824392Y57948*
X3823855Y57702*
X3822244D02*
X3823855D01*
X3824392Y57456*
X3824571Y57210*
X3824749Y56718*
Y55979*
X3824571Y55487*
X3824392Y55241*
X3823855Y54995*
X3822244*
X3826539Y55487D02*
X3826360Y55241D01*
X3826539Y54995*
X3826718Y55241*
X3826539Y55487*
X3835129Y58932D02*
X3834950Y59424D01*
X3834592Y59916*
X3834234Y60162*
X3833518*
X3833160Y59916*
X3832802Y59424*
X3832623Y58932*
X3832445Y58194*
Y56964*
X3832623Y56225*
X3832802Y55733*
X3833160Y55241*
X3833518Y54995*
X3834234*
X3834592Y55241*
X3834950Y55733*
X3835129Y56225*
X3836739Y60162D02*
Y54995D01*
Y57456D02*
X3837276Y58194D01*
X3837634Y58440*
X3838171*
X3838529Y58194*
X3838708Y57456*
Y54995*
X3840319Y60162D02*
X3840497Y59916D01*
X3840676Y60162*
X3840497Y60408*
X3840319Y60162*
X3840497Y58440D02*
Y54995D01*
X3842287Y58440D02*
Y54995D01*
Y56964D02*
X3842466Y57702D01*
X3842824Y58194*
X3843182Y58440*
X3843719*
X3846224D02*
X3845866Y58194D01*
X3845508Y57702*
X3845329Y56964*
Y56471*
X3845508Y55733*
X3845866Y55241*
X3846224Y54995*
X3846761*
X3847119Y55241*
X3847477Y55733*
X3847656Y56471*
Y56964*
X3847477Y57702*
X3847119Y58194*
X3846761Y58440*
X3846224*
X3849266D02*
Y54995D01*
Y57456D02*
X3849803Y58194D01*
X3850161Y58440*
X3850698*
X3851056Y58194*
X3851235Y57456*
Y54995*
X3862151Y60162D02*
X3861614Y59916D01*
X3861256Y59178*
X3861077Y57948*
Y57210*
X3861256Y55979*
X3861614Y55241*
X3862151Y54995*
X3862509*
X3863046Y55241*
X3863404Y55979*
X3863583Y57210*
Y57948*
X3863404Y59178*
X3863046Y59916*
X3862509Y60162*
X3862151*
X3865551D02*
X3867520D01*
X3866446Y58194*
X3866983*
X3867341Y57948*
X3867520Y57702*
X3867699Y56964*
Y56471*
X3867520Y55733*
X3867162Y55241*
X3866625Y54995*
X3866088*
X3865551Y55241*
X3865372Y55487*
X3865193Y55979*
X3872530Y61147D02*
X3869309Y53273D01*
X3875215Y60162D02*
X3874678Y59916D01*
X3874320Y59178*
X3874141Y57948*
Y57210*
X3874320Y55979*
X3874678Y55241*
X3875215Y54995*
X3875573*
X3876110Y55241*
X3876467Y55979*
X3876646Y57210*
Y57948*
X3876467Y59178*
X3876110Y59916*
X3875573Y60162*
X3875215*
X3878615D02*
X3880583D01*
X3879510Y58194*
X3880047*
X3880404Y57948*
X3880583Y57702*
X3880762Y56964*
Y56471*
X3880583Y55733*
X3880225Y55241*
X3879689Y54995*
X3879152*
X3878615Y55241*
X3878436Y55487*
X3878257Y55979*
X3885594Y61147D02*
X3882373Y53273D01*
X3887384Y58932D02*
Y59178D01*
X3887563Y59670*
X3887742Y59916*
X3888099Y60162*
X3888099D02*
X3888815D01*
X3889173Y59916*
X3889352Y59670*
X3889531Y59178*
Y58686*
X3889352Y58194*
X3888994Y57456*
X3887205Y54995*
X3889710*
X3892394Y60162D02*
X3891858Y59916D01*
X3891500Y59178*
X3891321Y57948*
Y57210*
X3891500Y55979*
X3891858Y55241*
X3892394Y54995*
X3892752*
X3893289Y55241*
X3893647Y55979*
X3893826Y57210*
Y57948*
X3893647Y59178*
X3893289Y59916*
X3892752Y60162*
X3892394*
X3895437Y59178D02*
X3895795Y59424D01*
X3896331Y60162*
Y54995*
X3900089Y59424D02*
X3899911Y59916D01*
X3899374Y60162*
X3899016*
X3898479Y59916*
X3898121Y59178*
X3897942Y57948*
Y56718*
X3898121Y55733*
X3898479Y55241*
X3899016Y54995*
X3899195*
X3899732Y55241*
X3900089Y55733*
X3900268Y56471*
Y56718*
X3900089Y57456*
X3899732Y57948*
X3899195Y58194*
X3899016*
X3898479Y57948*
X3898121Y57456*
X3897942Y56718*
X3824928Y70743D02*
X3824749Y71235D01*
X3824392Y71727*
X3824034Y71973*
X3823318*
X3822960Y71727*
X3822602Y71235*
X3822423Y70743*
X3822244Y70005*
Y68775*
X3822423Y68036*
X3822602Y67544*
X3822960Y67052*
X3823318Y66806*
X3824034*
X3824392Y67052*
X3824749Y67544*
X3824928Y68036*
X3826539Y70251D02*
Y67790D01*
X3826718Y67052*
X3827076Y66806*
X3827613*
X3827971Y67052*
X3828508Y67790*
Y70251D02*
Y66806D01*
X3830118Y71973D02*
Y66806D01*
Y69513D02*
X3830476Y70005D01*
X3830834Y70251*
X3831371*
X3831729Y70005*
X3832087Y69513*
X3832266Y68775*
Y68282*
X3832087Y67544*
X3831729Y67052*
X3831371Y66806*
X3830834*
X3830476Y67052*
X3830118Y67544*
X3833876Y68775D02*
X3836024D01*
Y69267*
X3835845Y69759*
X3835666Y70005*
X3835308Y70251*
X3834771*
X3834413Y70005*
X3834055Y69513*
X3833876Y68775*
Y68282*
X3834055Y67544*
X3834413Y67052*
X3834771Y66806*
X3835308*
X3835666Y67052*
X3836024Y67544*
X3841750Y71973D02*
X3843182Y66806D01*
X3844613Y71973D02*
X3843182Y66806D01*
X3847298Y71973D02*
X3846761Y71727D01*
X3846403Y70989*
X3846224Y69759*
Y69021*
X3846403Y67790*
X3846761Y67052*
X3847298Y66806*
X3847656*
X3848193Y67052*
X3848550Y67790*
X3848729Y69021*
Y69759*
X3848550Y70989*
X3848193Y71727*
X3847656Y71973*
X3847298*
X3852130D02*
X3850340Y68529D01*
X3853024*
X3852130Y71973D02*
Y66806D01*
X3457547Y308701D02*
G75*
G03X3461484I1969J-0D01*
G01X3613059*
G03X3616996Y304764I3937J-0*
G01X3648492*
G03X3652429Y308701I0J3937*
G01X3713453*
Y52795*
X3652429*
G03X3648492Y56732I-3937J0*
G01X3616996*
G03X3613059Y52795I0J-3937*
G01X3461484*
Y100039*
G03X3457547I-1968J0*
G01Y308701*
X3500854Y301220D02*
G03X3492980I-3937J0D01*
G01X3500854D02*
Y289409D01*
X3492980D02*
G03X3500854I3937J0D01*
G01X3492980D02*
Y301220D01*
X3465028Y263425D02*
X3492980D01*
Y270512*
X3500854D02*
G03X3492980I-3937J-0D01*
G01X3500854D02*
Y263425D01*
X3514634*
Y255551D02*
G03Y263425I-0J3937D01*
G01Y255551D02*
X3465028D01*
Y263425D02*
G03Y255551I-0J-3937D01*
G01X3710500Y105945D02*
G03X3710500I-6890J0D01*
G01X3478217Y66575D02*
G03X3478217I-6890J0D01*
G01X3554004Y297480D02*
X3585500D01*
Y290591D02*
G03Y297480I0J3444D01*
G01Y290591D02*
X3554004D01*
Y297480D02*
G03Y290591I576J-3445D01*
G54D217*
G54D310*
G01X3466209Y282323D03*
X3506760Y153268D03*
Y173268D03*
X3649280Y152402D03*
X3695343Y158307D03*
X3648098Y185472D03*
X3665421Y169724D03*
Y178386D03*
X3695343Y144134D03*
X3623689Y172480D03*
X3689831Y300827D03*
X3590224Y119331D03*
X3597311Y121299D03*
G54D357*
X3506760Y163268D03*
G74*
X0Y0D02*
M02*
