*
*
G04 PADS 9.5 Build Number: 522968 generated Gerber (RS-274-X) file*
G04 PC Version=2.1*
*
%IN "BORNE"*%
*
%MOIN*%
*
%FSLAX35Y35*%
*
*
*
*
G04 PC Standard Apertures*
*
*
G04 Thermal Relief Aperture macro.*
%AMTER*
1,1,$1,0,0*
1,0,$1-$2,0,0*
21,0,$3,$4,0,0,45*
21,0,$3,$4,0,0,135*
%
*
*
G04 Annular Aperture macro.*
%AMANN*
1,1,$1,0,0*
1,0,$2,0,0*
%
*
*
G04 Odd Aperture macro.*
%AMODD*
1,1,$1,0,0*
1,0,$1-0.005,0,0*
%
*
*
G04 PC Custom Aperture Macros*
*
*
*
*
*
*
G04 PC Aperture Table*
*
%ADD010C,0.01*%
%ADD016R,0.0315X0.0315*%
%ADD019R,0.02362X0.02362*%
%ADD021C,0.03937*%
%ADD024C,0.05906*%
%ADD030C,0.0315*%
%ADD031C,0.02362*%
%ADD052R,0.05906X0.05906*%
%ADD064C,0.01575*%
%ADD065C,0.01181*%
%ADD077R,0.02362X0.01575*%
%ADD097C,0.00394*%
%ADD135C,0.06299*%
%ADD154C,0.01969*%
%ADD191C,0.02756*%
%ADD217C,0.001*%
%ADD247R,0.03543X0.01969*%
%ADD257R,0.0374X0.03937*%
%ADD258R,0.03937X0.0374*%
%ADD259R,0.03937X0.02362*%
%ADD260R,0.02441X0.02441*%
%ADD264R,0.05315X0.03937*%
%ADD266R,0.05433X0.01772*%
%ADD267R,0.08268X0.05807*%
%ADD268R,0.0748X0.0935*%
%ADD269R,0.0748X0.04626*%
%ADD274R,0.08858X0.02559*%
%ADD275R,0.05906X0.01181*%
%ADD276R,0.01181X0.05906*%
%ADD278R,0.04724X0.07874*%
%ADD282R,0.02756X0.01181*%
%ADD283R,0.03937X0.01181*%
%ADD285R,0.03201X0.01201*%
%ADD286R,0.01201X0.03201*%
%ADD288R,0.03937X0.05315*%
%ADD289C,0.00039*%
%ADD290C,0.01772*%
%ADD372R,0.05906X0.07874*%
%ADD375R,0.02362X0.03937*%
%ADD381R,0.05315X0.03346*%
%ADD382R,0.03346X0.05315*%
%ADD388R,0.04134X0.0374*%
%ADD389O,0.01772X0.04232*%
%ADD390R,0.08268X0.04724*%
%ADD392R,0.02244X0.02244*%
%ADD394C,0.02559*%
%ADD401R,0.01969X0.03543*%
%ADD411R,0.04331X0.11811*%
%ADD412R,0.03937X0.11417*%
%ADD413R,0.03543X0.01575*%
*
*
*
*
G04 PC Circuitry*
G04 Layer Name BORNE - circuitry*
%LPD*%
*
*
G04 PC Custom Flashes*
G04 Layer Name BORNE - flashes*
%LPD*%
*
*
G04 PC Circuitry*
G04 Layer Name BORNE - circuitry*
%LPD*%
*
G54D10*
G01X3670906Y209954D02*
X3669106Y208153D01*
X3670906Y203511D02*
X3669106Y205312D01*
X3552009Y103905D02*
X3550208Y105705D01*
X3545763Y103905D02*
X3547563Y105705D01*
X3545763Y110347D02*
X3547563Y108547D01*
X3552009Y110347D02*
X3550208Y108547D01*
X3569331Y100361D02*
X3567531Y102162D01*
X3563086Y100361D02*
X3564886Y102162D01*
X3563086Y106804D02*
X3564886Y105003D01*
X3569331Y106804D02*
X3567531Y105003D01*
X3671255Y84712D02*
X3673056Y86512D01*
X3671255Y90957D02*
X3673056Y89157D01*
X3677698Y90957D02*
X3675897Y89157D01*
X3685625Y107099D02*
X3687368Y105356D01*
X3691477Y107099D02*
X3689734Y105356D01*
X3691477Y99279D02*
X3689734Y101022D01*
X3685625Y99279D02*
X3687368Y101022D01*
X3536654Y125111D02*
X3534911Y123368D01*
X3536654Y119259D02*
X3534911Y121002D01*
X3528834Y119259D02*
X3530577Y121002D01*
X3528834Y125111D02*
X3530577Y123368D01*
X3687889Y84757D02*
X3689689Y82956D01*
X3687889Y78314D02*
X3689689Y80115D01*
X3476865Y195637D02*
X3478666Y197437D01*
X3476865Y202080D02*
X3478666Y200279D01*
X3483111Y202080D02*
X3481311Y200279D01*
X3482717Y159023D02*
X3480917Y160823D01*
X3476472Y159023D02*
X3478272Y160823D01*
X3476472Y165465D02*
X3478272Y163665D01*
X3482717Y165465D02*
X3480917Y163665D01*
X3693499Y62566D02*
X3695602Y64669D01*
X3621300Y203511D02*
X3619500Y205312D01*
X3690887Y93472D02*
X3689288Y95070D01*
X3686019Y93472D02*
X3687618Y95070D01*
X3595434Y66109D02*
X3593489Y68054D01*
X3588204Y66109D02*
X3590149Y68054D01*
X3588204Y76489D02*
X3590149Y74544D01*
X3595434Y76489D02*
X3593489Y74544D01*
X3702948Y59062D02*
X3705296Y61410D01*
X3561905Y229102D02*
X3563388Y230585D01*
X3565690Y280480D02*
X3563572Y282597D01*
X3557279Y280480D02*
X3559396Y282597D01*
X3565788Y250898D02*
X3563988Y249098D01*
X3565788Y244456D02*
X3563988Y246256D01*
X3559543Y244456D02*
X3561343Y246256D01*
X3609883Y131070D02*
X3608082Y132871D01*
X3594976Y204692D02*
X3596776Y206493D01*
X3520406Y136768D02*
X3519153Y138020D01*
X3520406Y141500D02*
X3519153Y140247D01*
X3623716Y203511D02*
X3625516Y205312D01*
X3552107Y111661D02*
X3550480Y113288D01*
X3540743Y111661D02*
X3542371Y113288D01*
X3540743Y116725D02*
X3542371Y115098D01*
X3477206Y297749D02*
X3475405Y295948D01*
X3649646Y203511D02*
X3647846Y205312D01*
X3702948Y93772D02*
X3705296Y91424D01*
X3629228Y150209D02*
X3631028Y148409D01*
X3482619Y206759D02*
X3480876Y208502D01*
X3476767Y206759D02*
X3478510Y208502D01*
X3476767Y214580D02*
X3478510Y212837D01*
X3482619Y214580D02*
X3480876Y212837D01*
X3702948Y76149D02*
X3704878Y78079D01*
X3499154Y219357D02*
X3497411Y221100D01*
X3493302Y219357D02*
X3495045Y221100D01*
X3493302Y227178D02*
X3495045Y225435D01*
X3499154Y227178D02*
X3497411Y225435D01*
X3521398Y223241D02*
X3519598Y221440D01*
X3521398Y216995D02*
X3519598Y218796D01*
X3514956Y216995D02*
X3516756Y218796D01*
X3514956Y223241D02*
X3516756Y221440D01*
X3514633Y240081D02*
X3513204Y238653D01*
X3483263Y170046D02*
X3484689Y171472D01*
X3483263Y173733D02*
X3484689Y172307D01*
X3483263Y172015D02*
X3484689Y173441D01*
X3600434Y89732D02*
X3598489Y91676D01*
X3593204Y89732D02*
X3595149Y91676D01*
X3593204Y100111D02*
X3595149Y98166D01*
X3600434Y100111D02*
X3598489Y98166D01*
X3527993Y229495D02*
X3526192Y231296D01*
X3521747Y229495D02*
X3523548Y231296D01*
X3577161Y179200D02*
X3578961Y181000D01*
X3583603Y179200D02*
X3581803Y181000D01*
X3702948Y76686D02*
X3704878Y74756D01*
X3693499Y90268D02*
X3695602Y88165D01*
X3663328Y149377D02*
X3661787Y150918D01*
X3687343Y180623D02*
X3685745Y179024D01*
X3687343Y175755D02*
X3685745Y177354D01*
X3665887Y137020D02*
X3664086Y135220D01*
X3665887Y130775D02*
X3664086Y132575D01*
X3659444Y130775D02*
X3661245Y132575D01*
X3670819Y131334D02*
X3669566Y132587D01*
X3670819Y136067D02*
X3669566Y134814D01*
X3692265Y149279D02*
X3690522Y151022D01*
X3596831Y106056D02*
X3595221Y104446D01*
X3596831Y101109D02*
X3595221Y102720D01*
X3634233Y140086D02*
X3632623Y141696D01*
X3639548Y143432D02*
X3637938Y145043D01*
X3634602Y143432D02*
X3636212Y145043D01*
X3680074Y294023D02*
X3681684Y295633D01*
X3680074Y298969D02*
X3681684Y297359D01*
X3613367Y112920D02*
X3611757Y114531D01*
G54D16*
X3559909Y235866D03*
G54D19*
X3678413Y158504D03*
Y164409D03*
X3671327D03*
Y158504D03*
G54D21*
X3612665Y174449D03*
X3579594Y141378D03*
X3474476Y240984D03*
X3668571Y65000D03*
X3674476Y81535D02*
X3684713D01*
X3470933Y168780D02*
X3475461D01*
Y192717D02*
Y198268D01*
X3597705Y216969D02*
X3598098Y216575D01*
Y207913*
X3604398D02*
Y216575D01*
X3604791Y216969*
X3604398Y202205D02*
Y207913D01*
X3640224Y216969D02*
Y206732D01*
X3633138Y216969D02*
Y206732D01*
X3611878Y216969D02*
Y206732D01*
X3689831Y216969D02*
Y209094D01*
X3692193Y206732*
X3661484D02*
Y216969D01*
X3692193Y206732D02*
X3696917Y211457D01*
Y216969*
X3579201Y285669D02*
Y269331D01*
X3549280Y304764D02*
X3559122D01*
X3561484Y302402*
G54D24*
X3466209Y282323D03*
X3506760Y153268D03*
Y173268D03*
X3649280Y152402D03*
X3695343Y158307D03*
X3648098Y185472D03*
X3665421Y169724D03*
Y178386D03*
X3695343Y144134D03*
X3623689Y172480D03*
X3689831Y300827D03*
X3590224Y119331D03*
X3597311Y121299D03*
X3578020Y302402D02*
X3588256D01*
G54D30*
X3678138Y133701D03*
X3668453D03*
Y140394D03*
X3678138D03*
X3518039Y149134D03*
X3523039D03*
X3518039Y144134D03*
X3523039D03*
X3518039Y139134D03*
X3523039D03*
X3518039Y129134D03*
X3523039D03*
X3576839Y87047D02*
X3587862D01*
X3576819Y94920D02*
X3576839Y90197D01*
Y87047*
X3576819Y94921D02*
Y94920D01*
X3620933Y87047D02*
X3641406Y107520D01*
X3707941Y87844D02*
Y94921D01*
X3698886Y90984D02*
Y86112D01*
X3706612*
X3510303Y112510D02*
X3523689Y99124D01*
X3555707*
X3510303Y112510D02*
Y145984D01*
X3513453Y149134*
X3518039*
X3555707Y119193D02*
Y107126D01*
Y99124D02*
X3567783Y87047D01*
X3576839*
X3555707Y107126D02*
Y99124D01*
X3572508Y103583D02*
X3576819D01*
X3578512*
X3576819D02*
Y94921D01*
X3621474Y127844D02*
X3641406Y107913D01*
Y107520*
X3645736Y103189*
X3655185*
X3616012Y133307D02*
X3621474Y127844D01*
X3681661Y103189D02*
X3655185D01*
Y147677*
X3662862Y133701D02*
X3668453D01*
X3650461Y161063D02*
X3650854Y160669D01*
X3638256Y168543D02*
X3644555D01*
X3643768Y154862D02*
X3649870D01*
X3649673Y152402D02*
X3654791D01*
X3662862Y140394D02*
X3668453D01*
X3678413Y153189D02*
X3682449D01*
X3702429Y151122D02*
Y155256D01*
Y162146D02*
Y166673D01*
X3695343Y144134D02*
X3695441Y144232D01*
X3702429*
X3598098Y203976D02*
Y207913D01*
X3626839Y206732D02*
X3622508D01*
X3618177*
X3646524D02*
X3651248D01*
X3667783D02*
Y207126D01*
X3668571Y207913*
Y216969*
X3699673Y177697D02*
X3702429Y174941D01*
Y173563*
G54D31*
X3684713Y87638D02*
Y81535D01*
Y70906*
X3685303*
X3680972Y96693D02*
Y102500D01*
X3681661Y103189*
X3688453Y96693D02*
Y102008D01*
X3523039Y129134D02*
X3532685D01*
X3532744Y129075*
X3555707Y119193D02*
Y123661D01*
X3561219Y129173*
X3564713*
X3546425Y119193D02*
X3555707D01*
X3668571Y130748D02*
Y129567D01*
X3670146Y127992*
X3668453Y133701D02*
X3668571Y133583D01*
Y130748*
X3676445Y127992D02*
X3677626Y129173D01*
Y133189*
X3678138Y133701*
X3688453Y102008D02*
Y103091D01*
X3688551Y103189*
X3572508Y174055D02*
Y194528D01*
X3682449Y153189D02*
X3682383Y152399D01*
X3685106Y149676*
Y146890*
X3678138Y140394D02*
Y146220D01*
X3671327Y158504D02*
Y154434D01*
X3671388Y154372*
X3671425Y153189*
X3678413D02*
Y158504D01*
X3486091Y198858D02*
X3547705D01*
X3547311*
X3611878Y202008D02*
Y206732D01*
X3661484Y202008D02*
Y206732D01*
X3671720Y181929D02*
Y186260D01*
X3683138*
X3683531Y185866*
X3684122Y185669*
X3687077Y177795D02*
X3687469D01*
X3660205Y185472D02*
X3660402Y185669D01*
X3660894*
X3661484Y186260*
X3671720*
X3678020Y181929D02*
X3679988D01*
X3681957Y179961*
X3685500*
X3687077Y178384*
Y177795*
X3693177Y181929D02*
X3695539Y184291D01*
X3699378*
X3699673Y184587*
X3561091Y237047D02*
Y246102D01*
X3569752Y285669D02*
Y266575D01*
X3573000Y263425*
Y259783*
Y194528*
X3564240Y72480D03*
X3587075Y71299D03*
X3595736Y59488D03*
X3587862Y87047D03*
X3595736Y71299D03*
X3634319Y91378D03*
X3620933Y87047D03*
X3653610Y59488D03*
X3691012Y76811D03*
X3669752Y87835D03*
X3691012Y85472D03*
X3674476Y92559D03*
X3702429Y94921D03*
X3708728D03*
X3698886Y90984D03*
X3707941Y57913D03*
X3692429Y60276D03*
X3557547Y135079D03*
X3544555Y107126D03*
X3542980Y135079D03*
X3562665Y103583D03*
X3609516Y129567D03*
X3574870Y122874D03*
Y116969D03*
X3582744Y130748D03*
X3597311Y103583D03*
X3599673Y127205D03*
X3615421Y115394D03*
X3642193Y99252D03*
X3645736Y112244D03*
X3635894Y122087D03*
X3624870Y133110D03*
X3681957Y137047D03*
X3665815Y130748D03*
X3679594Y112244D03*
X3688650Y121299D03*
X3662665Y112244D03*
X3685106Y107520D03*
X3692587Y98071D03*
X3692193Y107520D03*
X3472508Y162244D03*
X3480185Y172087D03*
X3515028Y144134D03*
X3528807Y147283D03*
X3515028Y139134D03*
X3570146Y170512D03*
X3604398Y167756D03*
X3573295Y146890D03*
X3602035D03*
Y158307D03*
X3585106Y146890D03*
X3587469Y157520D03*
X3593374Y168543D03*
X3637862Y153976D03*
X3650854Y160669D03*
X3634713Y168150D03*
X3620539Y145315D03*
X3638256Y158701D03*
X3635500Y142953D03*
X3655185Y147677D03*
X3663846Y152795D03*
X3674870Y161457D03*
X3689437Y148465D03*
X3476051Y198858D03*
X3475657Y210669D03*
X3547311Y193740D03*
X3566209Y208307D03*
X3557154Y196102D03*
X3548492Y204764D03*
X3533138D03*
X3568965Y183504D03*
Y200433D03*
X3569358Y213819D03*
X3594555Y207913D03*
X3584319Y202402D03*
X3604398Y188622D03*
X3576642Y206339D03*
X3580382Y189409D03*
X3598098Y203976D03*
X3585106Y182323D03*
X3576839Y198465D03*
X3629988Y185472D03*
Y193740D03*
X3622508Y206732D03*
X3618965Y182323D03*
X3651248Y206732D03*
X3679988D03*
X3672508D03*
X3687469Y177795D03*
X3707941Y216969D03*
X3703610Y206732D03*
X3692193D03*
X3530776Y245315D03*
X3531169Y236260D03*
X3513059Y220118D03*
X3524476Y218937D03*
X3496130Y229567D03*
X3506760Y234291D03*
X3513453Y250039D03*
X3496130Y243346D03*
X3515815Y239803D03*
X3529988Y231535D03*
X3496130Y218543D03*
X3562665Y250827D03*
X3543374Y239016D03*
X3561484Y228780D03*
X3539831Y236260D03*
X3548098Y236654D03*
X3609122Y251614D03*
Y227992D03*
X3597311D03*
X3603217Y239803D03*
X3597311Y251614D03*
X3620933D03*
X3632744D03*
X3644555D03*
X3638650Y239803D03*
X3650461D03*
X3620933Y227992D03*
X3632744D03*
X3644555D03*
X3626839Y239803D03*
X3615028D03*
X3656366Y251614D03*
X3668177D03*
X3679988D03*
X3662272Y239803D03*
X3656366Y227992D03*
X3668177D03*
X3679988D03*
X3685894Y239803D03*
X3674083D03*
X3691799Y251614D03*
X3703610D03*
X3691799Y227992D03*
X3703610D03*
X3709516Y239803D03*
X3697705D03*
X3466209Y272874D03*
X3478413Y294528D03*
X3555579Y285669D03*
X3531563Y263819D03*
X3535500Y276417D03*
X3543374Y268543D03*
X3561484Y278386D03*
X3611091Y295709D03*
X3609122Y275236D03*
X3597311D03*
X3597705Y292953D03*
X3603217Y263425D03*
X3574083Y278386D03*
X3644555Y275236D03*
X3632744D03*
X3620933D03*
X3615028Y263425D03*
X3626839D03*
X3638650D03*
X3650461D03*
X3662272Y296496D03*
X3679201Y282717D03*
Y296496D03*
X3654398Y291772D03*
X3679201Y288622D03*
X3679988Y275236D03*
X3668177D03*
X3656366D03*
X3674083Y263425D03*
X3685894D03*
X3662272D03*
X3700854Y287835D03*
Y281142D03*
X3696917Y275236D03*
X3709516Y287047D03*
X3703610Y275236D03*
X3691799D03*
X3709516Y263425D03*
X3697705D03*
X3696917Y291181D03*
X3482350Y302008D03*
X3511091Y300079D03*
X3569752Y300433D03*
X3554398D03*
X3597705Y304764D03*
X3609122D03*
X3644555Y298858D03*
X3632744D03*
X3620933D03*
X3679988Y304764D03*
X3668177D03*
X3656366D03*
X3709516D03*
X3697705D03*
G54D52*
X3506760Y163268D03*
G54D64*
X3691012Y81535D02*
X3697469D01*
X3691602Y71299D02*
X3697469D01*
X3674870Y161457D02*
X3678413D01*
X3680776*
X3682350Y159882*
X3682449*
X3561484Y231142D02*
X3564929D01*
X3554890Y240591D02*
Y246006D01*
X3554938Y246054*
Y246249*
X3556366Y247677*
X3561484Y228780D02*
Y231142D01*
G54D65*
X3494949Y69257D02*
X3495307Y69503D01*
X3495844Y70241*
Y65074*
X3564240Y70118D02*
X3564658Y72063D01*
X3564240Y70709*
X3563823Y72063*
X3564240Y70118*
X3564156Y70512D02*
X3564325D01*
X3563902Y71693D02*
X3563937D01*
X3564544D02*
X3564578D01*
X3563846Y71952D02*
Y71985D01*
X3593374Y59488D02*
X3595319Y59071D01*
X3593965Y59488*
X3595319Y59906*
X3593374Y59488*
X3595207Y59882D02*
X3595241D01*
X3593374Y59488D02*
X3593374D01*
X3594555Y59235D02*
Y59306D01*
Y59670D02*
Y59742D01*
X3589437Y71299D02*
X3587492Y71717D01*
X3588846Y71299*
X3587492Y70882*
X3589437Y71299*
X3587570Y71693D02*
X3587604D01*
X3588650Y71130D02*
Y71239D01*
Y71360D02*
Y71468D01*
X3598098Y59488D02*
X3596154Y59906D01*
X3597508Y59488*
X3596154Y59071*
X3598098Y59488*
X3596231Y59882D02*
X3596265D01*
X3596917Y59235D02*
Y59306D01*
Y59670D02*
Y59742D01*
X3598098Y59488D02*
X3598098D01*
X3651248D02*
X3653193Y59071D01*
X3651839Y59488*
X3653193Y59906*
X3651248Y59488*
X3653081Y59882D02*
X3653115D01*
X3651248Y59488D02*
X3651248D01*
X3652429Y59235D02*
Y59306D01*
Y59670D02*
Y59742D01*
X3593591Y71299D02*
X3595319Y70882D01*
X3593965Y71299*
X3595319Y71717*
X3593591Y71299*
X3595220Y71693D02*
X3595241D01*
X3594555Y71066D02*
Y71117D01*
Y71481D02*
Y71532D01*
X3635989Y93048D02*
X3634319Y91969D01*
X3635572Y92631*
X3634909Y91378*
X3635989Y93048*
X3635118Y91772D02*
X3635164D01*
X3635841Y92953D02*
X3635927D01*
X3634713Y92177D02*
Y92223D01*
X3635894Y92901D02*
Y92987D01*
X3640523Y97582D02*
X3642193Y98661D01*
X3640940Y97999*
X3641602Y99252*
X3640523Y97582*
X3640584Y97677D02*
X3640670D01*
X3641348Y98858D02*
X3641394D01*
X3640618Y97643D02*
Y97729D01*
X3641799Y98407D02*
Y98453D01*
X3674476Y90197D02*
X3674894Y92141D01*
X3674476Y90787*
X3674059Y92141*
X3674476Y90197*
X3674392Y90591D02*
X3674561D01*
X3674138Y91772D02*
X3674173D01*
X3674780D02*
X3674815D01*
X3674870Y92030D02*
Y92064D01*
X3691012Y79173D02*
X3690594Y77229D01*
X3691012Y78583*
X3691429Y77229*
X3691012Y79173*
X3690674Y77598D02*
X3690708D01*
X3691315D02*
X3691350D01*
X3690927Y78780D02*
X3691096D01*
X3691406Y77306D02*
Y77340D01*
X3672114Y87835D02*
X3670170Y88252D01*
X3671524Y87835*
X3670170Y87417*
X3672114Y87835*
X3670247Y88228D02*
X3670281D01*
X3671327Y87666D02*
Y87774D01*
Y87895D02*
Y88004D01*
X3691012Y83307D02*
X3691429Y85055D01*
X3691012Y83701*
X3690594Y85055*
X3691012Y83307*
X3690965Y83504D02*
X3691059D01*
X3690683Y84685D02*
X3690708D01*
X3691315D02*
X3691341D01*
X3691406Y84955D02*
Y84977D01*
X3707941Y60276D02*
X3707523Y58331D01*
X3707941Y59685*
X3708359Y58331*
X3707941Y60276*
X3707603Y58701D02*
X3707637D01*
X3708244D02*
X3708279D01*
X3707856Y59882D02*
X3708025D01*
X3707941Y59685D02*
Y60276D01*
X3694099Y61946D02*
X3692429Y60866D01*
X3693682Y61528*
X3693020Y60276*
X3694099Y61946*
X3692734Y61063D02*
X3692802D01*
X3693436D02*
X3693529D01*
X3692587Y60949D02*
Y60968D01*
X3693768Y61433D02*
Y61731D01*
X3574870Y125236D02*
X3574452Y123292D01*
X3574452D02*
X3574870Y124646D01*
X3575288Y123292*
X3574870Y125236*
X3574532Y123661D02*
X3574567D01*
X3575174D02*
X3575208D01*
X3574786Y124843D02*
X3574955D01*
X3574476Y123369D02*
Y123403D01*
X3540618Y135079D02*
X3542563Y134661D01*
X3541209Y135079*
X3542563Y135496*
X3540618Y135079*
X3542452Y135472D02*
X3542485D01*
X3541406Y134910D02*
Y135018D01*
Y135139D02*
Y135248D01*
X3559909Y135079D02*
X3557965Y135496D01*
X3559319Y135079*
X3557965Y134661*
X3559909Y135079*
X3558042Y135472D02*
X3558076D01*
X3559122Y134910D02*
Y135018D01*
Y135139D02*
Y135248D01*
X3580382Y130748D02*
X3582327Y130330D01*
X3580972Y130748*
X3582327Y131166*
X3580382Y130748*
X3580972*
X3580382D02*
X3580382D01*
X3581563Y130494D02*
Y130566D01*
Y130930D02*
Y131002D01*
X3546917Y107126D02*
X3544973Y107544D01*
X3546327Y107126*
X3544973Y106708*
X3546917Y107126*
X3546327D02*
X3546917D01*
X3546130Y106957D02*
Y107065D01*
Y107187D02*
Y107295D01*
X3564437Y103583D02*
X3563134Y103942D01*
X3564437Y103583*
X3563134Y103223*
X3564437Y103583*
X3564437*
X3563846Y103420D02*
X3563846D01*
Y103746D02*
X3563846D01*
X3613059Y115394D02*
X3615004Y114976D01*
X3613650Y115394*
X3615004Y115811*
X3613059Y115394*
X3613650*
X3613453Y115309D02*
Y115478D01*
X3614634Y115056D02*
Y115090D01*
Y115697D02*
Y115732D01*
X3608013Y131070D02*
X3608925Y129567D01*
X3608263Y130820*
X3609516Y130157*
X3608013Y131070*
X3608208Y130748D02*
X3608301D01*
X3608399D02*
X3608543D01*
X3608728Y129891D02*
Y129939D01*
Y130574D02*
Y130636D01*
X3626540Y131440D02*
X3625461Y133110D01*
X3626123Y131857*
X3624870Y132520*
X3626540Y131440*
X3625784Y131929D02*
X3625987D01*
X3626085D02*
X3626224D01*
X3625461Y133110D02*
X3625461D01*
X3625264Y132265D02*
Y132312D01*
X3626445Y131502D02*
Y131588D01*
X3634223Y123757D02*
X3635303Y122087D01*
X3634641Y123339*
X3635894Y122677*
X3634223Y123757*
X3635049Y122480D02*
X3635095D01*
X3634285Y123661D02*
X3634371D01*
X3634713Y123000D02*
Y123204D01*
Y123301D02*
Y123441D01*
X3635894Y122677D02*
X3635894D01*
X3681265Y113914D02*
X3679594Y112835D01*
X3680847Y113497*
X3680185Y112244*
X3681265Y113914*
X3679899Y113031D02*
X3679967D01*
X3680601D02*
X3680694D01*
X3680776Y113158D02*
Y113361D01*
Y113459D02*
Y113598D01*
X3686979Y119629D02*
X3688650Y120709D01*
X3687397Y120046*
X3688059Y121299*
X3686979Y119629*
X3687296Y120118D02*
X3687435D01*
X3687532D02*
X3687736D01*
X3688059Y121299D02*
X3688059D01*
X3687862Y120200D02*
Y120292D01*
Y120927D02*
Y120995D01*
X3686799Y105872D02*
X3685697Y107528D01*
X3686376Y106284*
X3685114Y106929*
X3686799Y105872*
X3686684Y105945D02*
X3686751D01*
X3685916Y107126D02*
X3685964D01*
X3685500Y106687D02*
Y106732D01*
X3686681Y105947D02*
Y106050D01*
X3473295Y210669D02*
X3475240Y210252D01*
X3473886Y210669*
X3475240Y211087*
X3473295Y210669*
X3475129Y211063D02*
X3475162D01*
X3474083Y210500D02*
Y210609D01*
Y210730D02*
Y210838D01*
X3474870Y162244D02*
X3472925Y162662D01*
X3474280Y162244*
X3472925Y161827*
X3474870Y162244*
X3473003Y162638D02*
X3473037D01*
X3474083Y162075D02*
Y162183D01*
Y162305D02*
Y162413D01*
X3526189Y139134D02*
X3523735Y139830D01*
X3525205Y139134*
X3523735Y138438*
X3526189Y139134*
X3524955Y139016D02*
X3525773D01*
X3524870Y138760D02*
Y138975D01*
Y139292D02*
Y139508D01*
X3526051Y139095D02*
Y139173D01*
X3526189Y144134D02*
X3523735Y144830D01*
X3525205Y144134*
X3523735Y143438*
X3526189Y144134*
X3524374Y143740D02*
X3524801D01*
X3524870Y143760D02*
Y143975D01*
Y144292D02*
Y144508D01*
X3526051Y144095D02*
Y144173D01*
X3570933Y146890D02*
X3572878Y146472D01*
X3571524Y146890*
X3572878Y147307*
X3570933Y146890*
X3572766Y147283D02*
X3572800D01*
X3570933Y146890D02*
X3570933D01*
X3572114Y146636D02*
Y146708D01*
Y147072D02*
Y147143D01*
X3512665Y173268D02*
X3508430Y174938D01*
X3510303Y173268*
X3508430Y171597*
X3512665Y173268*
X3508979Y172087D02*
X3509671D01*
X3510303Y173268D02*
X3512665D01*
X3508979Y174449D02*
X3509671D01*
X3509516Y172026D02*
Y172566D01*
Y173970D02*
Y174510D01*
X3510697Y172491D02*
Y174044D01*
X3511878Y172957D02*
Y173578D01*
X3587469Y146890D02*
X3585524Y147307D01*
X3586878Y146890*
X3585524Y146472*
X3587469Y146890*
X3585601Y147283D02*
X3585635D01*
X3586287Y146636D02*
Y146708D01*
Y147072D02*
Y147143D01*
X3587469Y146890D02*
X3587469D01*
X3599673D02*
X3601618Y146472D01*
X3600264Y146890*
X3601618Y147307*
X3599673Y146890*
X3601507Y147283D02*
X3601540D01*
X3600461Y146721D02*
Y146829D01*
Y146950D02*
Y147059D01*
X3616602Y182323D02*
X3618547Y181905D01*
X3617193Y182323*
X3618547Y182740*
X3616602Y182323*
X3618436Y182717D02*
X3618470D01*
X3616996Y182238D02*
Y182407D01*
X3618177Y181985D02*
Y182019D01*
Y182626D02*
Y182661D01*
X3639533Y152306D02*
X3638453Y153976D01*
X3639115Y152724*
X3637862Y153386*
X3639533Y152306*
X3638167Y153189D02*
X3638235D01*
X3638869D02*
X3638962D01*
X3638256Y153131D02*
Y153178D01*
X3639437Y152368D02*
Y152454D01*
X3636484Y168150D02*
X3635181Y168509D01*
X3636484Y168150*
X3635181Y167790*
X3636484Y168150*
X3635894Y167987D02*
X3635894D01*
Y168313D02*
X3635894D01*
X3628305Y183816D02*
X3629983Y184882D01*
X3628725Y184230*
X3629398Y185477*
X3628305Y183816*
X3628359Y183898D02*
X3628434D01*
X3629136Y185079D02*
X3629183D01*
X3628807Y184135D02*
Y184272D01*
Y184381D02*
Y184579D01*
X3661642Y152795D02*
X3663429Y152378D01*
X3662075Y152795*
X3663429Y153213*
X3661642Y152795*
X3663327Y153189D02*
X3663351D01*
X3661878Y152740D02*
Y152850D01*
X3663059Y152464D02*
Y152492D01*
Y153099D02*
Y153126D01*
X3669654Y169724D02*
X3667368Y171062D01*
X3668965Y169724*
X3667368Y168386*
X3669654Y169724*
X3667555Y168543D02*
X3667636D01*
X3668965Y169724D02*
X3669654D01*
X3667555Y170906D02*
X3667636D01*
X3667783Y168630D02*
Y168735D01*
Y170714D02*
Y170819D01*
X3668965Y169321D02*
Y169724D01*
Y170128*
X3689437Y150630D02*
X3689019Y148882D01*
X3689437Y150236*
X3689855Y148882*
X3689437Y150630*
X3689202Y149646D02*
X3689255D01*
X3689619D02*
X3689672D01*
X3689043Y148960D02*
Y148982D01*
X3478217Y198858D02*
X3476469Y199276D01*
X3477823Y198858*
X3476469Y198441*
X3478217Y198858*
X3476546Y199252D02*
X3476569D01*
X3477626Y198717D02*
Y198798D01*
Y198919D02*
Y198999D01*
X3477921Y210669D02*
X3476075Y211087D01*
X3477429Y210669*
X3476075Y210252*
X3477921Y210669*
X3476153Y211063D02*
X3476181D01*
X3476445Y210335D02*
Y210366D01*
Y210973D02*
Y211003D01*
X3477626Y210603D02*
Y210736D01*
X3548967Y192056D02*
X3547902Y193735D01*
X3548553Y192477*
X3547306Y193150*
X3548967Y192056*
X3548800Y192165D02*
X3548897D01*
X3548103Y193346D02*
X3548148D01*
X3547311Y193146D02*
Y193147D01*
X3548492Y192368D02*
Y192510D01*
Y192594D02*
Y192804D01*
X3568490Y172196D02*
X3569555Y170517D01*
X3568904Y171775*
X3570151Y171102*
X3568490Y172196*
X3569309Y170906D02*
X3569354D01*
X3568559Y172087D02*
X3568656D01*
X3568571Y172068D02*
Y172143D01*
X3569752Y171317D02*
Y171365D01*
X3550162Y203093D02*
X3549083Y204764D01*
X3549745Y203511*
X3548492Y204173*
X3550162Y203093*
X3548797Y203976D02*
X3548865D01*
X3549499D02*
X3549592D01*
X3549673Y203410D02*
Y203549D01*
Y203647D02*
Y203850D01*
X3555483Y197773D02*
X3556563Y196102D01*
X3555901Y197355*
X3557154Y196693*
X3555483Y197773*
X3556054Y196890D02*
X3556147D01*
X3556781D02*
X3556849D01*
X3555579Y197625D02*
Y197711D01*
X3556760Y196901D02*
Y196947D01*
X3569163Y185286D02*
X3568652Y184005D01*
X3569160Y185265*
X3569380Y183924*
X3569163Y185286*
X3569080Y185079D02*
X3569085D01*
X3569191D02*
X3569196D01*
X3596327Y207913D02*
X3595024Y208273D01*
X3596327Y207913*
X3595024Y207554*
X3596327Y207913*
X3595736Y207750D02*
X3595736D01*
Y208076D02*
X3595736D01*
X3578312Y204668D02*
X3577232Y206339D01*
X3577894Y205086*
X3576642Y205748*
X3578312Y204668*
X3577555Y205157D02*
X3577759D01*
X3577857D02*
X3577996D01*
X3577232Y206339D02*
X3577232D01*
X3576839Y205621D02*
Y205644D01*
X3578020Y204857D02*
Y205121D01*
X3670146Y206732D02*
X3672090Y206315D01*
X3670736Y206732*
X3672090Y207150*
X3670146Y206732*
X3671979Y206339D02*
X3672013D01*
X3670146Y206732D02*
X3670146D01*
X3671327Y206479D02*
Y206550D01*
Y206914D02*
Y206986D01*
X3669597Y174210D02*
X3667783Y178386D01*
X3667927Y175880*
X3665421Y176024*
X3669597Y174210*
X3669047Y174449D02*
X3669493D01*
X3666328Y175630D02*
X3668980D01*
X3667874Y176811D02*
X3668467D01*
X3667806Y177992D02*
X3667954D01*
X3666602Y175511D02*
Y175956D01*
X3667783Y174998D02*
Y175889D01*
X3668965Y174485D02*
Y175666D01*
X3496130Y231929D02*
X3495712Y229985D01*
X3496130Y231339*
X3496548Y229985*
X3496130Y231929*
X3495961Y231142D02*
X3496069D01*
X3496191D02*
X3496299D01*
X3496524Y230062D02*
Y230096D01*
X3531563Y261457D02*
X3531981Y263401D01*
X3531563Y262047*
X3531145Y263401*
X3531563Y261457*
X3531478Y261850D02*
X3531648D01*
X3531225Y263031D02*
X3531259D01*
X3531867D02*
X3531901D01*
X3531957Y263290D02*
Y263324D01*
X3515421Y220118D02*
X3513477Y220536D01*
X3514831Y220118*
X3513477Y219701*
X3515421Y220118*
X3513554Y220512D02*
X3513588D01*
X3514240Y219864D02*
Y219936D01*
Y220300D02*
Y220372D01*
X3515421Y220118D02*
X3515421D01*
X3496130Y227205D02*
X3496548Y229149D01*
X3496130Y227795*
X3495712Y229149*
X3496130Y227205*
X3496045Y227598D02*
X3496214D01*
X3495792Y228780D02*
X3495826D01*
X3496433D02*
X3496468D01*
X3496524Y229038D02*
Y229072D01*
X3496130Y220906D02*
X3495712Y218961D01*
X3496130Y220315*
X3496548Y218961*
X3496130Y220906*
X3495792Y219331D02*
X3495826D01*
X3496433D02*
X3496468D01*
X3496045Y220512D02*
X3496214D01*
X3496524Y219038D02*
Y219072D01*
X3498492Y243346D02*
X3496548Y243764D01*
X3497902Y243346*
X3496548Y242929*
X3498492Y243346*
X3496625Y242953D02*
X3496659D01*
X3497705Y243177D02*
Y243286D01*
Y243407D02*
Y243516D01*
X3497800Y245017D02*
X3496130Y243937D01*
X3497383Y244599*
X3496720Y243346*
X3497800Y245017*
X3496434Y244134D02*
X3496502D01*
X3497137D02*
X3497229D01*
X3496524Y244145D02*
Y244192D01*
X3497705Y244869D02*
Y244955D01*
X3496130Y240984D02*
X3496548Y242929D01*
X3496130Y241575*
X3495712Y242929*
X3496130Y240984*
X3495961Y241772D02*
X3496069D01*
X3496191D02*
X3496299D01*
X3496524Y242818D02*
Y242851D01*
X3496130Y220906D02*
X3495712Y218961D01*
X3496130Y220315*
X3496548Y218961*
X3496130Y220906*
X3495792Y219331D02*
X3495826D01*
X3496433D02*
X3496468D01*
X3496045Y220512D02*
X3496214D01*
X3496524Y219038D02*
Y219072D01*
X3496130Y227205D02*
X3496548Y229149D01*
X3496130Y227795*
X3495712Y229149*
X3496130Y227205*
X3496045Y227598D02*
X3496214D01*
X3495792Y228780D02*
X3495826D01*
X3496433D02*
X3496468D01*
X3496524Y229038D02*
Y229072D01*
X3528807Y236260D02*
X3530752Y235842D01*
X3529398Y236260*
X3530752Y236677*
X3528807Y236260*
X3530641Y235866D02*
X3530674D01*
X3529594Y236091D02*
Y236199D01*
Y236321D02*
Y236429D01*
X3527823Y231535D02*
X3529571Y231118D01*
X3528217Y231535*
X3529571Y231953*
X3527823Y231535*
X3529471Y231142D02*
X3529493D01*
X3528413Y231394D02*
Y231475D01*
Y231596D02*
Y231677D01*
X3569358Y216181D02*
X3568941Y214236D01*
X3569358Y215591*
X3569776Y214236*
X3569358Y216181*
X3569020Y214606D02*
X3569055D01*
X3569662D02*
X3569696D01*
X3569274Y215787D02*
X3569443D01*
X3569752Y214314D02*
Y214348D01*
X3568965Y202795D02*
X3568547Y200851D01*
X3568965Y202205*
X3569382Y200851*
X3568965Y202795*
X3568711Y201614D02*
X3568782D01*
X3569147D02*
X3569218D01*
X3568965Y202795D02*
X3568965D01*
X3568571Y200928D02*
Y200962D01*
X3548098Y239016D02*
X3547681Y237071D01*
X3548098Y238425*
X3548516Y237071*
X3548098Y239016*
X3547929Y238228D02*
X3548038D01*
X3548159D02*
X3548268D01*
X3548492Y237149D02*
Y237182D01*
X3559814Y276715D02*
X3561484Y277795D01*
X3560232Y277133*
X3560894Y278386*
X3559814Y276715*
X3560130Y277205D02*
X3560269D01*
X3560367D02*
X3560571D01*
X3560894Y278386D02*
X3560894D01*
X3560303Y277032D02*
Y277171D01*
Y277269D02*
Y277472D01*
X3561484Y277795D02*
X3561484D01*
X3533830Y278088D02*
X3534909Y276417D01*
X3534247Y277670*
X3535500Y277008*
X3533830Y278088*
X3534400Y277205D02*
X3534493D01*
X3535128D02*
X3535195D01*
X3534319Y277331D02*
Y277535D01*
Y277632D02*
Y277771D01*
X3535500Y277008D02*
X3535500D01*
X3466209Y276417D02*
X3467879Y280653D01*
X3466209Y278780*
X3464538Y280653*
X3466209Y276417*
X3465898Y277205D02*
X3466519D01*
X3465432Y278386D02*
X3466985D01*
X3464966Y279567D02*
X3465506D01*
X3466911D02*
X3467451D01*
X3464634Y280410D02*
Y280545D01*
X3465815Y277416D02*
Y279221D01*
X3466996Y278414D02*
Y279662D01*
X3466209Y275236D02*
X3465791Y273292D01*
X3466209Y274646*
X3466626Y273292*
X3466209Y275236*
X3465870Y273661D02*
X3465905D01*
X3466512D02*
X3466547D01*
X3466124Y274843D02*
X3466293D01*
X3465815Y273369D02*
Y273403D01*
X3476051Y294528D02*
X3477996Y294110D01*
X3476642Y294528*
X3477996Y294945*
X3476051Y294528*
X3477885Y294921D02*
X3477918D01*
X3476445Y294443D02*
Y294612D01*
X3477626Y294189D02*
Y294224D01*
Y294831D02*
Y294866D01*
X3557941Y285669D02*
X3555996Y286087D01*
X3557350Y285669*
X3555996Y285252*
X3557941Y285669*
X3556712Y285472D02*
X3557024D01*
X3556760Y285416D02*
Y285487D01*
Y285851D02*
Y285923D01*
X3557941Y285669D02*
X3557941D01*
X3561484Y280748D02*
X3561067Y278803D01*
X3561484Y280157*
X3561902Y278803*
X3561484Y280748*
X3561231Y279567D02*
X3561302D01*
X3561666D02*
X3561738D01*
X3561484Y280748D02*
X3561484D01*
Y280157D02*
Y280748D01*
X3597705Y290591D02*
X3598122Y292535D01*
X3597705Y291181*
X3597287Y292535*
X3597705Y290591*
X3597536Y291378D02*
X3597644D01*
X3597765D02*
X3597874D01*
X3598098Y292424D02*
Y292458D01*
X3574083Y276024D02*
X3574500Y277968D01*
X3574083Y276614*
X3573665Y277968*
X3574083Y276024*
X3574083*
X3573829Y277205D02*
X3573901D01*
X3574265D02*
X3574336D01*
X3574476Y277857D02*
Y277891D01*
X3654398Y289409D02*
X3654815Y291354D01*
X3654398Y290000*
X3653980Y291354*
X3654398Y289409*
X3654229Y290197D02*
X3654337D01*
X3654458D02*
X3654567D01*
X3654791Y291243D02*
Y291277D01*
X3696917Y277598D02*
X3696500Y275654D01*
X3696917Y277008*
X3697335Y275654*
X3696917Y277598*
X3696579Y276024D02*
X3696614D01*
X3697221D02*
X3697255D01*
X3696833Y277205D02*
X3697002D01*
X3697311Y275731D02*
Y275765D01*
X3696917Y288819D02*
X3697335Y290764D01*
X3696917Y289409*
X3696500Y290764*
X3696917Y288819*
X3696875Y289016D02*
X3696960D01*
X3696621Y290197D02*
X3696674D01*
X3697160D02*
X3697213D01*
X3697311Y290652D02*
Y290686D01*
X3564240Y72480D02*
Y66969D01*
X3571720Y59488*
X3595736*
X3587075Y71299D02*
X3591819D01*
X3595736Y59488D02*
X3653610D01*
X3576819Y94920D02*
X3577232Y95333D01*
X3581819Y71299D02*
X3581957Y71437D01*
Y76811*
X3585106Y79961*
X3596327*
X3603413Y87047*
Y108898*
X3605185Y110669*
Y115394*
X3591819Y71299D02*
X3595736D01*
X3634319Y91378D02*
X3642193Y99252D01*
X3674476Y87835D02*
Y92559D01*
X3691012Y76811D02*
Y81535D01*
X3669752Y87835D02*
X3674476D01*
X3691012Y85472D02*
Y81535D01*
X3691209Y70906D02*
X3691602Y71299D01*
X3706612Y86112D02*
X3707941Y87441D01*
Y79715*
Y94921D02*
X3708728D01*
X3707941Y57913D02*
Y64990D01*
X3698886Y66722D02*
X3706366D01*
Y64213*
X3707144Y64990*
X3707941*
Y73120D02*
Y79715D01*
Y64990*
Y87844D02*
Y79715D01*
X3692429Y60276D02*
X3698876Y66722D01*
X3698886*
X3555185Y107126D02*
X3555707D01*
X3564732Y129193D02*
X3569752Y129173D01*
X3570933Y127992*
X3564732Y124193D02*
X3568669Y124055D01*
X3569358*
X3570933Y125630*
Y127992*
X3564732Y119193D02*
X3565264Y119724D01*
X3575992*
X3589240Y132972*
Y141378*
X3564732Y114193D02*
Y113819D01*
X3576051*
X3577626Y115394*
X3593177Y130748*
Y141378*
X3546425Y114193D02*
X3546524Y114094D01*
Y109488*
X3548886Y107126*
X3546425Y124193D02*
X3546563Y124055D01*
X3550854*
X3559516Y132717*
X3570146*
X3574870Y127992*
Y122874*
X3546425Y129193D02*
Y139134D01*
X3532744Y129075D02*
X3538748Y135079D01*
X3542980*
X3557547D02*
X3570933D01*
X3575264Y130748*
X3582744*
X3544555Y107126D02*
X3548886D01*
X3564713Y129173D02*
X3564732Y129193D01*
X3562665Y103583D02*
X3566209D01*
X3605185Y120906D02*
Y115394D01*
X3607350*
X3605185Y120906D02*
X3607646D01*
X3597311Y103583D02*
X3594358D01*
X3596720Y101220*
X3596819*
Y94921*
X3590815Y103583D02*
X3591012Y104961D01*
Y107126*
X3592980Y109094*
X3597705*
X3602823Y114213*
Y127205*
X3610894Y115394D02*
X3615421D01*
X3590224Y119331D02*
Y124252D01*
X3595146Y129173*
Y141378*
X3574870Y116969D02*
X3576248D01*
X3591209Y131929*
Y141378*
X3606760Y134291D02*
Y132323D01*
X3609516Y129567*
X3585402Y103583D02*
X3590815D01*
X3606760Y134291D02*
X3607941D01*
X3624870Y133110D02*
X3635894Y122087D01*
X3614535Y120906D02*
X3621474Y127844D01*
X3613059Y134291D02*
X3616012D01*
X3662665Y133898D02*
X3662862Y133701D01*
X3665815Y130748D02*
X3668571D01*
X3679594Y112244D02*
X3688650Y121299D01*
X3688748Y104173D02*
X3692094Y107520D01*
X3692193*
X3688551Y103189D02*
Y103976D01*
X3688748Y104173*
X3685106Y107520D02*
X3688748Y103976D01*
Y104173*
X3688453Y102008D02*
X3692390Y98071D01*
X3692587*
X3470933Y168780D02*
X3465815Y173898D01*
Y210669*
X3475657*
X3472508Y162244D02*
X3479594D01*
X3480185Y172087D02*
X3481957Y173858D01*
X3485894*
X3479594Y162244D02*
Y163031D01*
X3485894Y169331*
Y171890*
Y162244D02*
X3486484D01*
X3489240Y165000*
X3515028Y144134D02*
X3518039D01*
X3523039Y139134D02*
X3546425D01*
X3523039Y144134D02*
X3568571D01*
X3576445Y136260*
X3583728*
X3585303Y137835*
Y141378*
X3523039Y149134D02*
X3524929Y151024D01*
X3579594*
X3528807Y147283D02*
X3529201Y146890D01*
X3573295*
X3506760Y173268D02*
X3541799D01*
X3559909Y154961*
X3579594*
X3506760Y163268D02*
X3548492D01*
X3558728Y152992*
X3579594*
X3515028Y139134D02*
X3518039D01*
X3546425D02*
X3570146D01*
X3575264Y133898*
X3584713*
X3587272Y136457*
Y141378*
X3580382Y171890D02*
Y176024D01*
X3579594Y171890D02*
Y168740D01*
X3602035Y158307D02*
X3602626Y158898D01*
X3612665*
X3585106Y146890D02*
X3602035D01*
X3593374Y168543D02*
Y168150D01*
X3599083*
Y174449*
X3606957Y141378D02*
Y139016D01*
X3607646Y138228*
X3611484*
X3613059Y136654*
Y134291*
X3604988Y141378D02*
Y137244D01*
X3607941Y134291*
X3603020Y141378D02*
Y132126D01*
X3605185Y129961*
Y120906*
X3601051Y141378D02*
Y130075D01*
X3602796Y128329*
Y127231*
X3602823Y127205*
X3599083Y141378D02*
Y128386D01*
X3599673Y127205*
X3597114Y141378D02*
Y121496D01*
X3597311Y121299*
X3601051Y174449D02*
Y180943D01*
X3611878Y191770*
Y195709*
X3603020Y174449D02*
Y179567D01*
X3619161Y195709*
X3625067*
X3628020Y198661*
X3642980*
X3645736Y195906*
Y195709*
X3661484*
X3604988Y174449D02*
Y178386D01*
X3609319Y182323*
X3618965*
X3606957Y174449D02*
Y176811D01*
X3609319Y179173*
X3619752*
X3632744Y192165*
X3635106*
X3638650Y195709*
X3640224*
X3580382Y176024D02*
X3581563Y177205D01*
X3584516*
X3585303Y176417*
Y174449*
X3650362Y161752D02*
X3650657Y162047D01*
X3637075Y145906D02*
X3641012D01*
X3631760Y142559D02*
X3633925Y144724D01*
X3650461Y161063D02*
Y161457D01*
X3650657Y161654*
Y162047*
X3650854Y162244*
X3654102*
X3616012Y138228D02*
X3616761Y138978D01*
Y146534*
X3636829Y160030D02*
X3638157Y158701D01*
X3638256*
X3623689Y172480D02*
X3627665D01*
X3640657Y185472*
X3641051*
X3637862Y153976D02*
X3641012Y150827D01*
Y145906*
X3638256Y174843D02*
Y177402D01*
X3638354Y177500*
X3649673Y152402D02*
X3649280D01*
X3649870Y151417*
Y154862*
X3634713Y168150D02*
X3638256D01*
Y168543*
X3644555Y174843D02*
X3646130D01*
X3620539Y145315D02*
Y143740D01*
X3626051Y138228*
X3635500*
Y143150*
X3638256Y158701D02*
Y158602D01*
X3641873Y154985D02*
X3643768D01*
Y154862*
X3649673Y152402D02*
Y153583D01*
X3649870Y153780*
Y154862*
X3612665Y168740D02*
X3615421D01*
X3617587Y170906*
Y173268*
X3629988Y185472*
X3612665Y166772D02*
X3627626D01*
X3638354Y177500*
X3612665Y164803D02*
X3639191D01*
X3641406*
X3647705*
X3649280Y166378*
Y171693*
X3612665Y162835D02*
X3642685D01*
X3643768Y161752*
X3612665Y160866D02*
X3627232D01*
X3628069Y160030*
X3612665Y156929D02*
X3630972D01*
X3633728Y154173*
X3612665Y154961D02*
X3616209D01*
X3624083Y147087*
X3625067*
X3612665D02*
X3616209D01*
X3616761Y146534*
X3633728Y154173D02*
X3632547Y152992D01*
X3633335*
X3636878Y149449*
X3637075*
X3632547Y147087D02*
X3634909Y145906D01*
X3637075*
X3635500Y143150D02*
X3632547Y147087D01*
X3633925Y146890*
Y144724*
X3625067Y147087D02*
X3626445Y146890D01*
Y144331*
X3628217Y142559*
X3635500Y142953D02*
Y143150D01*
X3660992Y162244D02*
X3662173Y162638D01*
X3666209*
X3678020Y176024D02*
Y176417D01*
X3659476Y152402D02*
X3659870Y152795D01*
X3663846*
X3660598Y171693D02*
X3663453D01*
X3665421Y169724*
X3662665Y140197D02*
X3662862Y140394D01*
X3666012Y156142D02*
X3666209Y156339D01*
X3665421Y169724D02*
X3671425D01*
X3671327Y171693D02*
Y172480D01*
X3673591Y146496D02*
Y131688D01*
X3675925Y129354*
X3676445Y128780*
Y127992*
X3666701Y146496D02*
X3666838Y147045D01*
Y148345*
X3671425Y152932*
Y153189*
X3663846Y152795D02*
Y153976D01*
X3666012Y156142*
X3678138Y146220D02*
X3678807Y146890D01*
X3671327Y170118D02*
Y169134D01*
X3671425Y169724*
X3689339Y153189D02*
X3691799D01*
X3695146Y156535*
Y158110*
X3695343Y158307*
X3689339Y153189D02*
X3689437Y152402D01*
Y148465*
X3678315Y153189D02*
X3678413D01*
X3678315Y169724D02*
X3678413Y169331D01*
X3666209Y162638D02*
X3666406Y162441D01*
X3667390*
X3671327Y158504*
X3486091Y198858D02*
Y210472D01*
X3486583Y210669*
X3486091Y198858D02*
X3486287D01*
X3475461Y198268D02*
X3476051Y198858D01*
X3470146Y202402D02*
Y179370D01*
X3473689Y175827*
X3485894*
X3470146Y202402D02*
X3472508Y204764D01*
X3486091*
Y198858*
X3481957Y192559D02*
Y179370D01*
X3483531Y177795*
X3485894*
X3481957Y192559D02*
X3486091Y196693D01*
Y198858*
X3476051D02*
X3479988D01*
X3475657Y210669D02*
X3479693D01*
X3485894Y177795D02*
X3489240D01*
Y165000*
X3485894Y177795D02*
X3489240D01*
X3485894Y179764D02*
X3488256D01*
X3489240Y178780*
Y177795*
X3485894Y181732D02*
X3542193D01*
X3566996Y156929*
X3579594*
X3485894Y183701D02*
X3542980D01*
X3567783Y158898*
X3579594*
X3485894Y185669D02*
X3543768D01*
X3568571Y160866*
X3579594*
X3485894Y187638D02*
X3544555D01*
X3569358Y162835*
X3579594*
X3485894Y189606D02*
X3545343D01*
X3568177Y166772*
X3579594*
X3547311Y193740D02*
X3570146Y170512D01*
X3561878Y184685D02*
X3561927Y184636D01*
X3561976Y184685*
Y187441*
X3564470Y182093D02*
X3564749Y181814D01*
X3548492Y204764D02*
X3557154Y196102D01*
X3568965Y183504D02*
X3569358Y187047D01*
X3568866Y187441*
X3572508Y194528D02*
X3574083Y195709D01*
X3578020Y213031D02*
X3597114Y193740D01*
Y174449*
X3578020Y213031D02*
Y268150D01*
X3579201Y269331*
X3594555Y207913D02*
X3598098D01*
X3577232Y194528D02*
X3579890D01*
X3586878Y189409D02*
X3591209Y185079D01*
Y174449*
X3584319Y182323D02*
X3587272Y179370D01*
Y174449*
X3584319Y182323D02*
X3585106D01*
X3576642Y206339D02*
X3593177Y189803D01*
Y174449*
X3577232Y187835D02*
X3578413Y186654D01*
X3586484*
X3589240Y183898*
Y174449*
X3573000Y194528D02*
X3574083Y195709D01*
X3629988Y193740D02*
X3631957Y195709D01*
X3633138*
X3648098Y185472D02*
X3644122D01*
X3641051*
X3648098D02*
X3653315D01*
X3638354Y177500D02*
X3641209Y180354D01*
X3652035*
Y180059*
X3653709Y178386*
X3667783Y206732D02*
X3672508D01*
X3671327Y172480D02*
X3665421Y178386D01*
X3660598*
X3684122Y178189D02*
X3687077Y177795D01*
X3496130Y229567D02*
Y235866D01*
Y236260*
X3501740*
X3513453Y250433D02*
X3524476D01*
X3531563Y257520*
Y263819*
X3513453Y250433D02*
Y250039D01*
X3513059Y220118D02*
X3518177D01*
X3496130Y218543D02*
Y229567D01*
Y232323*
X3501740*
X3496130Y243346D02*
X3506760D01*
Y239311*
X3496130Y243346D02*
X3503217Y250433D01*
X3513453*
X3496130Y243346D02*
Y235866D01*
Y229567D02*
Y218543D01*
X3496228Y218642*
Y223268*
X3503118D02*
X3504791D01*
Y217756*
X3509516Y213031*
Y213425*
X3518177Y220118D02*
X3523295D01*
X3524476Y218937*
X3518177Y226417D02*
X3524083D01*
X3524280Y226614*
X3526051Y224843*
X3526248*
X3526346*
X3504791Y229272D02*
Y217756D01*
X3509516Y213031*
Y213425*
X3508728Y239311D02*
Y243346D01*
X3510697Y245315*
X3511780Y238228D02*
X3514240D01*
X3515815Y239803*
X3511780Y236260D02*
X3531169D01*
X3511780Y232323D02*
X3517390D01*
X3517783Y232717*
X3518571*
X3511780Y230354D02*
X3514240D01*
X3518177Y226417*
X3524870Y232717D02*
X3526051Y231535D01*
X3529988*
X3551248Y255157D02*
X3552429Y256339D01*
X3564240*
X3569358Y251220*
Y213819*
X3551248Y255157D02*
Y239016D01*
X3552035Y238228*
X3554890*
X3562665Y247677D02*
Y250827D01*
X3556366Y247677D02*
Y252894D01*
X3549870Y224646D02*
Y231732D01*
X3551642Y233504*
X3554890*
X3561091Y246102D02*
X3562665Y247677D01*
X3561091Y237047D02*
X3559909Y235866D01*
X3561484Y231142*
X3564929Y240591D02*
X3566602D01*
X3564929Y238228D02*
X3566602D01*
Y240591*
X3552035Y226811D02*
Y230354D01*
X3552823Y231142*
X3554890*
X3552035Y226811D02*
X3568965Y209882D01*
Y200433*
X3548098Y236654D02*
Y265000D01*
X3561484Y278386*
X3479201Y276181D02*
X3479662Y276642D01*
X3481957*
X3486062Y280748*
X3525657*
X3539831Y266575*
Y266181*
X3479201Y288465D02*
X3479437Y288228D01*
X3480776*
X3485894Y283110*
X3528807*
X3535500Y276417*
X3466209Y282323D02*
Y272874D01*
X3478413Y294528D02*
X3474083D01*
X3474476*
X3475264Y293740*
X3556366Y259783D02*
X3573000D01*
X3555579Y285669D02*
X3561484D01*
Y278386*
X3580776Y263425D02*
Y214213D01*
X3599083Y196102*
Y174449*
X3580776Y263425D02*
Y263622D01*
X3584516Y267362*
Y284291*
X3591209Y290984*
X3578020Y285669D02*
X3579201D01*
X3597705Y283898D02*
Y292953D01*
X3574083Y278386D02*
Y268740D01*
X3575854Y266969*
Y211457*
X3584319Y202992*
Y202402*
X3679201Y296496D02*
X3682547D01*
Y284094D02*
X3682744Y283898D01*
X3654398D02*
Y291772D01*
X3696917Y275236D02*
Y283898D01*
Y291181*
Y283898D02*
X3699673Y281142D01*
X3700854*
X3569752Y300433D02*
Y302402D01*
X3588256D02*
X3591209Y299449D01*
Y290984*
X3699763Y170118D02*
G75*
G03X3698000Y168346I9J-1772D01*
G01Y171890D02*
G03X3699763Y170118I1772J-0D01*
G01X3698000Y171890D02*
Y174252D01*
X3697016*
X3696328Y174391D02*
G03X3697016Y174252I688J1633D01*
G01X3696328Y174391D02*
X3693866Y171929D01*
Y170118*
X3693329Y168848D02*
G03X3693866Y170118I-1235J1270D01*
G01X3693472Y168150D02*
G03X3693329Y168848I-1771J-0D01*
G01X3693472Y168150D02*
Y164213D01*
X3692765Y162796D02*
G03X3693472Y164213I-1064J1417D01*
G01X3692783Y162539D02*
G03X3692765Y162796I-1771J0D01*
G01X3692783Y162539D02*
Y157224D01*
X3692644Y156535D02*
G03X3692783Y157224I-1632J689D01*
G01Y155846D02*
G03X3692644Y156535I-1771J0D01*
G01X3692783Y155846D02*
Y150531D01*
X3691012Y148760D02*
G03X3692783Y150531I-0J1771D01*
G01X3691012Y148760D02*
X3688748D01*
Y144921*
X3686976Y143150D02*
G03X3688748Y144921I0J1771D01*
G01X3686976Y143150D02*
X3683236D01*
X3681957Y143696D02*
G03X3683236Y143150I1279J1225D01*
G01X3681091Y143198D02*
G03X3681957Y143696I-414J1723D01*
G01X3681091Y143198D02*
Y141969D01*
X3678150Y137047D02*
G03X3681091Y141969I-12J3347D01*
G01X3681480Y133863D02*
G03X3678150Y137047I-3342J-162D01*
G01X3681480Y133863D02*
X3687075Y139457D01*
Y140000*
X3693055*
X3698576Y147579D02*
G03X3693055Y140000I-3233J-3445D01*
G01X3698576Y147579D02*
X3699189D01*
X3699763Y147677D02*
G03X3699189Y147579I9J-1771D01*
G01X3698000Y149449D02*
G03X3699763Y147677I1772J-0D01*
G01X3698000Y149449D02*
Y152795D01*
X3698044Y153189D02*
G03X3698000Y152795I1728J-394D01*
G01Y153583D02*
G03X3698044Y153189I1772J-0D01*
G01X3698000Y153583D02*
Y156929D01*
X3699763Y158701D02*
G03X3698000Y156929I9J-1772D01*
G01Y160472D02*
G03X3699763Y158701I1772J0D01*
G01X3698000Y160472D02*
Y163819D01*
X3698101Y164409D02*
G03X3698000Y163819I1671J-590D01*
G01Y165000D02*
G03X3698101Y164409I1772J0D01*
G01X3698000Y165000D02*
Y168346D01*
X3691954Y184882D02*
X3693135Y186063D01*
X3687862*
Y184488*
X3686091Y182717D02*
G03X3687862Y184488I-0J1771D01*
G01X3686091Y182717D02*
X3682154D01*
X3681661Y182786D02*
G03X3682154Y182717I493J1702D01*
G01X3681661Y182786D02*
Y181072D01*
X3682154Y181142D02*
G03X3681661Y181072I-0J-1772D01*
G01X3682154Y181142D02*
X3686091D01*
X3687862Y179370D02*
G03X3686091Y181142I-1771J0D01*
G01X3687862Y179370D02*
Y177008D01*
X3686906Y175435D02*
G03X3687862Y177008I-815J1573D01*
G01X3687075Y175281D02*
G03X3686906Y175435I-1280J-1226D01*
G01X3688354Y175827D02*
G03X3687075Y175281I0J-1772D01*
G01X3688354Y175827D02*
X3689969D01*
X3693118Y178976*
X3691209*
X3689437Y180748D02*
G03X3691209Y178976I1772J0D01*
G01X3689437Y180748D02*
Y183110D01*
X3691209Y184882D02*
G03X3689437Y183110I-0J-1772D01*
G01X3691209Y184882D02*
X3691954D01*
X3678126Y137047D02*
G03X3675953Y136235I12J-3346D01*
G01Y137859D02*
G03X3678126Y137047I2185J2535D01*
G01X3675953Y137859D02*
Y136235D01*
X3675530Y162736D02*
G03X3675461Y162244I1702J-492D01*
G01Y163228D02*
G03X3675530Y162736I1771J0D01*
G01X3675461Y163228D02*
Y165591D01*
X3675467Y165741D02*
G03X3675461Y165591I1765J-150D01*
G01X3674870Y167058D02*
G03X3675467Y165741I1772J9D01*
G01X3674273D02*
G03X3674870Y167058I-1175J1326D01*
G01X3674280Y165591D02*
G03X3674273Y165741I-1772J-0D01*
G01X3674280Y165591D02*
Y163228D01*
X3672516Y161457D02*
G03X3674280Y163228I-8J1771D01*
G01Y159685D02*
G03X3672516Y161457I-1772J0D01*
G01X3674280Y159685D02*
Y158504D01*
Y157323*
Y157167*
X3674870Y155855D02*
G03X3674280Y157167I-1772J-9D01*
G01X3675461D02*
G03X3674870Y155855I1181J-1321D01*
G01X3675461Y157167D02*
Y157323D01*
Y159685*
X3675530Y160177D02*
G03X3675461Y159685I1702J-492D01*
G01Y160669D02*
G03X3675530Y160177I1771J0D01*
G01X3675461Y160669D02*
Y162244D01*
X3671228Y131732D02*
Y131831D01*
X3671159Y131732D02*
G03X3671228Y131831I-2706J1969D01*
G01X3671159Y131732D02*
X3671228D01*
Y135570D02*
Y138524D01*
X3668465Y137047D02*
G03X3671228Y138524I-12J3347D01*
G01Y135570D02*
G03X3668465Y137047I-2775J-1869D01*
G01X3666732Y130831D02*
G03X3666504Y129961I1544J-870D01*
G01X3666210Y131218D02*
G03X3666732Y130831I2243J2483D01*
G01X3664634Y130256D02*
G03X3666209Y131218I-0J1772D01*
G01X3664634Y130256D02*
X3660697D01*
X3659713Y130554D02*
G03X3660697Y130256I984J1474D01*
G01X3659713Y130554D02*
Y125827D01*
X3666515*
X3666504Y126024D02*
G03X3666515Y125827I1772J-0D01*
G01X3666504Y126024D02*
Y129961D01*
X3668436Y137047D02*
G03X3666328Y136286I17J-3346D01*
G01X3668436Y137047D02*
X3665859D01*
X3666328Y136286D02*
G03X3665859Y137047I-1694J-518D01*
G01X3666078Y150925D02*
X3667849Y152697D01*
X3664240*
X3663846Y152741D02*
G03X3664240Y152697I394J1728D01*
G01X3663846Y152741D02*
Y150630D01*
X3663839Y150467D02*
G03X3663846Y150630I-1764J163D01*
G01X3665028Y150925D02*
G03X3663839Y150467I-0J-1771D01*
G01X3665028Y150925D02*
X3666078D01*
X3663263Y149316D02*
G03X3663256Y149154I1765J-162D01*
G01X3662075Y148858D02*
G03X3663263Y149316I-0J1772D01*
G01X3662075Y148858D02*
X3660106D01*
X3659713Y148903D02*
G03X3660106Y148858I393J1727D01*
G01X3659713Y148903D02*
Y143540D01*
X3660697Y143839D02*
G03X3659713Y143540I-0J-1772D01*
G01X3660697Y143839D02*
X3663256D01*
Y149154*
X3472606Y272202D02*
Y272622D01*
X3468669Y274951D02*
G03X3472606Y272622I2658J-0D01*
G01X3468669Y274951D02*
Y277411D01*
X3468814Y278277D02*
G03X3468669Y277411I2513J-866D01*
G01X3468571Y279173D02*
G03X3468814Y278277I1772J0D01*
G01X3468571Y279173D02*
Y284488D01*
X3462961*
Y270038*
X3463766Y269232*
X3471407*
X3472159Y269984*
X3472606Y272202D02*
G03X3472159Y269984I2658J-1690D01*
G01X3711287Y54961D02*
Y58543D01*
X3704201*
X3702429Y60315D02*
G03X3704201Y58543I1772J-0D01*
G01X3702429Y60315D02*
Y62047D01*
X3694752*
X3692980Y63819D02*
G03X3694752Y62047I1772J-0D01*
G01X3692980Y63819D02*
Y66476D01*
X3689240*
X3688256Y66775D02*
G03X3689240Y66476I984J1473D01*
G01X3687272D02*
G03X3688256Y66775I-0J1772D01*
G01X3687272Y66476D02*
X3683335D01*
X3681563Y68248D02*
G03X3683335Y66476I1772J0D01*
G01X3681563Y68248D02*
Y73563D01*
X3681760Y74375D02*
G03X3681563Y73563I1575J-812D01*
G01X3681760Y74375D02*
Y77795D01*
X3674476*
X3673624Y77894D02*
G03X3674476Y77795I852J3641D01*
G01X3673624Y77894D02*
X3672508D01*
X3670974Y78780D02*
G03X3672508Y77894I1534J885D01*
G01X3670974Y78780D02*
X3665382D01*
X3663958Y77356*
X3677124Y54961D02*
G03X3663958Y77356I-8553J10039D01*
G01X3677124Y54961D02*
X3711287D01*
X3702728Y76417D02*
G03X3702429Y75433I1473J-984D01*
G01Y77402D02*
G03X3702728Y76417I1772J-0D01*
G01X3702429Y77402D02*
Y81437D01*
X3701957*
Y80650*
X3701912Y80256D02*
G03X3701957Y80650I-1727J394D01*
G01Y79862D02*
G03X3701912Y80256I-1772J0D01*
G01X3701957Y79862D02*
Y78091D01*
X3701912Y77697D02*
G03X3701957Y78091I-1727J394D01*
G01Y77303D02*
G03X3701912Y77697I-1772J0D01*
G01X3701957Y77303D02*
Y75531D01*
X3701912Y75138D02*
G03X3701957Y75531I-1727J393D01*
G01Y74744D02*
G03X3701912Y75138I-1772J0D01*
G01X3701957Y74744D02*
Y72972D01*
X3701912Y72579D02*
G03X3701957Y72972I-1727J393D01*
G01Y72185D02*
G03X3701912Y72579I-1772J0D01*
G01X3701957Y72185D02*
Y71398D01*
X3702429*
Y75433*
X3693025Y77697D02*
G03X3692980Y77303I1727J-394D01*
G01X3693004Y77799D02*
G03X3693025Y77697I1748J292D01*
G01X3692882Y77795D02*
G03X3693004Y77799I-0J1772D01*
G01X3692882Y77795D02*
X3689142D01*
X3687862Y78342D02*
G03X3689142Y77795I1280J1225D01*
G01X3687665Y78165D02*
G03X3687862Y78342I-1082J1402D01*
G01X3687665Y78165D02*
Y75290D01*
X3688256Y75036D02*
G03X3687665Y75290I-984J-1473D01*
G01X3689240Y75335D02*
G03X3688256Y75036I0J-1772D01*
G01X3689240Y75335D02*
X3692991D01*
X3692980Y75531D02*
G03X3692991Y75335I1772J0D01*
G01X3692980Y75531D02*
Y77303D01*
X3711287Y110747D02*
Y137773D01*
X3710500Y137638D02*
G03X3711287Y137773I0J2362D01*
G01X3710500Y137638D02*
X3688596D01*
X3680579Y129620*
Y129173*
Y125827*
X3678217Y123465D02*
G03X3680579Y125827I-0J2362D01*
G01X3678217Y123465D02*
X3659713D01*
X3658532Y123781D02*
G03X3659713Y123465I1181J2046D01*
G01X3658532Y123781D02*
Y106535D01*
X3678356*
X3679988Y107618D02*
G03X3678356Y106535I0J-1772D01*
G01X3679988Y107618D02*
X3683335D01*
X3685106Y105855D02*
G03X3683335Y107618I-1771J-9D01*
G01X3686878D02*
G03X3685106Y105855I-0J-1772D01*
G01X3686878Y107618D02*
X3690224D01*
X3691996Y105846D02*
G03X3690224Y107618I-1772J0D01*
G01X3691996Y105846D02*
Y100531D01*
X3691336Y99152D02*
G03X3691996Y100531I-1112J1379D01*
G01X3691406Y98661D02*
G03X3691336Y99152I-1772J0D01*
G01X3691406Y98661D02*
Y94724D01*
X3689634Y92953D02*
G03X3691406Y94724I-0J1771D01*
G01X3689634Y92953D02*
X3687272D01*
X3685500Y94724D02*
G03X3687272Y92953I1772J0D01*
G01X3685500Y94724D02*
Y98661D01*
X3685615Y99289D02*
G03X3685500Y98661I1657J-628D01*
G01X3685106Y100523D02*
G03X3685615Y99289I1772J8D01*
G01X3683925Y98861D02*
G03X3685106Y100523I-590J1670D01*
G01X3683925Y98861D02*
Y98661D01*
Y96693*
Y94724*
X3682154Y92953D02*
G03X3683925Y94724I-0J1771D01*
G01X3682154Y92953D02*
X3679791D01*
X3678020Y94724D02*
G03X3679791Y92953I1771J0D01*
G01X3678020Y94724D02*
Y96693D01*
Y99842*
X3678020D02*
X3655185D01*
X3655185D02*
X3645736D01*
X3643370Y100823D02*
G03X3645736Y99842I2366J2366D01*
G01X3643370Y100823D02*
X3641406Y102787D01*
X3623299Y84681*
X3618567Y89414D02*
G03X3623299Y84681I2366J-2367D01*
G01X3618567Y89414D02*
X3636870Y107717D01*
X3620778Y123808*
X3617980Y121010*
Y118248*
X3616209Y116476D02*
G03X3617980Y118248I-0J1772D01*
G01X3616209Y116476D02*
X3613886D01*
Y114173*
X3612114Y112402D02*
G03X3613886Y114173I0J1771D01*
G01X3612114Y112402D02*
X3609673D01*
X3609122Y112489D02*
G03X3609673Y112402I551J1684D01*
G01X3608571D02*
G03X3609122Y112489I-0J1771D01*
G01X3608571Y112402D02*
X3607547D01*
Y110669*
X3606855Y108999D02*
G03X3607547Y110669I-1670J1670D01*
G01X3606855Y108999D02*
X3605776Y107919D01*
Y87047*
X3605084Y85377D02*
G03X3605776Y87047I-1671J1670D01*
G01X3605084Y85377D02*
X3597997Y78290D01*
X3596327Y77598D02*
G03X3597997Y78290I-0J2363D01*
G01X3596327Y77598D02*
X3586085D01*
X3585183Y76697*
X3585953Y75236D02*
G03X3585183Y76697I-1772J0D01*
G01X3585953Y75236D02*
Y67362D01*
X3584993Y65787D02*
G03X3585953Y67362I-812J1575D01*
G01X3584993Y65787D02*
X3588645D01*
X3587685Y67362D02*
G03X3588645Y65787I1772J0D01*
G01X3587685Y67362D02*
Y75236D01*
X3589457Y77008D02*
G03X3587685Y75236I-0J-1772D01*
G01X3589457Y77008D02*
X3594181D01*
X3595953Y75236D02*
G03X3594181Y77008I-1772J0D01*
G01X3595953Y75236D02*
Y67362D01*
X3594993Y65787D02*
G03X3595953Y67362I-812J1575D01*
G01X3594993Y65787D02*
X3644595D01*
X3662291Y83484*
X3664240Y84291D02*
G03X3662291Y83484I0J-2756D01*
G01X3664240Y84291D02*
X3670974D01*
X3671282Y84685D02*
G03X3670974Y84291I1226J-1279D01*
G01X3670736Y85965D02*
G03X3671282Y84685I1772J-0D01*
G01X3670736Y85965D02*
Y89705D01*
X3672508Y91476D02*
G03X3670736Y89705I-0J-1771D01*
G01X3672508Y91476D02*
X3676445D01*
X3678217Y89705D02*
G03X3676445Y91476I-1772J-0D01*
G01X3678217Y89705D02*
Y85965D01*
X3678077Y85276D02*
G03X3678217Y85965I-1632J689D01*
G01X3678077Y85276D02*
X3681760D01*
Y85669*
Y89606*
X3683531Y91378D02*
G03X3681760Y89606I0J-1772D01*
G01X3683531Y91378D02*
X3685894D01*
X3687665Y89606D02*
G03X3685894Y91378I-1771J0D01*
G01X3687665Y89606D02*
Y87638D01*
Y85669*
Y84906*
X3687862Y84729D02*
G03X3687665Y84906I-1279J-1225D01*
G01X3689142Y85276D02*
G03X3687862Y84729I-0J-1772D01*
G01X3689142Y85276D02*
X3692882D01*
X3692980Y85273D02*
G03X3692882Y85276I-98J-1769D01*
G01X3692980Y85273D02*
Y89016D01*
X3694752Y90787D02*
G03X3692980Y89016I-0J-1771D01*
G01X3694752Y90787D02*
X3702429D01*
Y92520*
X3704201Y94291D02*
G03X3702429Y92520I-0J-1771D01*
G01X3704201Y94291D02*
X3711287D01*
Y101143*
Y110747D02*
G03Y101143I-7677J-4802D01*
G01X3651839Y106535D02*
Y147283D01*
X3646049*
X3645634Y147454D02*
G03X3646049Y147283I415J420D01*
G01X3645634Y147454D02*
X3641620Y151417D01*
X3641110*
X3639339Y153189D02*
G03X3641110Y151417I1771J-0D01*
G01X3639339Y153189D02*
Y153670D01*
X3635041Y157913*
X3633329*
X3634608Y156634*
X3634614*
X3636386Y154862D02*
G03X3634614Y156634I-1772J0D01*
G01X3636386Y154862D02*
Y153282D01*
X3637226Y152441*
X3637226D02*
X3638295D01*
X3640067Y150669D02*
G03X3638295Y152441I-1772J0D01*
G01X3640067Y150669D02*
Y148228D01*
X3639979Y147677D02*
G03X3640067Y148228I-1684J551D01*
G01Y147126D02*
G03X3639979Y147677I-1772J-0D01*
G01X3640067Y147126D02*
Y144685D01*
X3638295Y142913D02*
G03X3640067Y144685I0J1772D01*
G01X3638295Y142913D02*
X3635854D01*
X3634752Y143298D02*
G03X3635854Y142913I1102J1387D01*
G01X3634752Y143298D02*
Y141339D01*
X3632980Y139567D02*
G03X3634752Y141339I0J1772D01*
G01X3632980Y139567D02*
X3630539D01*
X3629988Y139655D02*
G03X3630539Y139567I551J1684D01*
G01X3629437D02*
G03X3629988Y139655I0J1772D01*
G01X3629437Y139567D02*
X3626996D01*
X3625224Y141339D02*
G03X3626996Y139567I1772J-0D01*
G01X3625224Y141339D02*
Y142211D01*
X3624775Y142660*
X3624255Y143445D02*
G03X3624775Y142660I2190J886D01*
G01X3624255Y143445D02*
X3623000D01*
X3621228Y145217D02*
G03X3623000Y143445I1772J-0D01*
G01X3621228Y145217D02*
Y146600D01*
X3617390Y150439*
Y150433*
X3617345Y150039D02*
G03X3617390Y150433I-1727J394D01*
G01Y149646D02*
G03X3617345Y150039I-1772J-0D01*
G01X3617390Y149646D02*
Y149132D01*
X3617879Y148757D02*
G03X3617390Y149132I-1670J-1670D01*
G01X3617879Y148757D02*
X3618432Y148204D01*
X3619124Y146534D02*
G03X3618432Y148204I-2363J-0D01*
G01X3619124Y146534D02*
Y138978D01*
X3619123Y138917D02*
G03X3619124Y138978I-2362J61D01*
G01X3619161Y138425D02*
G03X3619123Y138917I-3149J0D01*
G01X3619161Y138425D02*
Y138228D01*
Y134890*
X3623841Y130211*
X3643772Y110280*
X3644520Y109138D02*
G03X3643772Y110280I-3114J-1225D01*
G01X3644520Y109138D02*
X3647122Y106535D01*
X3651839*
X3634516Y167165D02*
Y170321D01*
X3631360Y167165*
X3634516*
X3629078Y150039D02*
G03X3628807Y149539I1402J-1082D01*
G01Y150540D02*
G03X3629078Y150039I1673J582D01*
G01X3628536D02*
G03X3628807Y150540I-1402J1083D01*
G01Y149539D02*
G03X3628536Y150039I-1673J-582D01*
G01X3629988Y159291D02*
Y160472D01*
X3617390*
Y160276*
X3617345Y159882D02*
G03X3617390Y160276I-1727J394D01*
G01Y159488D02*
G03X3617345Y159882I-1772J0D01*
G01X3617390Y159488D02*
Y159291D01*
X3629988*
X3711287Y188290D02*
Y306535D01*
X3654197*
X3648492Y302598D02*
G03X3654197Y306535I0J6103D01*
G01X3648492Y302598D02*
X3616996D01*
X3611291Y306535D02*
G03X3616996Y302598I5705J2166D01*
G01X3611291Y306535D02*
X3595933D01*
Y286409*
X3590421Y280897*
Y219575*
X3595949Y214048*
X3595796Y211600*
X3596228Y211654D02*
G03X3595796Y211600I0J-1772D01*
G01X3596228Y211654D02*
X3599969D01*
X3600657Y211514D02*
G03X3599969Y211654I-688J-1632D01*
G01X3600657Y211514D02*
Y216575D01*
X3600854Y217772D02*
G03X3600657Y216575I3544J-1197D01*
G01X3600854Y217772D02*
Y222874D01*
X3602626Y224646D02*
G03X3600854Y222874I-0J-1772D01*
G01X3602626Y224646D02*
X3606957D01*
X3608335Y223988D02*
G03X3606957Y224646I-1378J-1114D01*
G01X3609713D02*
G03X3608335Y223988I-0J-1772D01*
G01X3609713Y224646D02*
X3614043D01*
X3615421Y223988D02*
G03X3614043Y224646I-1378J-1114D01*
G01X3616799D02*
G03X3615421Y223988I0J-1772D01*
G01X3616799Y224646D02*
X3621130D01*
X3622508Y223988D02*
G03X3621130Y224646I-1378J-1114D01*
G01X3623886D02*
G03X3622508Y223988I-0J-1772D01*
G01X3623886Y224646D02*
X3628217D01*
X3629594Y223988D02*
G03X3628217Y224646I-1377J-1114D01*
G01X3630972D02*
G03X3629594Y223988I0J-1772D01*
G01X3630972Y224646D02*
X3635303D01*
X3636681Y223988D02*
G03X3635303Y224646I-1378J-1114D01*
G01X3638059D02*
G03X3636681Y223988I0J-1772D01*
G01X3638059Y224646D02*
X3642390D01*
X3643768Y223988D02*
G03X3642390Y224646I-1378J-1114D01*
G01X3645146D02*
G03X3643768Y223988I-0J-1772D01*
G01X3645146Y224646D02*
X3649476D01*
X3650854Y223988D02*
G03X3649476Y224646I-1378J-1114D01*
G01X3652232D02*
G03X3650854Y223988I0J-1772D01*
G01X3652232Y224646D02*
X3656563D01*
X3657941Y223988D02*
G03X3656563Y224646I-1378J-1114D01*
G01X3659319D02*
G03X3657941Y223988I-0J-1772D01*
G01X3659319Y224646D02*
X3663650D01*
X3665421Y222874D02*
G03X3663650Y224646I-1771J0D01*
G01X3665421Y222874D02*
Y211063D01*
X3665273Y210353D02*
G03X3665421Y211063I-1623J710D01*
G01X3665913Y210472D02*
G03X3665273Y210353I0J-1771D01*
G01X3665913Y210472D02*
X3669654D01*
X3671425Y208701D02*
G03X3669654Y210472I-1771J-0D01*
G01X3671425Y208701D02*
Y204764D01*
X3669654Y202992D02*
G03X3671425Y204764I-0J1772D01*
G01X3669654Y202992D02*
X3665913D01*
X3665010Y203240D02*
G03X3665913Y202992I903J1524D01*
G01X3665028D02*
G03X3665010Y203240I-1772J0D01*
G01X3665028Y202992D02*
Y201024D01*
X3663256Y199252D02*
G03X3665028Y201024I-0J1772D01*
G01X3663256Y199252D02*
X3662544D01*
X3660424D02*
G03X3662544I1060J2756D01*
G01X3660424D02*
X3659713D01*
X3657941Y201024D02*
G03X3659713Y199252I1772J-0D01*
G01X3657941Y201024D02*
Y202992D01*
X3658132Y203793D02*
G03X3657941Y202992I1581J-801D01*
G01X3657842Y204764D02*
G03X3658132Y203793I1772J-0D01*
G01X3657842Y204764D02*
Y205880D01*
X3657744Y206732D02*
G03X3657843Y205880I3740J0D01*
G01X3657744Y206732D02*
Y209742D01*
X3656563Y209291D02*
G03X3657744Y209742I-0J1772D01*
G01X3656563Y209291D02*
X3652232D01*
X3650854Y209949D02*
G03X3652232Y209291I1378J1114D01*
G01X3650030Y209380D02*
G03X3650854Y209949I-554J1683D01*
G01X3650165Y208701D02*
G03X3650030Y209380I-1771J-0D01*
G01X3650165Y208701D02*
Y204764D01*
X3648394Y202992D02*
G03X3650165Y204764I-0J1772D01*
G01X3648394Y202992D02*
X3644654D01*
X3643750Y203240D02*
G03X3644654Y202992I904J1524D01*
G01X3643768D02*
G03X3643750Y203240I-1772J0D01*
G01X3643768Y202992D02*
Y201024D01*
X3643763Y200890D02*
G03X3643768Y201024I-1767J134D01*
G01X3644651Y200332D02*
G03X3643763Y200890I-1671J-1671D01*
G01X3644651Y200332D02*
X3646912Y198071D01*
X3658599*
X3659713Y198465D02*
G03X3658599Y198071I-0J-1772D01*
G01X3659713Y198465D02*
X3663256D01*
X3665028Y196693D02*
G03X3663256Y198465I-1772J-0D01*
G01X3665028Y196693D02*
Y194724D01*
X3663256Y192953D02*
G03X3665028Y194724I-0J1771D01*
G01X3663256Y192953D02*
X3659713D01*
X3658599Y193346D02*
G03X3659713Y192953I1114J1378D01*
G01X3658599Y193346D02*
X3645736D01*
X3643745Y194439D02*
G03X3645736Y193346I1991J1270D01*
G01X3641996Y192953D02*
G03X3643745Y194439I0J1771D01*
G01X3641996Y192953D02*
X3639234D01*
X3636777Y190495*
X3635106Y189803D02*
G03X3636777Y190495I0J2362D01*
G01X3635106Y189803D02*
X3633723D01*
X3631757Y187837*
X3630895Y182662D02*
G03X3631757Y187837I-907J2810D01*
G01X3630895Y182662D02*
X3629783Y181956D01*
X3624816Y177068*
X3627332Y175488D02*
G03X3624816Y177068I-3643J-3008D01*
G01X3627332Y175488D02*
X3638157Y186313D01*
Y186594*
X3639929Y188366D02*
G03X3638157Y186594I0J-1772D01*
G01X3639929Y188366D02*
X3642173D01*
X3642587Y188317D02*
G03X3642173Y188366I-414J-1723D01*
G01X3643000D02*
G03X3642587Y188317I0J-1772D01*
G01X3643000Y188366D02*
X3644364D01*
X3650540Y189517D02*
G03X3644364Y188366I-2442J-4045D01*
G01X3651642Y189902D02*
G03X3650540Y189517I-0J-1772D01*
G01X3651642Y189902D02*
X3654988D01*
X3656760Y188139D02*
G03X3654988Y189902I-1772J-9D01*
G01X3658531D02*
G03X3656760Y188139I0J-1772D01*
G01X3658531Y189902D02*
X3661878D01*
X3663280Y189213D02*
G03X3661878Y189902I-1402J-1083D01*
G01X3663280Y189213D02*
X3671720D01*
X3683138*
X3684909Y188622D02*
G03X3683138Y189213I-1771J-2362D01*
G01X3684909Y188622D02*
X3686091D01*
X3686902Y188425D02*
G03X3686091Y188622I-811J-1575D01*
G01X3686902Y188425D02*
X3710500D01*
X3711287Y188290D02*
G03X3710500Y188425I-787J-2227D01*
G01X3521643Y136093D02*
G03Y132175I2896J-1959D01*
G01X3520539Y136909D02*
G03X3521643Y136093I2500J2225D01*
G01X3519436D02*
G03X3520539Y136909I-1397J3041D01*
G01X3519436Y132175D02*
G03Y136093I-2897J1959D01*
G01X3520539Y131358D02*
G03X3519436Y132175I-2500J-2224D01*
G01X3521643D02*
G03X3520539Y131358I1396J-3041D01*
G01X3520815Y141634D02*
G03X3520539Y141358I2224J-2500D01*
G01Y141909D02*
G03X3520815Y141634I2500J2225D01*
G01X3520264D02*
G03X3520539Y141909I-2225J2500D01*
G01Y141358D02*
G03X3520264Y141634I-2500J-2224D01*
G01X3515412Y141206D02*
G03X3515200Y137363I2627J-2072D01*
G01X3513650Y141522D02*
G03X3515412Y141206I1378J2612D01*
G01X3513650Y141522D02*
Y136102D01*
X3515200Y137363D02*
G03X3513650Y136102I1339J-3229D01*
G01X3552360Y110587D02*
Y111980D01*
X3550854Y111142D02*
G03X3552360Y111980I0J1771D01*
G01X3550854Y111142D02*
X3541996D01*
X3540224Y112913D02*
G03X3541996Y111142I1772J0D01*
G01X3540224Y112913D02*
Y115472D01*
X3540712Y116693D02*
G03X3540224Y115472I1284J-1221D01*
G01Y117913D02*
G03X3540712Y116693I1772J0D01*
G01X3540224Y117913D02*
Y120472D01*
X3540712Y121693D02*
G03X3540224Y120472I1284J-1221D01*
G01Y122913D02*
G03X3540712Y121693I1772J0D01*
G01X3540224Y122913D02*
Y125472D01*
X3540712Y126693D02*
G03X3540224Y125472I1284J-1221D01*
G01Y127913D02*
G03X3540712Y126693I1772J0D01*
G01X3540224Y127913D02*
Y130472D01*
X3541996Y132244D02*
G03X3540224Y130472I0J-1772D01*
G01X3541996Y132244D02*
X3542153D01*
X3541655Y132440D02*
G03X3542153Y132244I1325J2639D01*
G01X3541655Y132440D02*
X3540367Y132717D01*
X3539726*
X3539726D02*
X3537173Y130163D01*
Y127402*
X3535410Y125630D02*
G03X3537173Y127402I-8J1772D01*
G01Y123858D02*
G03X3535410Y125630I-1771J0D01*
G01X3537173Y123858D02*
Y120512D01*
X3535402Y118740D02*
G03X3537173Y120512I-0J1772D01*
G01X3535402Y118740D02*
X3530087D01*
X3528315Y120512D02*
G03X3530087Y118740I1772J-0D01*
G01X3528315Y120512D02*
Y123858D01*
X3530078Y125630D02*
G03X3528315Y123858I9J-1772D01*
G01X3528802Y126181D02*
G03X3530078Y125630I1285J1221D01*
G01X3528802Y126181D02*
X3527374D01*
X3521643Y126093D02*
G03X3527374Y126181I2896J-1959D01*
G01X3520539Y126909D02*
G03X3521643Y126093I2500J2225D01*
G01X3519436D02*
G03X3520539Y126909I-1397J3041D01*
G01X3513650Y122165D02*
G03X3519436Y126093I2889J1969D01*
G01X3513650Y122165D02*
Y113896D01*
X3525075Y102470*
X3552360*
Y103665*
X3552035Y103932D02*
G03X3552360Y103665I1280J1225D01*
G01X3550756Y103386D02*
G03X3552035Y103932I-0J1771D01*
G01X3550756Y103386D02*
X3547016D01*
X3545244Y105157D02*
G03X3547016Y103386I1772J0D01*
G01X3545244Y105157D02*
Y109094D01*
X3547016Y110866D02*
G03X3545244Y109094I-0J-1772D01*
G01X3547016Y110866D02*
X3550756D01*
X3552035Y110320D02*
G03X3550756Y110866I-1279J-1226D01*
G01X3552360Y110587D02*
G03X3552035Y110320I955J-1493D01*
G01X3569156Y169134D02*
X3573148D01*
X3572446Y169663D02*
G03X3573148Y169134I2227J2227D01*
G01X3572446Y169663D02*
X3570281Y171828D01*
X3562522Y179587*
X3562387Y179731D02*
G03X3562522Y179587I2362J2083D01*
G01X3562243Y179866D02*
G03X3562387Y179731I2227J2227D01*
G01X3562243Y179866D02*
X3559700Y182409D01*
X3559676Y182433D02*
G03X3559700Y182409I2251J2203D01*
G01X3559651Y182458D02*
G03X3559676Y182433I2227J2227D01*
G01X3559651Y182458D02*
X3546203Y195905D01*
X3489631*
X3488157Y195118D02*
G03X3489631Y195905I0J1772D01*
G01X3488157Y195118D02*
X3487851D01*
X3487761Y195023D02*
G03X3487851Y195118I-1670J1670D01*
G01X3487761Y195023D02*
X3484707Y191969D01*
X3487272*
X3545343*
X3547013Y191277D02*
G03X3545343Y191969I-1670J-1671D01*
G01X3547013Y191277D02*
X3569156Y169134D01*
X3575657Y264712D02*
Y268133D01*
X3575461Y269331D02*
G03X3575657Y268133I3740J-0D01*
G01X3575461Y269331D02*
Y279961D01*
X3575067*
X3573886Y280412D02*
G03X3575067Y279961I1181J1320D01*
G01X3572705D02*
G03X3573886Y280412I-0J1771D01*
G01X3572705Y279961D02*
Y267825D01*
X3575056Y265545*
X3575657Y264712D02*
G03X3575056Y265545I-2657J-1287D01*
G01X3483606Y202402D02*
G03X3483138Y202052I811J-1575D01*
G01X3483606Y202402D02*
X3482670D01*
X3483138Y202052D02*
G03X3482670Y202402I-1280J-1225D01*
G01X3482900Y207126D02*
X3483375D01*
X3483138Y208003D02*
G03X3483375Y207126I1771J9D01*
G01X3482900D02*
G03X3483138Y208003I-1534J886D01*
G01X3480286Y194229D02*
X3481175Y195118D01*
X3478118*
X3476346Y196890D02*
G03X3478118Y195118I1772J-0D01*
G01X3476346Y196890D02*
Y200827D01*
X3477306Y202402D02*
G03X3476346Y200827I812J-1575D01*
G01X3477306Y202402D02*
X3473486D01*
X3472508Y201423*
Y194780*
X3473492Y195079D02*
G03X3472508Y194780I0J-1772D01*
G01X3473492Y195079D02*
X3477429D01*
X3479201Y193307D02*
G03X3477429Y195079I-1772J0D01*
G01X3479201Y193307D02*
Y192126D01*
X3477429Y190354D02*
G03X3479201Y192126I0J1772D01*
G01X3477429Y190354D02*
X3473492D01*
X3472508Y190653D02*
G03X3473492Y190354I984J1473D01*
G01X3472508Y190653D02*
Y180349D01*
X3474667Y178189*
X3479911*
X3479594Y179370D02*
G03X3479911Y178189I2363J0D01*
G01X3479594Y179370D02*
Y192559D01*
X3480286Y194229D02*
G03X3479594Y192559I1671J-1670D01*
G01X3566209Y191572D02*
Y199292D01*
X3538650Y226851*
Y224843*
Y213425*
Y212368*
X3549538Y201479*
X3549726Y201274D02*
G03X3549538Y201479I-2415J-2022D01*
G01X3549932Y201085D02*
G03X3549726Y201274I-2227J-2227D01*
G01X3549932Y201085D02*
X3559397Y191621D01*
X3560303Y191870D02*
G03X3559397Y191621I0J-1772D01*
G01X3560303Y191870D02*
X3563650D01*
X3565421Y190107D02*
G03X3563650Y191870I-1771J-9D01*
G01X3566209Y191572D02*
G03X3565421Y190107I984J-1474D01*
G01X3566996Y216432D02*
Y228607D01*
X3566701Y228583D02*
G03X3566996Y228607I-0J1771D01*
G01X3566701Y228583D02*
X3563157D01*
X3561778Y229243D02*
G03X3563157Y228583I1379J1111D01*
G01X3561287Y229173D02*
G03X3561778Y229243I0J1772D01*
G01X3561287Y229173D02*
X3557982D01*
X3556661Y228583D02*
G03X3557982Y229173I0J1771D01*
G01X3556661Y228583D02*
X3554398D01*
Y227789*
X3566777Y215410*
X3566996Y216432*
Y243125D02*
Y250242D01*
X3563262Y253976*
X3560795*
Y251417*
X3564535*
X3566307Y249646D02*
G03X3564535Y251417I-1772J-0D01*
G01X3566307Y249646D02*
Y245709D01*
X3564535Y243937D02*
G03X3566307Y245709I0J1772D01*
G01X3564535Y243937D02*
X3560795D01*
X3559516Y244483D02*
G03X3560795Y243937I1279J1226D01*
G01X3558236D02*
G03X3559516Y244483I0J1772D01*
G01X3558236Y243937D02*
X3557449D01*
Y242965*
X3557982Y242559D02*
G03X3557449Y242965I-1321J-1181D01*
G01X3557982Y242559D02*
X3561837D01*
X3563157Y243150D02*
G03X3561837Y242559I0J-1772D01*
G01X3563157Y243150D02*
X3566701D01*
X3566996Y243125D02*
G03X3566701Y243150I-295J-1747D01*
G01X3570047Y262146D02*
Y262175D01*
X3567696Y264455*
X3566799Y266575D02*
G03X3567696Y264455I2953J-0D01*
G01X3566799Y266575D02*
Y279961D01*
X3565618Y280412D02*
G03X3566799Y279961I1181J1320D01*
G01X3564437D02*
G03X3565618Y280412I0J1771D01*
G01X3564437Y279961D02*
X3558531D01*
X3556760Y281732D02*
G03X3558531Y279961I1771J0D01*
G01X3556760Y281732D02*
Y288425D01*
X3554004*
X3553647Y288455D02*
G03X3554004Y288425I357J2136D01*
G01X3548925Y294213D02*
G03X3553647Y288455I5655J-178D01*
G01X3548925Y294213D02*
X3546130Y291418D01*
Y269603*
Y267483D02*
G03Y269603I-2756J1060D01*
G01Y267483D02*
Y240076D01*
Y237956D02*
G03Y240076I-2756J1060D01*
G01Y237956D02*
Y232283D01*
X3547508Y230905*
Y231732*
X3548200Y233403D02*
G03X3547508Y231732I1670J-1671D01*
G01X3548200Y233403D02*
X3549971Y235174D01*
X3551346Y235848D02*
G03X3549971Y235174I296J-2344D01*
G01X3551346Y235848D02*
Y235969D01*
X3550365Y236558D02*
G03X3551346Y235969I1670J1670D01*
G01X3550365Y236558D02*
X3549578Y237345D01*
X3548886Y239016D02*
G03X3549578Y237345I2362J-0D01*
G01X3548886Y239016D02*
Y255157D01*
X3549578Y256828D02*
G03X3548886Y255157I1670J-1671D01*
G01X3549578Y256828D02*
X3550759Y258009D01*
X3551937Y258649D02*
G03X3550759Y258009I492J-2310D01*
G01X3551937Y258649D02*
Y261457D01*
X3553709Y263228D02*
G03X3551937Y261457I-0J-1771D01*
G01X3553709Y263228D02*
X3559024D01*
X3560656Y262146D02*
G03X3559024Y263228I-1632J-689D01*
G01X3560656Y262146D02*
X3570047D01*
X3532350Y216575D02*
Y220413D01*
X3530185*
X3529201Y220712D02*
G03X3530185Y220413I984J1473D01*
G01X3528217D02*
G03X3529201Y220712I-0J1772D01*
G01X3528217Y220413D02*
X3524280D01*
X3522508Y222185D02*
G03X3524280Y220413I1772J0D01*
G01X3522508Y222185D02*
Y224055D01*
X3521848*
X3521371Y223268D02*
G03X3521848Y224055I-1225J1279D01*
G01X3521917Y221988D02*
G03X3521371Y223268I-1771J0D01*
G01X3521917Y221988D02*
Y218248D01*
X3520728Y216575D02*
G03X3521917Y218248I-582J1673D01*
G01X3520728Y216575D02*
X3532350D01*
Y229272D02*
Y233554D01*
X3529844Y233621D02*
G03X3532350Y233554I1325J2639D01*
G01X3529844Y233621D02*
X3528556Y233898D01*
X3528512*
Y230748*
X3527720Y229272D02*
G03X3528512Y230748I-980J1476D01*
G01X3527720Y229272D02*
X3528217D01*
X3529201Y228973D02*
G03X3528217Y229272I-984J-1473D01*
G01X3530185D02*
G03X3529201Y228973I0J-1772D01*
G01X3530185Y229272D02*
X3532350D01*
X3523300Y228976D02*
G03X3523054Y228780I980J-1476D01*
G01X3523300Y228976D02*
X3523000D01*
X3521720Y229523D02*
G03X3523000Y228976I1280J1225D01*
G01X3521551Y229367D02*
G03X3521720Y229523I-1110J1381D01*
G01X3521848Y228780D02*
G03X3521551Y229367I-1702J-493D01*
G01X3521848Y228780D02*
X3523054D01*
X3509516Y216575D02*
X3515626D01*
X3514437Y218248D02*
G03X3515626Y216575I1772J0D01*
G01X3514437Y218248D02*
Y221988D01*
X3514983Y223268D02*
G03X3514437Y221988I1226J-1280D01*
G01Y224547D02*
G03X3514983Y223268I1772J0D01*
G01X3514437Y224547D02*
Y226817D01*
X3513272Y227982*
X3511100*
Y227671*
X3509329Y225900D02*
G03X3511100Y227671I-0J1771D01*
G01X3509329Y225900D02*
X3508128D01*
X3507744Y225942D02*
G03X3508128Y225900I384J1729D01*
G01X3507360D02*
G03X3507744Y225942I0J1771D01*
G01X3507360Y225900D02*
X3507154D01*
Y223268*
Y218734*
X3509319Y216569*
X3509516Y216575D02*
G03X3509319Y216569I-0J-3150D01*
G01X3532350Y238966D02*
Y242817D01*
X3529716Y242559D02*
G03X3532350Y242817I1060J2756D01*
G01X3529716Y242559D02*
X3511282D01*
X3511091Y242368*
Y241098*
X3511100Y240911D02*
G03X3511091Y241098I-1771J0D01*
G01X3511100Y240911D02*
Y240600D01*
X3513380*
X3515152Y238829D02*
G03X3513380Y240600I-1772J-0D01*
G01X3515152Y238829D02*
Y238622D01*
X3528556*
X3529844Y238899*
X3532350Y238966D02*
G03X3529844Y238899I-1181J-2706D01*
G01X3508450Y235276D02*
G03X3508407Y234892I1729J-384D01*
G01Y235659D02*
G03X3508450Y235276I1772J0D01*
G01X3508407Y235659D02*
Y235939D01*
X3508128*
X3507744Y235981D02*
G03X3508128Y235939I384J1730D01*
G01X3507360D02*
G03X3507744Y235981I0J1772D01*
G01X3507360Y235939D02*
X3506159D01*
X3505776Y235981D02*
G03X3506159Y235939I383J1730D01*
G01X3505392D02*
G03X3505776Y235981I-0J1772D01*
G01X3505392Y235939D02*
X3505112D01*
Y235659*
X3505070Y235276D02*
G03X3505112Y235659I-1729J383D01*
G01Y234892D02*
G03X3505070Y235276I-1771J-0D01*
G01X3505112Y234892D02*
Y233691D01*
X3505070Y233307D02*
G03X3505112Y233691I-1729J384D01*
G01Y232923D02*
G03X3505070Y233307I-1771J0D01*
G01X3505112Y232923D02*
Y232644D01*
X3505392*
X3505776Y232602D02*
G03X3505392Y232644I-384J-1730D01*
G01X3506159D02*
G03X3505776Y232602I0J-1772D01*
G01X3506159Y232644D02*
X3507360D01*
X3507744Y232602D02*
G03X3507360Y232644I-384J-1730D01*
G01X3508128D02*
G03X3507744Y232602I-0J-1772D01*
G01X3508128Y232644D02*
X3508407D01*
Y232923*
X3508450Y233307D02*
G03X3508407Y232923I1729J-384D01*
G01Y233691D02*
G03X3508450Y233307I1772J-0D01*
G01X3508407Y233691D02*
Y234892D01*
X3545986Y306535D02*
G03X3545543Y304925I3294J-1771D01*
G01X3545986Y306535D02*
X3499916D01*
X3503020Y301220D02*
G03X3499916Y306535I-6103J0D01*
G01X3503020Y301220D02*
Y289409D01*
X3501580Y285472D02*
G03X3503020Y289409I-4663J3937D01*
G01X3501580Y285472D02*
X3528807D01*
X3530477Y284781D02*
G03X3528807Y285472I-1670J-1671D01*
G01X3530477Y284781D02*
X3535323Y279935D01*
X3536429Y279220*
X3537075Y278915D02*
G03X3536429Y279220I-1575J-2498D01*
G01X3537075Y278915D02*
Y295315D01*
X3537882Y297264D02*
G03X3537075Y295315I1949J-1949D01*
G01X3537882Y297264D02*
X3545543Y304925D01*
X3493919Y306535D02*
G03X3490815Y301220I2998J-5315D01*
G01X3493919Y306535D02*
X3472705D01*
Y298268*
X3475953*
X3477724Y296496D02*
G03X3475953Y298268I-1771J0D01*
G01X3477724Y296496D02*
Y292559D01*
X3477538Y291768D02*
G03X3477724Y292559I-1585J791D01*
G01X3481771Y290371D02*
G03X3477538Y291768I-2570J-676D01*
G01X3482446Y289899D02*
G03X3481771Y290371I-1670J-1671D01*
G01X3482446Y289899D02*
X3486872Y285472D01*
X3492255*
X3490815Y289409D02*
G03X3492255Y285472I6102J0D01*
G01X3490815Y289409D02*
Y301220D01*
X3586878Y179173D02*
Y182919D01*
X3585506Y184291*
X3584119*
X3584122Y184193D02*
G03X3584119Y184291I-1772J-0D01*
G01X3584122Y184193D02*
Y180453D01*
X3583885Y179567D02*
G03X3584122Y180453I-1535J886D01*
G01X3583885Y179567D02*
X3584516D01*
X3585822Y179173D02*
G03X3584516Y179567I-1306J-1968D01*
G01X3585822Y179173D02*
X3585894D01*
X3586287Y179129D02*
G03X3585894Y179173I-393J-1727D01*
G01X3586681D02*
G03X3586287Y179129I0J-1771D01*
G01X3586681Y179173D02*
X3586878D01*
X3577188D02*
G03X3576642Y177894I1225J-1279D01*
G01Y180453D02*
G03X3577188Y179173I1771J-0D01*
G01X3576642Y180453D02*
Y184193D01*
X3576801Y184927D02*
G03X3576642Y184193I1612J-734D01*
G01X3576743Y184983D02*
G03X3576801Y184927I1670J1671D01*
G01X3576743Y184983D02*
X3576566Y185161D01*
X3575461Y185724D02*
G03X3576566Y185161I1771J2111D01*
G01X3575461Y185724D02*
Y175557D01*
X3575978Y175039*
X3576642*
Y177894*
X3594752Y191569D02*
Y192769D01*
X3576341Y211370*
X3575953Y211888D02*
G03X3576341Y211370I2067J1143D01*
G01X3575953Y211888D02*
Y209210D01*
X3579445Y207268D02*
G03X3575953Y209210I-2803J-929D01*
G01X3579445Y207268D02*
X3580160Y206161D01*
X3594752Y191569*
X3615624Y125335D02*
X3617438Y127149D01*
X3614035Y130551*
X3611189*
X3609909Y131097D02*
G03X3611189Y130551I1280J1226D01*
G01X3608630D02*
G03X3609909Y131097I-0J1772D01*
G01X3608630Y130551D02*
X3607472D01*
X3607547Y129961D02*
G03X3607472Y130551I-2362J-0D01*
G01X3607547Y129961D02*
Y125335D01*
X3609319*
X3611091Y123572D02*
G03X3609319Y125335I-1772J-9D01*
G01X3612862D02*
G03X3611091Y123572I0J-1772D01*
G01X3612862Y125335D02*
X3615624D01*
X3629612Y203240D02*
G03X3629594Y202992I1754J-248D01*
G01X3628709D02*
G03X3629612Y203240I-0J1772D01*
G01X3628709Y202992D02*
X3624969D01*
X3623197Y204764D02*
G03X3624969Y202992I1772J-0D01*
G01X3623197Y204764D02*
Y208701D01*
X3623332Y209380D02*
G03X3623197Y208701I1637J-679D01*
G01X3622508Y209949D02*
G03X3623332Y209380I1378J1114D01*
G01X3621684D02*
G03X3622508Y209949I-554J1683D01*
G01X3621819Y208701D02*
G03X3621684Y209380I-1772J-0D01*
G01X3621819Y208701D02*
Y204764D01*
X3620047Y202992D02*
G03X3621819Y204764I0J1772D01*
G01X3620047Y202992D02*
X3616307D01*
X3615404Y203240D02*
G03X3616307Y202992I903J1524D01*
G01X3615421D02*
G03X3615404Y203240I-1771J0D01*
G01X3615421Y202992D02*
Y201024D01*
X3613650Y199252D02*
G03X3615421Y201024I-0J1772D01*
G01X3613650Y199252D02*
X3612938D01*
X3610818D02*
G03X3612938I1060J2756D01*
G01X3610818D02*
X3610106D01*
X3608783Y199845D02*
G03X3610106Y199252I1323J1179D01*
G01X3608528D02*
G03X3608783Y199845I-1473J984D01*
G01X3608827Y198268D02*
G03X3608528Y199252I-1772J-0D01*
G01X3608827Y198268D02*
Y197918D01*
X3610106Y198465D02*
G03X3608827Y197918I0J-1772D01*
G01X3610106Y198465D02*
X3613650D01*
X3615421Y196693D02*
G03X3613650Y198465I-1771J-0D01*
G01X3615421Y196693D02*
Y195309D01*
X3617491Y197379*
X3619161Y198071D02*
G03X3617491Y197379I0J-2362D01*
G01X3619161Y198071D02*
X3624088D01*
X3626349Y200332*
X3628020Y201024D02*
G03X3626349Y200332I-0J-2363D01*
G01X3628020Y201024D02*
X3629594D01*
Y202992*
X3600461Y115191D02*
Y117778D01*
X3594562Y117457D02*
G03X3600461Y117778I2749J3842D01*
G01X3585532Y119880D02*
G03X3594562Y117457I4692J-549D01*
G01X3585532Y119880D02*
X3579291Y113718D01*
X3577722Y112149*
X3576051Y111457D02*
G03X3577722Y112149I0J2362D01*
G01X3576051Y111457D02*
X3570170D01*
X3569161Y111142D02*
G03X3570170Y111457I0J1771D01*
G01X3569161Y111142D02*
X3560303D01*
X3559053Y111658D02*
G03X3560303Y111142I1250J1255D01*
G01X3559053Y111658D02*
Y107126D01*
Y100510*
X3569170Y90394*
X3572786*
X3572685Y90984D02*
G03X3572786Y90394I1772J0D01*
G01X3572685Y90984D02*
Y98858D01*
X3572984Y99842D02*
G03X3572685Y98858I1473J-984D01*
G01X3572984Y99842D02*
X3570638D01*
X3569358Y100389D02*
G03X3570638Y99842I1280J1225D01*
G01X3568079D02*
G03X3569358Y100389I-0J1772D01*
G01X3568079Y99842D02*
X3564339D01*
X3562567Y101614D02*
G03X3564339Y99842I1772J0D01*
G01X3562567Y101614D02*
Y105551D01*
X3564339Y107323D02*
G03X3562567Y105551I-0J-1772D01*
G01X3564339Y107323D02*
X3568079D01*
X3569358Y106777D02*
G03X3568079Y107323I-1279J-1226D01*
G01X3570638D02*
G03X3569358Y106777I-0J-1772D01*
G01X3570638Y107323D02*
X3574378D01*
X3575277Y107078D02*
G03X3574378Y107323I-899J-1527D01*
G01X3576839Y108012D02*
G03X3575277Y107078I-0J-1772D01*
G01X3576839Y108012D02*
X3580185D01*
X3581957Y106249D02*
G03X3580185Y108012I-1772J-9D01*
G01X3583728D02*
G03X3581957Y106249I0J-1772D01*
G01X3583728Y108012D02*
X3587075D01*
X3588650Y107052D02*
G03X3587075Y108012I-1575J-812D01*
G01X3588650Y107052D02*
Y107126D01*
X3589341Y108796D02*
G03X3588650Y107126I1671J-1670D01*
G01X3589341Y108796D02*
X3591310Y110765D01*
X3592980Y111457D02*
G03X3591310Y110765I0J-2363D01*
G01X3592980Y111457D02*
X3596726D01*
X3600461Y115191*
X3599422Y149252D02*
X3600499Y149483D01*
X3596265Y153718*
X3584294Y165689*
X3584319Y165394D02*
G03X3584294Y165689I-1772J-0D01*
G01X3584319Y165394D02*
Y164213D01*
X3584275Y163819D02*
G03X3584319Y164213I-1728J394D01*
G01Y163425D02*
G03X3584275Y163819I-1772J0D01*
G01X3584319Y163425D02*
Y162244D01*
X3584275Y161850D02*
G03X3584319Y162244I-1728J394D01*
G01Y161457D02*
G03X3584275Y161850I-1772J-0D01*
G01X3584319Y161457D02*
Y160276D01*
X3584275Y159882D02*
G03X3584319Y160276I-1728J394D01*
G01Y159488D02*
G03X3584275Y159882I-1772J0D01*
G01X3584319Y159488D02*
Y158307D01*
X3584275Y157913D02*
G03X3584319Y158307I-1728J394D01*
G01Y157520D02*
G03X3584275Y157913I-1772J-0D01*
G01X3584319Y157520D02*
Y156339D01*
X3584275Y155945D02*
G03X3584319Y156339I-1728J394D01*
G01Y155551D02*
G03X3584275Y155945I-1772J0D01*
G01X3584319Y155551D02*
Y154370D01*
X3584275Y153976D02*
G03X3584319Y154370I-1728J394D01*
G01Y153583D02*
G03X3584275Y153976I-1772J-0D01*
G01X3584319Y153583D02*
Y152402D01*
X3584275Y152008D02*
G03X3584319Y152402I-1728J394D01*
G01Y151614D02*
G03X3584275Y152008I-1772J0D01*
G01X3584319Y151614D02*
Y150433D01*
X3584275Y150039D02*
G03X3584319Y150433I-1728J394D01*
G01X3584317Y149735D02*
G03X3584275Y150039I-1770J-89D01*
G01X3586431Y149529D02*
G03X3584317Y149735I-1325J-2639D01*
G01X3586431Y149529D02*
X3587719Y149252D01*
X3599422*
X3601963Y169754D02*
G03X3601248Y167756I2435J-1998D01*
G01X3601642Y169724D02*
G03X3601963Y169754I-0J1772D01*
G01X3601642Y169724D02*
X3600461D01*
X3600067Y169769D02*
G03X3600461Y169724I394J1727D01*
G01X3599673D02*
G03X3600067Y169769I0J1772D01*
G01X3599673Y169724D02*
X3598492D01*
X3598098Y169769D02*
G03X3598492Y169724I394J1727D01*
G01X3597705D02*
G03X3598098Y169769I-0J1772D01*
G01X3597705Y169724D02*
X3596524D01*
X3596130Y169769D02*
G03X3596524Y169724I394J1727D01*
G01X3595736D02*
G03X3596130Y169769I0J1772D01*
G01X3595736Y169724D02*
X3594555D01*
X3594161Y169769D02*
G03X3594555Y169724I394J1727D01*
G01X3593768D02*
G03X3594161Y169769I-0J1772D01*
G01X3593768Y169724D02*
X3592587D01*
X3592193Y169769D02*
G03X3592587Y169724I394J1727D01*
G01X3591799D02*
G03X3592193Y169769I0J1772D01*
G01X3591799Y169724D02*
X3590618D01*
X3590224Y169769D02*
G03X3590618Y169724I394J1727D01*
G01X3589831D02*
G03X3590224Y169769I-0J1772D01*
G01X3589831Y169724D02*
X3589167D01*
X3596524Y162368*
X3601248Y167092*
Y167756*
X3599476Y182709D02*
X3602865Y186098D01*
X3601642Y189682D02*
G03X3602865Y186098I2756J-1060D01*
G01X3601642Y189682D02*
Y192562D01*
X3599968Y194331D02*
G03X3601642Y192562I1772J-0D01*
G01X3599968Y194331D02*
Y198268D01*
X3600267Y199252D02*
G03X3599968Y198268I1473J-984D01*
G01Y200236D02*
G03X3600267Y199252I1772J0D01*
G01X3599968Y200236D02*
Y204173D01*
X3596228*
X3594457Y205945D02*
G03X3596228Y204173I1771J-0D01*
G01X3594457Y205945D02*
Y209882D01*
X3594544Y210430D02*
G03X3594457Y209882I1684J-548D01*
G01X3594544Y210430D02*
X3588059Y216719D01*
Y282174*
X3592783Y286898*
Y306535*
X3582733*
X3582744Y306339D02*
G03X3582733Y306535I-1772J-0D01*
G01X3582744Y306339D02*
Y299646D01*
X3585500*
Y288425D02*
G03Y299646I0J5610D01*
G01Y288425D02*
X3582744D01*
Y286867*
X3582941Y285669D02*
G03X3582744Y286867I-3740J0D01*
G01X3582941Y285669D02*
Y269331D01*
X3580382Y265782D02*
G03X3582941Y269331I-1181J3549D01*
G01X3580382Y265782D02*
Y214003D01*
X3598793Y195402*
X3599476Y193740D02*
G03X3598793Y195402I-2362J0D01*
G01X3599476Y193740D02*
Y182709D01*
X3654197Y54961D02*
X3660017D01*
X3656215Y69613D02*
G03X3660017Y54961I12356J-4613D01*
G01X3656215Y69613D02*
X3647685Y61083D01*
X3645736Y60276D02*
G03X3647685Y61083I0J2755D01*
G01X3645736Y60276D02*
X3575264D01*
X3573315Y61083D02*
G03X3575264Y60276I1949J1948D01*
G01X3573315Y61083D02*
X3569378Y65020D01*
X3568888Y65684D02*
G03X3569378Y65020I2439J1285D01*
G01X3567685Y67362D02*
G03X3568888Y65684I1772J0D01*
G01X3567685Y67362D02*
Y75236D01*
X3569457Y77008D02*
G03X3567685Y75236I-0J-1772D01*
G01X3569457Y77008D02*
X3574181D01*
X3575953Y75236D02*
G03X3574181Y77008I-1772J0D01*
G01X3575953Y75236D02*
Y67362D01*
X3575716Y66477D02*
G03X3575953Y67362I-1535J885D01*
G01X3575716Y66477D02*
X3576405Y65787D01*
X3578645*
X3577685Y67362D02*
G03X3578645Y65787I1772J0D01*
G01X3577685Y67362D02*
Y75236D01*
X3579457Y77008D02*
G03X3577685Y75236I-0J-1772D01*
G01X3579457Y77008D02*
X3579603D01*
X3580286Y78481D02*
G03X3579603Y77008I1671J-1670D01*
G01X3580286Y78481D02*
X3583436Y81631D01*
X3585106Y82323D02*
G03X3583436Y81631I0J-2362D01*
G01X3585106Y82323D02*
X3595348D01*
X3601051Y88026*
Y108898*
X3601061Y109110D02*
G03X3601051Y108898I2352J-212D01*
G01X3601061Y109110D02*
X3599375Y107424D01*
X3597705Y106732D02*
G03X3599375Y107424I-0J2362D01*
G01X3597705Y106732D02*
X3593959D01*
X3593801Y106575*
X3595579*
X3597350Y104803D02*
G03X3595579Y106575I-1771J0D01*
G01X3597350Y104803D02*
Y102362D01*
X3595950Y100630D02*
G03X3597350Y102362I-371J1732D01*
G01X3595950Y100630D02*
X3599181D01*
X3600953Y98858D02*
G03X3599181Y100630I-1772J0D01*
G01X3600953Y98858D02*
Y90984D01*
X3599181Y89213D02*
G03X3600953Y90984I0J1771D01*
G01X3599181Y89213D02*
X3594457D01*
X3592685Y90984D02*
G03X3594457Y89213I1772J0D01*
G01X3592685Y90984D02*
Y98858D01*
X3594085Y100591D02*
G03X3592685Y98858I372J-1733D01*
G01X3594085Y100591D02*
X3593138D01*
X3592587Y100678D02*
G03X3593138Y100591I551J1684D01*
G01X3592035D02*
G03X3592587Y100678I0J1771D01*
G01X3592035Y100591D02*
X3589594D01*
X3589575D02*
G03X3589594I19J1771D01*
G01X3589575D02*
Y100586D01*
X3590953Y98858D02*
G03X3589575Y100586I-1772J0D01*
G01X3590953Y98858D02*
Y90984D01*
X3590143Y89496D02*
G03X3590953Y90984I-962J1488D01*
G01X3587862Y83701D02*
G03X3590143Y89496I0J3346D01*
G01X3587862Y83701D02*
X3576839D01*
X3567783*
X3565417Y84681D02*
G03X3567783Y83701I2366J2366D01*
G01X3565417Y84681D02*
X3554321Y95778D01*
X3523689*
X3521323Y96758D02*
G03X3523689Y95778I2366J2366D01*
G01X3521323Y96758D02*
X3507937Y110144D01*
X3506957Y112510D02*
G03X3507937Y110144I3346J-0D01*
G01X3506957Y112510D02*
Y145984D01*
X3507937Y148351D02*
G03X3506957Y145984I2366J-2367D01*
G01X3507937Y148351D02*
X3511086Y151500D01*
X3513453Y152480D02*
G03X3511086Y151500I-0J-3346D01*
G01X3513453Y152480D02*
X3517459D01*
X3523894Y153147D02*
G03X3517459Y152480I-3355J987D01*
G01X3524929Y153386D02*
G03X3523894Y153147I0J-2362D01*
G01X3524929Y153386D02*
X3555002D01*
X3547511Y160905*
X3511484*
Y160315*
X3509713Y158543D02*
G03X3511484Y160315I-0J1772D01*
G01X3509713Y158543D02*
X3503807D01*
X3502035Y160315D02*
G03X3503807Y158543I1772J-0D01*
G01X3502035Y160315D02*
Y166220D01*
X3503807Y167992D02*
G03X3502035Y166220I0J-1772D01*
G01X3503807Y167992D02*
X3509713D01*
X3511484Y166220D02*
G03X3509713Y167992I-1771J0D01*
G01X3511484Y166220D02*
Y165630D01*
X3546032*
X3540813Y170905*
X3513114*
X3509673Y169548*
Y176987D02*
G03Y169548I-2913J-3719D01*
G01Y176987D02*
X3513114Y175630D01*
X3541799*
X3543479Y174929D02*
G03X3541799Y175630I-1680J-1661D01*
G01X3543479Y174929D02*
X3560895Y157323D01*
X3563262*
X3541214Y179370*
X3491527*
X3491602Y178780D02*
G03X3491527Y179370I-2362J-0D01*
G01X3491602Y178780D02*
Y177795D01*
Y165000*
X3490911Y163330D02*
G03X3491602Y165000I-1671J1670D01*
G01X3490911Y163330D02*
X3489535Y161955D01*
Y160276*
X3487764Y158504D02*
G03X3489535Y160276I-0J1772D01*
G01X3487764Y158504D02*
X3484024D01*
X3482744Y159050D02*
G03X3484024Y158504I1280J1226D01*
G01X3481465D02*
G03X3482744Y159050I-0J1772D01*
G01X3481465Y158504D02*
X3477724D01*
X3475953Y160276D02*
G03X3477724Y158504I1771J-0D01*
G01X3475953Y160276D02*
Y164213D01*
X3477724Y165984D02*
G03X3475953Y164213I0J-1771D01*
G01X3477724Y165984D02*
X3481465D01*
X3482744Y165438D02*
G03X3481465Y165984I-1279J-1225D01*
G01X3484024D02*
G03X3482744Y165438I-0J-1771D01*
G01X3484024Y165984D02*
X3486878D01*
Y169528*
X3484516*
X3482744Y171299D02*
G03X3484516Y169528I1772J0D01*
G01X3482744Y171299D02*
Y172480D01*
X3482788Y172874D02*
G03X3482744Y172480I1728J-394D01*
G01Y173268D02*
G03X3482788Y172874I1772J-0D01*
G01X3482744Y173268D02*
Y173465D01*
X3473689*
X3472019Y174156D02*
G03X3473689Y173465I1670J1671D01*
G01X3472019Y174156D02*
X3468475Y177700D01*
X3467783Y179370D02*
G03X3468475Y177700I2363J0D01*
G01X3467783Y179370D02*
Y202402D01*
X3468475Y204072D02*
G03X3467783Y202402I1671J-1670D01*
G01X3468475Y204072D02*
X3470838Y206434D01*
X3472508Y207126D02*
G03X3470838Y206434I-0J-2362D01*
G01X3472508Y207126D02*
X3476485D01*
X3476248Y208012D02*
G03X3476485Y207126I1772J-0D01*
G01X3476248Y208012D02*
Y213327D01*
X3478020Y215098D02*
G03X3476248Y213327I-0J-1771D01*
G01X3478020Y215098D02*
X3481366D01*
X3483138Y213335D02*
G03X3481366Y215098I-1772J-8D01*
G01X3484909D02*
G03X3483138Y213335I0J-1771D01*
G01X3484909Y215098D02*
X3488256D01*
X3490028Y213327D02*
G03X3488256Y215098I-1772J-0D01*
G01X3490028Y213327D02*
Y208012D01*
X3488453Y206251D02*
G03X3490028Y208012I-197J1761D01*
G01X3488453Y206251D02*
Y204764D01*
Y202574*
X3489631Y201811D02*
G03X3488453Y202574I-1474J-984D01*
G01X3489631Y201811D02*
X3540298D01*
X3533273Y208836*
X3532450Y210276D02*
G03X3533273Y208836I3050J787D01*
G01X3532450Y210276D02*
X3509516D01*
X3506435Y212772D02*
G03X3509516Y210276I3081J653D01*
G01X3506435Y212772D02*
X3503121Y216086D01*
X3502429Y217756D02*
G03X3503121Y216086I2362J-0D01*
G01X3502429Y217756D02*
Y218839D01*
X3501445*
X3499673Y220602D02*
G03X3501445Y218839I1772J8D01*
G01X3497902D02*
G03X3499673Y220602I-0J1771D01*
G01X3497902Y218839D02*
X3494555D01*
X3492783Y220610D02*
G03X3494555Y218839I1772J0D01*
G01X3492783Y220610D02*
Y225925D01*
X3494555Y227697D02*
G03X3492783Y225925I0J-1772D01*
G01X3494555Y227697D02*
X3497902D01*
X3499673Y225934D02*
G03X3497902Y227697I-1771J-9D01*
G01X3501445D02*
G03X3499673Y225934I-0J-1772D01*
G01X3501445Y227697D02*
X3502419D01*
Y227982*
X3500140*
X3498368Y229754D02*
G03X3500140Y227982I1772J-0D01*
G01X3498368Y229754D02*
Y230955D01*
X3498410Y231339D02*
G03X3498368Y230955I1730J-384D01*
G01Y231722D02*
G03X3498410Y231339I1772J0D01*
G01X3498368Y231722D02*
Y232923D01*
X3498410Y233307D02*
G03X3498368Y232923I1730J-384D01*
G01Y233691D02*
G03X3498410Y233307I1772J-0D01*
G01X3498368Y233691D02*
Y234892D01*
X3498410Y235276D02*
G03X3498368Y234892I1730J-384D01*
G01Y235659D02*
G03X3498410Y235276I1772J0D01*
G01X3498368Y235659D02*
Y236860D01*
X3498410Y237244D02*
G03X3498368Y236860I1730J-384D01*
G01Y237628D02*
G03X3498410Y237244I1772J-0D01*
G01X3498368Y237628D02*
Y238829D01*
X3500140Y240600D02*
G03X3498368Y238829I-0J-1771D01*
G01X3500140Y240600D02*
X3502419D01*
Y240911*
X3504191Y242683D02*
G03X3502419Y240911I-0J-1772D01*
G01X3504191Y242683D02*
X3505392D01*
X3505776Y242641D02*
G03X3505392Y242683I-384J-1730D01*
G01X3506159D02*
G03X3505776Y242641I0J-1772D01*
G01X3506159Y242683D02*
X3506366D01*
Y243346*
X3507058Y245017D02*
G03X3506366Y243346I1670J-1671D01*
G01X3507058Y245017D02*
X3508023Y245982D01*
X3510697Y248071D02*
G03X3508023Y245982I-0J-2756D01*
G01X3510697Y248071D02*
X3529716D01*
X3532350Y247813D02*
G03X3529716Y248071I-1574J-2498D01*
G01X3532350Y247813D02*
Y263725D01*
X3521961Y274449*
X3501580*
X3503020Y270512D02*
G03X3501580Y274449I-6103J-0D01*
G01X3503020Y270512D02*
Y265591D01*
X3514634*
Y253386D02*
G03Y265591I-0J6102D01*
G01Y253386D02*
X3478965D01*
X3469987D02*
G03X3478965I4489J-12402D01*
G01X3469987D02*
X3465028D01*
X3460539Y255354D02*
G03X3465028Y253386I4489J4134D01*
G01X3460539Y255354D02*
X3459713D01*
Y104169*
X3463650Y100039D02*
G03X3459713Y104169I-4134J0D01*
G01X3463650Y100039D02*
Y71377D01*
Y61773D02*
G03Y71377I7677J4802D01*
G01Y61773D02*
Y54961D01*
X3484815*
Y60811*
X3486193Y62189D02*
G03X3484815Y60811I0J-1378D01*
G01X3486193Y62189D02*
X3493105D01*
X3492980Y62761D02*
G03X3493105Y62189I1378J-0D01*
G01X3492980Y62761D02*
Y71816D01*
X3494358Y73194D02*
G03X3492980Y71816I0J-1378D01*
G01X3494358Y73194D02*
X3497150D01*
X3498528Y71816D02*
G03X3497150Y73194I-1378J-0D01*
G01X3498528Y71816D02*
Y62761D01*
X3498404Y62189D02*
G03X3498528Y62761I-1254J572D01*
G01X3498404Y62189D02*
X3518665D01*
X3520043Y60811D02*
G03X3518665Y62189I-1378J-0D01*
G01X3520043Y60811D02*
Y54961D01*
X3611291*
X3616996Y58898D02*
G03X3611291Y54961I0J-6103D01*
G01X3616996Y58898D02*
X3648492D01*
X3654197Y54961D02*
G03X3648492Y58898I-5705J-2166D01*
G01X3686484Y222677D02*
Y211260D01*
X3684713Y209488D02*
G03X3686484Y211260I-0J1772D01*
G01X3684713Y209488D02*
X3680776D01*
X3679201Y210448D02*
G03X3680776Y209488I1575J812D01*
G01X3677626D02*
G03X3679201Y210448I-0J1772D01*
G01X3677626Y209488D02*
X3673689D01*
X3671917Y211260D02*
G03X3673689Y209488I1772J-0D01*
G01X3671917Y211260D02*
Y222677D01*
X3673689Y224449D02*
G03X3671917Y222677I-0J-1772D01*
G01X3673689Y224449D02*
X3677626D01*
X3679201Y223489D02*
G03X3677626Y224449I-1575J-812D01*
G01X3680776D02*
G03X3679201Y223489I-0J-1772D01*
G01X3680776Y224449D02*
X3684713D01*
X3686484Y222677D02*
G03X3684713Y224449I-1771J0D01*
G01X3692823Y297171D02*
G03X3685300Y299488I-2992J3656D01*
G01X3692823Y297171D02*
Y295079D01*
X3692735Y294528D02*
G03X3692823Y295079I-1684J551D01*
G01Y293976D02*
G03X3692735Y294528I-1772J0D01*
G01X3692823Y293976D02*
Y291535D01*
X3692815Y291374D02*
G03X3692823Y291535I-1764J161D01*
G01X3693768Y289803D02*
G03X3692815Y291374I-1772J0D01*
G01X3693768Y289803D02*
Y277992D01*
X3691996Y276220D02*
G03X3693768Y277992I0J1772D01*
G01X3691996Y276220D02*
X3687665D01*
X3685894Y277992D02*
G03X3687665Y276220I1771J0D01*
G01X3685894Y277992D02*
Y289567D01*
X3684870*
X3683098Y291339D02*
G03X3684870Y289567I1772J-0D01*
G01X3683098Y291339D02*
Y293504D01*
X3681327*
X3679555Y295276D02*
G03X3681327Y293504I1772J-0D01*
G01X3679555Y295276D02*
Y297717D01*
X3681327Y299488D02*
G03X3679555Y297717I-0J-1771D01*
G01X3681327Y299488D02*
X3683768D01*
X3684319Y299400D02*
G03X3683768Y299488I-551J-1683D01*
G01X3684870D02*
G03X3684319Y299400I0J-1771D01*
G01X3684870Y299488D02*
X3685300D01*
X3672311Y289606D02*
Y278189D01*
X3670539Y276417D02*
G03X3672311Y278189I0J1772D01*
G01X3670539Y276417D02*
X3666602D01*
X3665028Y277377D02*
G03X3666602Y276417I1574J812D01*
G01X3663453D02*
G03X3665028Y277377I-0J1772D01*
G01X3663453Y276417D02*
X3659516D01*
X3657744Y278189D02*
G03X3659516Y276417I1772J-0D01*
G01X3657744Y278189D02*
Y289606D01*
X3659516Y291378D02*
G03X3657744Y289606I-0J-1772D01*
G01X3659516Y291378D02*
X3663453D01*
X3665028Y290418D02*
G03X3663453Y291378I-1575J-812D01*
G01X3666602D02*
G03X3665028Y290418I0J-1772D01*
G01X3666602Y291378D02*
X3670539D01*
X3672311Y289606D02*
G03X3670539Y291378I-1772J0D01*
G01X3651248Y289803D02*
Y277992D01*
X3649476Y276220D02*
G03X3651248Y277992I0J1772D01*
G01X3649476Y276220D02*
X3645146D01*
X3643768Y276879D02*
G03X3645146Y276220I1378J1113D01*
G01X3642390D02*
G03X3643768Y276879I-0J1772D01*
G01X3642390Y276220D02*
X3638059D01*
X3636681Y276879D02*
G03X3638059Y276220I1378J1113D01*
G01X3635303D02*
G03X3636681Y276879I0J1772D01*
G01X3635303Y276220D02*
X3630972D01*
X3629594Y276879D02*
G03X3630972Y276220I1378J1113D01*
G01X3628217D02*
G03X3629594Y276879I-0J1772D01*
G01X3628217Y276220D02*
X3623886D01*
X3622508Y276879D02*
G03X3623886Y276220I1378J1113D01*
G01X3621130D02*
G03X3622508Y276879I-0J1772D01*
G01X3621130Y276220D02*
X3616799D01*
X3615421Y276879D02*
G03X3616799Y276220I1378J1113D01*
G01X3614043D02*
G03X3615421Y276879I0J1772D01*
G01X3614043Y276220D02*
X3609713D01*
X3608335Y276879D02*
G03X3609713Y276220I1378J1113D01*
G01X3606957D02*
G03X3608335Y276879I-0J1772D01*
G01X3606957Y276220D02*
X3602626D01*
X3600854Y277992D02*
G03X3602626Y276220I1772J0D01*
G01X3600854Y277992D02*
Y289803D01*
X3602626Y291575D02*
G03X3600854Y289803I-0J-1772D01*
G01X3602626Y291575D02*
X3606957D01*
X3608335Y290917D02*
G03X3606957Y291575I-1378J-1114D01*
G01X3609713D02*
G03X3608335Y290917I-0J-1772D01*
G01X3609713Y291575D02*
X3614043D01*
X3615421Y290917D02*
G03X3614043Y291575I-1378J-1114D01*
G01X3616799D02*
G03X3615421Y290917I0J-1772D01*
G01X3616799Y291575D02*
X3621130D01*
X3622508Y290917D02*
G03X3621130Y291575I-1378J-1114D01*
G01X3623886D02*
G03X3622508Y290917I-0J-1772D01*
G01X3623886Y291575D02*
X3628217D01*
X3629594Y290917D02*
G03X3628217Y291575I-1377J-1114D01*
G01X3630972D02*
G03X3629594Y290917I0J-1772D01*
G01X3630972Y291575D02*
X3635303D01*
X3636681Y290917D02*
G03X3635303Y291575I-1378J-1114D01*
G01X3638059D02*
G03X3636681Y290917I0J-1772D01*
G01X3638059Y291575D02*
X3642390D01*
X3643768Y290917D02*
G03X3642390Y291575I-1378J-1114D01*
G01X3645146D02*
G03X3643768Y290917I-0J-1772D01*
G01X3645146Y291575D02*
X3649476D01*
X3651248Y289803D02*
G03X3649476Y291575I-1772J0D01*
G01X3479201Y169370D02*
Y168189D01*
X3477429Y166417D02*
G03X3479201Y168189I0J1772D01*
G01X3477429Y166417D02*
X3473492D01*
X3471720Y168189D02*
G03X3473492Y166417I1772J-0D01*
G01X3471720Y168189D02*
Y169370D01*
X3473492Y171142D02*
G03X3471720Y169370I0J-1772D01*
G01X3473492Y171142D02*
X3477429D01*
X3479201Y169370D02*
G03X3477429Y171142I-1772J0D01*
G01X3663136Y149211D02*
X3663257D01*
X3659713Y148148D02*
X3663256D01*
X3659713Y147085D02*
X3663256D01*
X3659713Y146022D02*
X3663256D01*
X3659713Y144959D02*
X3663256D01*
X3659713Y143896D02*
X3663256D01*
X3663846Y152400D02*
X3667553D01*
X3663846Y151337D02*
X3666490D01*
X3666267Y136455D02*
X3666552D01*
X3659713Y130077D02*
X3666508D01*
X3659713Y129014D02*
X3666504D01*
X3659713Y127951D02*
X3666504D01*
X3659713Y126888D02*
X3666504D01*
X3666167Y131140D02*
X3666298D01*
X3670165Y137518D02*
X3671228D01*
X3670353Y136455D02*
X3671228D01*
X3674268Y163030D02*
X3675472D01*
X3674273Y159841D02*
X3675468D01*
X3674280Y165156D02*
X3675461D01*
X3674280Y164093D02*
X3675461D01*
X3673752Y161967D02*
X3675461D01*
X3673793Y160904D02*
X3675461D01*
X3674280Y158778D02*
X3675461D01*
X3674280Y157715D02*
X3675461D01*
X3674654Y166219D02*
X3675086D01*
X3674676Y156652D02*
X3675064D01*
X3675953Y137518D02*
X3676426D01*
X3675953Y136455D02*
X3676237D01*
X3687862Y178975D02*
X3693117D01*
X3687862Y185353D02*
X3692425D01*
X3687862Y177912D02*
X3692054D01*
X3687855Y176849D02*
X3690991D01*
X3687851Y184290D02*
X3689887D01*
X3687731Y180038D02*
X3689585D01*
X3687335Y183227D02*
X3689441D01*
X3681661Y182164D02*
X3689437D01*
X3686468Y181101D02*
X3689437D01*
X3687374Y175786D02*
X3687977D01*
X3681661Y181101D02*
X3681776D01*
X3692783Y158778D02*
X3699254D01*
X3693866Y170471D02*
X3698710D01*
X3697833Y148148D02*
X3698569D01*
X3693718Y169408D02*
X3698353D01*
X3692783Y157715D02*
X3698184D01*
X3692783Y159841D02*
X3698116D01*
X3693866Y171534D02*
X3698036D01*
X3693468Y164093D02*
X3698021D01*
X3692193Y149211D02*
X3698016D01*
X3692783Y153463D02*
X3698004D01*
X3695597Y173660D02*
X3698000D01*
X3694534Y172597D02*
X3698000D01*
X3693462Y168345D02*
X3698000D01*
X3693472Y167282D02*
X3698000D01*
X3693472Y166219D02*
X3698000D01*
X3693472Y165156D02*
X3698000D01*
X3693020Y163030D02*
X3698000D01*
X3692783Y161967D02*
X3698000D01*
X3692783Y160904D02*
X3698000D01*
X3692689Y156652D02*
X3698000D01*
X3692783Y155589D02*
X3698000D01*
X3692783Y154526D02*
X3698000D01*
X3692783Y152400D02*
X3698000D01*
X3692783Y151337D02*
X3698000D01*
X3692765Y150274D02*
X3698000D01*
X3688748Y148148D02*
X3692852D01*
X3681470Y140707D02*
X3692090D01*
X3688748Y147085D02*
X3691653D01*
X3681188Y141770D02*
X3691252D01*
X3688748Y146022D02*
X3691012D01*
X3681091Y142833D02*
X3690801D01*
X3688748Y144959D02*
X3690691D01*
X3688421Y143896D02*
X3690624D01*
X3681399Y139644D02*
X3687075D01*
X3680951Y138581D02*
X3686199D01*
X3679850Y137518D02*
X3685136D01*
X3680038Y136455D02*
X3684073D01*
X3681025Y135392D02*
X3683010D01*
X3681425Y134329D02*
X3681947D01*
X3462961Y272203D02*
X3472606D01*
X3462961Y271140D02*
X3472178D01*
X3462961Y270077D02*
X3472144D01*
X3462961Y273266D02*
X3469271D01*
X3462961Y274329D02*
X3468743D01*
X3462961Y278581D02*
X3468673D01*
X3462961Y277518D02*
X3468671D01*
X3462961Y276455D02*
X3468669D01*
X3462961Y275392D02*
X3468669D01*
X3462961Y283896D02*
X3468571D01*
X3462961Y282833D02*
X3468571D01*
X3462961Y281770D02*
X3468571D01*
X3462961Y280707D02*
X3468571D01*
X3462961Y279644D02*
X3468571D01*
X3653957Y55510D02*
X3659411D01*
X3653284Y56573D02*
X3658425D01*
X3652207Y57636D02*
X3657629D01*
X3650035Y58699D02*
X3656984D01*
X3520043Y59762D02*
X3656466D01*
X3655932Y69329D02*
X3656113D01*
X3647388Y60825D02*
X3656060D01*
X3654869Y68266D02*
X3655793D01*
X3648491Y61888D02*
X3655754D01*
X3653806Y67203D02*
X3655567D01*
X3649554Y62951D02*
X3655542D01*
X3652743Y66140D02*
X3655431D01*
X3650617Y64014D02*
X3655419D01*
X3651680Y65077D02*
X3655382D01*
X3520043Y58699D02*
X3615453D01*
X3520043Y57636D02*
X3613281D01*
X3520043Y56573D02*
X3612204D01*
X3520043Y55510D02*
X3611531D01*
X3600611Y108660D02*
X3601051D01*
X3599548Y107597D02*
X3601051D01*
X3595956Y106534D02*
X3601051D01*
X3597220Y105471D02*
X3601051D01*
X3597350Y104408D02*
X3601051D01*
X3597350Y103345D02*
X3601051D01*
X3597349Y102282D02*
X3601051D01*
X3596932Y101219D02*
X3601051D01*
X3600387Y100156D02*
X3601051D01*
X3600937Y99093D02*
X3601051D01*
X3600953Y98030D02*
X3601051D01*
X3600953Y96967D02*
X3601051D01*
X3600953Y95904D02*
X3601051D01*
X3600953Y94841D02*
X3601051D01*
X3600953Y93778D02*
X3601051D01*
X3600953Y92715D02*
X3601051D01*
X3600953Y91652D02*
X3601051D01*
X3600908Y90589D02*
X3601051D01*
X3600188Y89526D02*
X3601051D01*
X3590894Y88463D02*
X3601051D01*
X3591190Y87400D02*
X3600426D01*
X3591133Y86337D02*
X3599363D01*
X3590700Y85274D02*
X3598300D01*
X3589639Y84211D02*
X3597237D01*
X3463650Y83148D02*
X3596174D01*
X3590188Y89526D02*
X3593450D01*
X3590387Y100156D02*
X3593251D01*
X3590908Y90589D02*
X3592730D01*
X3590937Y99093D02*
X3592701D01*
X3590953Y98030D02*
X3592685D01*
X3590953Y96967D02*
X3592685D01*
X3590953Y95904D02*
X3592685D01*
X3590953Y94841D02*
X3592685D01*
X3590953Y93778D02*
X3592685D01*
X3590953Y92715D02*
X3592685D01*
X3590953Y91652D02*
X3592685D01*
X3463650Y82085D02*
X3584074D01*
X3463650Y81022D02*
X3582827D01*
X3463650Y79959D02*
X3581764D01*
X3463650Y78896D02*
X3580701D01*
X3463650Y77833D02*
X3579827D01*
X3575067Y76770D02*
X3578571D01*
X3576052Y66140D02*
X3578174D01*
X3575889Y75707D02*
X3577749D01*
X3575946Y67203D02*
X3577692D01*
X3575953Y74644D02*
X3577685D01*
X3575953Y73581D02*
X3577685D01*
X3575953Y72518D02*
X3577685D01*
X3575953Y71455D02*
X3577685D01*
X3575953Y70392D02*
X3577685D01*
X3575953Y69329D02*
X3577685D01*
X3575953Y68266D02*
X3577685D01*
X3520043Y60825D02*
X3573612D01*
X3519524Y61888D02*
X3572509D01*
X3498528Y62951D02*
X3571446D01*
X3498528Y64014D02*
X3570383D01*
X3498528Y65077D02*
X3569322D01*
X3463650Y76770D02*
X3568571D01*
X3498528Y66140D02*
X3568174D01*
X3463650Y75707D02*
X3567749D01*
X3498528Y67203D02*
X3567692D01*
X3475435Y74644D02*
X3567685D01*
X3477063Y73581D02*
X3567685D01*
X3498335Y72518D02*
X3567685D01*
X3498528Y71455D02*
X3567685D01*
X3498528Y70392D02*
X3567685D01*
X3498528Y69329D02*
X3567685D01*
X3498528Y68266D02*
X3567685D01*
X3463650Y84211D02*
X3566007D01*
X3463650Y85274D02*
X3564824D01*
X3463650Y86337D02*
X3563761D01*
X3560663Y157558D02*
X3563027D01*
X3463650Y87400D02*
X3562698D01*
X3559611Y158621D02*
X3561964D01*
X3463650Y88463D02*
X3561635D01*
X3558560Y159684D02*
X3560901D01*
X3463650Y89526D02*
X3560572D01*
X3557508Y160747D02*
X3559838D01*
X3463650Y90589D02*
X3559509D01*
X3556457Y161810D02*
X3558775D01*
X3463650Y91652D02*
X3558446D01*
X3555405Y162873D02*
X3557712D01*
X3463650Y92715D02*
X3557383D01*
X3554354Y163936D02*
X3556649D01*
X3463650Y93778D02*
X3556320D01*
X3553302Y164999D02*
X3555586D01*
X3463650Y94841D02*
X3555257D01*
X3552251Y166062D02*
X3554523D01*
X3524028Y154369D02*
X3554023D01*
X3551199Y167125D02*
X3553460D01*
X3523786Y155432D02*
X3552964D01*
X3550147Y168188D02*
X3552397D01*
X3523118Y156495D02*
X3551905D01*
X3549096Y169251D02*
X3551334D01*
X3521248Y157558D02*
X3550846D01*
X3548044Y170314D02*
X3550271D01*
X3510231Y158621D02*
X3549787D01*
X3546993Y171377D02*
X3549208D01*
X3511368Y159684D02*
X3548728D01*
X3545941Y172440D02*
X3548145D01*
X3511484Y160747D02*
X3547669D01*
X3544890Y173503D02*
X3547082D01*
X3543838Y174566D02*
X3546019D01*
X3511484Y166062D02*
X3545605D01*
X3541879Y175629D02*
X3544956D01*
X3511236Y167125D02*
X3544553D01*
X3510422Y176692D02*
X3543893D01*
X3491602Y168188D02*
X3543502D01*
X3508239Y177755D02*
X3542830D01*
X3509247Y169251D02*
X3542450D01*
X3491602Y178818D02*
X3541767D01*
X3511614Y170314D02*
X3541399D01*
X3489273Y202203D02*
X3539905D01*
X3488453Y203266D02*
X3538842D01*
X3488453Y204329D02*
X3537779D01*
X3488453Y205392D02*
X3536716D01*
X3489102Y206455D02*
X3535653D01*
X3489957Y207518D02*
X3534590D01*
X3490028Y208581D02*
X3533527D01*
X3490028Y209644D02*
X3532688D01*
X3519763Y262794D02*
X3532350D01*
X3520309Y261731D02*
X3532350D01*
X3520621Y260668D02*
X3532350D01*
X3520735Y259605D02*
X3532350D01*
X3520662Y258542D02*
X3532350D01*
X3520396Y257479D02*
X3532350D01*
X3519907Y256416D02*
X3532350D01*
X3519122Y255353D02*
X3532350D01*
X3517830Y254290D02*
X3532350D01*
X3479382Y253227D02*
X3532350D01*
X3481474Y252164D02*
X3532350D01*
X3482938Y251101D02*
X3532350D01*
X3484067Y250038D02*
X3532350D01*
X3484969Y248975D02*
X3532350D01*
X3532181Y247912D02*
X3532350D01*
X3518894Y263857D02*
X3532222D01*
X3517415Y264920D02*
X3531192D01*
X3503020Y265983D02*
X3530163D01*
X3503020Y267046D02*
X3529133D01*
X3503020Y268109D02*
X3528103D01*
X3503020Y269172D02*
X3527073D01*
X3503020Y270235D02*
X3526043D01*
X3502969Y271298D02*
X3525014D01*
X3523936Y153306D02*
X3524319D01*
X3502733Y272361D02*
X3523984D01*
X3502280Y273424D02*
X3522954D01*
X3463650Y95904D02*
X3522777D01*
X3463650Y96967D02*
X3521113D01*
X3463650Y98030D02*
X3520050D01*
X3459713Y157558D02*
X3519831D01*
X3463650Y99093D02*
X3518987D01*
X3459713Y156495D02*
X3517960D01*
X3463648Y100156D02*
X3517924D01*
X3459713Y155432D02*
X3517293D01*
X3459713Y153306D02*
X3517142D01*
X3459713Y154369D02*
X3517051D01*
X3463478Y101219D02*
X3516861D01*
X3462988Y102282D02*
X3515798D01*
X3461998Y103345D02*
X3514735D01*
X3459713Y104408D02*
X3513672D01*
X3459713Y105471D02*
X3512609D01*
X3459713Y152243D02*
X3512214D01*
X3459713Y106534D02*
X3511546D01*
X3459713Y151180D02*
X3510766D01*
X3459713Y107597D02*
X3510483D01*
X3485699Y247912D02*
X3509775D01*
X3459713Y150117D02*
X3509703D01*
X3459713Y108660D02*
X3509420D01*
X3459713Y149054D02*
X3508640D01*
X3486290Y246849D02*
X3508407D01*
X3459713Y109723D02*
X3508357D01*
X3490028Y210707D02*
X3507924D01*
X3486760Y245786D02*
X3507827D01*
X3459713Y147991D02*
X3507625D01*
X3459713Y110786D02*
X3507435D01*
X3459713Y146928D02*
X3507092D01*
X3459713Y111849D02*
X3507023D01*
X3459713Y145865D02*
X3506957D01*
X3459713Y144802D02*
X3506957D01*
X3459713Y143739D02*
X3506957D01*
X3459713Y142676D02*
X3506957D01*
X3459713Y141613D02*
X3506957D01*
X3459713Y140550D02*
X3506957D01*
X3459713Y139487D02*
X3506957D01*
X3459713Y138424D02*
X3506957D01*
X3459713Y137361D02*
X3506957D01*
X3459713Y136298D02*
X3506957D01*
X3459713Y135235D02*
X3506957D01*
X3459713Y134172D02*
X3506957D01*
X3459713Y133109D02*
X3506957D01*
X3459713Y132046D02*
X3506957D01*
X3459713Y130983D02*
X3506957D01*
X3459713Y129920D02*
X3506957D01*
X3459713Y128857D02*
X3506957D01*
X3459713Y127794D02*
X3506957D01*
X3459713Y126731D02*
X3506957D01*
X3459713Y125668D02*
X3506957D01*
X3459713Y124605D02*
X3506957D01*
X3459713Y123542D02*
X3506957D01*
X3459713Y122479D02*
X3506957D01*
X3459713Y121416D02*
X3506957D01*
X3459713Y120353D02*
X3506957D01*
X3459713Y119290D02*
X3506957D01*
X3459713Y118227D02*
X3506957D01*
X3459713Y117164D02*
X3506957D01*
X3459713Y116101D02*
X3506957D01*
X3459713Y115038D02*
X3506957D01*
X3459713Y113975D02*
X3506957D01*
X3459713Y112912D02*
X3506957D01*
X3490028Y211770D02*
X3506836D01*
X3487124Y244723D02*
X3506809D01*
X3487391Y243660D02*
X3506387D01*
X3490028Y212833D02*
X3506373D01*
X3489934Y213896D02*
X3505310D01*
X3491602Y177755D02*
X3505281D01*
X3491602Y169251D02*
X3504273D01*
X3488944Y214959D02*
X3504247D01*
X3487566Y242597D02*
X3503646D01*
X3491602Y176692D02*
X3503504D01*
X3488396Y158621D02*
X3503289D01*
X3459713Y216022D02*
X3503184D01*
X3491602Y170314D02*
X3503073D01*
X3491602Y175629D02*
X3502668D01*
X3487654Y241534D02*
X3502532D01*
X3459713Y217085D02*
X3502526D01*
X3491602Y171377D02*
X3502430D01*
X3459713Y218148D02*
X3502429D01*
X3459713Y227715D02*
X3502419D01*
X3491602Y167125D02*
X3502284D01*
X3491602Y174566D02*
X3502217D01*
X3489434Y159684D02*
X3502152D01*
X3491602Y172440D02*
X3502109D01*
X3491602Y173503D02*
X3502041D01*
X3491602Y166062D02*
X3502035D01*
X3491602Y164999D02*
X3502035D01*
X3491349Y163936D02*
X3502035D01*
X3490454Y162873D02*
X3502035D01*
X3489535Y161810D02*
X3502035D01*
X3489535Y160747D02*
X3502035D01*
X3498989Y219211D02*
X3500358D01*
X3499517Y226652D02*
X3499829D01*
X3499641Y220274D02*
X3499705D01*
X3487655Y240471D02*
X3499475D01*
X3479473Y228778D02*
X3498661D01*
X3487571Y239408D02*
X3498466D01*
X3487135Y237282D02*
X3498402D01*
X3486308Y235156D02*
X3498388D01*
X3484997Y233030D02*
X3498371D01*
X3487399Y238345D02*
X3498368D01*
X3486774Y236219D02*
X3498368D01*
X3485722Y234093D02*
X3498368D01*
X3484101Y231967D02*
X3498368D01*
X3482982Y230904D02*
X3498368D01*
X3481532Y229841D02*
X3498368D01*
X3459713Y219211D02*
X3493468D01*
X3478158Y72518D02*
X3493173D01*
X3478954Y71455D02*
X3492980D01*
X3479538Y70392D02*
X3492980D01*
X3479953Y69329D02*
X3492980D01*
X3480223Y68266D02*
X3492980D01*
X3480360Y67203D02*
X3492980D01*
X3480371Y66140D02*
X3492980D01*
X3480257Y65077D02*
X3492980D01*
X3480012Y64014D02*
X3492980D01*
X3479625Y62951D02*
X3492980D01*
X3459713Y226652D02*
X3492939D01*
X3459713Y220274D02*
X3492816D01*
X3459713Y225589D02*
X3492783D01*
X3459713Y224526D02*
X3492783D01*
X3459713Y223463D02*
X3492783D01*
X3459713Y222400D02*
X3492783D01*
X3459713Y221337D02*
X3492783D01*
X3479201Y169251D02*
X3486878D01*
X3479201Y168188D02*
X3486878D01*
X3478845Y167125D02*
X3486878D01*
X3459713Y166062D02*
X3486878D01*
X3479075Y61888D02*
X3485335D01*
X3478323Y60825D02*
X3484816D01*
X3477292Y59762D02*
X3484815D01*
X3475796Y58699D02*
X3484815D01*
X3472777Y57636D02*
X3484815D01*
X3463650Y56573D02*
X3484815D01*
X3463650Y55510D02*
X3484815D01*
X3482054Y214959D02*
X3484221D01*
X3482097Y158621D02*
X3483391D01*
X3483044Y213896D02*
X3483232D01*
X3478929Y170314D02*
X3483044D01*
X3459713Y172440D02*
X3482744D01*
X3459713Y171377D02*
X3482744D01*
X3459713Y214959D02*
X3477331D01*
X3459713Y158621D02*
X3477092D01*
X3459713Y213896D02*
X3476342D01*
X3459713Y207518D02*
X3476318D01*
X3459713Y212833D02*
X3476248D01*
X3459713Y211770D02*
X3476248D01*
X3459713Y210707D02*
X3476248D01*
X3459713Y209644D02*
X3476248D01*
X3459713Y208581D02*
X3476248D01*
X3459713Y164999D02*
X3476137D01*
X3459713Y159684D02*
X3476055D01*
X3459713Y163936D02*
X3475953D01*
X3459713Y162873D02*
X3475953D01*
X3459713Y161810D02*
X3475953D01*
X3459713Y160747D02*
X3475953D01*
X3459713Y173503D02*
X3473267D01*
X3459713Y167125D02*
X3472076D01*
X3459713Y170314D02*
X3471993D01*
X3459713Y169251D02*
X3471720D01*
X3459713Y168188D02*
X3471720D01*
X3459713Y174566D02*
X3471609D01*
X3459713Y206455D02*
X3470859D01*
X3459713Y175629D02*
X3470546D01*
X3463650Y57636D02*
X3469877D01*
X3459713Y205392D02*
X3469796D01*
X3459713Y253227D02*
X3469571D01*
X3459713Y176692D02*
X3469483D01*
X3459713Y228778D02*
X3469480D01*
X3459713Y204329D02*
X3468733D01*
X3459713Y177755D02*
X3468422D01*
X3459713Y203266D02*
X3467947D01*
X3459713Y178818D02*
X3467849D01*
X3459713Y202203D02*
X3467783D01*
X3459713Y201140D02*
X3467783D01*
X3459713Y200077D02*
X3467783D01*
X3459713Y199014D02*
X3467783D01*
X3459713Y197951D02*
X3467783D01*
X3459713Y196888D02*
X3467783D01*
X3459713Y195825D02*
X3467783D01*
X3459713Y194762D02*
X3467783D01*
X3459713Y193699D02*
X3467783D01*
X3459713Y192636D02*
X3467783D01*
X3459713Y191573D02*
X3467783D01*
X3459713Y190510D02*
X3467783D01*
X3459713Y189448D02*
X3467783D01*
X3459713Y188385D02*
X3467783D01*
X3459713Y187322D02*
X3467783D01*
X3459713Y186259D02*
X3467783D01*
X3459713Y185196D02*
X3467783D01*
X3459713Y184133D02*
X3467783D01*
X3459713Y183070D02*
X3467783D01*
X3459713Y182007D02*
X3467783D01*
X3459713Y180944D02*
X3467783D01*
X3459713Y179881D02*
X3467783D01*
X3459713Y252164D02*
X3467479D01*
X3459713Y229841D02*
X3467421D01*
X3463650Y74644D02*
X3467219D01*
X3463650Y58699D02*
X3466857D01*
X3459713Y251101D02*
X3466015D01*
X3459713Y230904D02*
X3465971D01*
X3463650Y73581D02*
X3465591D01*
X3463650Y59762D02*
X3465361D01*
X3459713Y250038D02*
X3464886D01*
X3459713Y231967D02*
X3464851D01*
X3463650Y72518D02*
X3464495D01*
X3463650Y60825D02*
X3464331D01*
X3459713Y248975D02*
X3463984D01*
X3459713Y233030D02*
X3463956D01*
X3463650Y71455D02*
X3463699D01*
X3459713Y247912D02*
X3463253D01*
X3459713Y234093D02*
X3463231D01*
X3459713Y246849D02*
X3462663D01*
X3459713Y235156D02*
X3462645D01*
X3459713Y245786D02*
X3462193D01*
X3459713Y236219D02*
X3462178D01*
X3459713Y254290D02*
X3461831D01*
X3459713Y244723D02*
X3461828D01*
X3459713Y237282D02*
X3461818D01*
X3459713Y243660D02*
X3461562D01*
X3459713Y238345D02*
X3461554D01*
X3459713Y242597D02*
X3461386D01*
X3459713Y239408D02*
X3461382D01*
X3459713Y241534D02*
X3461299D01*
X3459713Y240471D02*
X3461297D01*
X3459713Y255353D02*
X3460540D01*
X3599476Y186259D02*
X3602628D01*
X3599476Y185196D02*
X3601963D01*
X3599476Y187322D02*
X3601747D01*
X3599476Y191573D02*
X3601642D01*
X3599476Y190510D02*
X3601642D01*
X3599476Y189448D02*
X3601563D01*
X3599476Y188385D02*
X3601454D01*
X3599476Y192636D02*
X3601222D01*
X3599476Y184133D02*
X3600900D01*
X3595217Y199014D02*
X3600134D01*
X3599476Y193699D02*
X3600085D01*
X3594165Y200077D02*
X3599976D01*
X3591009Y203266D02*
X3599968D01*
X3592061Y202203D02*
X3599968D01*
X3593113Y201140D02*
X3599968D01*
X3596270Y197951D02*
X3599968D01*
X3597322Y196888D02*
X3599968D01*
X3598374Y195825D02*
X3599968D01*
X3599244Y194762D02*
X3599968D01*
X3599476Y183070D02*
X3599837D01*
X3589957Y204329D02*
X3595501D01*
X3588905Y205392D02*
X3594545D01*
X3584696Y209644D02*
X3594457D01*
X3585748Y208581D02*
X3594457D01*
X3586800Y207518D02*
X3594457D01*
X3587852Y206455D02*
X3594457D01*
X3583644Y210707D02*
X3594258D01*
X3582592Y211770D02*
X3593162D01*
X3582744Y306377D02*
X3592783D01*
X3582744Y305314D02*
X3592783D01*
X3582744Y304251D02*
X3592783D01*
X3582744Y303188D02*
X3592783D01*
X3582744Y302125D02*
X3592783D01*
X3582744Y301062D02*
X3592783D01*
X3582744Y299999D02*
X3592783D01*
X3588232Y298936D02*
X3592783D01*
X3589593Y297873D02*
X3592783D01*
X3590376Y296810D02*
X3592783D01*
X3590843Y295747D02*
X3592783D01*
X3591073Y294684D02*
X3592783D01*
X3591095Y293621D02*
X3592783D01*
X3590912Y292558D02*
X3592783D01*
X3590502Y291495D02*
X3592783D01*
X3589800Y290432D02*
X3592783D01*
X3588614Y289369D02*
X3592783D01*
X3582744Y288306D02*
X3592783D01*
X3582744Y287243D02*
X3592783D01*
X3581540Y212833D02*
X3592066D01*
X3582906Y286180D02*
X3592065D01*
X3582941Y285117D02*
X3591002D01*
X3580487Y213896D02*
X3590969D01*
X3582941Y284054D02*
X3589939D01*
X3580382Y214959D02*
X3589873D01*
X3582941Y282991D02*
X3588876D01*
X3580382Y216022D02*
X3588777D01*
X3582941Y281928D02*
X3588059D01*
X3582941Y280865D02*
X3588059D01*
X3582941Y279802D02*
X3588059D01*
X3582941Y278739D02*
X3588059D01*
X3582941Y277676D02*
X3588059D01*
X3582941Y276613D02*
X3588059D01*
X3582941Y275550D02*
X3588059D01*
X3582941Y274487D02*
X3588059D01*
X3582941Y273424D02*
X3588059D01*
X3582941Y272361D02*
X3588059D01*
X3582941Y271298D02*
X3588059D01*
X3582941Y270235D02*
X3588059D01*
X3582938Y269172D02*
X3588059D01*
X3582736Y268109D02*
X3588059D01*
X3582162Y267046D02*
X3588059D01*
X3580869Y265983D02*
X3588059D01*
X3580382Y264920D02*
X3588059D01*
X3580382Y263857D02*
X3588059D01*
X3580382Y262794D02*
X3588059D01*
X3580382Y261731D02*
X3588059D01*
X3580382Y260668D02*
X3588059D01*
X3580382Y259605D02*
X3588059D01*
X3580382Y258542D02*
X3588059D01*
X3580382Y257479D02*
X3588059D01*
X3580382Y256416D02*
X3588059D01*
X3580382Y255353D02*
X3588059D01*
X3580382Y254290D02*
X3588059D01*
X3580382Y253227D02*
X3588059D01*
X3580382Y252164D02*
X3588059D01*
X3580382Y251101D02*
X3588059D01*
X3580382Y250038D02*
X3588059D01*
X3580382Y248975D02*
X3588059D01*
X3580382Y247912D02*
X3588059D01*
X3580382Y246849D02*
X3588059D01*
X3580382Y245786D02*
X3588059D01*
X3580382Y244723D02*
X3588059D01*
X3580382Y243660D02*
X3588059D01*
X3580382Y242597D02*
X3588059D01*
X3580382Y241534D02*
X3588059D01*
X3580382Y240471D02*
X3588059D01*
X3580382Y239408D02*
X3588059D01*
X3580382Y238345D02*
X3588059D01*
X3580382Y237282D02*
X3588059D01*
X3580382Y236219D02*
X3588059D01*
X3580382Y235156D02*
X3588059D01*
X3580382Y234093D02*
X3588059D01*
X3580382Y233030D02*
X3588059D01*
X3580382Y231967D02*
X3588059D01*
X3580382Y230904D02*
X3588059D01*
X3580382Y229841D02*
X3588059D01*
X3580382Y228778D02*
X3588059D01*
X3580382Y227715D02*
X3588059D01*
X3580382Y226652D02*
X3588059D01*
X3580382Y225589D02*
X3588059D01*
X3580382Y224526D02*
X3588059D01*
X3580382Y223463D02*
X3588059D01*
X3580382Y222400D02*
X3588059D01*
X3580382Y221337D02*
X3588059D01*
X3580382Y220274D02*
X3588059D01*
X3580382Y219211D02*
X3588059D01*
X3580382Y218148D02*
X3588059D01*
X3580382Y217085D02*
X3588059D01*
X3589641Y169251D02*
X3601625D01*
X3590704Y168188D02*
X3601278D01*
X3591767Y167125D02*
X3601248D01*
X3592830Y166062D02*
X3600218D01*
X3593893Y164999D02*
X3599155D01*
X3594956Y163936D02*
X3598092D01*
X3596019Y162873D02*
X3597029D01*
X3584290Y150117D02*
X3599866D01*
X3584319Y151180D02*
X3598803D01*
X3584312Y152243D02*
X3597740D01*
X3584319Y153306D02*
X3596677D01*
X3584319Y154369D02*
X3595614D01*
X3584319Y155432D02*
X3594551D01*
X3584319Y156495D02*
X3593488D01*
X3584319Y157558D02*
X3592425D01*
X3584319Y158621D02*
X3591362D01*
X3584308Y159684D02*
X3590299D01*
X3584319Y160747D02*
X3589236D01*
X3584283Y161810D02*
X3588173D01*
X3584319Y162873D02*
X3587110D01*
X3584297Y163936D02*
X3586047D01*
X3584319Y164999D02*
X3584984D01*
X3599596Y117164D02*
X3600461D01*
X3593673Y116101D02*
X3600461D01*
X3592198Y115038D02*
X3600308D01*
X3579551Y113975D02*
X3599245D01*
X3578485Y112912D02*
X3598182D01*
X3577355Y111849D02*
X3597119D01*
X3594423Y117164D02*
X3595026D01*
X3559053Y110786D02*
X3591331D01*
X3559053Y109723D02*
X3590268D01*
X3559053Y108660D02*
X3589216D01*
X3588214Y107597D02*
X3588697D01*
X3580628Y115038D02*
X3588251D01*
X3581705Y116101D02*
X3586776D01*
X3582781Y117164D02*
X3586026D01*
X3583858Y118227D02*
X3585631D01*
X3584934Y119290D02*
X3585500D01*
X3581324Y107597D02*
X3582589D01*
X3581932Y106534D02*
X3581981D01*
X3559053Y107597D02*
X3575700D01*
X3568974Y90589D02*
X3572730D01*
X3560470Y99093D02*
X3572701D01*
X3561533Y98030D02*
X3572685D01*
X3562596Y96967D02*
X3572685D01*
X3563659Y95904D02*
X3572685D01*
X3564722Y94841D02*
X3572685D01*
X3565785Y93778D02*
X3572685D01*
X3566848Y92715D02*
X3572685D01*
X3567911Y91652D02*
X3572685D01*
X3569085Y100156D02*
X3569631D01*
X3559407D02*
X3563332D01*
X3559053Y106534D02*
X3562865D01*
X3559053Y101219D02*
X3562612D01*
X3559053Y105471D02*
X3562567D01*
X3559053Y104408D02*
X3562567D01*
X3559053Y103345D02*
X3562567D01*
X3559053Y102282D02*
X3562567D01*
X3615421Y202203D02*
X3629594D01*
X3615421Y201140D02*
X3629594D01*
X3615147Y200077D02*
X3626095D01*
X3608662Y199014D02*
X3625032D01*
X3620994Y203266D02*
X3624022D01*
X3621765Y204329D02*
X3623251D01*
X3621819Y208581D02*
X3623197D01*
X3621819Y207518D02*
X3623197D01*
X3621819Y206455D02*
X3623197D01*
X3621819Y205392D02*
X3623197D01*
X3622191Y209644D02*
X3622825D01*
X3614897Y197951D02*
X3618420D01*
X3615410Y196888D02*
X3617001D01*
X3615421Y195825D02*
X3615938D01*
X3608827Y197951D02*
X3608859D01*
X3607547Y126731D02*
X3617020D01*
X3607547Y127794D02*
X3616792D01*
X3607547Y125668D02*
X3615957D01*
X3607547Y128857D02*
X3615729D01*
X3607547Y129920D02*
X3614666D01*
X3610752Y124605D02*
X3611429D01*
X3609789Y130983D02*
X3610030D01*
X3593685Y192636D02*
X3594752D01*
X3594748Y191573D02*
X3594752D01*
X3592622Y193699D02*
X3593831D01*
X3591559Y194762D02*
X3592779D01*
X3590496Y195825D02*
X3591726D01*
X3589433Y196888D02*
X3590674D01*
X3588370Y197951D02*
X3589622D01*
X3587307Y199014D02*
X3588570D01*
X3586244Y200077D02*
X3587518D01*
X3585181Y201140D02*
X3586466D01*
X3584118Y202203D02*
X3585414D01*
X3583055Y203266D02*
X3584361D01*
X3581992Y204329D02*
X3583309D01*
X3580929Y205392D02*
X3582257D01*
X3579970Y206455D02*
X3581205D01*
X3579349Y207518D02*
X3580153D01*
X3578562Y208581D02*
X3579101D01*
X3575953Y209644D02*
X3578049D01*
X3575953Y210707D02*
X3576996D01*
X3575953Y211770D02*
X3576022D01*
X3575461Y178818D02*
X3576902D01*
X3575461Y179881D02*
X3576737D01*
X3575461Y184133D02*
X3576642D01*
X3575461Y183070D02*
X3576642D01*
X3575461Y182007D02*
X3576642D01*
X3575461Y180944D02*
X3576642D01*
X3575461Y177755D02*
X3576642D01*
X3575461Y176692D02*
X3576642D01*
X3575461Y175629D02*
X3576642D01*
X3575461Y185196D02*
X3576438D01*
X3584122Y182007D02*
X3586878D01*
X3584122Y180944D02*
X3586878D01*
X3584027Y179881D02*
X3586878D01*
X3584122Y183070D02*
X3586728D01*
X3584122Y184133D02*
X3585665D01*
X3472705Y306377D02*
X3493653D01*
X3472705Y305314D02*
X3492391D01*
X3486165Y286180D02*
X3491740D01*
X3472705Y304251D02*
X3491620D01*
X3485102Y287243D02*
X3491213D01*
X3472705Y303188D02*
X3491141D01*
X3484039Y288306D02*
X3490916D01*
X3472705Y302125D02*
X3490882D01*
X3482976Y289369D02*
X3490815D01*
X3472705Y301062D02*
X3490815D01*
X3472705Y299999D02*
X3490815D01*
X3472705Y298936D02*
X3490815D01*
X3477068Y297873D02*
X3490815D01*
X3477696Y296810D02*
X3490815D01*
X3477724Y295747D02*
X3490815D01*
X3477724Y294684D02*
X3490815D01*
X3477724Y293621D02*
X3490815D01*
X3477724Y292558D02*
X3490815D01*
X3481156Y291495D02*
X3490815D01*
X3481754Y290432D02*
X3490815D01*
X3500181Y306377D02*
X3545905D01*
X3501443Y305314D02*
X3545580D01*
X3502214Y304251D02*
X3544869D01*
X3502694Y303188D02*
X3543806D01*
X3502952Y302125D02*
X3542743D01*
X3503020Y301062D02*
X3541680D01*
X3503020Y299999D02*
X3540617D01*
X3503020Y298936D02*
X3539554D01*
X3503020Y297873D02*
X3538491D01*
X3503020Y296810D02*
X3537515D01*
X3503020Y295747D02*
X3537109D01*
X3503020Y294684D02*
X3537075D01*
X3503020Y293621D02*
X3537075D01*
X3503020Y292558D02*
X3537075D01*
X3503020Y291495D02*
X3537075D01*
X3503020Y290432D02*
X3537075D01*
X3503020Y289369D02*
X3537075D01*
X3502919Y288306D02*
X3537075D01*
X3502622Y287243D02*
X3537075D01*
X3502095Y286180D02*
X3537075D01*
X3530054Y285117D02*
X3537075D01*
X3531204Y284054D02*
X3537075D01*
X3532267Y282991D02*
X3537075D01*
X3533330Y281928D02*
X3537075D01*
X3534393Y280865D02*
X3537075D01*
X3535529Y279802D02*
X3537075D01*
X3505092Y235156D02*
X3508427D01*
X3505109Y233030D02*
X3508411D01*
X3505112Y234093D02*
X3508407D01*
X3531930Y242597D02*
X3532350D01*
X3511091Y241534D02*
X3532350D01*
X3514044Y240471D02*
X3532350D01*
X3515054Y239408D02*
X3532350D01*
X3508803Y217085D02*
X3514872D01*
X3507154Y223463D02*
X3514807D01*
X3507154Y222400D02*
X3514486D01*
X3507740Y218148D02*
X3514440D01*
X3507154Y224526D02*
X3514437D01*
X3510778Y226652D02*
X3514437D01*
X3507154Y225589D02*
X3514437D01*
X3507154Y221337D02*
X3514437D01*
X3507154Y220274D02*
X3514437D01*
X3507154Y219211D02*
X3514437D01*
X3511100Y227715D02*
X3513539D01*
X3528512Y233030D02*
X3532350D01*
X3528512Y231967D02*
X3532350D01*
X3528512Y230904D02*
X3532350D01*
X3528262Y229841D02*
X3532350D01*
X3521917Y220274D02*
X3532350D01*
X3521917Y219211D02*
X3532350D01*
X3521915Y218148D02*
X3532350D01*
X3521482Y217085D02*
X3532350D01*
X3521917Y221337D02*
X3522724D01*
X3521547Y223463D02*
X3522508D01*
X3521869Y222400D02*
X3522508D01*
X3560186Y262794D02*
X3569409D01*
X3546130Y263857D02*
X3568313D01*
X3546130Y264920D02*
X3567306D01*
X3546130Y265983D02*
X3566859D01*
X3546130Y279802D02*
X3566799D01*
X3546130Y278739D02*
X3566799D01*
X3546130Y277676D02*
X3566799D01*
X3546130Y276613D02*
X3566799D01*
X3546130Y275550D02*
X3566799D01*
X3546130Y274487D02*
X3566799D01*
X3546130Y273424D02*
X3566799D01*
X3546130Y272361D02*
X3566799D01*
X3546130Y271298D02*
X3566799D01*
X3546130Y270235D02*
X3566799D01*
X3546259Y269172D02*
X3566799D01*
X3546295Y268109D02*
X3566799D01*
X3546130Y267046D02*
X3566799D01*
X3546130Y280865D02*
X3556987D01*
X3546130Y288306D02*
X3556760D01*
X3546130Y287243D02*
X3556760D01*
X3546130Y286180D02*
X3556760D01*
X3546130Y285117D02*
X3556760D01*
X3546130Y284054D02*
X3556760D01*
X3546130Y282991D02*
X3556760D01*
X3546130Y281928D02*
X3556760D01*
X3546130Y262794D02*
X3552547D01*
X3546130Y261731D02*
X3551958D01*
X3546130Y260668D02*
X3551937D01*
X3546130Y259605D02*
X3551937D01*
X3546130Y258542D02*
X3551578D01*
X3546130Y289369D02*
X3551381D01*
X3546130Y236219D02*
X3550793D01*
X3546130Y257479D02*
X3550229D01*
X3546130Y290432D02*
X3550218D01*
X3546130Y235156D02*
X3549953D01*
X3546130Y237282D02*
X3549641D01*
X3546207Y291495D02*
X3549525D01*
X3546130Y256416D02*
X3549249D01*
X3547270Y292558D02*
X3549119D01*
X3546250Y238345D02*
X3548983D01*
X3548333Y293621D02*
X3548937D01*
X3546130Y255353D02*
X3548894D01*
X3546130Y234093D02*
X3548890D01*
X3546130Y254290D02*
X3548886D01*
X3546130Y253227D02*
X3548886D01*
X3546130Y252164D02*
X3548886D01*
X3546130Y251101D02*
X3548886D01*
X3546130Y250038D02*
X3548886D01*
X3546130Y248975D02*
X3548886D01*
X3546130Y247912D02*
X3548886D01*
X3546130Y246849D02*
X3548886D01*
X3546130Y245786D02*
X3548886D01*
X3546130Y244723D02*
X3548886D01*
X3546130Y243660D02*
X3548886D01*
X3546130Y242597D02*
X3548886D01*
X3546130Y241534D02*
X3548886D01*
X3546130Y240471D02*
X3548886D01*
X3546301Y239408D02*
X3548886D01*
X3546130Y233030D02*
X3547896D01*
X3546446Y231967D02*
X3547520D01*
X3566263Y250038D02*
X3566996D01*
X3566307Y248975D02*
X3566996D01*
X3566307Y247912D02*
X3566996D01*
X3566307Y246849D02*
X3566996D01*
X3566307Y245786D02*
X3566996D01*
X3566008Y244723D02*
X3566996D01*
X3557449Y243660D02*
X3566996D01*
X3565546Y251101D02*
X3566137D01*
X3560795Y252164D02*
X3565074D01*
X3560795Y253227D02*
X3564011D01*
X3557947Y242597D02*
X3561872D01*
X3554472Y227715D02*
X3566996D01*
X3555535Y226652D02*
X3566996D01*
X3556598Y225589D02*
X3566996D01*
X3557661Y224526D02*
X3566996D01*
X3558724Y223463D02*
X3566996D01*
X3559787Y222400D02*
X3566996D01*
X3560850Y221337D02*
X3566996D01*
X3561913Y220274D02*
X3566996D01*
X3562976Y219211D02*
X3566996D01*
X3564039Y218148D02*
X3566996D01*
X3565102Y217085D02*
X3566996D01*
X3566165Y216022D02*
X3566908D01*
X3557471Y228778D02*
X3562348D01*
X3552003Y199014D02*
X3566209D01*
X3553066Y197951D02*
X3566209D01*
X3554129Y196888D02*
X3566209D01*
X3555192Y195825D02*
X3566209D01*
X3556255Y194762D02*
X3566209D01*
X3557318Y193699D02*
X3566209D01*
X3558381Y192636D02*
X3566209D01*
X3564631Y191573D02*
X3566209D01*
X3565373Y190510D02*
X3565470D01*
X3550940Y200077D02*
X3565423D01*
X3549875Y201140D02*
X3564360D01*
X3548814Y202203D02*
X3563297D01*
X3547751Y203266D02*
X3562234D01*
X3546688Y204329D02*
X3561171D01*
X3545625Y205392D02*
X3560108D01*
X3544562Y206455D02*
X3559045D01*
X3543499Y207518D02*
X3557982D01*
X3542436Y208581D02*
X3556919D01*
X3541373Y209644D02*
X3555856D01*
X3540310Y210707D02*
X3554793D01*
X3539247Y211770D02*
X3553730D01*
X3538650Y212833D02*
X3552667D01*
X3538650Y213896D02*
X3551604D01*
X3538650Y214959D02*
X3550541D01*
X3538650Y216022D02*
X3549478D01*
X3538650Y217085D02*
X3548415D01*
X3538650Y218148D02*
X3547352D01*
X3538650Y219211D02*
X3546289D01*
X3538650Y220274D02*
X3545226D01*
X3538650Y221337D02*
X3544163D01*
X3538650Y222400D02*
X3543100D01*
X3538650Y223463D02*
X3542037D01*
X3538650Y224526D02*
X3540974D01*
X3538650Y225589D02*
X3539911D01*
X3538650Y226652D02*
X3538848D01*
X3478439Y194762D02*
X3480819D01*
X3479157Y193699D02*
X3479888D01*
X3474039Y178818D02*
X3479660D01*
X3479201Y192636D02*
X3479596D01*
X3479112Y191573D02*
X3479594D01*
X3478156Y190510D02*
X3479594D01*
X3472508Y189448D02*
X3479594D01*
X3472508Y188385D02*
X3479594D01*
X3472508Y187322D02*
X3479594D01*
X3472508Y186259D02*
X3479594D01*
X3472508Y185196D02*
X3479594D01*
X3472508Y184133D02*
X3479594D01*
X3472508Y183070D02*
X3479594D01*
X3472508Y182007D02*
X3479594D01*
X3472508Y180944D02*
X3479594D01*
X3472976Y179881D02*
X3479594D01*
X3473288Y202203D02*
X3477003D01*
X3472508Y195825D02*
X3476702D01*
X3472508Y201140D02*
X3476374D01*
X3472508Y200077D02*
X3476346D01*
X3472508Y199014D02*
X3476346D01*
X3472508Y197951D02*
X3476346D01*
X3472508Y196888D02*
X3476346D01*
X3472508Y190510D02*
X3472765D01*
X3483068Y207518D02*
X3483208D01*
X3482973Y202203D02*
X3483302D01*
X3572705Y268109D02*
X3575657D01*
X3573508Y267046D02*
X3575657D01*
X3574604Y265983D02*
X3575657D01*
X3575546Y264920D02*
X3575657D01*
X3572705Y269172D02*
X3575464D01*
X3572705Y279802D02*
X3575461D01*
X3572705Y278739D02*
X3575461D01*
X3572705Y277676D02*
X3575461D01*
X3572705Y276613D02*
X3575461D01*
X3572705Y275550D02*
X3575461D01*
X3572705Y274487D02*
X3575461D01*
X3572705Y273424D02*
X3575461D01*
X3572705Y272361D02*
X3575461D01*
X3572705Y271298D02*
X3575461D01*
X3572705Y270235D02*
X3575461D01*
X3569039Y169251D02*
X3572954D01*
X3567976Y170314D02*
X3571795D01*
X3566913Y171377D02*
X3570732D01*
X3565850Y172440D02*
X3569669D01*
X3564787Y173503D02*
X3568606D01*
X3563724Y174566D02*
X3567543D01*
X3562661Y175629D02*
X3566480D01*
X3561598Y176692D02*
X3565417D01*
X3560535Y177755D02*
X3564354D01*
X3559472Y178818D02*
X3563291D01*
X3558409Y179881D02*
X3562228D01*
X3557346Y180944D02*
X3561165D01*
X3556283Y182007D02*
X3560102D01*
X3555220Y183070D02*
X3559039D01*
X3554157Y184133D02*
X3557976D01*
X3553094Y185196D02*
X3556913D01*
X3552031Y186259D02*
X3555850D01*
X3550968Y187322D02*
X3554787D01*
X3549905Y188385D02*
X3553724D01*
X3548842Y189448D02*
X3552661D01*
X3547779Y190510D02*
X3551598D01*
X3546650Y191573D02*
X3550535D01*
X3485375Y192636D02*
X3549472D01*
X3486438Y193699D02*
X3548409D01*
X3487501Y194762D02*
X3547346D01*
X3489574Y195825D02*
X3546283D01*
X3552271Y111849D02*
X3552360D01*
X3551283Y110786D02*
X3552360D01*
X3524200Y103345D02*
X3552360D01*
X3516760Y110786D02*
X3546489D01*
X3523137Y104408D02*
X3545410D01*
X3517823Y109723D02*
X3545359D01*
X3518886Y108660D02*
X3545244D01*
X3519949Y107597D02*
X3545244D01*
X3521012Y106534D02*
X3545244D01*
X3522074Y105471D02*
X3545244D01*
X3539056Y132046D02*
X3541182D01*
X3537041Y126731D02*
X3540677D01*
X3515697Y111849D02*
X3540580D01*
X3537173Y121416D02*
X3540497D01*
X3513650Y117164D02*
X3540391D01*
X3513650Y116101D02*
X3540340D01*
X3537993Y130983D02*
X3540300D01*
X3537173Y122479D02*
X3540278D01*
X3535767Y125668D02*
X3540235D01*
X3537173Y127794D02*
X3540228D01*
X3537173Y129920D02*
X3540224D01*
X3537173Y128857D02*
X3540224D01*
X3537008Y124605D02*
X3540224D01*
X3537173Y123542D02*
X3540224D01*
X3537166Y120353D02*
X3540224D01*
X3536685Y119290D02*
X3540224D01*
X3513650Y118227D02*
X3540224D01*
X3513650Y115038D02*
X3540224D01*
X3513650Y113975D02*
X3540224D01*
X3514634Y112912D02*
X3540224D01*
X3527681Y125668D02*
X3529721D01*
X3513650Y119290D02*
X3528804D01*
X3528004Y124605D02*
X3528480D01*
X3513650Y120353D02*
X3528322D01*
X3527985Y123542D02*
X3528315D01*
X3527619Y122479D02*
X3528315D01*
X3526739Y121416D02*
X3528315D01*
X3518739D02*
X3522340D01*
X3519619Y122479D02*
X3521459D01*
X3519681Y125668D02*
X3521397D01*
X3519985Y123542D02*
X3521093D01*
X3520004Y124605D02*
X3521075D01*
X3520369Y126731D02*
X3520710D01*
X3513650Y121416D02*
X3514340D01*
X3513650Y137361D02*
X3515193D01*
X3513650Y140550D02*
X3515007D01*
X3513650Y138424D02*
X3514769D01*
X3513650Y139487D02*
X3514712D01*
X3513650Y136298D02*
X3513793D01*
X3520287Y141613D02*
X3520791D01*
X3519688Y132046D02*
X3521391D01*
X3519816Y136298D02*
X3521263D01*
X3519858Y135235D02*
X3521221D01*
X3519882Y133109D02*
X3521196D01*
X3520036Y134172D02*
X3521043D01*
X3654135Y306377D02*
X3711287D01*
X3691310Y305314D02*
X3711287D01*
X3693086Y304251D02*
X3711287D01*
X3693923Y303188D02*
X3711287D01*
X3694373Y302125D02*
X3711287D01*
X3694549Y301062D02*
X3711287D01*
X3694482Y299999D02*
X3711287D01*
X3694160Y298936D02*
X3711287D01*
X3693518Y297873D02*
X3711287D01*
X3692823Y296810D02*
X3711287D01*
X3692823Y295747D02*
X3711287D01*
X3692778Y294684D02*
X3711287D01*
X3692823Y293621D02*
X3711287D01*
X3692823Y292558D02*
X3711287D01*
X3692822Y291495D02*
X3711287D01*
X3693652Y290432D02*
X3711287D01*
X3693768Y289369D02*
X3711287D01*
X3693768Y288306D02*
X3711287D01*
X3693768Y287243D02*
X3711287D01*
X3693768Y286180D02*
X3711287D01*
X3693768Y285117D02*
X3711287D01*
X3693768Y284054D02*
X3711287D01*
X3693768Y282991D02*
X3711287D01*
X3693768Y281928D02*
X3711287D01*
X3693768Y280865D02*
X3711287D01*
X3693768Y279802D02*
X3711287D01*
X3693768Y278739D02*
X3711287D01*
X3693739Y277676D02*
X3711287D01*
X3693108Y276613D02*
X3711287D01*
X3590421Y275550D02*
X3711287D01*
X3590421Y274487D02*
X3711287D01*
X3590421Y273424D02*
X3711287D01*
X3590421Y272361D02*
X3711287D01*
X3590421Y271298D02*
X3711287D01*
X3590421Y270235D02*
X3711287D01*
X3590421Y269172D02*
X3711287D01*
X3590421Y268109D02*
X3711287D01*
X3590421Y267046D02*
X3711287D01*
X3590421Y265983D02*
X3711287D01*
X3590421Y264920D02*
X3711287D01*
X3590421Y263857D02*
X3711287D01*
X3590421Y262794D02*
X3711287D01*
X3590421Y261731D02*
X3711287D01*
X3590421Y260668D02*
X3711287D01*
X3590421Y259605D02*
X3711287D01*
X3590421Y258542D02*
X3711287D01*
X3590421Y257479D02*
X3711287D01*
X3590421Y256416D02*
X3711287D01*
X3590421Y255353D02*
X3711287D01*
X3590421Y254290D02*
X3711287D01*
X3590421Y253227D02*
X3711287D01*
X3590421Y252164D02*
X3711287D01*
X3590421Y251101D02*
X3711287D01*
X3590421Y250038D02*
X3711287D01*
X3590421Y248975D02*
X3711287D01*
X3590421Y247912D02*
X3711287D01*
X3590421Y246849D02*
X3711287D01*
X3590421Y245786D02*
X3711287D01*
X3590421Y244723D02*
X3711287D01*
X3590421Y243660D02*
X3711287D01*
X3590421Y242597D02*
X3711287D01*
X3590421Y241534D02*
X3711287D01*
X3590421Y240471D02*
X3711287D01*
X3590421Y239408D02*
X3711287D01*
X3590421Y238345D02*
X3711287D01*
X3590421Y237282D02*
X3711287D01*
X3590421Y236219D02*
X3711287D01*
X3590421Y235156D02*
X3711287D01*
X3590421Y234093D02*
X3711287D01*
X3590421Y233030D02*
X3711287D01*
X3590421Y231967D02*
X3711287D01*
X3590421Y230904D02*
X3711287D01*
X3590421Y229841D02*
X3711287D01*
X3590421Y228778D02*
X3711287D01*
X3590421Y227715D02*
X3711287D01*
X3590421Y226652D02*
X3711287D01*
X3590421Y225589D02*
X3711287D01*
X3664289Y224526D02*
X3711287D01*
X3686300Y223463D02*
X3711287D01*
X3686484Y222400D02*
X3711287D01*
X3686484Y221337D02*
X3711287D01*
X3686484Y220274D02*
X3711287D01*
X3686484Y219211D02*
X3711287D01*
X3686484Y218148D02*
X3711287D01*
X3686484Y217085D02*
X3711287D01*
X3686484Y216022D02*
X3711287D01*
X3686484Y214959D02*
X3711287D01*
X3686484Y213896D02*
X3711287D01*
X3686484Y212833D02*
X3711287D01*
X3686484Y211770D02*
X3711287D01*
X3686396Y210707D02*
X3711287D01*
X3685440Y209644D02*
X3711287D01*
X3671425Y208581D02*
X3711287D01*
X3671425Y207518D02*
X3711287D01*
X3671425Y206455D02*
X3711287D01*
X3671425Y205392D02*
X3711287D01*
X3671371Y204329D02*
X3711287D01*
X3670600Y203266D02*
X3711287D01*
X3665028Y202203D02*
X3711287D01*
X3665028Y201140D02*
X3711287D01*
X3664754Y200077D02*
X3711287D01*
X3645968Y199014D02*
X3711287D01*
X3664503Y197951D02*
X3711287D01*
X3665017Y196888D02*
X3711287D01*
X3665028Y195825D02*
X3711287D01*
X3665028Y194762D02*
X3711287D01*
X3664701Y193699D02*
X3711287D01*
X3638918Y192636D02*
X3711287D01*
X3637855Y191573D02*
X3711287D01*
X3636792Y190510D02*
X3711287D01*
X3663062Y189448D02*
X3711287D01*
X3710937Y188385D02*
X3711287D01*
X3653568Y305314D02*
X3688351D01*
X3652668Y304251D02*
X3686575D01*
X3671348Y276613D02*
X3686553D01*
X3672235Y277676D02*
X3685922D01*
X3672311Y289369D02*
X3685894D01*
X3672311Y288306D02*
X3685894D01*
X3672311Y287243D02*
X3685894D01*
X3672311Y286180D02*
X3685894D01*
X3672311Y285117D02*
X3685894D01*
X3672311Y284054D02*
X3685894D01*
X3672311Y282991D02*
X3685894D01*
X3672311Y281928D02*
X3685894D01*
X3672311Y280865D02*
X3685894D01*
X3672311Y279802D02*
X3685894D01*
X3672311Y278739D02*
X3685894D01*
X3651108Y303188D02*
X3685738D01*
X3595933Y302125D02*
X3685288D01*
X3595933Y299999D02*
X3685179D01*
X3595933Y301062D02*
X3685112D01*
X3672107Y290432D02*
X3683348D01*
X3595933Y292558D02*
X3683098D01*
X3650003Y291495D02*
X3683098D01*
X3595933Y293621D02*
X3680694D01*
X3678353Y209644D02*
X3680048D01*
X3595933Y298936D02*
X3680041D01*
X3595933Y294684D02*
X3679657D01*
X3595933Y297873D02*
X3679562D01*
X3595933Y296810D02*
X3679555D01*
X3595933Y295747D02*
X3679555D01*
X3671153Y209644D02*
X3672962D01*
X3665320Y223463D02*
X3672101D01*
X3665385Y210707D02*
X3672006D01*
X3665421Y222400D02*
X3671917D01*
X3665421Y221337D02*
X3671917D01*
X3665421Y220274D02*
X3671917D01*
X3665421Y219211D02*
X3671917D01*
X3665421Y218148D02*
X3671917D01*
X3665421Y217085D02*
X3671917D01*
X3665421Y216022D02*
X3671917D01*
X3665421Y214959D02*
X3671917D01*
X3665421Y213896D02*
X3671917D01*
X3665421Y212833D02*
X3671917D01*
X3665421Y211770D02*
X3671917D01*
X3664262Y276613D02*
X3665793D01*
X3665020Y290432D02*
X3665035D01*
X3650588Y276613D02*
X3658707D01*
X3657202Y224526D02*
X3658679D01*
X3644905Y200077D02*
X3658215D01*
X3649341Y203266D02*
X3657962D01*
X3651133Y290432D02*
X3657948D01*
X3643768Y202203D02*
X3657941D01*
X3643768Y201140D02*
X3657941D01*
X3650111Y204329D02*
X3657897D01*
X3650165Y205392D02*
X3657842D01*
X3651220Y277676D02*
X3657820D01*
X3650165Y206455D02*
X3657754D01*
X3651248Y289369D02*
X3657744D01*
X3651248Y288306D02*
X3657744D01*
X3651248Y287243D02*
X3657744D01*
X3651248Y286180D02*
X3657744D01*
X3651248Y285117D02*
X3657744D01*
X3651248Y284054D02*
X3657744D01*
X3651248Y282991D02*
X3657744D01*
X3651248Y281928D02*
X3657744D01*
X3651248Y280865D02*
X3657744D01*
X3651248Y279802D02*
X3657744D01*
X3651248Y278739D02*
X3657744D01*
X3657624Y209644D02*
X3657744D01*
X3650165Y208581D02*
X3657744D01*
X3650165Y207518D02*
X3657744D01*
X3656173Y189448D02*
X3657347D01*
X3656741Y188385D02*
X3656778D01*
X3650116Y224526D02*
X3651593D01*
X3650538Y209644D02*
X3651171D01*
X3633367Y189448D02*
X3645545D01*
X3642916Y291495D02*
X3644619D01*
X3643029Y224526D02*
X3644506D01*
X3643441Y193699D02*
X3644494D01*
X3632304Y188385D02*
X3644378D01*
X3643502Y276613D02*
X3644034D01*
X3632290Y187322D02*
X3638314D01*
X3632834Y186259D02*
X3638103D01*
X3635830Y291495D02*
X3637532D01*
X3635943Y224526D02*
X3637420D01*
X3632928Y185196D02*
X3637040D01*
X3636415Y276613D02*
X3636947D01*
X3632619Y184133D02*
X3635977D01*
X3631704Y183070D02*
X3634914D01*
X3629862Y182007D02*
X3633851D01*
X3628754Y180944D02*
X3632788D01*
X3627674Y179881D02*
X3631725D01*
X3626594Y178818D02*
X3630662D01*
X3628743Y291495D02*
X3630446D01*
X3628856Y224526D02*
X3630333D01*
X3629328Y276613D02*
X3629860D01*
X3625514Y177755D02*
X3629599D01*
X3625830Y176692D02*
X3628536D01*
X3627212Y175629D02*
X3627473D01*
X3621657Y291495D02*
X3623359D01*
X3621769Y224526D02*
X3623246D01*
X3622242Y276613D02*
X3622774D01*
X3614570Y291495D02*
X3616273D01*
X3614683Y224526D02*
X3616160D01*
X3615155Y276613D02*
X3615687D01*
X3595933Y303188D02*
X3614380D01*
X3595933Y304251D02*
X3612820D01*
X3595933Y305314D02*
X3611920D01*
X3595933Y306377D02*
X3611354D01*
X3607483Y291495D02*
X3609186D01*
X3607596Y224526D02*
X3609073D01*
X3608069Y276613D02*
X3608601D01*
X3595933Y291495D02*
X3602099D01*
X3590421Y224526D02*
X3601986D01*
X3590421Y276613D02*
X3601514D01*
X3595933Y290432D02*
X3600970D01*
X3590421Y223463D02*
X3600955D01*
X3590421Y277676D02*
X3600883D01*
X3595933Y289369D02*
X3600854D01*
X3595933Y288306D02*
X3600854D01*
X3595933Y287243D02*
X3600854D01*
X3595704Y286180D02*
X3600854D01*
X3594641Y285117D02*
X3600854D01*
X3593578Y284054D02*
X3600854D01*
X3592515Y282991D02*
X3600854D01*
X3591452Y281928D02*
X3600854D01*
X3590421Y280865D02*
X3600854D01*
X3590421Y279802D02*
X3600854D01*
X3590421Y278739D02*
X3600854D01*
X3590421Y222400D02*
X3600854D01*
X3590421Y221337D02*
X3600854D01*
X3590421Y220274D02*
X3600854D01*
X3590785Y219211D02*
X3600854D01*
X3591848Y218148D02*
X3600854D01*
X3592911Y217085D02*
X3600692D01*
X3593974Y216022D02*
X3600657D01*
X3595037Y214959D02*
X3600657D01*
X3595939Y213896D02*
X3600657D01*
X3595873Y212833D02*
X3600657D01*
X3595806Y211770D02*
X3600657D01*
X3617379Y159684D02*
X3629988D01*
X3628593Y150117D02*
X3629021D01*
X3634509Y170314D02*
X3634516D01*
X3633446Y169251D02*
X3634516D01*
X3632383Y168188D02*
X3634516D01*
X3640067Y146928D02*
X3651839D01*
X3640067Y145865D02*
X3651839D01*
X3640067Y144802D02*
X3651839D01*
X3639793Y143739D02*
X3651839D01*
X3634752Y142676D02*
X3651839D01*
X3634752Y141613D02*
X3651839D01*
X3634567Y140550D02*
X3651839D01*
X3619124Y139487D02*
X3651839D01*
X3619161Y138424D02*
X3651839D01*
X3619161Y137361D02*
X3651839D01*
X3619161Y136298D02*
X3651839D01*
X3619161Y135235D02*
X3651839D01*
X3619880Y134172D02*
X3651839D01*
X3620943Y133109D02*
X3651839D01*
X3622006Y132046D02*
X3651839D01*
X3623069Y130983D02*
X3651839D01*
X3624132Y129920D02*
X3651839D01*
X3625195Y128857D02*
X3651839D01*
X3626258Y127794D02*
X3651839D01*
X3627321Y126731D02*
X3651839D01*
X3628384Y125668D02*
X3651839D01*
X3629447Y124605D02*
X3651839D01*
X3630510Y123542D02*
X3651839D01*
X3631573Y122479D02*
X3651839D01*
X3632636Y121416D02*
X3651839D01*
X3633699Y120353D02*
X3651839D01*
X3634762Y119290D02*
X3651839D01*
X3635824Y118227D02*
X3651839D01*
X3636887Y117164D02*
X3651839D01*
X3637950Y116101D02*
X3651839D01*
X3639013Y115038D02*
X3651839D01*
X3640076Y113975D02*
X3651839D01*
X3641139Y112912D02*
X3651839D01*
X3642202Y111849D02*
X3651839D01*
X3643265Y110786D02*
X3651839D01*
X3644220Y109723D02*
X3651839D01*
X3644998Y108660D02*
X3651839D01*
X3646061Y107597D02*
X3651839D01*
X3640051Y147991D02*
X3645090D01*
X3640067Y149054D02*
X3644014D01*
X3640067Y150117D02*
X3642937D01*
X3639992Y151180D02*
X3641861D01*
X3639109Y152243D02*
X3639612D01*
X3636386Y153306D02*
X3639339D01*
X3636386Y154369D02*
X3638631D01*
X3636292Y155432D02*
X3637554D01*
X3635302Y156495D02*
X3636478D01*
X3633685Y157558D02*
X3635401D01*
X3619124Y140550D02*
X3625410D01*
X3619124Y141613D02*
X3625224D01*
X3619124Y142676D02*
X3624759D01*
X3619124Y143739D02*
X3622023D01*
X3619124Y144802D02*
X3621278D01*
X3619124Y145865D02*
X3621228D01*
X3619091Y146928D02*
X3620901D01*
X3618621Y147991D02*
X3619838D01*
X3617516Y149054D02*
X3618775D01*
X3617361Y150117D02*
X3617712D01*
X3688319Y137361D02*
X3711287D01*
X3687256Y136298D02*
X3711287D01*
X3686193Y135235D02*
X3711287D01*
X3685130Y134172D02*
X3711287D01*
X3684067Y133109D02*
X3711287D01*
X3683004Y132046D02*
X3711287D01*
X3681941Y130983D02*
X3711287D01*
X3680878Y129920D02*
X3711287D01*
X3680579Y128857D02*
X3711287D01*
X3680579Y127794D02*
X3711287D01*
X3680579Y126731D02*
X3711287D01*
X3680573Y125668D02*
X3711287D01*
X3680238Y124605D02*
X3711287D01*
X3678816Y123542D02*
X3711287D01*
X3658532Y122479D02*
X3711287D01*
X3658532Y121416D02*
X3711287D01*
X3658532Y120353D02*
X3711287D01*
X3658532Y119290D02*
X3711287D01*
X3658532Y118227D02*
X3711287D01*
X3658532Y117164D02*
X3711287D01*
X3658532Y116101D02*
X3711287D01*
X3658532Y115038D02*
X3711287D01*
X3707795Y113975D02*
X3711287D01*
X3709394Y112912D02*
X3711287D01*
X3710476Y111849D02*
X3711287D01*
X3711263Y110786D02*
X3711287D01*
X3710573Y100156D02*
X3711287D01*
X3709531Y99093D02*
X3711287D01*
X3708009Y98030D02*
X3711287D01*
X3704792Y96967D02*
X3711287D01*
X3691406Y95904D02*
X3711287D01*
X3691406Y94841D02*
X3711287D01*
X3691132Y93778D02*
X3702954D01*
X3631334Y92715D02*
X3702440D01*
X3630271Y91652D02*
X3702429D01*
X3691406Y96967D02*
X3702428D01*
X3658532Y113975D02*
X3699426D01*
X3691406Y98030D02*
X3699211D01*
X3658532Y112912D02*
X3697826D01*
X3691352Y99093D02*
X3697690D01*
X3658532Y111849D02*
X3696745D01*
X3691956Y100156D02*
X3696647D01*
X3658532Y110786D02*
X3695958D01*
X3691996Y101219D02*
X3695886D01*
X3658532Y109723D02*
X3695381D01*
X3691996Y102282D02*
X3695329D01*
X3658532Y108660D02*
X3694972D01*
X3691996Y103345D02*
X3694936D01*
X3690497Y107597D02*
X3694707D01*
X3691996Y104408D02*
X3694686D01*
X3691857Y106534D02*
X3694574D01*
X3691996Y105471D02*
X3694567D01*
X3687368Y90589D02*
X3693938D01*
X3687665Y89526D02*
X3693055D01*
X3687665Y88463D02*
X3692980D01*
X3687665Y87400D02*
X3692980D01*
X3687665Y86337D02*
X3692980D01*
X3692951Y85274D02*
X3692980D01*
X3687665D02*
X3689073D01*
X3683607Y107597D02*
X3686606D01*
X3683651Y93778D02*
X3685774D01*
X3684369Y99093D02*
X3685553D01*
X3683925Y98030D02*
X3685500D01*
X3683925Y96967D02*
X3685500D01*
X3683925Y95904D02*
X3685500D01*
X3683925Y94841D02*
X3685500D01*
X3684967Y106534D02*
X3685245D01*
X3685066Y100156D02*
X3685146D01*
X3677980Y90589D02*
X3682058D01*
X3678217Y89526D02*
X3681760D01*
X3678217Y88463D02*
X3681760D01*
X3678217Y87400D02*
X3681760D01*
X3678217Y86337D02*
X3681760D01*
X3658532Y107597D02*
X3679716D01*
X3632397Y93778D02*
X3678293D01*
X3637712Y99093D02*
X3678020D01*
X3636649Y98030D02*
X3678020D01*
X3635586Y96967D02*
X3678020D01*
X3634523Y95904D02*
X3678020D01*
X3633460Y94841D02*
X3678020D01*
X3629208Y90589D02*
X3670973D01*
X3623893Y85274D02*
X3670876D01*
X3628145Y89526D02*
X3670736D01*
X3627082Y88463D02*
X3670736D01*
X3626019Y87400D02*
X3670736D01*
X3624956Y86337D02*
X3670736D01*
X3622710Y84211D02*
X3663581D01*
X3602855Y83148D02*
X3661956D01*
X3601792Y82085D02*
X3660893D01*
X3600729Y81022D02*
X3659830D01*
X3658532Y123542D02*
X3659113D01*
X3599666Y79959D02*
X3658767D01*
X3598603Y78896D02*
X3657704D01*
X3597354Y77833D02*
X3656641D01*
X3595067Y76770D02*
X3655578D01*
X3595889Y75707D02*
X3654515D01*
X3595953Y74644D02*
X3653452D01*
X3595953Y73581D02*
X3652389D01*
X3595953Y72518D02*
X3651326D01*
X3595953Y71455D02*
X3650263D01*
X3595953Y70392D02*
X3649200D01*
X3595953Y69329D02*
X3648137D01*
X3595953Y68266D02*
X3647074D01*
X3595946Y67203D02*
X3646011D01*
X3595464Y66140D02*
X3644948D01*
X3638775Y100156D02*
X3644322D01*
X3639838Y101219D02*
X3642973D01*
X3640901Y102282D02*
X3641910D01*
X3605776Y107597D02*
X3636750D01*
X3606517Y108660D02*
X3635926D01*
X3605776Y106534D02*
X3635687D01*
X3607349Y109723D02*
X3634863D01*
X3605776Y105471D02*
X3634624D01*
X3607547Y110786D02*
X3633800D01*
X3605776Y104408D02*
X3633561D01*
X3607547Y111849D02*
X3632737D01*
X3605776Y103345D02*
X3632498D01*
X3613358Y112912D02*
X3631674D01*
X3605776Y102282D02*
X3631435D01*
X3613875Y113975D02*
X3630611D01*
X3605776Y101219D02*
X3630372D01*
X3613886Y115038D02*
X3629548D01*
X3605776Y100156D02*
X3629309D01*
X3613886Y116101D02*
X3628485D01*
X3605776Y99093D02*
X3628246D01*
X3617610Y117164D02*
X3627422D01*
X3605776Y98030D02*
X3627183D01*
X3617980Y118227D02*
X3626359D01*
X3605776Y96967D02*
X3626120D01*
X3617980Y119290D02*
X3625296D01*
X3605776Y95904D02*
X3625057D01*
X3617980Y120353D02*
X3624233D01*
X3605776Y94841D02*
X3623994D01*
X3618387Y121416D02*
X3623170D01*
X3605776Y93778D02*
X3622931D01*
X3619450Y122479D02*
X3622107D01*
X3605776Y92715D02*
X3621868D01*
X3620513Y123542D02*
X3621044D01*
X3605776Y91652D02*
X3620805D01*
X3605776Y90589D02*
X3619742D01*
X3603918Y84211D02*
X3619156D01*
X3605776Y89526D02*
X3618679D01*
X3604981Y85274D02*
X3618095D01*
X3605776Y88463D02*
X3617901D01*
X3605666Y86337D02*
X3617663D01*
X3605776Y87400D02*
X3617605D01*
X3585257Y76770D02*
X3588571D01*
X3585464Y66140D02*
X3588174D01*
X3585889Y75707D02*
X3587749D01*
X3585946Y67203D02*
X3587692D01*
X3585953Y74644D02*
X3587685D01*
X3585953Y73581D02*
X3587685D01*
X3585953Y72518D02*
X3587685D01*
X3585953Y71455D02*
X3587685D01*
X3585953Y70392D02*
X3587685D01*
X3585953Y69329D02*
X3587685D01*
X3585953Y68266D02*
X3587685D01*
X3687665Y76770D02*
X3692980D01*
X3687665Y75707D02*
X3692980D01*
X3687665Y77833D02*
X3688776D01*
X3701957Y76770D02*
X3702545D01*
X3701957Y75707D02*
X3702450D01*
X3701957Y81022D02*
X3702429D01*
X3701954Y79959D02*
X3702429D01*
X3701957Y78896D02*
X3702429D01*
X3701938Y77833D02*
X3702429D01*
X3701957Y74644D02*
X3702429D01*
X3701957Y73581D02*
X3702429D01*
X3701925Y72518D02*
X3702429D01*
X3701957Y71455D02*
X3702429D01*
X3679513Y57636D02*
X3711287D01*
X3678717Y56573D02*
X3711287D01*
X3677731Y55510D02*
X3711287D01*
X3680158Y58699D02*
X3703473D01*
X3680675Y59762D02*
X3702517D01*
X3681388Y61888D02*
X3702429D01*
X3681082Y60825D02*
X3702429D01*
X3681600Y62951D02*
X3693207D01*
X3681710Y66140D02*
X3692980D01*
X3681760Y65077D02*
X3692980D01*
X3681723Y64014D02*
X3692980D01*
X3681575Y67203D02*
X3681904D01*
X3674521Y76770D02*
X3681760D01*
X3676272Y75707D02*
X3681760D01*
X3677567Y74644D02*
X3681760D01*
X3678586Y73581D02*
X3681563D01*
X3679407Y72518D02*
X3681563D01*
X3680072Y71455D02*
X3681563D01*
X3680607Y70392D02*
X3681563D01*
X3681029Y69329D02*
X3681563D01*
X3681349Y68266D02*
X3681563D01*
X3671613Y77833D02*
X3673944D01*
X3664436D02*
X3665529D01*
X3767126Y75394D02*
X3960039D01*
Y39961*
X3767126*
Y75394*
Y63583D02*
X3960039D01*
X3767126Y51772D02*
X3960039D01*
G54D77*
X3678413Y161457D03*
G54D97*
X3488404Y58953D02*
X3488269Y59322D01*
X3488001Y59691*
X3487732Y59876*
X3487196*
X3486927Y59691*
X3486659Y59322*
X3486525Y58953*
X3486390Y58399*
Y57477*
X3486525Y56923*
X3486659Y56554*
X3486927Y56185*
X3487196Y56000*
X3487732*
X3488001Y56185*
X3488269Y56554*
X3488404Y56923*
Y57477*
X3487732D02*
X3488404D01*
X3489611Y58584D02*
Y56000D01*
Y57477D02*
X3489746Y58030D01*
X3490014Y58399*
X3490283Y58584*
X3490685*
X3491893Y57477D02*
X3493504D01*
Y57846*
X3493370Y58215*
X3493235Y58399*
X3492967Y58584*
X3492564*
X3492296Y58399*
X3492027Y58030*
X3491893Y57477*
Y57108*
X3492027Y56554*
X3492296Y56185*
X3492564Y56000*
X3492967*
X3493235Y56185*
X3493504Y56554*
X3494712Y57477D02*
X3496322D01*
Y57846*
X3496188Y58215*
X3496054Y58399*
X3495785Y58584*
X3495383*
X3495114Y58399*
X3494846Y58030*
X3494712Y57477*
Y57108*
X3494846Y56554*
X3495114Y56185*
X3495383Y56000*
X3495785*
X3496054Y56185*
X3496322Y56554*
X3497530Y58584D02*
Y56000D01*
Y57846D02*
X3497933Y58399D01*
X3498201Y58584*
X3498604*
X3498872Y58399*
X3499007Y57846*
Y56000*
X3500215Y59876D02*
Y56000D01*
Y59876D02*
X3501288Y56000D01*
X3502362Y59876D02*
X3501288Y56000D01*
X3502362Y59876D02*
Y56000D01*
X3503570Y57477D02*
X3505181D01*
Y57846*
X3505046Y58215*
X3504912Y58399*
X3504644Y58584*
X3504241*
X3503973Y58399*
X3503704Y58030*
X3503570Y57477*
Y57108*
X3503704Y56554*
X3503973Y56185*
X3504241Y56000*
X3504644*
X3504912Y56185*
X3505181Y56554*
X3509475Y59876D02*
X3510549Y56000D01*
X3511623Y59876D02*
X3510549Y56000D01*
X3513636Y59876D02*
X3513234Y59691D01*
X3512965Y59138*
X3512831Y58215*
Y57661*
X3512965Y56738*
X3513234Y56185*
X3513636Y56000*
X3513905*
X3514307Y56185*
X3514576Y56738*
X3514710Y57661*
Y58215*
X3514576Y59138*
X3514307Y59691*
X3513905Y59876*
X3513636*
X3517260D02*
X3515918Y57292D01*
X3517931*
X3517260Y59876D02*
Y56000D01*
X3771063Y60162D02*
X3772495Y54995D01*
X3773926Y60162D02*
X3772495Y54995D01*
X3777684Y58440D02*
Y54995D01*
Y57702D02*
X3777326Y58194D01*
X3776969Y58440*
X3776432*
X3776074Y58194*
X3775716Y57702*
X3775537Y56964*
Y56471*
X3775716Y55733*
X3776074Y55241*
X3776432Y54995*
X3776969*
X3777326Y55241*
X3777684Y55733*
X3779295Y60162D02*
Y54995D01*
X3780906Y60162D02*
X3781084Y59916D01*
X3781263Y60162*
X3781084Y60408*
X3780906Y60162*
X3781084Y58440D02*
Y54995D01*
X3785021Y60162D02*
Y54995D01*
Y57702D02*
X3784664Y58194D01*
X3784306Y58440*
X3783769*
X3783411Y58194*
X3783053Y57702*
X3782874Y56964*
Y56471*
X3783053Y55733*
X3783411Y55241*
X3783769Y54995*
X3784306*
X3784664Y55241*
X3785021Y55733*
X3788780Y58440D02*
Y54995D01*
Y57702D02*
X3788422Y58194D01*
X3788064Y58440*
X3787527*
X3787169Y58194*
X3786811Y57702*
X3786632Y56964*
Y56471*
X3786811Y55733*
X3787169Y55241*
X3787527Y54995*
X3788064*
X3788422Y55241*
X3788780Y55733*
X3790927Y60162D02*
Y55979D01*
X3791106Y55241*
X3791464Y54995*
X3791822*
X3790390Y58440D02*
X3791643D01*
X3793432Y60162D02*
X3793611Y59916D01*
X3793790Y60162*
X3793611Y60408*
X3793432Y60162*
X3793611Y58440D02*
Y54995D01*
X3796296Y58440D02*
X3795938Y58194D01*
X3795580Y57702*
X3795401Y56964*
Y56471*
X3795580Y55733*
X3795938Y55241*
X3796296Y54995*
X3796832*
X3796832D02*
X3797190Y55241D01*
X3797548Y55733*
X3797727Y56471*
Y56964*
X3797548Y57702*
X3797190Y58194*
X3796832Y58440*
X3796832D02*
X3796296D01*
X3799338D02*
Y54995D01*
Y57456D02*
X3799875Y58194D01*
X3800233Y58440*
X3800770*
X3801127Y58194*
X3801306Y57456*
Y54995*
X3807212Y58440D02*
X3807033Y58194D01*
X3807212Y57948*
X3807391Y58194*
X3807212Y58440*
Y55487D02*
X3807033Y55241D01*
X3807212Y54995*
X3807391Y55241*
X3807212Y55487*
X3771063Y71973D02*
Y66806D01*
Y71973D02*
X3772316D01*
X3772853Y71727*
X3773210Y71235*
X3773389Y70743*
X3773568Y70005*
Y68775*
X3773389Y68036*
X3773210Y67544*
X3772853Y67052*
X3772316Y66806*
X3771063*
X3775179Y68775D02*
X3777326D01*
Y69267*
X3777147Y69759*
X3776969Y70005*
X3776611Y70251*
X3776074*
X3775716Y70005*
X3775358Y69513*
X3775179Y68775*
Y68282*
X3775358Y67544*
X3775716Y67052*
X3776074Y66806*
X3776611*
X3776969Y67052*
X3777326Y67544*
X3775537Y70743D02*
X3776969Y71481D01*
X3780727Y69513D02*
X3780548Y70005D01*
X3780011Y70251*
X3779474*
X3778937Y70005*
X3778758Y69513*
X3778937Y69021*
X3779295Y68775*
X3780190Y68529*
X3780548Y68282*
X3780727Y67790*
Y67544*
X3780548Y67052*
X3780011Y66806*
X3779474*
X3778937Y67052*
X3778758Y67544*
X3782337Y71973D02*
X3782516Y71727D01*
X3782695Y71973*
X3782516Y72219*
X3782337Y71973*
X3782516Y70251D02*
Y66806D01*
X3786453Y70251D02*
Y66314D01*
X3786274Y65576*
X3786095Y65330*
X3785737Y65084*
X3785200*
X3784843Y65330*
X3786453Y69513D02*
X3786095Y70005D01*
X3785737Y70251*
X3785200*
X3784843Y70005*
X3784485Y69513*
X3784306Y68775*
Y68282*
X3784485Y67544*
X3784843Y67052*
X3785200Y66806*
X3785737*
X3786095Y67052*
X3786453Y67544*
X3788064Y70251D02*
Y66806D01*
Y69267D02*
X3788601Y70005D01*
X3788958Y70251*
X3789495*
X3789853Y70005*
X3790032Y69267*
Y66806*
X3793790Y70251D02*
Y66806D01*
Y69513D02*
X3793432Y70005D01*
X3793074Y70251*
X3792538*
X3792180Y70005*
X3791822Y69513*
X3791643Y68775*
Y68282*
X3791822Y67544*
X3792180Y67052*
X3792538Y66806*
X3793074*
X3793432Y67052*
X3793790Y67544*
X3795938Y71973D02*
Y67790D01*
X3796117Y67052*
X3796475Y66806*
X3796832*
X3795401Y70251D02*
X3796654D01*
X3798443Y71973D02*
X3798622Y71727D01*
X3798801Y71973*
X3798622Y72219*
X3798443Y71973*
X3798622Y70251D02*
Y66806D01*
X3801306Y70251D02*
X3800948Y70005D01*
X3800591Y69513*
X3800412Y68775*
Y68282*
X3800591Y67544*
X3800948Y67052*
X3801306Y66806*
X3801843*
X3802201Y67052*
X3802559Y67544*
X3802738Y68282*
Y68775*
X3802559Y69513*
X3802201Y70005*
X3801843Y70251*
X3801306*
X3804349D02*
Y66806D01*
Y69267D02*
X3804885Y70005D01*
X3805243Y70251*
X3805780*
X3806138Y70005*
X3806317Y69267*
Y66806*
X3812223Y70251D02*
X3812044Y70005D01*
X3812223Y69759*
X3812402Y70005*
X3812223Y70251*
Y67298D02*
X3812044Y67052D01*
X3812223Y66806*
X3812402Y67052*
X3812223Y67298*
X3822244Y60162D02*
Y54995D01*
Y60162D02*
X3823855D01*
X3824392Y59916*
X3824571Y59670*
X3824749Y59178*
Y58686*
X3824571Y58194*
X3824392Y57948*
X3823855Y57702*
X3822244D02*
X3823855D01*
X3824392Y57456*
X3824571Y57210*
X3824749Y56718*
Y55979*
X3824571Y55487*
X3824392Y55241*
X3823855Y54995*
X3822244*
X3826539Y55487D02*
X3826360Y55241D01*
X3826539Y54995*
X3826718Y55241*
X3826539Y55487*
X3835129Y58932D02*
X3834950Y59424D01*
X3834592Y59916*
X3834234Y60162*
X3833518*
X3833160Y59916*
X3832802Y59424*
X3832623Y58932*
X3832445Y58194*
Y56964*
X3832623Y56225*
X3832802Y55733*
X3833160Y55241*
X3833518Y54995*
X3834234*
X3834592Y55241*
X3834950Y55733*
X3835129Y56225*
X3836739Y60162D02*
Y54995D01*
Y57456D02*
X3837276Y58194D01*
X3837634Y58440*
X3838171*
X3838529Y58194*
X3838708Y57456*
Y54995*
X3840319Y60162D02*
X3840497Y59916D01*
X3840676Y60162*
X3840497Y60408*
X3840319Y60162*
X3840497Y58440D02*
Y54995D01*
X3842287Y58440D02*
Y54995D01*
Y56964D02*
X3842466Y57702D01*
X3842824Y58194*
X3843182Y58440*
X3843719*
X3846224D02*
X3845866Y58194D01*
X3845508Y57702*
X3845329Y56964*
Y56471*
X3845508Y55733*
X3845866Y55241*
X3846224Y54995*
X3846761*
X3847119Y55241*
X3847477Y55733*
X3847656Y56471*
Y56964*
X3847477Y57702*
X3847119Y58194*
X3846761Y58440*
X3846224*
X3849266D02*
Y54995D01*
Y57456D02*
X3849803Y58194D01*
X3850161Y58440*
X3850698*
X3851056Y58194*
X3851235Y57456*
Y54995*
X3862151Y60162D02*
X3861614Y59916D01*
X3861256Y59178*
X3861077Y57948*
Y57210*
X3861256Y55979*
X3861614Y55241*
X3862151Y54995*
X3862509*
X3863046Y55241*
X3863404Y55979*
X3863583Y57210*
Y57948*
X3863404Y59178*
X3863046Y59916*
X3862509Y60162*
X3862151*
X3865551D02*
X3867520D01*
X3866446Y58194*
X3866983*
X3867341Y57948*
X3867520Y57702*
X3867699Y56964*
Y56471*
X3867520Y55733*
X3867162Y55241*
X3866625Y54995*
X3866088*
X3865551Y55241*
X3865372Y55487*
X3865193Y55979*
X3872530Y61147D02*
X3869309Y53273D01*
X3875215Y60162D02*
X3874678Y59916D01*
X3874320Y59178*
X3874141Y57948*
Y57210*
X3874320Y55979*
X3874678Y55241*
X3875215Y54995*
X3875573*
X3876110Y55241*
X3876467Y55979*
X3876646Y57210*
Y57948*
X3876467Y59178*
X3876110Y59916*
X3875573Y60162*
X3875215*
X3878615D02*
X3880583D01*
X3879510Y58194*
X3880047*
X3880404Y57948*
X3880583Y57702*
X3880762Y56964*
Y56471*
X3880583Y55733*
X3880225Y55241*
X3879689Y54995*
X3879152*
X3878615Y55241*
X3878436Y55487*
X3878257Y55979*
X3885594Y61147D02*
X3882373Y53273D01*
X3887384Y58932D02*
Y59178D01*
X3887563Y59670*
X3887742Y59916*
X3888099Y60162*
X3888099D02*
X3888815D01*
X3889173Y59916*
X3889352Y59670*
X3889531Y59178*
Y58686*
X3889352Y58194*
X3888994Y57456*
X3887205Y54995*
X3889710*
X3892394Y60162D02*
X3891858Y59916D01*
X3891500Y59178*
X3891321Y57948*
Y57210*
X3891500Y55979*
X3891858Y55241*
X3892394Y54995*
X3892752*
X3893289Y55241*
X3893647Y55979*
X3893826Y57210*
Y57948*
X3893647Y59178*
X3893289Y59916*
X3892752Y60162*
X3892394*
X3895437Y59178D02*
X3895795Y59424D01*
X3896331Y60162*
Y54995*
X3900089Y59424D02*
X3899911Y59916D01*
X3899374Y60162*
X3899016*
X3898479Y59916*
X3898121Y59178*
X3897942Y57948*
Y56718*
X3898121Y55733*
X3898479Y55241*
X3899016Y54995*
X3899195*
X3899732Y55241*
X3900089Y55733*
X3900268Y56471*
Y56718*
X3900089Y57456*
X3899732Y57948*
X3899195Y58194*
X3899016*
X3898479Y57948*
X3898121Y57456*
X3897942Y56718*
X3824928Y70743D02*
X3824749Y71235D01*
X3824392Y71727*
X3824034Y71973*
X3823318*
X3822960Y71727*
X3822602Y71235*
X3822423Y70743*
X3822244Y70005*
Y68775*
X3822423Y68036*
X3822602Y67544*
X3822960Y67052*
X3823318Y66806*
X3824034*
X3824392Y67052*
X3824749Y67544*
X3824928Y68036*
X3826539Y70251D02*
Y67790D01*
X3826718Y67052*
X3827076Y66806*
X3827613*
X3827971Y67052*
X3828508Y67790*
Y70251D02*
Y66806D01*
X3830118Y71973D02*
Y66806D01*
Y69513D02*
X3830476Y70005D01*
X3830834Y70251*
X3831371*
X3831729Y70005*
X3832087Y69513*
X3832266Y68775*
Y68282*
X3832087Y67544*
X3831729Y67052*
X3831371Y66806*
X3830834*
X3830476Y67052*
X3830118Y67544*
X3833876Y68775D02*
X3836024D01*
Y69267*
X3835845Y69759*
X3835666Y70005*
X3835308Y70251*
X3834771*
X3834413Y70005*
X3834055Y69513*
X3833876Y68775*
Y68282*
X3834055Y67544*
X3834413Y67052*
X3834771Y66806*
X3835308*
X3835666Y67052*
X3836024Y67544*
X3841750Y71973D02*
X3843182Y66806D01*
X3844613Y71973D02*
X3843182Y66806D01*
X3847298Y71973D02*
X3846761Y71727D01*
X3846403Y70989*
X3846224Y69759*
Y69021*
X3846403Y67790*
X3846761Y67052*
X3847298Y66806*
X3847656*
X3848193Y67052*
X3848550Y67790*
X3848729Y69021*
Y69759*
X3848550Y70989*
X3848193Y71727*
X3847656Y71973*
X3847298*
X3852130D02*
X3850340Y68529D01*
X3853024*
X3852130Y71973D02*
Y66806D01*
X3771142Y48351D02*
Y43184D01*
X3773289*
X3776331Y48351D02*
X3774900Y43184D01*
X3776331Y48351D02*
X3777763Y43184D01*
X3775437Y44906D02*
X3777226D01*
X3779374Y48351D02*
X3780805Y45891D01*
Y43184*
X3782237Y48351D02*
X3780805Y45891D01*
X3783848Y48351D02*
Y43184D01*
Y48351D02*
X3786174D01*
X3783848Y45891D02*
X3785279D01*
X3783848Y43184D02*
X3786174D01*
X3787785Y48351D02*
Y43184D01*
Y48351D02*
X3789395D01*
X3789932Y48105*
X3790111Y47859*
X3790290Y47367*
Y46875*
X3790111Y46383*
X3789932Y46137*
X3789395Y45891*
X3787785*
X3789037D02*
X3790290Y43184D01*
X3796016Y47367D02*
X3796374Y47613D01*
X3796911Y48351*
Y43184*
X3802817Y46629D02*
X3802638Y46383D01*
X3802817Y46137*
X3802996Y46383*
X3802817Y46629*
Y43676D02*
X3802638Y43430D01*
X3802817Y43184*
X3802996Y43430*
X3802817Y43676*
X3809975Y48351D02*
Y43184D01*
X3808722Y48351D02*
X3811228D01*
X3813912D02*
X3813554Y48105D01*
X3813196Y47613*
X3813017Y47121*
X3812838Y46383*
Y45153*
X3813017Y44414*
X3813196Y43922*
X3813554Y43430*
X3813912Y43184*
X3814628*
X3814986Y43430*
X3815344Y43922*
X3815523Y44414*
X3815702Y45153*
Y46383*
X3815523Y47121*
X3815344Y47613*
X3814986Y48105*
X3814628Y48351*
X3813912*
X3817312D02*
Y43184D01*
Y48351D02*
X3818923D01*
X3819460Y48105*
X3819639Y47859*
X3819817Y47367*
Y46629*
X3819639Y46137*
X3819460Y45891*
X3818923Y45645*
X3817312*
X3457547Y308701D02*
G03X3461484I1969J-0D01*
G01X3613059*
G03X3616996Y304764I3937J-0*
G01X3648492*
G03X3652429Y308701I0J3937*
G01X3713453*
Y52795*
X3652429*
G03X3648492Y56732I-3937J0*
G01X3616996*
G03X3613059Y52795I0J-3937*
G01X3461484*
Y100039*
G03X3457547I-1968J0*
G01Y308701*
X3500854Y301220D02*
G03X3492980I-3937J0D01*
G01X3500854D02*
Y289409D01*
X3492980D02*
G03X3500854I3937J0D01*
G01X3492980D02*
Y301220D01*
X3465028Y263425D02*
X3492980D01*
Y270512*
X3500854D02*
G03X3492980I-3937J-0D01*
G01X3500854D02*
Y263425D01*
X3514634*
Y255551D02*
G03Y263425I-0J3937D01*
G01Y255551D02*
X3465028D01*
Y263425D02*
G03Y255551I-0J-3937D01*
G01X3710500Y105945D02*
G03X3710500I-6890J0D01*
G01X3478217Y66575D02*
G03X3478217I-6890J0D01*
G01X3554004Y297480D02*
X3585500D01*
Y290591D02*
G03Y297480I0J3444D01*
G01Y290591D02*
X3554004D01*
Y297480D02*
G03Y290591I576J-3445D01*
G54D135*
G01X3466209Y282323D02*
X3475264D01*
G54D154*
X3571327Y66969D02*
X3571819D01*
Y71299*
X3571327Y66969D02*
X3575264Y63031D01*
X3645736*
X3664240Y81535*
X3674476*
X3586819Y94921D02*
Y103583D01*
X3590815*
X3638256Y158602D02*
X3641873Y154985D01*
X3653709Y171693D02*
X3649280D01*
X3646130Y174843*
X3643768Y161752D02*
X3650362D01*
X3690224Y172087D02*
Y172185D01*
X3695736Y177697*
X3699673*
X3689339Y159882D02*
Y165409D01*
X3689490Y165560*
X3689831Y166181*
X3678413D02*
Y166969D01*
X3683531Y172087*
X3683925*
X3678413Y164409D02*
Y166181D01*
X3683531*
X3678413Y169331D02*
Y166969D01*
X3671327Y172480D02*
Y174055D01*
X3671720Y176024*
X3671327Y170118D02*
Y171693D01*
Y164409D02*
Y169134D01*
X3678020Y176417D02*
Y171693D01*
X3678315Y169724*
X3568965Y200433D02*
Y183504D01*
X3604398Y188622D02*
Y196299D01*
X3577232Y194528D02*
Y187835D01*
X3580382Y189409D02*
X3586878D01*
X3576839Y198465D02*
X3577232Y198071D01*
Y194528*
X3580382Y182323D02*
X3584319D01*
X3633138Y206732D02*
Y202008D01*
X3640224Y206732D02*
Y202008D01*
X3510697Y245315D02*
X3530776D01*
X3549870Y224646D02*
X3566209Y208307D01*
X3543374Y268543D02*
Y239016D01*
Y231142*
X3549870Y224646*
X3539831Y266181D02*
Y236260D01*
Y229567*
X3568965Y200433*
X3539831Y266181D02*
Y295315D01*
X3549280Y304764*
X3543374Y268543D02*
Y292559D01*
X3551248Y300433*
X3554398*
X3686091Y296496D02*
X3686287Y296299D01*
X3689831*
X3686091Y292559D02*
X3686287Y292756D01*
X3689831*
X3682547Y296496D02*
Y292559D01*
Y284094*
X3689831Y292756D02*
Y283898D01*
Y300827D02*
Y296299D01*
G54D191*
X3616012Y134291D02*
Y133307D01*
X3598492Y155945D02*
Y159882D01*
X3604398Y165787*
Y167756*
X3598492Y155945D02*
X3616012Y138425D01*
Y138228*
X3580382Y171890D02*
X3582547D01*
X3598492Y155945*
X3579594Y171890D02*
X3580382D01*
X3572508Y174055D02*
X3574673Y171890D01*
X3579594*
X3616012Y138228D02*
Y134291D01*
X3509516Y213425D02*
X3535500D01*
X3561927Y184636D02*
X3564470Y182093D01*
X3535500Y213425D02*
Y211063D01*
X3547311Y199252*
Y198858*
X3547705D02*
X3561878Y184685D01*
X3564749Y181814D02*
X3574673Y171890D01*
X3535500Y213425D02*
Y224843D01*
Y264606*
X3532154Y224843D02*
X3535500D01*
X3475264Y270512D02*
X3485106D01*
X3492193Y277598*
X3523295*
X3535500Y265000*
G54D217*
G54D247*
X3611878Y195709D03*
Y202008D03*
X3661484Y195709D03*
Y202008D03*
X3640224Y195709D03*
Y202008D03*
X3633138Y195709D03*
Y202008D03*
G54D257*
X3606760Y134291D03*
X3613059D03*
X3467783Y294528D03*
X3474083D03*
X3676445Y127992D03*
X3670146D03*
X3518571Y232717D03*
X3524870D03*
X3486287Y198858D03*
X3479988D03*
X3485894Y162244D03*
X3479594D03*
X3671720Y181929D03*
X3678020D03*
X3683531Y166181D03*
X3689831D03*
X3683925Y172087D03*
X3690224D03*
X3685106Y146890D03*
X3678807D03*
X3671720Y176024D03*
X3678020D03*
X3640224Y206732D03*
X3646524D03*
X3604398Y207913D03*
X3598098D03*
X3661484Y206732D03*
X3667783D03*
X3633138D03*
X3626839D03*
X3611878D03*
X3618177D03*
X3572508Y103583D03*
X3566209D03*
X3684713Y81535D03*
X3691012D03*
X3555185Y107126D03*
X3548886D03*
X3556366Y247677D03*
X3562665D03*
G54D258*
X3580382Y176024D03*
Y182323D03*
X3666209Y162638D03*
Y156339D03*
X3518177Y226417D03*
Y220118D03*
X3644555Y174843D03*
Y168543D03*
X3638256Y174843D03*
Y168543D03*
X3662665Y140197D03*
Y133898D03*
X3674476Y81535D03*
Y87835D03*
G54D259*
X3684122Y185669D03*
Y178189D03*
X3693177Y181929D03*
G54D260*
X3689831Y296299D03*
Y292756D03*
X3682547Y292559D03*
X3686091D03*
Y296496D03*
X3682547D03*
X3607350Y115394D03*
X3610894D03*
X3590815Y103583D03*
X3594358D03*
X3628217Y142559D03*
X3631760D03*
X3637075Y149449D03*
Y145906D03*
G54D264*
X3604398Y196299D03*
Y202205D03*
G54D266*
X3697469Y71299D03*
Y73858D03*
Y76417D03*
Y78976D03*
Y81535D03*
G54D267*
X3698886Y86112D03*
Y66722D03*
G54D268*
X3707941Y87844D03*
Y64990D03*
G54D269*
Y79715D03*
Y73120D03*
G54D274*
X3546425Y129193D03*
Y124193D03*
Y119193D03*
Y114193D03*
X3564732D03*
Y119193D03*
Y124193D03*
Y129193D03*
G54D275*
X3612665Y147087D03*
Y149055D03*
Y151024D03*
Y152992D03*
Y154961D03*
Y156929D03*
Y158898D03*
Y160866D03*
Y162835D03*
Y164803D03*
Y166772D03*
Y168740D03*
X3579594D03*
Y166772D03*
Y164803D03*
Y162835D03*
Y160866D03*
Y158898D03*
Y156929D03*
Y154961D03*
Y152992D03*
Y151024D03*
Y149055D03*
Y147087D03*
G54D276*
X3606957Y174449D03*
X3604988D03*
X3603020D03*
X3601051D03*
X3599083D03*
X3597114D03*
X3595146D03*
X3593177D03*
X3591209D03*
X3589240D03*
X3587272D03*
X3585303D03*
Y141378D03*
X3587272D03*
X3589240D03*
X3591209D03*
X3593177D03*
X3595146D03*
X3597114D03*
X3599083D03*
X3601051D03*
X3603020D03*
X3604988D03*
X3606957D03*
G54D278*
X3596819Y94921D03*
X3591819Y71299D03*
X3586819Y94921D03*
X3581819Y71299D03*
X3576819Y94921D03*
X3571819Y71299D03*
G54D282*
X3485894Y189606D03*
Y187638D03*
Y185669D03*
Y183701D03*
Y181732D03*
Y179764D03*
Y177795D03*
Y175827D03*
Y173858D03*
Y171890D03*
G54D283*
X3475461Y192717D03*
Y168780D03*
G54D285*
X3511780Y230354D03*
Y232323D03*
Y234291D03*
Y236260D03*
Y238228D03*
X3501740D03*
Y236260D03*
Y234291D03*
Y232323D03*
Y230354D03*
G54D286*
X3508728Y239311D03*
X3506760D03*
X3504791D03*
Y229272D03*
X3506760D03*
X3508728D03*
G54D288*
X3691209Y70906D03*
X3685303D03*
X3532154Y224843D03*
X3526248D03*
G54D289*
X3557469Y230965D02*
X3561279D01*
X3562350Y232134*
Y240768*
X3557469*
Y230965*
Y240768*
X3557488Y230965D02*
Y240768D01*
X3557508Y230965D02*
Y240768D01*
X3557528Y230965D02*
Y240768D01*
X3557547Y230965D02*
Y240768D01*
X3557567Y230965D02*
Y240768D01*
X3557587Y230965D02*
Y240768D01*
X3557606Y230965D02*
Y240768D01*
X3557626Y230965D02*
Y240768D01*
X3557646Y230965D02*
Y240768D01*
X3557665Y230965D02*
Y240768D01*
X3557685Y230965D02*
Y240768D01*
X3557705Y230965D02*
Y240768D01*
X3557724Y230965D02*
Y240768D01*
X3557744Y230965D02*
Y240768D01*
X3557764Y230965D02*
Y240768D01*
X3557783Y230965D02*
Y240768D01*
X3557803Y230965D02*
Y240768D01*
X3557823Y230965D02*
Y240768D01*
X3557843Y230965D02*
Y240768D01*
X3557862Y230965D02*
Y240768D01*
X3557882Y230965D02*
Y240768D01*
X3557902Y230965D02*
Y240768D01*
X3557921Y230965D02*
Y240768D01*
X3557941Y230965D02*
Y240768D01*
X3557961Y230965D02*
Y240768D01*
X3557980Y230965D02*
Y240768D01*
X3558000Y230965D02*
Y240768D01*
X3558020Y230965D02*
Y240768D01*
X3558039Y230965D02*
Y240768D01*
X3558059Y230965D02*
Y240768D01*
X3558079Y230965D02*
Y240768D01*
X3558098Y230965D02*
Y240768D01*
X3558118Y230965D02*
Y240768D01*
X3558138Y230965D02*
Y240768D01*
X3558157Y230965D02*
Y240768D01*
X3558177Y230965D02*
Y240768D01*
X3558197Y230965D02*
Y240768D01*
X3558217Y230965D02*
Y240768D01*
X3558236Y230965D02*
Y240768D01*
X3558256Y230965D02*
Y240768D01*
X3558276Y230965D02*
Y240768D01*
X3558295Y230965D02*
Y240768D01*
X3558315Y230965D02*
Y240768D01*
X3558335Y230965D02*
Y240768D01*
X3558354Y230965D02*
Y240768D01*
X3558374Y230965D02*
Y240768D01*
X3558394Y230965D02*
Y240768D01*
X3558413Y230965D02*
Y240768D01*
X3558433Y230965D02*
Y240768D01*
X3558453Y230965D02*
Y240768D01*
X3558472Y230965D02*
Y240768D01*
X3558492Y230965D02*
Y240768D01*
X3558512Y230965D02*
Y240768D01*
X3558531Y230965D02*
Y240768D01*
X3558551Y230965D02*
Y240768D01*
X3558571Y230965D02*
Y240768D01*
X3558591Y230965D02*
Y240768D01*
X3558610Y230965D02*
Y240768D01*
X3558630Y230965D02*
Y240768D01*
X3558650Y230965D02*
Y240768D01*
X3558669Y230965D02*
Y240768D01*
X3558689Y230965D02*
Y240768D01*
X3558709Y230965D02*
Y240768D01*
X3558728Y230965D02*
Y240768D01*
X3558748Y230965D02*
Y240768D01*
X3558768Y230965D02*
Y240768D01*
X3558787Y230965D02*
Y240768D01*
X3558807Y230965D02*
Y240768D01*
X3558827Y230965D02*
Y240768D01*
X3558846Y230965D02*
Y240768D01*
X3558866Y230965D02*
Y240768D01*
X3558886Y230965D02*
Y240768D01*
X3558906Y230965D02*
Y240768D01*
X3558925Y230965D02*
Y240768D01*
X3558945Y230965D02*
Y240768D01*
X3558965Y230965D02*
Y240768D01*
X3558984Y230965D02*
Y240768D01*
X3559004Y230965D02*
Y240768D01*
X3559024Y230965D02*
Y240768D01*
X3559043Y230965D02*
Y240768D01*
X3559063Y230965D02*
Y240768D01*
X3559083Y230965D02*
Y240768D01*
X3559102Y230965D02*
Y240768D01*
X3559122Y230965D02*
Y240768D01*
X3559142Y230965D02*
Y240768D01*
X3559161Y230965D02*
Y240768D01*
X3559181Y230965D02*
Y240768D01*
X3559201Y230965D02*
Y240768D01*
X3559220Y230965D02*
Y240768D01*
X3559240Y230965D02*
Y240768D01*
X3559260Y230965D02*
Y240768D01*
X3559280Y230965D02*
Y240768D01*
X3559299Y230965D02*
Y240768D01*
X3559319Y230965D02*
Y240768D01*
X3559339Y230965D02*
Y240768D01*
X3559358Y230965D02*
Y240768D01*
X3559378Y230965D02*
Y240768D01*
X3559398Y230965D02*
Y240768D01*
X3559417Y230965D02*
Y240768D01*
X3559437Y230965D02*
Y240768D01*
X3559457Y230965D02*
Y240768D01*
X3559476Y230965D02*
Y240768D01*
X3559496Y230965D02*
Y240768D01*
X3559516Y230965D02*
Y240768D01*
X3559535Y230965D02*
Y240768D01*
X3559555Y230965D02*
Y240768D01*
X3559575Y230965D02*
Y240768D01*
X3559594Y230965D02*
Y240768D01*
X3559614Y230965D02*
Y240768D01*
X3559634Y230965D02*
Y240768D01*
X3559654Y230965D02*
Y240768D01*
X3559673Y230965D02*
Y240768D01*
X3559693Y230965D02*
Y240768D01*
X3559713Y230965D02*
Y240768D01*
X3559732Y230965D02*
Y240768D01*
X3559752Y230965D02*
Y240768D01*
X3559772Y230965D02*
Y240768D01*
X3559791Y230965D02*
Y240768D01*
X3559811Y230965D02*
Y240768D01*
X3559831Y230965D02*
Y240768D01*
X3559850Y230965D02*
Y240768D01*
X3559870Y230965D02*
Y240768D01*
X3559890Y230965D02*
Y240768D01*
X3559909Y230965D02*
Y240768D01*
X3559929Y230965D02*
Y240768D01*
X3559949Y230965D02*
Y240768D01*
X3559969Y230965D02*
Y240768D01*
X3559988Y230965D02*
Y240768D01*
X3560008Y230965D02*
Y240768D01*
X3560028Y230965D02*
Y240768D01*
X3560047Y230965D02*
Y240768D01*
X3560067Y230965D02*
Y240768D01*
X3560087Y230965D02*
Y240768D01*
X3560106Y230965D02*
Y240768D01*
X3560126Y230965D02*
Y240768D01*
X3560146Y230965D02*
Y240768D01*
X3560165Y230965D02*
Y240768D01*
X3560185Y230965D02*
Y240768D01*
X3560205Y230965D02*
Y240768D01*
X3560224Y230965D02*
Y240768D01*
X3560244Y230965D02*
Y240768D01*
X3560264Y230965D02*
Y240768D01*
X3560283Y230965D02*
Y240768D01*
X3560303Y230965D02*
Y240768D01*
X3560323Y230965D02*
Y240768D01*
X3560343Y230965D02*
Y240768D01*
X3560362Y230965D02*
Y240768D01*
X3560382Y230965D02*
Y240768D01*
X3560402Y230965D02*
Y240768D01*
X3560421Y230965D02*
Y240768D01*
X3560441Y230965D02*
Y240768D01*
X3560461Y230965D02*
Y240768D01*
X3560480Y230965D02*
Y240768D01*
X3560500Y230965D02*
Y240768D01*
X3560520Y230965D02*
Y240768D01*
X3560539Y230965D02*
Y240768D01*
X3560559Y230965D02*
Y240768D01*
X3560579Y230965D02*
Y240768D01*
X3560598Y230965D02*
Y240768D01*
X3560618Y230965D02*
Y240768D01*
X3560638Y230965D02*
Y240768D01*
X3560657Y230965D02*
Y240768D01*
X3560677Y230965D02*
Y240768D01*
X3560697Y230965D02*
Y240768D01*
X3560717Y230965D02*
Y240768D01*
X3560736Y230965D02*
Y240768D01*
X3560756Y230965D02*
Y240768D01*
X3560776Y230965D02*
Y240768D01*
X3560795Y230965D02*
Y240768D01*
X3560815Y230965D02*
Y240768D01*
X3560835Y230965D02*
Y240768D01*
X3560854Y230965D02*
Y240768D01*
X3560874Y230965D02*
Y240768D01*
X3560894Y230965D02*
Y240768D01*
X3560913Y230965D02*
Y240768D01*
X3560933Y230965D02*
Y240768D01*
X3560953Y230965D02*
Y240768D01*
X3560972Y230965D02*
Y240768D01*
X3560992Y230965D02*
Y240768D01*
X3561012Y230965D02*
Y240768D01*
X3561031Y230965D02*
Y240768D01*
X3561051Y230965D02*
Y240768D01*
X3561071Y230965D02*
Y240768D01*
X3561091Y230965D02*
Y240768D01*
X3561110Y230965D02*
Y240768D01*
X3561130Y230965D02*
Y240768D01*
X3561150Y230965D02*
Y240768D01*
X3561169Y230965D02*
Y240768D01*
X3561189Y230965D02*
Y240768D01*
X3561209Y230965D02*
Y240768D01*
X3561228Y230965D02*
Y240768D01*
X3561248Y230965D02*
Y240768D01*
X3561268Y230965D02*
Y240768D01*
X3561287Y230974D02*
Y240768D01*
X3561307Y230995D02*
Y240768D01*
X3561327Y231017D02*
Y240768D01*
X3561346Y231038D02*
Y240768D01*
X3561366Y231060D02*
Y240768D01*
X3561386Y231081D02*
Y240768D01*
X3561406Y231103D02*
Y240768D01*
X3561425Y231124D02*
Y240768D01*
X3561445Y231146D02*
Y240768D01*
X3561465Y231167D02*
Y240768D01*
X3561484Y231189D02*
Y240768D01*
X3561504Y231210D02*
Y240768D01*
X3561524Y231232D02*
Y240768D01*
X3561543Y231253D02*
Y240768D01*
X3561563Y231275D02*
Y240768D01*
X3561583Y231296D02*
Y240768D01*
X3561602Y231318D02*
Y240768D01*
X3561622Y231339D02*
Y240768D01*
X3561642Y231361D02*
Y240768D01*
X3561661Y231382D02*
Y240768D01*
X3561681Y231404D02*
Y240768D01*
X3561701Y231425D02*
Y240768D01*
X3561720Y231446D02*
Y240768D01*
X3561740Y231468D02*
Y240768D01*
X3561760Y231489D02*
Y240768D01*
X3561780Y231511D02*
Y240768D01*
X3561799Y231532D02*
Y240768D01*
X3561819Y231554D02*
Y240768D01*
X3561839Y231575D02*
Y240768D01*
X3561858Y231597D02*
Y240768D01*
X3561878Y231618D02*
Y240768D01*
X3561898Y231640D02*
Y240768D01*
X3561917Y231661D02*
Y240768D01*
X3561937Y231683D02*
Y240768D01*
X3561957Y231704D02*
Y240768D01*
X3561976Y231726D02*
Y240768D01*
X3561996Y231747D02*
Y240768D01*
X3562016Y231769D02*
Y240768D01*
X3562035Y231790D02*
Y240768D01*
X3562055Y231812D02*
Y240768D01*
X3562075Y231833D02*
Y240768D01*
X3562094Y231854D02*
Y240768D01*
X3562114Y231876D02*
Y240768D01*
X3562134Y231897D02*
Y240768D01*
X3562154Y231919D02*
Y240768D01*
X3562173Y231940D02*
Y240768D01*
X3562193Y231962D02*
Y240768D01*
X3562213Y231983D02*
Y240768D01*
X3562232Y232005D02*
Y240768D01*
X3562252Y232026D02*
Y240768D01*
X3562272Y232048D02*
Y240768D01*
X3562291Y232069D02*
Y240768D01*
X3562311Y232091D02*
Y240768D01*
X3562331Y232112D02*
Y240768D01*
X3480165Y279193D02*
Y284480D01*
X3479193Y285453*
X3470362*
Y279193*
X3480165*
X3470362D02*
Y285453D01*
X3470382Y279193D02*
Y285453D01*
X3470402Y279193D02*
Y285453D01*
X3470421Y279193D02*
Y285453D01*
X3470441Y279193D02*
Y285453D01*
X3470461Y279193D02*
Y285453D01*
X3470480Y279193D02*
Y285453D01*
X3470500Y279193D02*
Y285453D01*
X3470520Y279193D02*
Y285453D01*
X3470539Y279193D02*
Y285453D01*
X3470559Y279193D02*
Y285453D01*
X3470579Y279193D02*
Y285453D01*
X3470598Y279193D02*
Y285453D01*
X3470618Y279193D02*
Y285453D01*
X3470638Y279193D02*
Y285453D01*
X3470657Y279193D02*
Y285453D01*
X3470677Y279193D02*
Y285453D01*
X3470697Y279193D02*
Y285453D01*
X3470717Y279193D02*
Y285453D01*
X3470736Y279193D02*
Y285453D01*
X3470756Y279193D02*
Y285453D01*
X3470776Y279193D02*
Y285453D01*
X3470795Y279193D02*
Y285453D01*
X3470815Y279193D02*
Y285453D01*
X3470835Y279193D02*
Y285453D01*
X3470854Y279193D02*
Y285453D01*
X3470874Y279193D02*
Y285453D01*
X3470894Y279193D02*
Y285453D01*
X3470913Y279193D02*
Y285453D01*
X3470933Y279193D02*
Y285453D01*
X3470953Y279193D02*
Y285453D01*
X3470972Y279193D02*
Y285453D01*
X3470992Y279193D02*
Y285453D01*
X3471012Y279193D02*
Y285453D01*
X3471031Y279193D02*
Y285453D01*
X3471051Y279193D02*
Y285453D01*
X3471071Y279193D02*
Y285453D01*
X3471091Y279193D02*
Y285453D01*
X3471110Y279193D02*
Y285453D01*
X3471130Y279193D02*
Y285453D01*
X3471150Y279193D02*
Y285453D01*
X3471169Y279193D02*
Y285453D01*
X3471189Y279193D02*
Y285453D01*
X3471209Y279193D02*
Y285453D01*
X3471228Y279193D02*
Y285453D01*
X3471248Y279193D02*
Y285453D01*
X3471268Y279193D02*
Y285453D01*
X3471287Y279193D02*
Y285453D01*
X3471307Y279193D02*
Y285453D01*
X3471327Y279193D02*
Y285453D01*
X3471346Y279193D02*
Y285453D01*
X3471366Y279193D02*
Y285453D01*
X3471386Y279193D02*
Y285453D01*
X3471406Y279193D02*
Y285453D01*
X3471425Y279193D02*
Y285453D01*
X3471445Y279193D02*
Y285453D01*
X3471465Y279193D02*
Y285453D01*
X3471484Y279193D02*
Y285453D01*
X3471504Y279193D02*
Y285453D01*
X3471524Y279193D02*
Y285453D01*
X3471543Y279193D02*
Y285453D01*
X3471563Y279193D02*
Y285453D01*
X3471583Y279193D02*
Y285453D01*
X3471602Y279193D02*
Y285453D01*
X3471622Y279193D02*
Y285453D01*
X3471642Y279193D02*
Y285453D01*
X3471661Y279193D02*
Y285453D01*
X3471681Y279193D02*
Y285453D01*
X3471701Y279193D02*
Y285453D01*
X3471720Y279193D02*
Y285453D01*
X3471740Y279193D02*
Y285453D01*
X3471760Y279193D02*
Y285453D01*
X3471780Y279193D02*
Y285453D01*
X3471799Y279193D02*
Y285453D01*
X3471819Y279193D02*
Y285453D01*
X3471839Y279193D02*
Y285453D01*
X3471858Y279193D02*
Y285453D01*
X3471878Y279193D02*
Y285453D01*
X3471898Y279193D02*
Y285453D01*
X3471917Y279193D02*
Y285453D01*
X3471937Y279193D02*
Y285453D01*
X3471957Y279193D02*
Y285453D01*
X3471976Y279193D02*
Y285453D01*
X3471996Y279193D02*
Y285453D01*
X3472016Y279193D02*
Y285453D01*
X3472035Y279193D02*
Y285453D01*
X3472055Y279193D02*
Y285453D01*
X3472075Y279193D02*
Y285453D01*
X3472094Y279193D02*
Y285453D01*
X3472114Y279193D02*
Y285453D01*
X3472134Y279193D02*
Y285453D01*
X3472154Y279193D02*
Y285453D01*
X3472173Y279193D02*
Y285453D01*
X3472193Y279193D02*
Y285453D01*
X3472213Y279193D02*
Y285453D01*
X3472232Y279193D02*
Y285453D01*
X3472252Y279193D02*
Y285453D01*
X3472272Y279193D02*
Y285453D01*
X3472291Y279193D02*
Y285453D01*
X3472311Y279193D02*
Y285453D01*
X3472331Y279193D02*
Y285453D01*
X3472350Y279193D02*
Y285453D01*
X3472370Y279193D02*
Y285453D01*
X3472390Y279193D02*
Y285453D01*
X3472409Y279193D02*
Y285453D01*
X3472429Y279193D02*
Y285453D01*
X3472449Y279193D02*
Y285453D01*
X3472469Y279193D02*
Y285453D01*
X3472488Y279193D02*
Y285453D01*
X3472508Y279193D02*
Y285453D01*
X3472528Y279193D02*
Y285453D01*
X3472547Y279193D02*
Y285453D01*
X3472567Y279193D02*
Y285453D01*
X3472587Y279193D02*
Y285453D01*
X3472606Y279193D02*
Y285453D01*
X3472626Y279193D02*
Y285453D01*
X3472646Y279193D02*
Y285453D01*
X3472665Y279193D02*
Y285453D01*
X3472685Y279193D02*
Y285453D01*
X3472705Y279193D02*
Y285453D01*
X3472724Y279193D02*
Y285453D01*
X3472744Y279193D02*
Y285453D01*
X3472764Y279193D02*
Y285453D01*
X3472783Y279193D02*
Y285453D01*
X3472803Y279193D02*
Y285453D01*
X3472823Y279193D02*
Y285453D01*
X3472843Y279193D02*
Y285453D01*
X3472862Y279193D02*
Y285453D01*
X3472882Y279193D02*
Y285453D01*
X3472902Y279193D02*
Y285453D01*
X3472921Y279193D02*
Y285453D01*
X3472941Y279193D02*
Y285453D01*
X3472961Y279193D02*
Y285453D01*
X3472980Y279193D02*
Y285453D01*
X3473000Y279193D02*
Y285453D01*
X3473020Y279193D02*
Y285453D01*
X3473039Y279193D02*
Y285453D01*
X3473059Y279193D02*
Y285453D01*
X3473079Y279193D02*
Y285453D01*
X3473098Y279193D02*
Y285453D01*
X3473118Y279193D02*
Y285453D01*
X3473138Y279193D02*
Y285453D01*
X3473157Y279193D02*
Y285453D01*
X3473177Y279193D02*
Y285453D01*
X3473197Y279193D02*
Y285453D01*
X3473217Y279193D02*
Y285453D01*
X3473236Y279193D02*
Y285453D01*
X3473256Y279193D02*
Y285453D01*
X3473276Y279193D02*
Y285453D01*
X3473295Y279193D02*
Y285453D01*
X3473315Y279193D02*
Y285453D01*
X3473335Y279193D02*
Y285453D01*
X3473354Y279193D02*
Y285453D01*
X3473374Y279193D02*
Y285453D01*
X3473394Y279193D02*
Y285453D01*
X3473413Y279193D02*
Y285453D01*
X3473433Y279193D02*
Y285453D01*
X3473453Y279193D02*
Y285453D01*
X3473472Y279193D02*
Y285453D01*
X3473492Y279193D02*
Y285453D01*
X3473512Y279193D02*
Y285453D01*
X3473531Y279193D02*
Y285453D01*
X3473551Y279193D02*
Y285453D01*
X3473571Y279193D02*
Y285453D01*
X3473591Y279193D02*
Y285453D01*
X3473610Y279193D02*
Y285453D01*
X3473630Y279193D02*
Y285453D01*
X3473650Y279193D02*
Y285453D01*
X3473669Y279193D02*
Y285453D01*
X3473689Y279193D02*
Y285453D01*
X3473709Y279193D02*
Y285453D01*
X3473728Y279193D02*
Y285453D01*
X3473748Y279193D02*
Y285453D01*
X3473768Y279193D02*
Y285453D01*
X3473787Y279193D02*
Y285453D01*
X3473807Y279193D02*
Y285453D01*
X3473827Y279193D02*
Y285453D01*
X3473846Y279193D02*
Y285453D01*
X3473866Y279193D02*
Y285453D01*
X3473886Y279193D02*
Y285453D01*
X3473906Y279193D02*
Y285453D01*
X3473925Y279193D02*
Y285453D01*
X3473945Y279193D02*
Y285453D01*
X3473965Y279193D02*
Y285453D01*
X3473984Y279193D02*
Y285453D01*
X3474004Y279193D02*
Y285453D01*
X3474024Y279193D02*
Y285453D01*
X3474043Y279193D02*
Y285453D01*
X3474063Y279193D02*
Y285453D01*
X3474083Y279193D02*
Y285453D01*
X3474102Y279193D02*
Y285453D01*
X3474122Y279193D02*
Y285453D01*
X3474142Y279193D02*
Y285453D01*
X3474161Y279193D02*
Y285453D01*
X3474181Y279193D02*
Y285453D01*
X3474201Y279193D02*
Y285453D01*
X3474220Y279193D02*
Y285453D01*
X3474240Y279193D02*
Y285453D01*
X3474260Y279193D02*
Y285453D01*
X3474280Y279193D02*
Y285453D01*
X3474299Y279193D02*
Y285453D01*
X3474319Y279193D02*
Y285453D01*
X3474339Y279193D02*
Y285453D01*
X3474358Y279193D02*
Y285453D01*
X3474378Y279193D02*
Y285453D01*
X3474398Y279193D02*
Y285453D01*
X3474417Y279193D02*
Y285453D01*
X3474437Y279193D02*
Y285453D01*
X3474457Y279193D02*
Y285453D01*
X3474476Y279193D02*
Y285453D01*
X3474496Y279193D02*
Y285453D01*
X3474516Y279193D02*
Y285453D01*
X3474535Y279193D02*
Y285453D01*
X3474555Y279193D02*
Y285453D01*
X3474575Y279193D02*
Y285453D01*
X3474594Y279193D02*
Y285453D01*
X3474614Y279193D02*
Y285453D01*
X3474634Y279193D02*
Y285453D01*
X3474654Y279193D02*
Y285453D01*
X3474673Y279193D02*
Y285453D01*
X3474693Y279193D02*
Y285453D01*
X3474713Y279193D02*
Y285453D01*
X3474732Y279193D02*
Y285453D01*
X3474752Y279193D02*
Y285453D01*
X3474772Y279193D02*
Y285453D01*
X3474791Y279193D02*
Y285453D01*
X3474811Y279193D02*
Y285453D01*
X3474831Y279193D02*
Y285453D01*
X3474850Y279193D02*
Y285453D01*
X3474870Y279193D02*
Y285453D01*
X3474890Y279193D02*
Y285453D01*
X3474909Y279193D02*
Y285453D01*
X3474929Y279193D02*
Y285453D01*
X3474949Y279193D02*
Y285453D01*
X3474969Y279193D02*
Y285453D01*
X3474988Y279193D02*
Y285453D01*
X3475008Y279193D02*
Y285453D01*
X3475028Y279193D02*
Y285453D01*
X3475047Y279193D02*
Y285453D01*
X3475067Y279193D02*
Y285453D01*
X3475087Y279193D02*
Y285453D01*
X3475106Y279193D02*
Y285453D01*
X3475126Y279193D02*
Y285453D01*
X3475146Y279193D02*
Y285453D01*
X3475165Y279193D02*
Y285453D01*
X3475185Y279193D02*
Y285453D01*
X3475205Y279193D02*
Y285453D01*
X3475224Y279193D02*
Y285453D01*
X3475244Y279193D02*
Y285453D01*
X3475264Y279193D02*
Y285453D01*
X3475283Y279193D02*
Y285453D01*
X3475303Y279193D02*
Y285453D01*
X3475323Y279193D02*
Y285453D01*
X3475343Y279193D02*
Y285453D01*
X3475362Y279193D02*
Y285453D01*
X3475382Y279193D02*
Y285453D01*
X3475402Y279193D02*
Y285453D01*
X3475421Y279193D02*
Y285453D01*
X3475441Y279193D02*
Y285453D01*
X3475461Y279193D02*
Y285453D01*
X3475480Y279193D02*
Y285453D01*
X3475500Y279193D02*
Y285453D01*
X3475520Y279193D02*
Y285453D01*
X3475539Y279193D02*
Y285453D01*
X3475559Y279193D02*
Y285453D01*
X3475579Y279193D02*
Y285453D01*
X3475598Y279193D02*
Y285453D01*
X3475618Y279193D02*
Y285453D01*
X3475638Y279193D02*
Y285453D01*
X3475657Y279193D02*
Y285453D01*
X3475677Y279193D02*
Y285453D01*
X3475697Y279193D02*
Y285453D01*
X3475717Y279193D02*
Y285453D01*
X3475736Y279193D02*
Y285453D01*
X3475756Y279193D02*
Y285453D01*
X3475776Y279193D02*
Y285453D01*
X3475795Y279193D02*
Y285453D01*
X3475815Y279193D02*
Y285453D01*
X3475835Y279193D02*
Y285453D01*
X3475854Y279193D02*
Y285453D01*
X3475874Y279193D02*
Y285453D01*
X3475894Y279193D02*
Y285453D01*
X3475913Y279193D02*
Y285453D01*
X3475933Y279193D02*
Y285453D01*
X3475953Y279193D02*
Y285453D01*
X3475972Y279193D02*
Y285453D01*
X3475992Y279193D02*
Y285453D01*
X3476012Y279193D02*
Y285453D01*
X3476031Y279193D02*
Y285453D01*
X3476051Y279193D02*
Y285453D01*
X3476071Y279193D02*
Y285453D01*
X3476091Y279193D02*
Y285453D01*
X3476110Y279193D02*
Y285453D01*
X3476130Y279193D02*
Y285453D01*
X3476150Y279193D02*
Y285453D01*
X3476169Y279193D02*
Y285453D01*
X3476189Y279193D02*
Y285453D01*
X3476209Y279193D02*
Y285453D01*
X3476228Y279193D02*
Y285453D01*
X3476248Y279193D02*
Y285453D01*
X3476268Y279193D02*
Y285453D01*
X3476287Y279193D02*
Y285453D01*
X3476307Y279193D02*
Y285453D01*
X3476327Y279193D02*
Y285453D01*
X3476346Y279193D02*
Y285453D01*
X3476366Y279193D02*
Y285453D01*
X3476386Y279193D02*
Y285453D01*
X3476406Y279193D02*
Y285453D01*
X3476425Y279193D02*
Y285453D01*
X3476445Y279193D02*
Y285453D01*
X3476465Y279193D02*
Y285453D01*
X3476484Y279193D02*
Y285453D01*
X3476504Y279193D02*
Y285453D01*
X3476524Y279193D02*
Y285453D01*
X3476543Y279193D02*
Y285453D01*
X3476563Y279193D02*
Y285453D01*
X3476583Y279193D02*
Y285453D01*
X3476602Y279193D02*
Y285453D01*
X3476622Y279193D02*
Y285453D01*
X3476642Y279193D02*
Y285453D01*
X3476661Y279193D02*
Y285453D01*
X3476681Y279193D02*
Y285453D01*
X3476701Y279193D02*
Y285453D01*
X3476720Y279193D02*
Y285453D01*
X3476740Y279193D02*
Y285453D01*
X3476760Y279193D02*
Y285453D01*
X3476780Y279193D02*
Y285453D01*
X3476799Y279193D02*
Y285453D01*
X3476819Y279193D02*
Y285453D01*
X3476839Y279193D02*
Y285453D01*
X3476858Y279193D02*
Y285453D01*
X3476878Y279193D02*
Y285453D01*
X3476898Y279193D02*
Y285453D01*
X3476917Y279193D02*
Y285453D01*
X3476937Y279193D02*
Y285453D01*
X3476957Y279193D02*
Y285453D01*
X3476976Y279193D02*
Y285453D01*
X3476996Y279193D02*
Y285453D01*
X3477016Y279193D02*
Y285453D01*
X3477035Y279193D02*
Y285453D01*
X3477055Y279193D02*
Y285453D01*
X3477075Y279193D02*
Y285453D01*
X3477094Y279193D02*
Y285453D01*
X3477114Y279193D02*
Y285453D01*
X3477134Y279193D02*
Y285453D01*
X3477154Y279193D02*
Y285453D01*
X3477173Y279193D02*
Y285453D01*
X3477193Y279193D02*
Y285453D01*
X3477213Y279193D02*
Y285453D01*
X3477232Y279193D02*
Y285453D01*
X3477252Y279193D02*
Y285453D01*
X3477272Y279193D02*
Y285453D01*
X3477291Y279193D02*
Y285453D01*
X3477311Y279193D02*
Y285453D01*
X3477331Y279193D02*
Y285453D01*
X3477350Y279193D02*
Y285453D01*
X3477370Y279193D02*
Y285453D01*
X3477390Y279193D02*
Y285453D01*
X3477409Y279193D02*
Y285453D01*
X3477429Y279193D02*
Y285453D01*
X3477449Y279193D02*
Y285453D01*
X3477469Y279193D02*
Y285453D01*
X3477488Y279193D02*
Y285453D01*
X3477508Y279193D02*
Y285453D01*
X3477528Y279193D02*
Y285453D01*
X3477547Y279193D02*
Y285453D01*
X3477567Y279193D02*
Y285453D01*
X3477587Y279193D02*
Y285453D01*
X3477606Y279193D02*
Y285453D01*
X3477626Y279193D02*
Y285453D01*
X3477646Y279193D02*
Y285453D01*
X3477665Y279193D02*
Y285453D01*
X3477685Y279193D02*
Y285453D01*
X3477705Y279193D02*
Y285453D01*
X3477724Y279193D02*
Y285453D01*
X3477744Y279193D02*
Y285453D01*
X3477764Y279193D02*
Y285453D01*
X3477783Y279193D02*
Y285453D01*
X3477803Y279193D02*
Y285453D01*
X3477823Y279193D02*
Y285453D01*
X3477843Y279193D02*
Y285453D01*
X3477862Y279193D02*
Y285453D01*
X3477882Y279193D02*
Y285453D01*
X3477902Y279193D02*
Y285453D01*
X3477921Y279193D02*
Y285453D01*
X3477941Y279193D02*
Y285453D01*
X3477961Y279193D02*
Y285453D01*
X3477980Y279193D02*
Y285453D01*
X3478000Y279193D02*
Y285453D01*
X3478020Y279193D02*
Y285453D01*
X3478039Y279193D02*
Y285453D01*
X3478059Y279193D02*
Y285453D01*
X3478079Y279193D02*
Y285453D01*
X3478098Y279193D02*
Y285453D01*
X3478118Y279193D02*
Y285453D01*
X3478138Y279193D02*
Y285453D01*
X3478157Y279193D02*
Y285453D01*
X3478177Y279193D02*
Y285453D01*
X3478197Y279193D02*
Y285453D01*
X3478217Y279193D02*
Y285453D01*
X3478236Y279193D02*
Y285453D01*
X3478256Y279193D02*
Y285453D01*
X3478276Y279193D02*
Y285453D01*
X3478295Y279193D02*
Y285453D01*
X3478315Y279193D02*
Y285453D01*
X3478335Y279193D02*
Y285453D01*
X3478354Y279193D02*
Y285453D01*
X3478374Y279193D02*
Y285453D01*
X3478394Y279193D02*
Y285453D01*
X3478413Y279193D02*
Y285453D01*
X3478433Y279193D02*
Y285453D01*
X3478453Y279193D02*
Y285453D01*
X3478472Y279193D02*
Y285453D01*
X3478492Y279193D02*
Y285453D01*
X3478512Y279193D02*
Y285453D01*
X3478531Y279193D02*
Y285453D01*
X3478551Y279193D02*
Y285453D01*
X3478571Y279193D02*
Y285453D01*
X3478591Y279193D02*
Y285453D01*
X3478610Y279193D02*
Y285453D01*
X3478630Y279193D02*
Y285453D01*
X3478650Y279193D02*
Y285453D01*
X3478669Y279193D02*
Y285453D01*
X3478689Y279193D02*
Y285453D01*
X3478709Y279193D02*
Y285453D01*
X3478728Y279193D02*
Y285453D01*
X3478748Y279193D02*
Y285453D01*
X3478768Y279193D02*
Y285453D01*
X3478787Y279193D02*
Y285453D01*
X3478807Y279193D02*
Y285453D01*
X3478827Y279193D02*
Y285453D01*
X3478846Y279193D02*
Y285453D01*
X3478866Y279193D02*
Y285453D01*
X3478886Y279193D02*
Y285453D01*
X3478906Y279193D02*
Y285453D01*
X3478925Y279193D02*
Y285453D01*
X3478945Y279193D02*
Y285453D01*
X3478965Y279193D02*
Y285453D01*
X3478984Y279193D02*
Y285453D01*
X3479004Y279193D02*
Y285453D01*
X3479024Y279193D02*
Y285453D01*
X3479043Y279193D02*
Y285453D01*
X3479063Y279193D02*
Y285453D01*
X3479083Y279193D02*
Y285453D01*
X3479102Y279193D02*
Y285453D01*
X3479122Y279193D02*
Y285453D01*
X3479142Y279193D02*
Y285453D01*
X3479161Y279193D02*
Y285453D01*
X3479181Y279193D02*
Y285453D01*
X3479201Y279193D02*
Y285445D01*
X3479220Y279193D02*
Y285425D01*
X3479240Y279193D02*
Y285405D01*
X3479260Y279193D02*
Y285386D01*
X3479280Y279193D02*
Y285366D01*
X3479299Y279193D02*
Y285346D01*
X3479319Y279193D02*
Y285326D01*
X3479339Y279193D02*
Y285307D01*
X3479358Y279193D02*
Y285287D01*
X3479378Y279193D02*
Y285267D01*
X3479398Y279193D02*
Y285248D01*
X3479417Y279193D02*
Y285228D01*
X3479437Y279193D02*
Y285208D01*
X3479457Y279193D02*
Y285189D01*
X3479476Y279193D02*
Y285169D01*
X3479496Y279193D02*
Y285149D01*
X3479516Y279193D02*
Y285130D01*
X3479535Y279193D02*
Y285110D01*
X3479555Y279193D02*
Y285090D01*
X3479575Y279193D02*
Y285071D01*
X3479594Y279193D02*
Y285051D01*
X3479614Y279193D02*
Y285031D01*
X3479634Y279193D02*
Y285012D01*
X3479654Y279193D02*
Y284992D01*
X3479673Y279193D02*
Y284972D01*
X3479693Y279193D02*
Y284952D01*
X3479713Y279193D02*
Y284933D01*
X3479732Y279193D02*
Y284913D01*
X3479752Y279193D02*
Y284893D01*
X3479772Y279193D02*
Y284874D01*
X3479791Y279193D02*
Y284854D01*
X3479811Y279193D02*
Y284834D01*
X3479831Y279193D02*
Y284815D01*
X3479850Y279193D02*
Y284795D01*
X3479870Y279193D02*
Y284775D01*
X3479890Y279193D02*
Y284756D01*
X3479909Y279193D02*
Y284736D01*
X3479929Y279193D02*
Y284716D01*
X3479949Y279193D02*
Y284697D01*
X3479969Y279193D02*
Y284677D01*
X3479988Y279193D02*
Y284657D01*
X3480008Y279193D02*
Y284638D01*
X3480028Y279193D02*
Y284618D01*
X3480047Y279193D02*
Y284598D01*
X3480067Y279193D02*
Y284578D01*
X3480087Y279193D02*
Y284559D01*
X3480106Y279193D02*
Y284539D01*
X3480126Y279193D02*
Y284519D01*
X3480146Y279193D02*
Y284500D01*
G54D290*
X3475264Y270512D02*
Y276181D01*
X3460303Y268937D02*
Y289803D01*
X3465028Y294528*
X3467783*
X3460303Y268937D02*
X3462665Y266575D01*
X3472508*
X3475264Y269331*
Y270512*
Y293740D02*
Y288465D01*
X3535500Y265000D02*
Y264606D01*
G54D372*
X3578020Y302402D03*
X3569752D03*
X3578020Y285669D03*
X3561484D03*
X3569752D03*
X3561484Y302402D03*
G54D375*
X3688453Y96693D03*
X3680972D03*
X3684713Y87638D03*
G54D381*
X3643768Y161752D03*
Y154862D03*
X3702429Y166673D03*
Y173563D03*
Y155256D03*
Y162146D03*
Y144232D03*
Y151122D03*
X3699673Y177697D03*
Y184587D03*
X3532744Y129075D03*
Y122185D03*
X3556366Y252894D03*
Y259783D03*
G54D382*
X3573000Y194528D03*
X3579890D03*
X3561976Y187441D03*
X3568866D03*
X3678315Y169724D03*
X3671425D03*
Y153189D03*
X3678315D03*
X3682449D03*
X3689339D03*
X3486583Y210669D03*
X3479693D03*
X3578512Y103583D03*
X3585402D03*
X3614535Y120906D03*
X3607646D03*
X3681661Y103189D03*
X3688551D03*
X3503118Y223268D03*
X3496228D03*
X3666701Y146496D03*
X3673591D03*
X3660205Y185472D03*
X3653315D03*
X3660598Y178386D03*
X3653709D03*
X3689339Y159882D03*
X3682449D03*
X3660598Y171693D03*
X3653709D03*
X3660992Y162244D03*
X3654102D03*
G54D388*
X3625067Y147087D03*
X3632547D03*
Y152992D03*
X3625067D03*
G54D389*
X3479201Y288465D03*
X3475264D03*
X3471327D03*
Y276181D03*
X3475264D03*
X3479201D03*
G54D390*
X3475264Y282323D03*
G54D392*
X3641051Y185472D03*
X3644122D03*
G54D394*
X3628069Y160030D02*
X3636829D01*
G54D401*
X3661091Y152402D03*
X3654791D03*
G54D411*
X3696917Y283898D03*
X3689831D03*
X3682744D03*
X3654398D03*
X3647311D03*
X3640224D03*
X3633138D03*
X3626051D03*
X3618965D03*
X3611878D03*
X3604791D03*
X3597705D03*
Y216969D03*
X3604791D03*
X3611878D03*
X3618965D03*
X3626051D03*
X3633138D03*
X3640224D03*
X3647311D03*
X3654398D03*
X3661484D03*
X3668571D03*
X3689831D03*
X3696917D03*
G54D412*
X3668571Y283898D03*
X3661484D03*
X3675657Y216969D03*
X3682744D03*
G54D413*
X3564929Y231142D03*
Y233504D03*
Y235866D03*
Y238228D03*
Y240591D03*
X3554890D03*
Y238228D03*
Y235866D03*
Y233504D03*
Y231142D03*
G74*
X0Y0D02*
M02*
