*
*
G04 PADS 9.5 Build Number: 522968 generated Gerber (RS-274-X) file*
G04 PC Version=2.1*
*
%IN "BORNE"*%
*
%MOIN*%
*
%FSLAX35Y35*%
*
*
*
*
G04 PC Standard Apertures*
*
*
G04 Thermal Relief Aperture macro.*
%AMTER*
1,1,$1,0,0*
1,0,$1-$2,0,0*
21,0,$3,$4,0,0,45*
21,0,$3,$4,0,0,135*
%
*
*
G04 Annular Aperture macro.*
%AMANN*
1,1,$1,0,0*
1,0,$2,0,0*
%
*
*
G04 Odd Aperture macro.*
%AMODD*
1,1,$1,0,0*
1,0,$1-0.005,0,0*
%
*
*
G04 PC Custom Aperture Macros*
*
*
*
*
*
*
G04 PC Aperture Table*
*
%ADD010C,0.01*%
%ADD024C,0.05906*%
%ADD031C,0.02362*%
%ADD065C,0.01181*%
%ADD097C,0.00394*%
%ADD217C,0.001*%
%ADD411R,0.05906X0.11811*%
*
*
*
*
G04 PC Circuitry*
G04 Layer Name BORNE - circuitry*
%LPD*%
*
*
G04 PC Custom Flashes*
G04 Layer Name BORNE - flashes*
%LPD*%
*
*
G04 PC Circuitry*
G04 Layer Name BORNE - circuitry*
%LPD*%
*
G54D10*
G01X3466083Y67040D02*
X3463966Y64923D01*
X3457672Y67040D02*
X3459790Y64923D01*
G54D24*
X3461878Y59882D02*
Y76024D01*
G54D31*
X3470146Y59882D02*
X3471720Y61850D01*
Y73268*
X3474083Y75630*
X3478413Y59882D02*
Y69331D01*
X3476051Y131535D02*
Y133110D01*
X3477232Y134291*
Y157126*
X3475264Y159094*
X3481169Y116181D02*
Y130945D01*
X3461878Y80354D03*
X3457547D03*
X3474083Y75630D03*
X3457547Y76024D03*
X3461878D03*
X3481563Y90197D03*
X3478413Y69331D03*
X3472508Y102402D03*
X3476051Y131535D03*
X3481563Y98071D03*
X3480776Y135079D03*
X3481169Y130945D03*
Y116181D03*
X3480776Y153189D03*
X3475264Y159094D03*
X3465028Y156339D03*
X3474083Y137835D03*
X3480776Y140591D03*
X3474083Y152402D03*
G54D65*
X3455111Y154549D02*
X3454865D01*
X3454373Y154728*
X3454127Y154907*
X3453881Y155265*
Y155981*
X3454127Y156339*
X3454373Y156518*
X3454865Y156696*
X3455357*
X3455849Y156518*
X3456588Y156160*
X3459048Y154370*
Y156875*
X3459909Y80354D02*
X3457965Y80772D01*
X3459319Y80354*
X3457965Y79937*
X3459909Y80354*
X3458042Y79961D02*
X3458076D01*
X3458728Y80101D02*
Y80172D01*
Y80536D02*
Y80608D01*
X3459909Y80354D02*
X3459909D01*
X3459516D02*
X3461460Y79937D01*
X3460106Y80354*
X3461460Y80772*
X3459516Y80354*
X3461349Y79961D02*
X3461383D01*
X3459909Y80270D02*
Y80439D01*
X3461091Y80016D02*
Y80051D01*
Y80658D02*
Y80693D01*
X3480776Y137441D02*
X3480358Y135496D01*
X3480776Y136850*
X3481193Y135496*
X3480776Y137441*
X3480607Y136654D02*
X3480715D01*
X3480836D02*
X3480945D01*
X3481169Y135574D02*
Y135608D01*
X3480776Y138228D02*
X3481193Y140173D01*
X3480776Y138819*
X3480358Y140173*
X3480776Y138228*
X3480607Y139016D02*
X3480715D01*
X3480836D02*
X3480945D01*
X3481169Y140062D02*
Y140096D01*
X3474083Y140197D02*
X3473665Y138252D01*
X3474083Y139606*
X3474500Y138252*
X3474083Y140197*
X3473829Y139016D02*
X3473901D01*
X3474265D02*
X3474336D01*
X3474083Y140197D02*
X3474083D01*
Y139606D02*
Y140197D01*
Y150039D02*
X3474500Y151984D01*
X3474083Y150630*
X3473665Y151984*
X3474083Y150039*
X3473914Y150827D02*
X3474022D01*
X3474143D02*
X3474252D01*
X3474083Y150039D02*
Y150630D01*
X3457547Y80354D02*
X3461878D01*
X3480776Y135079D02*
Y140591D01*
X3474083Y137835D02*
Y152402D01*
X3491602Y66772D02*
Y160866D01*
X3477668*
X3479320Y159214*
X3480185Y157126D02*
G75*
G03X3479320Y159214I-2953J-0D01*
G01X3480185Y157126D02*
Y143484D01*
X3483414Y139266D02*
G03X3480185Y143484I-2638J1325D01*
G01X3483414Y139266D02*
X3483138Y137978D01*
Y137692*
X3483414Y136404*
X3483062Y133211D02*
G03X3483414Y136404I-2286J1868D01*
G01X3484122Y130945D02*
G03X3483062Y133211I-2953J-0D01*
G01X3484122Y130945D02*
Y116181D01*
X3478217D02*
G03X3484122I2952J0D01*
G01X3478217D02*
Y129528D01*
X3473098Y131535D02*
G03X3478217Y129528I2953J0D01*
G01X3473098Y131535D02*
Y133110D01*
X3473707Y134906D02*
G03X3473098Y133110I2344J-1796D01*
G01X3471444Y139160D02*
G03X3473707Y134906I2639J-1325D01*
G01X3471444Y139160D02*
X3471720Y140448D01*
Y149789*
X3471444Y151077*
X3474280Y155348D02*
G03X3471444Y151077I-197J-2946D01*
G01X3474280Y155348D02*
Y155903D01*
X3473176Y157007*
X3472902Y160866D02*
G03X3473176Y157007I2362J-1772D01*
G01X3472902Y160866D02*
X3452626D01*
Y159560*
X3461361*
X3462739Y158182D02*
G03X3461361Y159560I-1378J-0D01*
G01X3462739Y158182D02*
Y153780D01*
X3461361Y152402D02*
G03X3462739Y153780I0J1378D01*
G01X3461361Y152402D02*
X3452626D01*
Y66772*
X3453610*
X3457154Y65638D02*
G03X3453610Y66772I-3544J-4969D01*
G01X3457154Y65638D02*
Y65787D01*
X3458925Y67559D02*
G03X3457154Y65787I0J-1772D01*
G01X3458925Y67559D02*
X3464831D01*
X3466012Y67108D02*
G03X3464831Y67559I-1181J-1321D01*
G01X3467193D02*
G03X3466012Y67108I-0J-1772D01*
G01X3467193Y67559D02*
X3468768D01*
Y73268*
X3469633Y75356D02*
G03X3468768Y73268I2087J-2088D01*
G01X3469633Y75356D02*
X3471995Y77718D01*
X3476171Y73542D02*
G03X3471995Y77718I-2088J2088D01*
G01X3476171Y73542D02*
X3474673Y72045D01*
Y67374*
X3475461Y67559D02*
G03X3474673Y67374I-0J-1772D01*
G01X3475461Y67559D02*
Y69331D01*
X3481366D02*
G03X3475461I-2953J-0D01*
G01X3481366D02*
Y67559D01*
X3483138Y65787D02*
G03X3481366Y67559I-1772J0D01*
G01X3483138Y65787D02*
Y65638D01*
X3486681Y66772D02*
G03X3483138Y65638I0J-6103D01*
G01X3486681Y66772D02*
X3491602D01*
X3477787Y160747D02*
X3491602D01*
X3478850Y159684D02*
X3491602D01*
X3479779Y158621D02*
X3491602D01*
X3480153Y157558D02*
X3491602D01*
X3480185Y156495D02*
X3491602D01*
X3480185Y155432D02*
X3491602D01*
X3480185Y154369D02*
X3491602D01*
X3480185Y153306D02*
X3491602D01*
X3480185Y152243D02*
X3491602D01*
X3480185Y151180D02*
X3491602D01*
X3480185Y150117D02*
X3491602D01*
X3480185Y149054D02*
X3491602D01*
X3480185Y147991D02*
X3491602D01*
X3480185Y146928D02*
X3491602D01*
X3480185Y145865D02*
X3491602D01*
X3480185Y144802D02*
X3491602D01*
X3480185Y143739D02*
X3491602D01*
X3482866Y142676D02*
X3491602D01*
X3483546Y141613D02*
X3491602D01*
X3483728Y140550D02*
X3491602D01*
X3483514Y139487D02*
X3491602D01*
X3483234Y138424D02*
X3491602D01*
X3483209Y137361D02*
X3491602D01*
X3483465Y136298D02*
X3491602D01*
X3483724Y135235D02*
X3491602D01*
X3483586Y134172D02*
X3491602D01*
X3483178Y133109D02*
X3491602D01*
X3483909Y132046D02*
X3491602D01*
X3484122Y130983D02*
X3491602D01*
X3484122Y129920D02*
X3491602D01*
X3484122Y128857D02*
X3491602D01*
X3484122Y127794D02*
X3491602D01*
X3484122Y126731D02*
X3491602D01*
X3484122Y125668D02*
X3491602D01*
X3484122Y124605D02*
X3491602D01*
X3484122Y123542D02*
X3491602D01*
X3484122Y122479D02*
X3491602D01*
X3484122Y121416D02*
X3491602D01*
X3484122Y120353D02*
X3491602D01*
X3484122Y119290D02*
X3491602D01*
X3484122Y118227D02*
X3491602D01*
X3484122Y117164D02*
X3491602D01*
X3484121Y116101D02*
X3491602D01*
X3483892Y115038D02*
X3491602D01*
X3483132Y113975D02*
X3491602D01*
X3452626Y112912D02*
X3491602D01*
X3452626Y111849D02*
X3491602D01*
X3452626Y110786D02*
X3491602D01*
X3452626Y109723D02*
X3491602D01*
X3452626Y108660D02*
X3491602D01*
X3452626Y107597D02*
X3491602D01*
X3452626Y106534D02*
X3491602D01*
X3452626Y105471D02*
X3491602D01*
X3452626Y104408D02*
X3491602D01*
X3452626Y103345D02*
X3491602D01*
X3452626Y102282D02*
X3491602D01*
X3452626Y101219D02*
X3491602D01*
X3452626Y100156D02*
X3491602D01*
X3452626Y99093D02*
X3491602D01*
X3452626Y98030D02*
X3491602D01*
X3452626Y96967D02*
X3491602D01*
X3452626Y95904D02*
X3491602D01*
X3452626Y94841D02*
X3491602D01*
X3452626Y93778D02*
X3491602D01*
X3452626Y92715D02*
X3491602D01*
X3452626Y91652D02*
X3491602D01*
X3452626Y90589D02*
X3491602D01*
X3452626Y89526D02*
X3491602D01*
X3452626Y88463D02*
X3491602D01*
X3452626Y87400D02*
X3491602D01*
X3452626Y86337D02*
X3491602D01*
X3452626Y85274D02*
X3491602D01*
X3452626Y84211D02*
X3491602D01*
X3452626Y83148D02*
X3491602D01*
X3452626Y82085D02*
X3491602D01*
X3452626Y81022D02*
X3491602D01*
X3452626Y79959D02*
X3491602D01*
X3452626Y78896D02*
X3491602D01*
X3476048Y77833D02*
X3491602D01*
X3476806Y76770D02*
X3491602D01*
X3477034Y75707D02*
X3491602D01*
X3476866Y74644D02*
X3491602D01*
X3476209Y73581D02*
X3491602D01*
X3475147Y72518D02*
X3491602D01*
X3480464Y71455D02*
X3491602D01*
X3481169Y70392D02*
X3491602D01*
X3481366Y69329D02*
X3491602D01*
X3481366Y68266D02*
X3491602D01*
X3482431Y67203D02*
X3491602D01*
X3483102Y66140D02*
X3483978D01*
X3452626Y113975D02*
X3479207D01*
X3452626Y115038D02*
X3478447D01*
X3452626Y116101D02*
X3478218D01*
X3477294Y128857D02*
X3478217D01*
X3452626Y127794D02*
X3478217D01*
X3452626Y126731D02*
X3478217D01*
X3452626Y125668D02*
X3478217D01*
X3452626Y124605D02*
X3478217D01*
X3452626Y123542D02*
X3478217D01*
X3452626Y122479D02*
X3478217D01*
X3452626Y121416D02*
X3478217D01*
X3452626Y120353D02*
X3478217D01*
X3452626Y119290D02*
X3478217D01*
X3452626Y118227D02*
X3478217D01*
X3452626Y117164D02*
X3478217D01*
X3474673Y71455D02*
X3476363D01*
X3474673Y70392D02*
X3475658D01*
X3474673Y69329D02*
X3475461D01*
X3474673Y68266D02*
X3475461D01*
X3452626Y128857D02*
X3474808D01*
X3462739Y155432D02*
X3474280D01*
X3462739Y156495D02*
X3473688D01*
X3452626Y129920D02*
X3473580D01*
X3452626Y134172D02*
X3473296D01*
X3452626Y130983D02*
X3473151D01*
X3452626Y133109D02*
X3473098D01*
X3452626Y132046D02*
X3473098D01*
X3452626Y160747D02*
X3472817D01*
X3462739Y157558D02*
X3472742D01*
X3452626Y135235D02*
X3472683D01*
X3452626Y159684D02*
X3472370D01*
X3462667Y158621D02*
X3472349D01*
X3452626Y77833D02*
X3472117D01*
X3462739Y154369D02*
X3471881D01*
X3452626Y149054D02*
X3471720D01*
X3452626Y147991D02*
X3471720D01*
X3452626Y146928D02*
X3471720D01*
X3452626Y145865D02*
X3471720D01*
X3452626Y144802D02*
X3471720D01*
X3452626Y143739D02*
X3471720D01*
X3452626Y142676D02*
X3471720D01*
X3452626Y141613D02*
X3471720D01*
X3452626Y140550D02*
X3471720D01*
X3452626Y150117D02*
X3471650D01*
X3452626Y136298D02*
X3471561D01*
X3452626Y139487D02*
X3471514D01*
X3452626Y151180D02*
X3471395D01*
X3462655Y153306D02*
X3471272D01*
X3452626Y138424D02*
X3471189D01*
X3452626Y137361D02*
X3471168D01*
X3452626Y152243D02*
X3471134D01*
X3452626Y76770D02*
X3471047D01*
X3452626Y75707D02*
X3469984D01*
X3452626Y74644D02*
X3469108D01*
X3452626Y73581D02*
X3468784D01*
X3452626Y72518D02*
X3468768D01*
X3452626Y71455D02*
X3468768D01*
X3452626Y70392D02*
X3468768D01*
X3452626Y69329D02*
X3468768D01*
X3452626Y68266D02*
X3468768D01*
X3465895Y67203D02*
X3466128D01*
X3452626D02*
X3457860D01*
X3456313Y66140D02*
X3457189D01*
X3450461Y163031D02*
X3493768D01*
Y64606*
X3486681*
G03X3482744Y60669I0J-3937*
G01Y52795*
X3457547*
Y60669*
G03X3453610Y64606I-3937J0*
G01X3450461*
Y163031*
X3767126Y75394D02*
X3960039D01*
Y39961*
X3767126*
Y75394*
Y63583D02*
X3960039D01*
X3767126Y51772D02*
X3960039D01*
G54D97*
X3771063Y60162D02*
X3772495Y54995D01*
X3773926Y60162D02*
X3772495Y54995D01*
X3777684Y58440D02*
Y54995D01*
Y57702D02*
X3777326Y58194D01*
X3776969Y58440*
X3776432*
X3776074Y58194*
X3775716Y57702*
X3775537Y56964*
Y56471*
X3775716Y55733*
X3776074Y55241*
X3776432Y54995*
X3776969*
X3777326Y55241*
X3777684Y55733*
X3779295Y60162D02*
Y54995D01*
X3780906Y60162D02*
X3781084Y59916D01*
X3781263Y60162*
X3781084Y60408*
X3780906Y60162*
X3781084Y58440D02*
Y54995D01*
X3785021Y60162D02*
Y54995D01*
Y57702D02*
X3784664Y58194D01*
X3784306Y58440*
X3783769*
X3783411Y58194*
X3783053Y57702*
X3782874Y56964*
Y56471*
X3783053Y55733*
X3783411Y55241*
X3783769Y54995*
X3784306*
X3784664Y55241*
X3785021Y55733*
X3788780Y58440D02*
Y54995D01*
Y57702D02*
X3788422Y58194D01*
X3788064Y58440*
X3787527*
X3787169Y58194*
X3786811Y57702*
X3786632Y56964*
Y56471*
X3786811Y55733*
X3787169Y55241*
X3787527Y54995*
X3788064*
X3788422Y55241*
X3788780Y55733*
X3790927Y60162D02*
Y55979D01*
X3791106Y55241*
X3791464Y54995*
X3791822*
X3790390Y58440D02*
X3791643D01*
X3793432Y60162D02*
X3793611Y59916D01*
X3793790Y60162*
X3793611Y60408*
X3793432Y60162*
X3793611Y58440D02*
Y54995D01*
X3796296Y58440D02*
X3795938Y58194D01*
X3795580Y57702*
X3795401Y56964*
Y56471*
X3795580Y55733*
X3795938Y55241*
X3796296Y54995*
X3796832*
X3796832D02*
X3797190Y55241D01*
X3797548Y55733*
X3797727Y56471*
Y56964*
X3797548Y57702*
X3797190Y58194*
X3796832Y58440*
X3796832D02*
X3796296D01*
X3799338D02*
Y54995D01*
Y57456D02*
X3799875Y58194D01*
X3800233Y58440*
X3800770*
X3801127Y58194*
X3801306Y57456*
Y54995*
X3807212Y58440D02*
X3807033Y58194D01*
X3807212Y57948*
X3807391Y58194*
X3807212Y58440*
Y55487D02*
X3807033Y55241D01*
X3807212Y54995*
X3807391Y55241*
X3807212Y55487*
X3771063Y71973D02*
Y66806D01*
Y71973D02*
X3772316D01*
X3772853Y71727*
X3773210Y71235*
X3773389Y70743*
X3773568Y70005*
Y68775*
X3773389Y68036*
X3773210Y67544*
X3772853Y67052*
X3772316Y66806*
X3771063*
X3775179Y68775D02*
X3777326D01*
Y69267*
X3777147Y69759*
X3776969Y70005*
X3776611Y70251*
X3776074*
X3775716Y70005*
X3775358Y69513*
X3775179Y68775*
Y68282*
X3775358Y67544*
X3775716Y67052*
X3776074Y66806*
X3776611*
X3776969Y67052*
X3777326Y67544*
X3775537Y70743D02*
X3776969Y71481D01*
X3780727Y69513D02*
X3780548Y70005D01*
X3780011Y70251*
X3779474*
X3778937Y70005*
X3778758Y69513*
X3778937Y69021*
X3779295Y68775*
X3780190Y68529*
X3780548Y68282*
X3780727Y67790*
Y67544*
X3780548Y67052*
X3780011Y66806*
X3779474*
X3778937Y67052*
X3778758Y67544*
X3782337Y71973D02*
X3782516Y71727D01*
X3782695Y71973*
X3782516Y72219*
X3782337Y71973*
X3782516Y70251D02*
Y66806D01*
X3786453Y70251D02*
Y66314D01*
X3786274Y65576*
X3786095Y65330*
X3785737Y65084*
X3785200*
X3784843Y65330*
X3786453Y69513D02*
X3786095Y70005D01*
X3785737Y70251*
X3785200*
X3784843Y70005*
X3784485Y69513*
X3784306Y68775*
Y68282*
X3784485Y67544*
X3784843Y67052*
X3785200Y66806*
X3785737*
X3786095Y67052*
X3786453Y67544*
X3788064Y70251D02*
Y66806D01*
Y69267D02*
X3788601Y70005D01*
X3788958Y70251*
X3789495*
X3789853Y70005*
X3790032Y69267*
Y66806*
X3793790Y70251D02*
Y66806D01*
Y69513D02*
X3793432Y70005D01*
X3793074Y70251*
X3792538*
X3792180Y70005*
X3791822Y69513*
X3791643Y68775*
Y68282*
X3791822Y67544*
X3792180Y67052*
X3792538Y66806*
X3793074*
X3793432Y67052*
X3793790Y67544*
X3795938Y71973D02*
Y67790D01*
X3796117Y67052*
X3796475Y66806*
X3796832*
X3795401Y70251D02*
X3796654D01*
X3798443Y71973D02*
X3798622Y71727D01*
X3798801Y71973*
X3798622Y72219*
X3798443Y71973*
X3798622Y70251D02*
Y66806D01*
X3801306Y70251D02*
X3800948Y70005D01*
X3800591Y69513*
X3800412Y68775*
Y68282*
X3800591Y67544*
X3800948Y67052*
X3801306Y66806*
X3801843*
X3802201Y67052*
X3802559Y67544*
X3802738Y68282*
Y68775*
X3802559Y69513*
X3802201Y70005*
X3801843Y70251*
X3801306*
X3804349D02*
Y66806D01*
Y69267D02*
X3804885Y70005D01*
X3805243Y70251*
X3805780*
X3806138Y70005*
X3806317Y69267*
Y66806*
X3812223Y70251D02*
X3812044Y70005D01*
X3812223Y69759*
X3812402Y70005*
X3812223Y70251*
Y67298D02*
X3812044Y67052D01*
X3812223Y66806*
X3812402Y67052*
X3812223Y67298*
X3822244Y60162D02*
Y54995D01*
Y60162D02*
X3823855D01*
X3824392Y59916*
X3824571Y59670*
X3824749Y59178*
Y58686*
X3824571Y58194*
X3824392Y57948*
X3823855Y57702*
X3822244D02*
X3823855D01*
X3824392Y57456*
X3824571Y57210*
X3824749Y56718*
Y55979*
X3824571Y55487*
X3824392Y55241*
X3823855Y54995*
X3822244*
X3826539Y55487D02*
X3826360Y55241D01*
X3826539Y54995*
X3826718Y55241*
X3826539Y55487*
X3835129Y58932D02*
X3834950Y59424D01*
X3834592Y59916*
X3834234Y60162*
X3833518*
X3833160Y59916*
X3832802Y59424*
X3832623Y58932*
X3832445Y58194*
Y56964*
X3832623Y56225*
X3832802Y55733*
X3833160Y55241*
X3833518Y54995*
X3834234*
X3834592Y55241*
X3834950Y55733*
X3835129Y56225*
X3836739Y60162D02*
Y54995D01*
Y57456D02*
X3837276Y58194D01*
X3837634Y58440*
X3838171*
X3838529Y58194*
X3838708Y57456*
Y54995*
X3840319Y60162D02*
X3840497Y59916D01*
X3840676Y60162*
X3840497Y60408*
X3840319Y60162*
X3840497Y58440D02*
Y54995D01*
X3842287Y58440D02*
Y54995D01*
Y56964D02*
X3842466Y57702D01*
X3842824Y58194*
X3843182Y58440*
X3843719*
X3846224D02*
X3845866Y58194D01*
X3845508Y57702*
X3845329Y56964*
Y56471*
X3845508Y55733*
X3845866Y55241*
X3846224Y54995*
X3846761*
X3847119Y55241*
X3847477Y55733*
X3847656Y56471*
Y56964*
X3847477Y57702*
X3847119Y58194*
X3846761Y58440*
X3846224*
X3849266D02*
Y54995D01*
Y57456D02*
X3849803Y58194D01*
X3850161Y58440*
X3850698*
X3851056Y58194*
X3851235Y57456*
Y54995*
X3861077Y59178D02*
X3861435Y59424D01*
X3861972Y60162*
Y54995*
X3863762Y58932D02*
Y59178D01*
X3863941Y59670*
X3864120Y59916*
X3864477Y60162*
X3865193*
X3865551Y59916*
X3865730Y59670*
X3865909Y59178*
Y58686*
X3865730Y58194*
X3865372Y57456*
X3863583Y54995*
X3866088*
X3870920Y61147D02*
X3867699Y53273D01*
X3873604Y60162D02*
X3873067Y59916D01*
X3872709Y59178*
X3872530Y57948*
Y57210*
X3872709Y55979*
X3873067Y55241*
X3873604Y54995*
X3873962*
X3874499Y55241*
X3874857Y55979*
X3875036Y57210*
Y57948*
X3874857Y59178*
X3874499Y59916*
X3873962Y60162*
X3873604*
X3876825Y58932D02*
Y59178D01*
X3877004Y59670*
X3877183Y59916*
X3877541Y60162*
X3878257*
X3878615Y59916*
X3878794Y59670*
X3878973Y59178*
Y58686*
X3878794Y58194*
X3878436Y57456*
X3876646Y54995*
X3879152*
X3883984Y61147D02*
X3880762Y53273D01*
X3885773Y58932D02*
Y59178D01*
X3885952Y59670*
X3886131Y59916*
X3886489Y60162*
X3887205*
X3887563Y59916*
X3887742Y59670*
X3887921Y59178*
Y58686*
X3887742Y58194*
X3887384Y57456*
X3885594Y54995*
X3888099*
X3890784Y60162D02*
X3890247Y59916D01*
X3889889Y59178*
X3889710Y57948*
Y57210*
X3889889Y55979*
X3890247Y55241*
X3890784Y54995*
X3891142*
X3891679Y55241*
X3892037Y55979*
X3892215Y57210*
Y57948*
X3892037Y59178*
X3891679Y59916*
X3891142Y60162*
X3890784*
X3893826Y59178D02*
X3894184Y59424D01*
X3894721Y60162*
Y54995*
X3898479Y59424D02*
X3898300Y59916D01*
X3897763Y60162*
X3897405*
X3896868Y59916*
X3896510Y59178*
X3896331Y57948*
Y56718*
X3896510Y55733*
X3896868Y55241*
X3897405Y54995*
X3897584*
X3898121Y55241*
X3898479Y55733*
X3898658Y56471*
Y56718*
X3898479Y57456*
X3898121Y57948*
X3897584Y58194*
X3897405*
X3896868Y57948*
X3896510Y57456*
X3896331Y56718*
X3823318Y71973D02*
X3822960Y71727D01*
X3822602Y71235*
X3822423Y70743*
X3822244Y70005*
Y68775*
X3822423Y68036*
X3822602Y67544*
X3822960Y67052*
X3823318Y66806*
X3824034*
X3824392Y67052*
X3824749Y67544*
X3824928Y68036*
X3825107Y68775*
Y70005*
X3824928Y70743*
X3824749Y71235*
X3824392Y71727*
X3824034Y71973*
X3823318*
X3826718Y70251D02*
Y65084D01*
Y69513D02*
X3827076Y70005D01*
X3827434Y70251*
X3827971*
X3828329Y70005*
X3828686Y69513*
X3828865Y68775*
Y68282*
X3828686Y67544*
X3828329Y67052*
X3827971Y66806*
X3827434*
X3827076Y67052*
X3826718Y67544*
X3831013Y71973D02*
Y67790D01*
X3831192Y67052*
X3831550Y66806*
X3831908*
X3830476Y70251D02*
X3831729D01*
X3834413D02*
X3834055Y70005D01*
X3833697Y69513*
X3833518Y68775*
Y68282*
X3833697Y67544*
X3834055Y67052*
X3834413Y66806*
X3834950*
X3835308Y67052*
X3835666Y67544*
X3835845Y68282*
Y68775*
X3835666Y69513*
X3835308Y70005*
X3834950Y70251*
X3834413*
X3841571Y71973D02*
X3843003Y66806D01*
X3844435Y71973D02*
X3843003Y66806D01*
X3847119Y71973D02*
X3846582Y71727D01*
X3846224Y70989*
X3846045Y69759*
Y69021*
X3846224Y67790*
X3846582Y67052*
X3847119Y66806*
X3847477*
X3848014Y67052*
X3848372Y67790*
X3848550Y69021*
Y69759*
X3848372Y70989*
X3848014Y71727*
X3847477Y71973*
X3847119*
X3850161Y70989D02*
X3850519Y71235D01*
X3851056Y71973*
Y66806*
X3771063Y48351D02*
Y43184D01*
X3773210*
X3776253Y48351D02*
X3774821Y43184D01*
X3776253Y48351D02*
X3777684Y43184D01*
X3775358Y44906D02*
X3777147D01*
X3779295Y48351D02*
X3780727Y45891D01*
Y43184*
X3782158Y48351D02*
X3780727Y45891D01*
X3783769Y48351D02*
Y43184D01*
Y48351D02*
X3786095D01*
X3783769Y45891D02*
X3785200D01*
X3783769Y43184D02*
X3786095D01*
X3787706Y48351D02*
Y43184D01*
Y48351D02*
X3789316D01*
X3789853Y48105*
X3790032Y47859*
X3790211Y47367*
Y46875*
X3790032Y46383*
X3789853Y46137*
X3789316Y45891*
X3787706*
X3788958D02*
X3790211Y43184D01*
X3796117Y47121D02*
Y47367D01*
X3796296Y47859*
X3796475Y48105*
X3796832Y48351*
X3796832D02*
X3797548D01*
X3797906Y48105*
X3798085Y47859*
X3798264Y47367*
Y46875*
X3798085Y46383*
X3797727Y45645*
X3795938Y43184*
X3798443*
X3808465Y46629D02*
X3808286Y46383D01*
X3808465Y46137*
X3808644Y46383*
X3808465Y46629*
Y43676D02*
X3808286Y43430D01*
X3808465Y43184*
X3808644Y43430*
X3808465Y43676*
X3814370Y48351D02*
Y43184D01*
Y48351D02*
X3815981D01*
X3816518Y48105*
X3816696Y47859*
X3816875Y47367*
Y46875*
X3816696Y46383*
X3816518Y46137*
X3815981Y45891*
X3814370D02*
X3815981D01*
X3816518Y45645*
X3816696Y45399*
X3816875Y44906*
Y44168*
X3816696Y43676*
X3816518Y43430*
X3815981Y43184*
X3814370*
X3819560Y48351D02*
X3819202Y48105D01*
X3818844Y47613*
X3818665Y47121*
X3818486Y46383*
Y45153*
X3818665Y44414*
X3818844Y43922*
X3819202Y43430*
X3819560Y43184*
X3820276*
X3820634Y43430*
X3820634D02*
X3820991Y43922D01*
X3821170Y44414*
X3821349Y45153*
Y46383*
X3821170Y47121*
X3820991Y47613*
X3820634Y48105*
X3820634D02*
X3820276Y48351D01*
X3819560*
X3824213D02*
Y43184D01*
X3822960Y48351D02*
X3825465D01*
X3828329D02*
Y43184D01*
X3827076Y48351D02*
X3829581D01*
X3832266D02*
X3831908Y48105D01*
X3831550Y47613*
X3831371Y47121*
X3831192Y46383*
Y45153*
X3831371Y44414*
X3831550Y43922*
X3831908Y43430*
X3832266Y43184*
X3832981*
X3833339Y43430*
X3833697Y43922*
X3833876Y44414*
X3834055Y45153*
Y46383*
X3833876Y47121*
X3833697Y47613*
X3833339Y48105*
X3832981Y48351*
X3832266*
X3835666D02*
Y43184D01*
Y48351D02*
X3837097Y43184D01*
X3838529Y48351D02*
X3837097Y43184D01*
X3838529Y48351D02*
Y43184D01*
G54D217*
G54D411*
X3478413Y59882D03*
X3461878D03*
X3470146D03*
G74*
X0Y0D02*
M02*
