*
*
G04 PADS 9.5 Build Number: 522968 generated Gerber (RS-274-X) file*
G04 PC Version=2.1*
*
%IN "BORNE"*%
*
%MOIN*%
*
%FSLAX35Y35*%
*
*
*
*
G04 PC Standard Apertures*
*
*
G04 Thermal Relief Aperture macro.*
%AMTER*
1,1,$1,0,0*
1,0,$1-$2,0,0*
21,0,$3,$4,0,0,45*
21,0,$3,$4,0,0,135*
%
*
*
G04 Annular Aperture macro.*
%AMANN*
1,1,$1,0,0*
1,0,$2,0,0*
%
*
*
G04 Odd Aperture macro.*
%AMODD*
1,1,$1,0,0*
1,0,$1-0.005,0,0*
%
*
*
G04 PC Custom Aperture Macros*
*
*
*
*
*
*
G04 PC Aperture Table*
*
%ADD065C,0.01181*%
%ADD097C,0.00394*%
%ADD217C,0.001*%
%ADD431R,0.07283X0.13189*%
*
*
*
*
G04 PC Circuitry*
G04 Layer Name BORNE - circuitry*
%LPD*%
*
*
G04 PC Custom Flashes*
G04 Layer Name BORNE - flashes*
%LPD*%
*
*
G04 PC Circuitry*
G04 Layer Name BORNE - circuitry*
%LPD*%
*
G54D65*
G01X3450461Y163031D02*
X3493768D01*
Y64606*
X3486681*
G75*
G03X3482744Y60669I0J-3937D01*
G01Y52795*
X3457547*
Y60669*
G03X3453610Y64606I-3937J0*
G01X3450461*
Y163031*
X3767126Y75394D02*
X3960039D01*
Y39961*
X3767126*
Y75394*
Y63583D02*
X3960039D01*
X3767126Y51772D02*
X3960039D01*
G54D97*
X3773568Y47613D02*
X3773210Y48105D01*
X3772674Y48351*
X3771958*
X3771421Y48105*
X3771063Y47613*
Y47121*
X3771242Y46629*
X3771421Y46383*
X3771779Y46137*
X3772853Y45645*
X3773210Y45399*
X3773389Y45153*
X3773568Y44660*
Y43922*
X3773210Y43430*
X3772674Y43184*
X3771958*
X3771421Y43430*
X3771063Y43922*
X3776253Y48351D02*
X3775895Y48105D01*
X3775537Y47613*
X3775358Y47121*
X3775179Y46383*
Y45153*
X3775358Y44414*
X3775537Y43922*
X3775895Y43430*
X3776253Y43184*
X3776969*
X3777326Y43430*
X3777684Y43922*
X3777863Y44414*
X3778042Y45153*
Y46383*
X3777863Y47121*
X3777684Y47613*
X3777326Y48105*
X3776969Y48351*
X3776253*
X3779653D02*
Y43184D01*
X3781800*
X3783411Y48351D02*
Y43184D01*
Y48351D02*
X3784664D01*
X3785200Y48105*
X3785558Y47613*
X3785737Y47121*
X3785916Y46383*
Y45153*
X3785737Y44414*
X3785558Y43922*
X3785200Y43430*
X3784664Y43184*
X3783411*
X3787527Y48351D02*
Y43184D01*
Y48351D02*
X3789853D01*
X3787527Y45891D02*
X3788958D01*
X3787527Y43184D02*
X3789853D01*
X3791464Y48351D02*
Y43184D01*
Y48351D02*
X3793074D01*
X3793611Y48105*
X3793790Y47859*
X3793969Y47367*
Y46875*
X3793790Y46383*
X3793611Y46137*
X3793074Y45891*
X3791464*
X3792717D02*
X3793969Y43184D01*
X3799696Y48351D02*
Y43184D01*
Y48351D02*
X3801127Y43184D01*
X3802559Y48351D02*
X3801127Y43184D01*
X3802559Y48351D02*
Y43184D01*
X3805601Y48351D02*
X3804170Y43184D01*
X3805601Y48351D02*
X3807033Y43184D01*
X3804707Y44906D02*
X3806496D01*
X3811149Y47613D02*
X3810791Y48105D01*
X3810254Y48351*
X3809538*
X3809001Y48105*
X3808644Y47613*
Y47121*
X3808822Y46629*
X3809001Y46383*
X3809359Y46137*
X3810433Y45645*
X3810791Y45399*
X3810970Y45153*
X3811149Y44660*
Y43922*
X3810791Y43430*
X3810254Y43184*
X3809538*
X3809001Y43430*
X3808644Y43922*
X3812759Y48351D02*
Y43184D01*
X3815265Y48351D02*
X3812759Y44906D01*
X3813654Y46137D02*
X3815265Y43184D01*
X3820991Y48351D02*
Y43184D01*
Y48351D02*
X3822602D01*
X3823139Y48105*
X3823318Y47859*
X3823497Y47367*
Y46875*
X3823318Y46383*
X3823139Y46137*
X3822602Y45891*
X3820991D02*
X3822602D01*
X3823139Y45645*
X3823318Y45399*
X3823497Y44906*
Y44168*
X3823318Y43676*
X3823139Y43430*
X3822602Y43184*
X3820991*
X3826181Y48351D02*
X3825823Y48105D01*
X3825465Y47613*
X3825286Y47121*
X3825107Y46383*
Y45153*
X3825286Y44414*
X3825465Y43922*
X3825823Y43430*
X3826181Y43184*
X3826897*
X3827255Y43430*
X3827613Y43922*
X3827792Y44414*
X3827971Y45153*
Y46383*
X3827792Y47121*
X3827613Y47613*
X3827255Y48105*
X3826897Y48351*
X3826181*
X3830834D02*
Y43184D01*
X3829581Y48351D02*
X3832087D01*
X3834950D02*
Y43184D01*
X3833697Y48351D02*
X3836203D01*
X3838887D02*
X3838529Y48105D01*
X3838171Y47613*
X3837992Y47121*
X3837813Y46383*
Y45153*
X3837992Y44414*
X3838171Y43922*
X3838529Y43430*
X3838887Y43184*
X3839603*
X3839961Y43430*
X3840319Y43922*
X3840497Y44414*
X3840676Y45153*
Y46383*
X3840497Y47121*
X3840319Y47613*
X3839961Y48105*
X3839603Y48351*
X3838887*
X3842287D02*
Y43184D01*
Y48351D02*
X3843719Y43184D01*
X3845150Y48351D02*
X3843719Y43184D01*
X3845150Y48351D02*
Y43184D01*
X3771063Y60162D02*
X3772495Y54995D01*
X3773926Y60162D02*
X3772495Y54995D01*
X3777684Y58440D02*
Y54995D01*
Y57702D02*
X3777326Y58194D01*
X3776969Y58440*
X3776432*
X3776074Y58194*
X3775716Y57702*
X3775537Y56964*
Y56471*
X3775716Y55733*
X3776074Y55241*
X3776432Y54995*
X3776969*
X3777326Y55241*
X3777684Y55733*
X3779295Y60162D02*
Y54995D01*
X3780906Y60162D02*
X3781084Y59916D01*
X3781263Y60162*
X3781084Y60408*
X3780906Y60162*
X3781084Y58440D02*
Y54995D01*
X3785021Y60162D02*
Y54995D01*
Y57702D02*
X3784664Y58194D01*
X3784306Y58440*
X3783769*
X3783411Y58194*
X3783053Y57702*
X3782874Y56964*
Y56471*
X3783053Y55733*
X3783411Y55241*
X3783769Y54995*
X3784306*
X3784664Y55241*
X3785021Y55733*
X3788780Y58440D02*
Y54995D01*
Y57702D02*
X3788422Y58194D01*
X3788064Y58440*
X3787527*
X3787169Y58194*
X3786811Y57702*
X3786632Y56964*
Y56471*
X3786811Y55733*
X3787169Y55241*
X3787527Y54995*
X3788064*
X3788422Y55241*
X3788780Y55733*
X3790927Y60162D02*
Y55979D01*
X3791106Y55241*
X3791464Y54995*
X3791822*
X3790390Y58440D02*
X3791643D01*
X3793432Y60162D02*
X3793611Y59916D01*
X3793790Y60162*
X3793611Y60408*
X3793432Y60162*
X3793611Y58440D02*
Y54995D01*
X3796296Y58440D02*
X3795938Y58194D01*
X3795580Y57702*
X3795401Y56964*
Y56471*
X3795580Y55733*
X3795938Y55241*
X3796296Y54995*
X3796832*
X3796832D02*
X3797190Y55241D01*
X3797548Y55733*
X3797727Y56471*
Y56964*
X3797548Y57702*
X3797190Y58194*
X3796832Y58440*
X3796832D02*
X3796296D01*
X3799338D02*
Y54995D01*
Y57456D02*
X3799875Y58194D01*
X3800233Y58440*
X3800770*
X3801127Y58194*
X3801306Y57456*
Y54995*
X3807212Y58440D02*
X3807033Y58194D01*
X3807212Y57948*
X3807391Y58194*
X3807212Y58440*
Y55487D02*
X3807033Y55241D01*
X3807212Y54995*
X3807391Y55241*
X3807212Y55487*
X3771063Y71973D02*
Y66806D01*
Y71973D02*
X3772316D01*
X3772853Y71727*
X3773210Y71235*
X3773389Y70743*
X3773568Y70005*
Y68775*
X3773389Y68036*
X3773210Y67544*
X3772853Y67052*
X3772316Y66806*
X3771063*
X3775179Y68775D02*
X3777326D01*
Y69267*
X3777147Y69759*
X3776969Y70005*
X3776611Y70251*
X3776074*
X3775716Y70005*
X3775358Y69513*
X3775179Y68775*
Y68282*
X3775358Y67544*
X3775716Y67052*
X3776074Y66806*
X3776611*
X3776969Y67052*
X3777326Y67544*
X3775537Y70743D02*
X3776969Y71481D01*
X3780727Y69513D02*
X3780548Y70005D01*
X3780011Y70251*
X3779474*
X3778937Y70005*
X3778758Y69513*
X3778937Y69021*
X3779295Y68775*
X3780190Y68529*
X3780548Y68282*
X3780727Y67790*
Y67544*
X3780548Y67052*
X3780011Y66806*
X3779474*
X3778937Y67052*
X3778758Y67544*
X3782337Y71973D02*
X3782516Y71727D01*
X3782695Y71973*
X3782516Y72219*
X3782337Y71973*
X3782516Y70251D02*
Y66806D01*
X3786453Y70251D02*
Y66314D01*
X3786274Y65576*
X3786095Y65330*
X3785737Y65084*
X3785200*
X3784843Y65330*
X3786453Y69513D02*
X3786095Y70005D01*
X3785737Y70251*
X3785200*
X3784843Y70005*
X3784485Y69513*
X3784306Y68775*
Y68282*
X3784485Y67544*
X3784843Y67052*
X3785200Y66806*
X3785737*
X3786095Y67052*
X3786453Y67544*
X3788064Y70251D02*
Y66806D01*
Y69267D02*
X3788601Y70005D01*
X3788958Y70251*
X3789495*
X3789853Y70005*
X3790032Y69267*
Y66806*
X3793790Y70251D02*
Y66806D01*
Y69513D02*
X3793432Y70005D01*
X3793074Y70251*
X3792538*
X3792180Y70005*
X3791822Y69513*
X3791643Y68775*
Y68282*
X3791822Y67544*
X3792180Y67052*
X3792538Y66806*
X3793074*
X3793432Y67052*
X3793790Y67544*
X3795938Y71973D02*
Y67790D01*
X3796117Y67052*
X3796475Y66806*
X3796832*
X3795401Y70251D02*
X3796654D01*
X3798443Y71973D02*
X3798622Y71727D01*
X3798801Y71973*
X3798622Y72219*
X3798443Y71973*
X3798622Y70251D02*
Y66806D01*
X3801306Y70251D02*
X3800948Y70005D01*
X3800591Y69513*
X3800412Y68775*
Y68282*
X3800591Y67544*
X3800948Y67052*
X3801306Y66806*
X3801843*
X3802201Y67052*
X3802559Y67544*
X3802738Y68282*
Y68775*
X3802559Y69513*
X3802201Y70005*
X3801843Y70251*
X3801306*
X3804349D02*
Y66806D01*
Y69267D02*
X3804885Y70005D01*
X3805243Y70251*
X3805780*
X3806138Y70005*
X3806317Y69267*
Y66806*
X3812223Y70251D02*
X3812044Y70005D01*
X3812223Y69759*
X3812402Y70005*
X3812223Y70251*
Y67298D02*
X3812044Y67052D01*
X3812223Y66806*
X3812402Y67052*
X3812223Y67298*
X3822244Y60162D02*
Y54995D01*
Y60162D02*
X3823855D01*
X3824392Y59916*
X3824571Y59670*
X3824749Y59178*
Y58686*
X3824571Y58194*
X3824392Y57948*
X3823855Y57702*
X3822244D02*
X3823855D01*
X3824392Y57456*
X3824571Y57210*
X3824749Y56718*
Y55979*
X3824571Y55487*
X3824392Y55241*
X3823855Y54995*
X3822244*
X3826539Y55487D02*
X3826360Y55241D01*
X3826539Y54995*
X3826718Y55241*
X3826539Y55487*
X3835129Y58932D02*
X3834950Y59424D01*
X3834592Y59916*
X3834234Y60162*
X3833518*
X3833160Y59916*
X3832802Y59424*
X3832623Y58932*
X3832445Y58194*
Y56964*
X3832623Y56225*
X3832802Y55733*
X3833160Y55241*
X3833518Y54995*
X3834234*
X3834592Y55241*
X3834950Y55733*
X3835129Y56225*
X3836739Y60162D02*
Y54995D01*
Y57456D02*
X3837276Y58194D01*
X3837634Y58440*
X3838171*
X3838529Y58194*
X3838708Y57456*
Y54995*
X3840319Y60162D02*
X3840497Y59916D01*
X3840676Y60162*
X3840497Y60408*
X3840319Y60162*
X3840497Y58440D02*
Y54995D01*
X3842287Y58440D02*
Y54995D01*
Y56964D02*
X3842466Y57702D01*
X3842824Y58194*
X3843182Y58440*
X3843719*
X3846224D02*
X3845866Y58194D01*
X3845508Y57702*
X3845329Y56964*
Y56471*
X3845508Y55733*
X3845866Y55241*
X3846224Y54995*
X3846761*
X3847119Y55241*
X3847477Y55733*
X3847656Y56471*
Y56964*
X3847477Y57702*
X3847119Y58194*
X3846761Y58440*
X3846224*
X3849266D02*
Y54995D01*
Y57456D02*
X3849803Y58194D01*
X3850161Y58440*
X3850698*
X3851056Y58194*
X3851235Y57456*
Y54995*
X3861077Y59178D02*
X3861435Y59424D01*
X3861972Y60162*
Y54995*
X3863762Y58932D02*
Y59178D01*
X3863941Y59670*
X3864120Y59916*
X3864477Y60162*
X3865193*
X3865551Y59916*
X3865730Y59670*
X3865909Y59178*
Y58686*
X3865730Y58194*
X3865372Y57456*
X3863583Y54995*
X3866088*
X3870920Y61147D02*
X3867699Y53273D01*
X3873604Y60162D02*
X3873067Y59916D01*
X3872709Y59178*
X3872530Y57948*
Y57210*
X3872709Y55979*
X3873067Y55241*
X3873604Y54995*
X3873962*
X3874499Y55241*
X3874857Y55979*
X3875036Y57210*
Y57948*
X3874857Y59178*
X3874499Y59916*
X3873962Y60162*
X3873604*
X3876825Y58932D02*
Y59178D01*
X3877004Y59670*
X3877183Y59916*
X3877541Y60162*
X3878257*
X3878615Y59916*
X3878794Y59670*
X3878973Y59178*
Y58686*
X3878794Y58194*
X3878436Y57456*
X3876646Y54995*
X3879152*
X3883984Y61147D02*
X3880762Y53273D01*
X3885773Y58932D02*
Y59178D01*
X3885952Y59670*
X3886131Y59916*
X3886489Y60162*
X3887205*
X3887563Y59916*
X3887742Y59670*
X3887921Y59178*
Y58686*
X3887742Y58194*
X3887384Y57456*
X3885594Y54995*
X3888099*
X3890784Y60162D02*
X3890247Y59916D01*
X3889889Y59178*
X3889710Y57948*
Y57210*
X3889889Y55979*
X3890247Y55241*
X3890784Y54995*
X3891142*
X3891679Y55241*
X3892037Y55979*
X3892215Y57210*
Y57948*
X3892037Y59178*
X3891679Y59916*
X3891142Y60162*
X3890784*
X3893826Y59178D02*
X3894184Y59424D01*
X3894721Y60162*
Y54995*
X3898479Y59424D02*
X3898300Y59916D01*
X3897763Y60162*
X3897405*
X3896868Y59916*
X3896510Y59178*
X3896331Y57948*
Y56718*
X3896510Y55733*
X3896868Y55241*
X3897405Y54995*
X3897584*
X3898121Y55241*
X3898479Y55733*
X3898658Y56471*
Y56718*
X3898479Y57456*
X3898121Y57948*
X3897584Y58194*
X3897405*
X3896868Y57948*
X3896510Y57456*
X3896331Y56718*
X3823318Y71973D02*
X3822960Y71727D01*
X3822602Y71235*
X3822423Y70743*
X3822244Y70005*
Y68775*
X3822423Y68036*
X3822602Y67544*
X3822960Y67052*
X3823318Y66806*
X3824034*
X3824392Y67052*
X3824749Y67544*
X3824928Y68036*
X3825107Y68775*
Y70005*
X3824928Y70743*
X3824749Y71235*
X3824392Y71727*
X3824034Y71973*
X3823318*
X3826718Y70251D02*
Y65084D01*
Y69513D02*
X3827076Y70005D01*
X3827434Y70251*
X3827971*
X3828329Y70005*
X3828686Y69513*
X3828865Y68775*
Y68282*
X3828686Y67544*
X3828329Y67052*
X3827971Y66806*
X3827434*
X3827076Y67052*
X3826718Y67544*
X3831013Y71973D02*
Y67790D01*
X3831192Y67052*
X3831550Y66806*
X3831908*
X3830476Y70251D02*
X3831729D01*
X3834413D02*
X3834055Y70005D01*
X3833697Y69513*
X3833518Y68775*
Y68282*
X3833697Y67544*
X3834055Y67052*
X3834413Y66806*
X3834950*
X3835308Y67052*
X3835666Y67544*
X3835845Y68282*
Y68775*
X3835666Y69513*
X3835308Y70005*
X3834950Y70251*
X3834413*
X3841571Y71973D02*
X3843003Y66806D01*
X3844435Y71973D02*
X3843003Y66806D01*
X3847119Y71973D02*
X3846582Y71727D01*
X3846224Y70989*
X3846045Y69759*
Y69021*
X3846224Y67790*
X3846582Y67052*
X3847119Y66806*
X3847477*
X3848014Y67052*
X3848372Y67790*
X3848550Y69021*
Y69759*
X3848372Y70989*
X3848014Y71727*
X3847477Y71973*
X3847119*
X3850161Y70989D02*
X3850519Y71235D01*
X3851056Y71973*
Y66806*
G54D217*
G54D431*
X3478413Y59882D03*
X3461878D03*
X3470146D03*
G74*
X0Y0D02*
M02*
